<svg width="150" height="90" viewBox="0 0 150 90" fill="none" xmlns="http://www.w3.org/2000/svg">
<path d="M2.33667 87.2197C2.49162 87.2197 2.62996 87.1893 2.75171 87.1284C2.87345 87.0675 2.9703 86.9818 3.04224 86.8711C3.11694 86.7604 3.15706 86.6318 3.1626 86.4851H4.19604C4.19051 86.7895 4.10474 87.062 3.93872 87.3027C3.77271 87.5435 3.55135 87.7344 3.27466 87.8755C3.00073 88.0138 2.6936 88.083 2.35327 88.083C2.00741 88.083 1.70581 88.0249 1.44849 87.9087C1.19116 87.7925 0.976725 87.6306 0.805176 87.4231C0.636393 87.2156 0.509115 86.9749 0.42334 86.7009C0.340332 86.427 0.298828 86.1337 0.298828 85.821V85.6882C0.298828 85.3756 0.340332 85.0823 0.42334 84.8083C0.509115 84.5344 0.636393 84.2937 0.805176 84.0862C0.976725 83.8787 1.19116 83.7168 1.44849 83.6006C1.70581 83.4844 2.00602 83.4263 2.34912 83.4263C2.71159 83.4263 3.02979 83.4968 3.30371 83.6379C3.5804 83.7791 3.79622 83.9783 3.95117 84.2356C4.10889 84.4929 4.19051 84.7959 4.19604 85.1445H3.1626C3.15706 84.984 3.12109 84.8402 3.05469 84.7129C2.98828 84.5856 2.89421 84.4832 2.77246 84.4058C2.65072 84.3283 2.50269 84.2896 2.32837 84.2896C2.14299 84.2896 1.98804 84.3283 1.86353 84.4058C1.74178 84.4832 1.64632 84.5898 1.57715 84.7253C1.51074 84.8582 1.4637 85.0076 1.43604 85.1736C1.41113 85.3368 1.39868 85.5084 1.39868 85.6882V85.821C1.39868 86.0037 1.41113 86.178 1.43604 86.344C1.4637 86.51 1.51074 86.6594 1.57715 86.7922C1.64632 86.9223 1.74178 87.026 1.86353 87.1035C1.98804 87.181 2.14575 87.2197 2.33667 87.2197ZM4.73145 85.8003V85.7131C4.73145 85.3839 4.77848 85.0809 4.87256 84.8042C4.96663 84.5247 5.1036 84.2826 5.28345 84.0779C5.4633 83.8731 5.68327 83.714 5.94336 83.6006C6.20345 83.4844 6.49951 83.4263 6.83154 83.4263C7.16911 83.4263 7.46794 83.4844 7.72803 83.6006C7.99089 83.714 8.21224 83.8731 8.39209 84.0779C8.57194 84.2826 8.7089 84.5247 8.80298 84.8042C8.89705 85.0809 8.94409 85.3839 8.94409 85.7131V85.8003C8.94409 86.1268 8.89705 86.4298 8.80298 86.7092C8.7089 86.9859 8.57194 87.228 8.39209 87.4355C8.21224 87.6403 7.99227 87.7994 7.73218 87.9128C7.47209 88.0263 7.17464 88.083 6.83984 88.083C6.50781 88.083 6.21037 88.0263 5.94751 87.9128C5.68465 87.7994 5.4633 87.6403 5.28345 87.4355C5.1036 87.228 4.96663 86.9859 4.87256 86.7092C4.77848 86.4298 4.73145 86.1268 4.73145 85.8003ZM5.82715 85.7131V85.8003C5.82715 85.9967 5.84652 86.1807 5.88525 86.3523C5.92399 86.5238 5.98348 86.6746 6.06372 86.8047C6.14396 86.9347 6.24772 87.0371 6.375 87.1118C6.50505 87.1838 6.65999 87.2197 6.83984 87.2197C7.01693 87.2197 7.16911 87.1838 7.29639 87.1118C7.42367 87.0371 7.52743 86.9347 7.60767 86.8047C7.69067 86.6746 7.75155 86.5238 7.79028 86.3523C7.82902 86.1807 7.84839 85.9967 7.84839 85.8003V85.7131C7.84839 85.5194 7.82902 85.3382 7.79028 85.1694C7.75155 84.9979 7.69067 84.8471 7.60767 84.717C7.52743 84.5842 7.42228 84.4805 7.29224 84.4058C7.16496 84.3283 7.01139 84.2896 6.83154 84.2896C6.65446 84.2896 6.50228 84.3283 6.375 84.4058C6.24772 84.4805 6.14396 84.5842 6.06372 84.717C5.98348 84.8471 5.92399 84.9979 5.88525 85.1694C5.84652 85.3382 5.82715 85.5194 5.82715 85.7131ZM10.8159 84.468V88H9.72021V83.5093H10.7495L10.8159 84.468ZM10.6416 85.5928H10.3179C10.3206 85.2663 10.3649 84.9702 10.4507 84.7046C10.5365 84.439 10.6568 84.2107 10.8118 84.0198C10.9695 83.8289 11.1562 83.6822 11.3721 83.5798C11.5879 83.4775 11.8286 83.4263 12.0942 83.4263C12.3101 83.4263 12.5051 83.4567 12.6794 83.5176C12.8538 83.5785 13.0032 83.6753 13.1277 83.8081C13.255 83.9409 13.3518 84.1152 13.4182 84.3311C13.4874 84.5441 13.522 84.807 13.522 85.1196V88H12.418V85.1113C12.418 84.9066 12.3875 84.7447 12.3267 84.6257C12.2686 84.5068 12.1828 84.4224 12.0693 84.3726C11.9587 84.3228 11.8217 84.2979 11.6584 84.2979C11.4897 84.2979 11.3416 84.3324 11.2144 84.4016C11.0898 84.468 10.9847 84.5607 10.8989 84.6797C10.8159 84.7987 10.7523 84.9356 10.708 85.0906C10.6637 85.2455 10.6416 85.4129 10.6416 85.5928ZM15.925 88H14.821V83.0942C14.821 82.7567 14.8861 82.4731 15.0161 82.2434C15.1462 82.011 15.3315 81.8353 15.5723 81.7163C15.813 81.5973 16.0966 81.5378 16.4231 81.5378C16.531 81.5378 16.6334 81.5448 16.7302 81.5586C16.8298 81.5724 16.9281 81.5918 17.0249 81.6167L17.0042 82.4509C16.9516 82.4371 16.8935 82.4274 16.8298 82.4219C16.769 82.4163 16.7012 82.4136 16.6265 82.4136C16.4771 82.4136 16.3498 82.4399 16.2446 82.4924C16.1395 82.545 16.0592 82.6225 16.0039 82.7249C15.9513 82.8245 15.925 82.9476 15.925 83.0942V88ZM16.834 83.5093V84.2979H14.1445V83.5093H16.834ZM17.3154 85.8003V85.7131C17.3154 85.3839 17.3625 85.0809 17.4565 84.8042C17.5506 84.5247 17.6876 84.2826 17.8674 84.0779C18.0473 83.8731 18.2673 83.714 18.5273 83.6006C18.7874 83.4844 19.0835 83.4263 19.4155 83.4263C19.7531 83.4263 20.0519 83.4844 20.312 83.6006C20.5749 83.714 20.7962 83.8731 20.9761 84.0779C21.1559 84.2826 21.2929 84.5247 21.387 84.8042C21.481 85.0809 21.5281 85.3839 21.5281 85.7131V85.8003C21.5281 86.1268 21.481 86.4298 21.387 86.7092C21.2929 86.9859 21.1559 87.228 20.9761 87.4355C20.7962 87.6403 20.5763 87.7994 20.3162 87.9128C20.0561 88.0263 19.7586 88.083 19.4238 88.083C19.0918 88.083 18.7944 88.0263 18.5315 87.9128C18.2686 87.7994 18.0473 87.6403 17.8674 87.4355C17.6876 87.228 17.5506 86.9859 17.4565 86.7092C17.3625 86.4298 17.3154 86.1268 17.3154 85.8003ZM18.4111 85.7131V85.8003C18.4111 85.9967 18.4305 86.1807 18.4692 86.3523C18.508 86.5238 18.5675 86.6746 18.6477 86.8047C18.7279 86.9347 18.8317 87.0371 18.959 87.1118C19.089 87.1838 19.244 87.2197 19.4238 87.2197C19.6009 87.2197 19.7531 87.1838 19.8804 87.1118C20.0076 87.0371 20.1114 86.9347 20.1917 86.8047C20.2747 86.6746 20.3355 86.5238 20.3743 86.3523C20.413 86.1807 20.4324 85.9967 20.4324 85.8003V85.7131C20.4324 85.5194 20.413 85.3382 20.3743 85.1694C20.3355 84.9979 20.2747 84.8471 20.1917 84.717C20.1114 84.5842 20.0063 84.4805 19.8762 84.4058C19.7489 84.3283 19.5954 84.2896 19.4155 84.2896C19.2384 84.2896 19.0863 84.3283 18.959 84.4058C18.8317 84.4805 18.7279 84.5842 18.6477 84.717C18.5675 84.8471 18.508 84.9979 18.4692 85.1694C18.4305 85.3382 18.4111 85.5194 18.4111 85.7131ZM23.4207 84.4265V88H22.325V83.5093H23.3625L23.4207 84.4265ZM24.7861 83.4802L24.7695 84.5012C24.7087 84.4902 24.6395 84.4819 24.562 84.4763C24.4873 84.4708 24.4167 84.468 24.3503 84.468C24.1816 84.468 24.0335 84.4915 23.9062 84.5386C23.779 84.5828 23.6724 84.6479 23.5867 84.7336C23.5037 84.8194 23.44 84.9246 23.3958 85.0491C23.3515 85.1708 23.3266 85.3092 23.321 85.4641L23.0845 85.4351C23.0845 85.1501 23.1135 84.8858 23.1716 84.6423C23.2297 84.3988 23.3141 84.1858 23.4248 84.0032C23.5355 83.8206 23.6738 83.6794 23.8398 83.5798C24.0086 83.4775 24.2023 83.4263 24.4209 83.4263C24.4818 83.4263 24.5468 83.4318 24.616 83.4429C24.6879 83.4512 24.7446 83.4636 24.7861 83.4802ZM27.7205 83.5093V84.2979H25.1472V83.5093H27.7205ZM25.8362 82.4053H26.936V86.7051C26.936 86.8379 26.954 86.9403 26.99 87.0122C27.026 87.0841 27.0799 87.1326 27.1519 87.1575C27.2238 87.1824 27.3096 87.1948 27.4092 87.1948C27.4811 87.1948 27.5475 87.1907 27.6084 87.1824C27.6693 87.1741 27.7205 87.1658 27.762 87.1575L27.7661 87.9792C27.6748 88.0097 27.571 88.0346 27.4548 88.054C27.3414 88.0733 27.2127 88.083 27.0688 88.083C26.8226 88.083 26.6068 88.0415 26.4214 87.9585C26.236 87.8727 26.0921 87.7358 25.9897 87.5476C25.8874 87.3567 25.8362 87.1049 25.8362 86.7922V82.4053ZM29.4844 87.0122L29.4761 87.7717C29.4761 88.0678 29.4028 88.368 29.2561 88.6724C29.1095 88.9767 28.9199 89.2285 28.6875 89.4277L28.1064 89.1082C28.1812 88.9836 28.2503 88.8577 28.314 88.7305C28.3804 88.6032 28.4329 88.4648 28.4717 88.3154C28.5132 88.1688 28.5339 88.0042 28.5339 87.8215V87.0122H29.4844ZM35.0376 86.7715C35.0376 86.6774 35.0127 86.593 34.9629 86.5183C34.9131 86.4436 34.819 86.3758 34.6807 86.3149C34.5451 86.2513 34.3459 86.1918 34.083 86.1365C33.8506 86.0867 33.6361 86.0244 33.4397 85.9497C33.2432 85.875 33.0745 85.7851 32.9333 85.6799C32.7922 85.572 32.6816 85.4461 32.6013 85.3022C32.5238 85.1556 32.4851 84.9868 32.4851 84.7959C32.4851 84.6105 32.5252 84.4362 32.6055 84.2729C32.6857 84.1069 32.8019 83.9617 32.9541 83.8372C33.1063 83.7099 33.2917 83.6103 33.5103 83.5383C33.7288 83.4636 33.9751 83.4263 34.249 83.4263C34.6309 83.4263 34.9587 83.4885 35.2327 83.613C35.5094 83.7375 35.721 83.9091 35.8677 84.1277C36.0143 84.3435 36.0876 84.587 36.0876 84.8582H34.9919C34.9919 84.7392 34.9643 84.6313 34.9089 84.5344C34.8564 84.4376 34.7747 84.3601 34.6641 84.302C34.5534 84.2411 34.4137 84.2107 34.2449 84.2107C34.0927 84.2107 33.964 84.2356 33.8589 84.2854C33.7565 84.3352 33.679 84.4002 33.6265 84.4805C33.5739 84.5607 33.5476 84.6493 33.5476 84.7461C33.5476 84.818 33.5614 84.8831 33.5891 84.9412C33.6195 84.9965 33.668 85.0477 33.7344 85.0947C33.8008 85.1418 33.8907 85.1847 34.0042 85.2234C34.1204 85.2621 34.2629 85.2995 34.4316 85.3354C34.7664 85.4019 35.0583 85.4904 35.3074 85.6011C35.5592 85.709 35.7556 85.8529 35.8967 86.0327C36.0378 86.2126 36.1084 86.4422 36.1084 86.7217C36.1084 86.9209 36.0655 87.1035 35.9797 87.2695C35.894 87.4328 35.7694 87.5753 35.6062 87.697C35.443 87.8188 35.2479 87.9142 35.021 87.9834C34.7941 88.0498 34.5382 88.083 34.2532 88.083C33.8409 88.083 33.4923 88.0097 33.2073 87.863C32.9223 87.7136 32.7065 87.5255 32.5598 87.2986C32.4132 87.0689 32.3398 86.831 32.3398 86.5847H33.3899C33.3982 86.759 33.4452 86.8988 33.531 87.0039C33.6168 87.109 33.7247 87.1851 33.8547 87.2322C33.9875 87.2764 34.1273 87.2986 34.2739 87.2986C34.4399 87.2986 34.5797 87.2764 34.6931 87.2322C34.8066 87.1851 34.8923 87.1229 34.9504 87.0454C35.0085 86.9652 35.0376 86.8739 35.0376 86.7715ZM38.9597 88.083C38.6194 88.083 38.3136 88.0277 38.0425 87.917C37.7713 87.8063 37.5403 87.6528 37.3494 87.4563C37.1612 87.2571 37.016 87.026 36.9136 86.7632C36.814 86.4976 36.7642 86.2126 36.7642 85.9082V85.7422C36.7642 85.3963 36.814 85.0823 36.9136 84.8C37.0132 84.5151 37.1543 84.2702 37.3369 84.0654C37.5195 83.8607 37.7381 83.703 37.9927 83.5923C38.2472 83.4816 38.5281 83.4263 38.8352 83.4263C39.1534 83.4263 39.4342 83.4802 39.6777 83.5881C39.9212 83.6933 40.1246 83.8427 40.2878 84.0364C40.4511 84.2301 40.5742 84.4625 40.6572 84.7336C40.7402 85.002 40.7817 85.2995 40.7817 85.626V86.0867H37.2622V85.3313H39.7026V85.2483C39.6971 85.074 39.6639 84.9149 39.603 84.771C39.5422 84.6243 39.4481 84.5081 39.3208 84.4224C39.1935 84.3338 39.0289 84.2896 38.8269 84.2896C38.6637 84.2896 38.5212 84.3255 38.3994 84.3975C38.2804 84.4666 38.1808 84.5662 38.1006 84.6963C38.0231 84.8236 37.965 84.9757 37.9263 85.1528C37.8875 85.3299 37.8682 85.5264 37.8682 85.7422V85.9082C37.8682 86.0964 37.8931 86.2707 37.9429 86.4312C37.9954 86.5916 38.0715 86.7314 38.1711 86.8503C38.2735 86.9666 38.3953 87.0579 38.5364 87.1243C38.6803 87.1879 38.8435 87.2197 39.0261 87.2197C39.2558 87.2197 39.4633 87.1755 39.6487 87.0869C39.8368 86.9956 40.0001 86.8614 40.1384 86.6843L40.6904 87.2571C40.5964 87.3954 40.4691 87.5282 40.3086 87.6555C40.1509 87.7828 39.96 87.8866 39.7358 87.9668C39.5117 88.0443 39.253 88.083 38.9597 88.083ZM38.1919 82.8826L39.0054 81.6208H40.2173L39.0842 82.8826H38.1919ZM43.3591 87.2197C43.5141 87.2197 43.6524 87.1893 43.7742 87.1284C43.8959 87.0675 43.9928 86.9818 44.0647 86.8711C44.1394 86.7604 44.1795 86.6318 44.1851 86.4851H45.2185C45.213 86.7895 45.1272 87.062 44.9612 87.3027C44.7952 87.5435 44.5738 87.7344 44.2971 87.8755C44.0232 88.0138 43.7161 88.083 43.3757 88.083C43.0299 88.083 42.7283 88.0249 42.4709 87.9087C42.2136 87.7925 41.9992 87.6306 41.8276 87.4231C41.6589 87.2156 41.5316 86.9749 41.4458 86.7009C41.3628 86.427 41.3213 86.1337 41.3213 85.821V85.6882C41.3213 85.3756 41.3628 85.0823 41.4458 84.8083C41.5316 84.5344 41.6589 84.2937 41.8276 84.0862C41.9992 83.8787 42.2136 83.7168 42.4709 83.6006C42.7283 83.4844 43.0285 83.4263 43.3716 83.4263C43.734 83.4263 44.0522 83.4968 44.3262 83.6379C44.6029 83.7791 44.8187 83.9783 44.9736 84.2356C45.1313 84.4929 45.213 84.7959 45.2185 85.1445H44.1851C44.1795 84.984 44.1436 84.8402 44.0771 84.7129C44.0107 84.5856 43.9167 84.4832 43.7949 84.4058C43.6732 84.3283 43.5251 84.2896 43.3508 84.2896C43.1654 84.2896 43.0105 84.3283 42.886 84.4058C42.7642 84.4832 42.6688 84.5898 42.5996 84.7253C42.5332 84.8582 42.4862 85.0076 42.4585 85.1736C42.4336 85.3368 42.4211 85.5084 42.4211 85.6882V85.821C42.4211 86.0037 42.4336 86.178 42.4585 86.344C42.4862 86.51 42.5332 86.6594 42.5996 86.7922C42.6688 86.9223 42.7642 87.026 42.886 87.1035C43.0105 87.181 43.1682 87.2197 43.3591 87.2197ZM48.6218 86.9333V83.5093H49.7258V88H48.6882L48.6218 86.9333ZM48.7629 86.0037L49.1033 85.9954C49.1033 86.297 49.0701 86.575 49.0037 86.8296C48.9373 87.0841 48.8335 87.3055 48.6924 87.4937C48.554 87.679 48.3783 87.8243 48.1653 87.9294C47.9522 88.0318 47.7004 88.083 47.4099 88.083C47.1886 88.083 46.9866 88.0526 46.804 87.9917C46.6213 87.9281 46.4636 87.8298 46.3308 87.697C46.2008 87.5614 46.0998 87.3885 46.0278 87.1782C45.9559 86.9652 45.9199 86.7092 45.9199 86.4104V83.5093H47.0156V86.4187C47.0156 86.5681 47.0322 86.6926 47.0654 86.7922C47.1014 86.8918 47.1498 86.9735 47.2107 87.0371C47.2743 87.098 47.3477 87.1423 47.4307 87.1699C47.5164 87.1948 47.6077 87.2073 47.7046 87.2073C47.9702 87.2073 48.1791 87.1547 48.3313 87.0496C48.4862 86.9417 48.5969 86.7978 48.6633 86.6179C48.7297 86.4353 48.7629 86.2306 48.7629 86.0037ZM51.7927 84.4265V88H50.697V83.5093H51.7346L51.7927 84.4265ZM53.1582 83.4802L53.1416 84.5012C53.0807 84.4902 53.0116 84.4819 52.9341 84.4763C52.8594 84.4708 52.7888 84.468 52.7224 84.468C52.5536 84.468 52.4056 84.4915 52.2783 84.5386C52.151 84.5828 52.0445 84.6479 51.9587 84.7336C51.8757 84.8194 51.8121 84.9246 51.7678 85.0491C51.7236 85.1708 51.6986 85.3092 51.6931 85.4641L51.4565 85.4351C51.4565 85.1501 51.4856 84.8858 51.5437 84.6423C51.6018 84.3988 51.6862 84.1858 51.7969 84.0032C51.9076 83.8206 52.0459 83.6794 52.2119 83.5798C52.3807 83.4775 52.5744 83.4263 52.793 83.4263C52.8538 83.4263 52.9189 83.4318 52.988 83.4429C53.06 83.4512 53.1167 83.4636 53.1582 83.4802ZM54.9221 83.5093V88H53.8223V83.5093H54.9221ZM53.7476 82.3347C53.7476 82.1715 53.8029 82.0359 53.9136 81.928C54.027 81.8201 54.1792 81.7661 54.3701 81.7661C54.561 81.7661 54.7118 81.8201 54.8225 81.928C54.936 82.0359 54.9927 82.1715 54.9927 82.3347C54.9927 82.4952 54.936 82.6294 54.8225 82.7373C54.7118 82.8452 54.561 82.8992 54.3701 82.8992C54.1792 82.8992 54.027 82.8452 53.9136 82.7373C53.8029 82.6294 53.7476 82.4952 53.7476 82.3347ZM58.093 83.5093V84.2979H55.5198V83.5093H58.093ZM56.2087 82.4053H57.3086V86.7051C57.3086 86.8379 57.3266 86.9403 57.3625 87.0122C57.3985 87.0841 57.4525 87.1326 57.5244 87.1575C57.5964 87.1824 57.6821 87.1948 57.7817 87.1948C57.8537 87.1948 57.9201 87.1907 57.981 87.1824C58.0418 87.1741 58.093 87.1658 58.1345 87.1575L58.1387 87.9792C58.0474 88.0097 57.9436 88.0346 57.8274 88.054C57.7139 88.0733 57.5853 88.083 57.4414 88.083C57.1951 88.083 56.9793 88.0415 56.7939 87.9585C56.6086 87.8727 56.4647 87.7358 56.3623 87.5476C56.2599 87.3567 56.2087 87.1049 56.2087 86.7922V82.4053ZM60.8406 88.083C60.5002 88.083 60.1945 88.0277 59.9233 87.917C59.6522 87.8063 59.4211 87.6528 59.2302 87.4563C59.0421 87.2571 58.8968 87.026 58.7944 86.7632C58.6948 86.4976 58.645 86.2126 58.645 85.9082V85.7422C58.645 85.3963 58.6948 85.0823 58.7944 84.8C58.894 84.5151 59.0352 84.2702 59.2178 84.0654C59.4004 83.8607 59.619 83.703 59.8735 83.5923C60.1281 83.4816 60.4089 83.4263 60.7161 83.4263C61.0343 83.4263 61.3151 83.4802 61.5586 83.5881C61.8021 83.6933 62.0055 83.8427 62.1687 84.0364C62.3319 84.2301 62.4551 84.4625 62.5381 84.7336C62.6211 85.002 62.6626 85.2995 62.6626 85.626V86.0867H59.1431V85.3313H61.5835V85.2483C61.578 85.074 61.5448 84.9149 61.4839 84.771C61.423 84.6243 61.3289 84.5081 61.2017 84.4224C61.0744 84.3338 60.9097 84.2896 60.7078 84.2896C60.5445 84.2896 60.402 84.3255 60.2803 84.3975C60.1613 84.4666 60.0617 84.5662 59.9814 84.6963C59.904 84.8236 59.8459 84.9757 59.8071 85.1528C59.7684 85.3299 59.749 85.5264 59.749 85.7422V85.9082C59.749 86.0964 59.7739 86.2707 59.8237 86.4312C59.8763 86.5916 59.9524 86.7314 60.052 86.8503C60.1544 86.9666 60.2761 87.0579 60.4172 87.1243C60.5611 87.1879 60.7244 87.2197 60.907 87.2197C61.1366 87.2197 61.3442 87.1755 61.5295 87.0869C61.7177 86.9956 61.8809 86.8614 62.0193 86.6843L62.5713 87.2571C62.4772 87.3954 62.3499 87.5282 62.1895 87.6555C62.0317 87.7828 61.8408 87.8866 61.6167 87.9668C61.3926 88.0443 61.1339 88.083 60.8406 88.083ZM60.0728 82.8826L60.8862 81.6208H62.0981L60.9651 82.8826H60.0728ZM67.531 88.083C67.1907 88.083 66.8849 88.0277 66.6138 87.917C66.3426 87.8063 66.1116 87.6528 65.9207 87.4563C65.7325 87.2571 65.5872 87.026 65.4849 86.7632C65.3853 86.4976 65.3354 86.2126 65.3354 85.9082V85.7422C65.3354 85.3963 65.3853 85.0823 65.4849 84.8C65.5845 84.5151 65.7256 84.2702 65.9082 84.0654C66.0908 83.8607 66.3094 83.703 66.564 83.5923C66.8185 83.4816 67.0994 83.4263 67.4065 83.4263C67.7247 83.4263 68.0055 83.4802 68.249 83.5881C68.4925 83.6933 68.6959 83.8427 68.8591 84.0364C69.0224 84.2301 69.1455 84.4625 69.2285 84.7336C69.3115 85.002 69.353 85.2995 69.353 85.626V86.0867H65.8335V85.3313H68.2739V85.2483C68.2684 85.074 68.2352 84.9149 68.1743 84.771C68.1134 84.6243 68.0194 84.5081 67.8921 84.4224C67.7648 84.3338 67.6002 84.2896 67.3982 84.2896C67.2349 84.2896 67.0924 84.3255 66.9707 84.3975C66.8517 84.4666 66.7521 84.5662 66.6719 84.6963C66.5944 84.8236 66.5363 84.9757 66.4976 85.1528C66.4588 85.3299 66.4395 85.5264 66.4395 85.7422V85.9082C66.4395 86.0964 66.4644 86.2707 66.5142 86.4312C66.5667 86.5916 66.6428 86.7314 66.7424 86.8503C66.8448 86.9666 66.9666 87.0579 67.1077 87.1243C67.2515 87.1879 67.4148 87.2197 67.5974 87.2197C67.8271 87.2197 68.0346 87.1755 68.22 87.0869C68.4081 86.9956 68.5714 86.8614 68.7097 86.6843L69.2617 87.2571C69.1676 87.3954 69.0404 87.5282 68.8799 87.6555C68.7222 87.7828 68.5312 87.8866 68.3071 87.9668C68.083 88.0443 67.8243 88.083 67.531 88.083ZM72.2126 83.5093V84.2979H69.6394V83.5093H72.2126ZM70.3284 82.4053H71.4282V86.7051C71.4282 86.8379 71.4462 86.9403 71.4822 87.0122C71.5181 87.0841 71.5721 87.1326 71.644 87.1575C71.716 87.1824 71.8018 87.1948 71.9014 87.1948C71.9733 87.1948 72.0397 87.1907 72.1006 87.1824C72.1615 87.1741 72.2126 87.1658 72.2542 87.1575L72.2583 87.9792C72.167 88.0097 72.0632 88.0346 71.947 88.054C71.8336 88.0733 71.7049 88.083 71.561 88.083C71.3148 88.083 71.099 88.0415 70.9136 87.9585C70.7282 87.8727 70.5843 87.7358 70.4819 87.5476C70.3796 87.3567 70.3284 87.1049 70.3284 86.7922V82.4053ZM75.0557 81.625H76.1555V87.0081L76.0476 88H75.0557V81.625ZM79.0442 85.709V85.7961C79.0442 86.1309 79.0068 86.4381 78.9321 86.7175C78.8602 86.997 78.7509 87.2391 78.6042 87.4438C78.4576 87.6458 78.275 87.8035 78.0564 87.917C77.8406 88.0277 77.5874 88.083 77.2969 88.083C77.0202 88.083 76.7795 88.0291 76.5747 87.9211C76.3727 87.8132 76.2026 87.6611 76.0642 87.4646C75.9259 87.2654 75.8152 87.0316 75.7322 86.7632C75.6492 86.492 75.5869 86.196 75.5454 85.875V85.6384C75.5869 85.3147 75.6492 85.0186 75.7322 84.7502C75.8152 84.4819 75.9259 84.248 76.0642 84.0488C76.2026 83.8496 76.3727 83.696 76.5747 83.5881C76.7767 83.4802 77.0146 83.4263 77.2886 83.4263C77.5819 83.4263 77.8378 83.483 78.0564 83.5964C78.2778 83.7071 78.4604 83.8648 78.6042 84.0696C78.7509 84.2716 78.8602 84.5123 78.9321 84.7917C79.0068 85.0684 79.0442 85.3742 79.0442 85.709ZM77.9443 85.7961V85.709C77.9443 85.5181 77.9291 85.3382 77.8987 85.1694C77.8682 84.9979 77.8184 84.8471 77.7493 84.717C77.6801 84.587 77.586 84.4846 77.467 84.4099C77.3481 84.3352 77.1986 84.2979 77.0188 84.2979C76.8472 84.2979 76.7006 84.3269 76.5789 84.385C76.4599 84.4431 76.3603 84.5234 76.28 84.6257C76.2026 84.7281 76.1417 84.8485 76.0974 84.9868C76.0559 85.1252 76.0282 85.2746 76.0144 85.4351V86.0825C76.0338 86.2956 76.0794 86.4879 76.1514 86.6594C76.2233 86.8282 76.3298 86.9624 76.4709 87.062C76.6148 87.1616 76.8002 87.2114 77.0271 87.2114C77.2042 87.2114 77.3522 87.1768 77.4712 87.1077C77.5902 87.0357 77.6842 86.9361 77.7534 86.8088C77.8226 86.6788 77.871 86.528 77.8987 86.3564C77.9291 86.1849 77.9443 85.9981 77.9443 85.7961ZM81.0032 83.5093V88H79.9033V83.5093H81.0032ZM79.8286 82.3347C79.8286 82.1715 79.884 82.0359 79.9946 81.928C80.1081 81.8201 80.2603 81.7661 80.4512 81.7661C80.6421 81.7661 80.7929 81.8201 80.9036 81.928C81.017 82.0359 81.0737 82.1715 81.0737 82.3347C81.0737 82.4952 81.017 82.6294 80.9036 82.7373C80.7929 82.8452 80.6421 82.8992 80.4512 82.8992C80.2603 82.8992 80.1081 82.8452 79.9946 82.7373C79.884 82.6294 79.8286 82.4952 79.8286 82.3347ZM84.0662 88.083C83.7258 88.083 83.4201 88.0277 83.1489 87.917C82.8778 87.8063 82.6467 87.6528 82.4558 87.4563C82.2677 87.2571 82.1224 87.026 82.02 86.7632C81.9204 86.4976 81.8706 86.2126 81.8706 85.9082V85.7422C81.8706 85.3963 81.9204 85.0823 82.02 84.8C82.1196 84.5151 82.2607 84.2702 82.4434 84.0654C82.626 83.8607 82.8446 83.703 83.0991 83.5923C83.3537 83.4816 83.6345 83.4263 83.9417 83.4263C84.2598 83.4263 84.5407 83.4802 84.7842 83.5881C85.0277 83.6933 85.231 83.8427 85.3943 84.0364C85.5575 84.2301 85.6807 84.4625 85.7637 84.7336C85.8467 85.002 85.8882 85.2995 85.8882 85.626V86.0867H82.3687V85.3313H84.8091V85.2483C84.8035 85.074 84.7703 84.9149 84.7095 84.771C84.6486 84.6243 84.5545 84.5081 84.4272 84.4224C84.3 84.3338 84.1353 84.2896 83.9333 84.2896C83.7701 84.2896 83.6276 84.3255 83.5059 84.3975C83.3869 84.4666 83.2873 84.5662 83.207 84.6963C83.1296 84.8236 83.0715 84.9757 83.0327 85.1528C82.994 85.3299 82.9746 85.5264 82.9746 85.7422V85.9082C82.9746 86.0964 82.9995 86.2707 83.0493 86.4312C83.1019 86.5916 83.178 86.7314 83.2776 86.8503C83.38 86.9666 83.5017 87.0579 83.6428 87.1243C83.7867 87.1879 83.95 87.2197 84.1326 87.2197C84.3622 87.2197 84.5697 87.1755 84.7551 87.0869C84.9433 86.9956 85.1065 86.8614 85.2449 86.6843L85.7969 87.2571C85.7028 87.3954 85.5755 87.5282 85.415 87.6555C85.2573 87.7828 85.0664 87.8866 84.8423 87.9668C84.6182 88.0443 84.3595 88.083 84.0662 88.083ZM87.6978 84.468V88H86.6021V83.5093H87.6313L87.6978 84.468ZM87.5234 85.5928H87.1997C87.2025 85.2663 87.2467 84.9702 87.3325 84.7046C87.4183 84.439 87.5387 84.2107 87.6936 84.0198C87.8513 83.8289 88.0381 83.6822 88.2539 83.5798C88.4697 83.4775 88.7104 83.4263 88.9761 83.4263C89.1919 83.4263 89.387 83.4567 89.5613 83.5176C89.7356 83.5785 89.885 83.6753 90.0095 83.8081C90.1368 83.9409 90.2336 84.1152 90.3 84.3311C90.3692 84.5441 90.4038 84.807 90.4038 85.1196V88H89.2998V85.1113C89.2998 84.9066 89.2694 84.7447 89.2085 84.6257C89.1504 84.5068 89.0646 84.4224 88.9512 84.3726C88.8405 84.3228 88.7035 84.2979 88.5403 84.2979C88.3715 84.2979 88.2235 84.3324 88.0962 84.4016C87.9717 84.468 87.8665 84.5607 87.7808 84.6797C87.6978 84.7987 87.6341 84.9356 87.5898 85.0906C87.5456 85.2455 87.5234 85.4129 87.5234 85.5928ZM93.554 84.9785V85.8459H91.2837V84.9785H93.554ZM96.509 88.083C96.1687 88.083 95.863 88.0277 95.5918 87.917C95.3206 87.8063 95.0896 87.6528 94.8987 87.4563C94.7105 87.2571 94.5653 87.026 94.4629 86.7632C94.3633 86.4976 94.3135 86.2126 94.3135 85.9082V85.7422C94.3135 85.3963 94.3633 85.0823 94.4629 84.8C94.5625 84.5151 94.7036 84.2702 94.8862 84.0654C95.0688 83.8607 95.2874 83.703 95.542 83.5923C95.7965 83.4816 96.0774 83.4263 96.3845 83.4263C96.7027 83.4263 96.9836 83.4802 97.2271 83.5881C97.4705 83.6933 97.6739 83.8427 97.8372 84.0364C98.0004 84.2301 98.1235 84.4625 98.2065 84.7336C98.2896 85.002 98.3311 85.2995 98.3311 85.626V86.0867H94.8115V85.3313H97.252V85.2483C97.2464 85.074 97.2132 84.9149 97.1523 84.771C97.0915 84.6243 96.9974 84.5081 96.8701 84.4224C96.7428 84.3338 96.5782 84.2896 96.3762 84.2896C96.213 84.2896 96.0705 84.3255 95.9487 84.3975C95.8298 84.4666 95.7301 84.5662 95.6499 84.6963C95.5724 84.8236 95.5143 84.9757 95.4756 85.1528C95.4368 85.3299 95.4175 85.5264 95.4175 85.7422V85.9082C95.4175 86.0964 95.4424 86.2707 95.4922 86.4312C95.5448 86.5916 95.6208 86.7314 95.7205 86.8503C95.8228 86.9666 95.9446 87.0579 96.0857 87.1243C96.2296 87.1879 96.3928 87.2197 96.5754 87.2197C96.8051 87.2197 97.0126 87.1755 97.198 87.0869C97.3861 86.9956 97.5494 86.8614 97.6877 86.6843L98.2397 87.2571C98.1457 87.3954 98.0184 87.5282 97.8579 87.6555C97.7002 87.7828 97.5093 87.8866 97.2852 87.9668C97.061 88.0443 96.8023 88.083 96.509 88.083ZM96.5962 81.6208L97.7998 82.7705V82.8203H96.9199L96.2766 82.1895L95.6375 82.8203H94.77V82.7622L95.957 81.6208H96.5962ZM101.191 83.5093V84.2979H98.6174V83.5093H101.191ZM99.3064 82.4053H100.406V86.7051C100.406 86.8379 100.424 86.9403 100.46 87.0122C100.496 87.0841 100.55 87.1326 100.622 87.1575C100.694 87.1824 100.78 87.1948 100.879 87.1948C100.951 87.1948 101.018 87.1907 101.079 87.1824C101.139 87.1741 101.191 87.1658 101.232 87.1575L101.236 87.9792C101.145 88.0097 101.041 88.0346 100.925 88.054C100.812 88.0733 100.683 88.083 100.539 88.083C100.293 88.083 100.077 88.0415 99.8916 87.9585C99.7062 87.8727 99.5623 87.7358 99.46 87.5476C99.3576 87.3567 99.3064 87.1049 99.3064 86.7922V82.4053ZM103.017 84.4265V88H101.921V83.5093H102.959L103.017 84.4265ZM104.382 83.4802L104.366 84.5012C104.305 84.4902 104.236 84.4819 104.158 84.4763C104.083 84.4708 104.013 84.468 103.947 84.468C103.778 84.468 103.63 84.4915 103.502 84.5386C103.375 84.5828 103.269 84.6479 103.183 84.7336C103.1 84.8194 103.036 84.9246 102.992 85.0491C102.948 85.1708 102.923 85.3092 102.917 85.4641L102.681 85.4351C102.681 85.1501 102.71 84.8858 102.768 84.6423C102.826 84.3988 102.91 84.1858 103.021 84.0032C103.132 83.8206 103.27 83.6794 103.436 83.5798C103.605 83.4775 103.799 83.4263 104.017 83.4263C104.078 83.4263 104.143 83.4318 104.212 83.4429C104.284 83.4512 104.341 83.4636 104.382 83.4802ZM106.918 88.083C106.578 88.083 106.272 88.0277 106.001 87.917C105.73 87.8063 105.499 87.6528 105.308 87.4563C105.12 87.2571 104.974 87.026 104.872 86.7632C104.772 86.4976 104.723 86.2126 104.723 85.9082V85.7422C104.723 85.3963 104.772 85.0823 104.872 84.8C104.972 84.5151 105.113 84.2702 105.295 84.0654C105.478 83.8607 105.697 83.703 105.951 83.5923C106.206 83.4816 106.487 83.4263 106.794 83.4263C107.112 83.4263 107.393 83.4802 107.636 83.5881C107.88 83.6933 108.083 83.8427 108.246 84.0364C108.41 84.2301 108.533 84.4625 108.616 84.7336C108.699 85.002 108.74 85.2995 108.74 85.626V86.0867H105.221V85.3313H107.661V85.2483C107.656 85.074 107.622 84.9149 107.562 84.771C107.501 84.6243 107.407 84.5081 107.279 84.4224C107.152 84.3338 106.987 84.2896 106.785 84.2896C106.622 84.2896 106.48 84.3255 106.358 84.3975C106.239 84.4666 106.139 84.5662 106.059 84.6963C105.982 84.8236 105.924 84.9757 105.885 85.1528C105.846 85.3299 105.827 85.5264 105.827 85.7422V85.9082C105.827 86.0964 105.852 86.2707 105.901 86.4312C105.954 86.5916 106.03 86.7314 106.13 86.8503C106.232 86.9666 106.354 87.0579 106.495 87.1243C106.639 87.1879 106.802 87.2197 106.985 87.2197C107.214 87.2197 107.422 87.1755 107.607 87.0869C107.795 86.9956 107.959 86.8614 108.097 86.6843L108.649 87.2571C108.555 87.3954 108.428 87.5282 108.267 87.6555C108.109 87.7828 107.918 87.8866 107.694 87.9668C107.47 88.0443 107.212 88.083 106.918 88.083ZM113.434 87.2197C113.589 87.2197 113.728 87.1893 113.849 87.1284C113.971 87.0675 114.068 86.9818 114.14 86.8711C114.215 86.7604 114.255 86.6318 114.26 86.4851H115.294C115.288 86.7895 115.202 87.062 115.036 87.3027C114.87 87.5435 114.649 87.7344 114.372 87.8755C114.098 88.0138 113.791 88.083 113.451 88.083C113.105 88.083 112.803 88.0249 112.546 87.9087C112.289 87.7925 112.074 87.6306 111.903 87.4231C111.734 87.2156 111.607 86.9749 111.521 86.7009C111.438 86.427 111.396 86.1337 111.396 85.821V85.6882C111.396 85.3756 111.438 85.0823 111.521 84.8083C111.607 84.5344 111.734 84.2937 111.903 84.0862C112.074 83.8787 112.289 83.7168 112.546 83.6006C112.803 83.4844 113.104 83.4263 113.447 83.4263C113.809 83.4263 114.127 83.4968 114.401 83.6379C114.678 83.7791 114.894 83.9783 115.049 84.2356C115.207 84.4929 115.288 84.7959 115.294 85.1445H114.26C114.255 84.984 114.219 84.8402 114.152 84.7129C114.086 84.5856 113.992 84.4832 113.87 84.4058C113.748 84.3283 113.6 84.2896 113.426 84.2896C113.241 84.2896 113.086 84.3283 112.961 84.4058C112.839 84.4832 112.744 84.5898 112.675 84.7253C112.608 84.8582 112.561 85.0076 112.534 85.1736C112.509 85.3368 112.496 85.5084 112.496 85.6882V85.821C112.496 86.0037 112.509 86.178 112.534 86.344C112.561 86.51 112.608 86.6594 112.675 86.7922C112.744 86.9223 112.839 87.026 112.961 87.1035C113.086 87.181 113.243 87.2197 113.434 87.2197ZM117.099 81.625V88H115.999V81.625H117.099ZM116.925 85.5928H116.601C116.601 85.2801 116.643 84.9924 116.726 84.7295C116.809 84.4666 116.926 84.2384 117.078 84.0447C117.231 83.8482 117.412 83.696 117.622 83.5881C117.835 83.4802 118.07 83.4263 118.328 83.4263C118.549 83.4263 118.75 83.4581 118.929 83.5217C119.112 83.5826 119.268 83.6808 119.398 83.8164C119.528 83.952 119.628 84.1291 119.697 84.3477C119.769 84.5635 119.805 84.8263 119.805 85.1362V88H118.701V85.1279C118.701 84.9204 118.671 84.7572 118.61 84.6382C118.549 84.5164 118.462 84.4293 118.348 84.3767C118.238 84.3241 118.101 84.2979 117.938 84.2979C117.76 84.2979 117.608 84.3324 117.481 84.4016C117.354 84.468 117.249 84.5607 117.166 84.6797C117.085 84.7987 117.024 84.9356 116.983 85.0906C116.944 85.2455 116.925 85.4129 116.925 85.5928ZM122.789 88.083C122.449 88.083 122.143 88.0277 121.872 87.917C121.601 87.8063 121.37 87.6528 121.179 87.4563C120.991 87.2571 120.846 87.026 120.743 86.7632C120.644 86.4976 120.594 86.2126 120.594 85.9082V85.7422C120.594 85.3963 120.644 85.0823 120.743 84.8C120.843 84.5151 120.984 84.2702 121.167 84.0654C121.349 83.8607 121.568 83.703 121.822 83.5923C122.077 83.4816 122.358 83.4263 122.665 83.4263C122.983 83.4263 123.264 83.4802 123.507 83.5881C123.751 83.6933 123.954 83.8427 124.117 84.0364C124.281 84.2301 124.404 84.4625 124.487 84.7336C124.57 85.002 124.611 85.2995 124.611 85.626V86.0867H121.092V85.3313H123.532V85.2483C123.527 85.074 123.493 84.9149 123.433 84.771C123.372 84.6243 123.278 84.5081 123.15 84.4224C123.023 84.3338 122.858 84.2896 122.656 84.2896C122.493 84.2896 122.351 84.3255 122.229 84.3975C122.11 84.4666 122.01 84.5662 121.93 84.6963C121.853 84.8236 121.795 84.9757 121.756 85.1528C121.717 85.3299 121.698 85.5264 121.698 85.7422V85.9082C121.698 86.0964 121.723 86.2707 121.772 86.4312C121.825 86.5916 121.901 86.7314 122.001 86.8503C122.103 86.9666 122.225 87.0579 122.366 87.1243C122.51 87.1879 122.673 87.2197 122.856 87.2197C123.085 87.2197 123.293 87.1755 123.478 87.0869C123.666 86.9956 123.83 86.8614 123.968 86.6843L124.52 87.2571C124.426 87.3954 124.299 87.5282 124.138 87.6555C123.98 87.7828 123.79 87.8866 123.565 87.9668C123.341 88.0443 123.083 88.083 122.789 88.083ZM128.865 87.1367V88H125.487V87.1367H128.865ZM128.787 84.165L125.898 88H125.176V87.3235L128.048 83.5093H128.787V84.165ZM128.384 83.5093V84.3767H125.234V83.5093H128.384ZM133.252 87.1699L134.298 83.5093H135.444L133.904 88H133.207L133.252 87.1699ZM132.489 83.5093L133.547 87.1782L133.584 88H132.883L131.339 83.5093H132.489ZM135.759 85.8003V85.7131C135.759 85.3839 135.806 85.0809 135.9 84.8042C135.994 84.5247 136.131 84.2826 136.311 84.0779C136.491 83.8731 136.711 83.714 136.971 83.6006C137.231 83.4844 137.527 83.4263 137.859 83.4263C138.197 83.4263 138.496 83.4844 138.756 83.6006C139.019 83.714 139.24 83.8731 139.42 84.0779C139.6 84.2826 139.737 84.5247 139.831 84.8042C139.925 85.0809 139.972 85.3839 139.972 85.7131V85.8003C139.972 86.1268 139.925 86.4298 139.831 86.7092C139.737 86.9859 139.6 87.228 139.42 87.4355C139.24 87.6403 139.02 87.7994 138.76 87.9128C138.5 88.0263 138.202 88.083 137.868 88.083C137.536 88.083 137.238 88.0263 136.975 87.9128C136.712 87.7994 136.491 87.6403 136.311 87.4355C136.131 87.228 135.994 86.9859 135.9 86.7092C135.806 86.4298 135.759 86.1268 135.759 85.8003ZM136.855 85.7131V85.8003C136.855 85.9967 136.874 86.1807 136.913 86.3523C136.952 86.5238 137.011 86.6746 137.092 86.8047C137.172 86.9347 137.276 87.0371 137.403 87.1118C137.533 87.1838 137.688 87.2197 137.868 87.2197C138.045 87.2197 138.197 87.1838 138.324 87.1118C138.451 87.0371 138.555 86.9347 138.635 86.8047C138.719 86.6746 138.779 86.5238 138.818 86.3523C138.857 86.1807 138.876 85.9967 138.876 85.8003V85.7131C138.876 85.5194 138.857 85.3382 138.818 85.1694C138.779 84.9979 138.719 84.8471 138.635 84.717C138.555 84.5842 138.45 84.4805 138.32 84.4058C138.193 84.3283 138.039 84.2896 137.859 84.2896C137.682 84.2896 137.53 84.3283 137.403 84.4058C137.276 84.4805 137.172 84.5842 137.092 84.717C137.011 84.8471 136.952 84.9979 136.913 85.1694C136.874 85.3382 136.855 85.5194 136.855 85.7131ZM143.442 86.9333V83.5093H144.546V88H143.508L143.442 86.9333ZM143.583 86.0037L143.923 85.9954C143.923 86.297 143.89 86.575 143.823 86.8296C143.757 87.0841 143.653 87.3055 143.512 87.4937C143.374 87.679 143.198 87.8243 142.985 87.9294C142.772 88.0318 142.52 88.083 142.23 88.083C142.008 88.083 141.806 88.0526 141.624 87.9917C141.441 87.9281 141.283 87.8298 141.151 87.697C141.021 87.5614 140.92 87.3885 140.848 87.1782C140.776 86.9652 140.74 86.7092 140.74 86.4104V83.5093H141.835V86.4187C141.835 86.5681 141.852 86.6926 141.885 86.7922C141.921 86.8918 141.97 86.9735 142.031 87.0371C142.094 87.098 142.167 87.1423 142.25 87.1699C142.336 87.1948 142.428 87.2073 142.524 87.2073C142.79 87.2073 142.999 87.1547 143.151 87.0496C143.306 86.9417 143.417 86.7978 143.483 86.6179C143.55 86.4353 143.583 86.2306 143.583 86.0037ZM147.986 86.7715C147.986 86.6774 147.961 86.593 147.912 86.5183C147.862 86.4436 147.768 86.3758 147.629 86.3149C147.494 86.2513 147.295 86.1918 147.032 86.1365C146.799 86.0867 146.585 86.0244 146.388 85.9497C146.192 85.875 146.023 85.7851 145.882 85.6799C145.741 85.572 145.63 85.4461 145.55 85.3022C145.473 85.1556 145.434 84.9868 145.434 84.7959C145.434 84.6105 145.474 84.4362 145.554 84.2729C145.634 84.1069 145.751 83.9617 145.903 83.8372C146.055 83.7099 146.24 83.6103 146.459 83.5383C146.678 83.4636 146.924 83.4263 147.198 83.4263C147.58 83.4263 147.907 83.4885 148.181 83.613C148.458 83.7375 148.67 83.9091 148.816 84.1277C148.963 84.3435 149.036 84.587 149.036 84.8582H147.941C147.941 84.7392 147.913 84.6313 147.858 84.5344C147.805 84.4376 147.723 84.3601 147.613 84.302C147.502 84.2411 147.362 84.2107 147.194 84.2107C147.041 84.2107 146.913 84.2356 146.808 84.2854C146.705 84.3352 146.628 84.4002 146.575 84.4805C146.523 84.5607 146.496 84.6493 146.496 84.7461C146.496 84.818 146.51 84.8831 146.538 84.9412C146.568 84.9965 146.617 85.0477 146.683 85.0947C146.75 85.1418 146.839 85.1847 146.953 85.2234C147.069 85.2621 147.212 85.2995 147.38 85.3354C147.715 85.4019 148.007 85.4904 148.256 85.6011C148.508 85.709 148.704 85.8529 148.845 86.0327C148.987 86.2126 149.057 86.4422 149.057 86.7217C149.057 86.9209 149.014 87.1035 148.928 87.2695C148.843 87.4328 148.718 87.5753 148.555 87.697C148.392 87.8188 148.197 87.9142 147.97 87.9834C147.743 88.0498 147.487 88.083 147.202 88.083C146.79 88.083 146.441 88.0097 146.156 87.863C145.871 87.7136 145.655 87.5255 145.509 87.2986C145.362 87.0689 145.289 86.831 145.289 86.5847H146.339C146.347 86.759 146.394 86.8988 146.48 87.0039C146.566 87.109 146.673 87.1851 146.803 87.2322C146.936 87.2764 147.076 87.2986 147.223 87.2986C147.389 87.2986 147.528 87.2764 147.642 87.2322C147.755 87.1851 147.841 87.1229 147.899 87.0454C147.957 86.9652 147.986 86.8739 147.986 86.7715Z" fill="white"/>
<path d="M3.56445 67.582V76H1.21094V65.4336H3.42773L3.56445 67.582ZM3.18359 70.3262L2.38281 70.3164C2.38281 69.5872 2.47396 68.9134 2.65625 68.2949C2.83854 67.6764 3.10547 67.1393 3.45703 66.6836C3.80859 66.2214 4.24479 65.8665 4.76562 65.6191C5.29297 65.3652 5.90169 65.2383 6.5918 65.2383C7.07357 65.2383 7.51302 65.3099 7.91016 65.4531C8.3138 65.5898 8.66211 65.8079 8.95508 66.1074C9.25456 66.4069 9.48242 66.791 9.63867 67.2598C9.80143 67.7285 9.88281 68.2949 9.88281 68.959V76H7.5293V69.1641C7.5293 68.6497 7.45117 68.2461 7.29492 67.9531C7.14518 67.6602 6.92708 67.4518 6.64062 67.3281C6.36068 67.1979 6.02539 67.1328 5.63477 67.1328C5.19206 67.1328 4.81445 67.2174 4.50195 67.3867C4.19596 67.556 3.94531 67.7871 3.75 68.0801C3.55469 68.373 3.41146 68.7116 3.32031 69.0957C3.22917 69.4798 3.18359 69.89 3.18359 70.3262ZM9.73633 69.7012L8.63281 69.9453C8.63281 69.3073 8.7207 68.7051 8.89648 68.1387C9.07878 67.5658 9.34245 67.0645 9.6875 66.6348C10.0391 66.1986 10.472 65.8568 10.9863 65.6094C11.5007 65.362 12.0898 65.2383 12.7539 65.2383C13.2943 65.2383 13.776 65.3132 14.1992 65.4629C14.6289 65.6061 14.9935 65.834 15.293 66.1465C15.5924 66.459 15.8203 66.8659 15.9766 67.3672C16.1328 67.862 16.2109 68.4609 16.2109 69.1641V76H13.8477V69.1543C13.8477 68.6204 13.7695 68.207 13.6133 67.9141C13.4635 67.6211 13.2487 67.4193 12.9688 67.3086C12.6888 67.1914 12.3535 67.1328 11.9629 67.1328C11.5983 67.1328 11.276 67.2012 10.9961 67.3379C10.7227 67.4681 10.4915 67.6536 10.3027 67.8945C10.1139 68.1289 9.9707 68.3991 9.87305 68.7051C9.7819 69.0111 9.73633 69.3431 9.73633 69.7012ZM21.1523 65.4336V76H18.7891V65.4336H21.1523ZM18.6328 62.6602C18.6328 62.3021 18.75 62.0059 18.9844 61.7715C19.2253 61.5306 19.5573 61.4102 19.9805 61.4102C20.3971 61.4102 20.7259 61.5306 20.9668 61.7715C21.2077 62.0059 21.3281 62.3021 21.3281 62.6602C21.3281 63.0117 21.2077 63.3047 20.9668 63.5391C20.7259 63.7734 20.3971 63.8906 19.9805 63.8906C19.5573 63.8906 19.2253 63.7734 18.9844 63.5391C18.75 63.3047 18.6328 63.0117 18.6328 62.6602ZM26.7188 61.7812V76H23.7891V61.7812H26.7188ZM35.2344 61.7812L29.5996 68.8027L26.3477 72.2988L25.8203 69.5254L28.0176 66.5176L31.6406 61.7812H35.2344ZM31.9043 76L27.7148 69.4277L29.8828 67.6113L35.3711 76H31.9043ZM42.0312 73.6172V68.9102C42.0312 68.5716 41.9759 68.2819 41.8652 68.041C41.7546 67.7936 41.582 67.6016 41.3477 67.4648C41.1198 67.3281 40.8236 67.2598 40.459 67.2598C40.1465 67.2598 39.8763 67.3151 39.6484 67.4258C39.4206 67.5299 39.2448 67.6829 39.1211 67.8848C38.9974 68.0801 38.9355 68.3112 38.9355 68.5781H36.123C36.123 68.1289 36.2272 67.7025 36.4355 67.2988C36.6439 66.8952 36.9466 66.5404 37.3438 66.2344C37.7409 65.9219 38.2129 65.6777 38.7598 65.502C39.3132 65.3262 39.9316 65.2383 40.6152 65.2383C41.4355 65.2383 42.1647 65.375 42.8027 65.6484C43.4408 65.9219 43.9421 66.332 44.3066 66.8789C44.6777 67.4258 44.8633 68.1094 44.8633 68.9297V73.4512C44.8633 74.0306 44.8991 74.5059 44.9707 74.877C45.0423 75.2415 45.1465 75.5605 45.2832 75.834V76H42.4414C42.3047 75.7135 42.2005 75.3555 42.1289 74.9258C42.0638 74.4896 42.0312 74.0534 42.0312 73.6172ZM42.4023 69.5645L42.4219 71.1562H40.8496C40.4785 71.1562 40.1562 71.1986 39.8828 71.2832C39.6094 71.3678 39.3848 71.4883 39.209 71.6445C39.0332 71.7943 38.903 71.9701 38.8184 72.1719C38.7402 72.3737 38.7012 72.5951 38.7012 72.8359C38.7012 73.0768 38.7565 73.2949 38.8672 73.4902C38.9779 73.679 39.1374 73.8288 39.3457 73.9395C39.554 74.0436 39.7982 74.0957 40.0781 74.0957C40.5013 74.0957 40.8691 74.0111 41.1816 73.8418C41.4941 73.6725 41.735 73.4642 41.9043 73.2168C42.0801 72.9694 42.1712 72.735 42.1777 72.5137L42.9199 73.7051C42.8158 73.972 42.6725 74.2487 42.4902 74.5352C42.3145 74.8216 42.0898 75.0918 41.8164 75.3457C41.543 75.5931 41.2142 75.7982 40.8301 75.9609C40.446 76.1172 39.9902 76.1953 39.4629 76.1953C38.7923 76.1953 38.1836 76.0618 37.6367 75.7949C37.0964 75.5215 36.6667 75.1471 36.3477 74.6719C36.0352 74.1901 35.8789 73.6432 35.8789 73.0312C35.8789 72.4779 35.9831 71.9863 36.1914 71.5566C36.3997 71.127 36.7057 70.7656 37.1094 70.4727C37.5195 70.1732 38.0306 69.9486 38.6426 69.7988C39.2546 69.6426 39.9642 69.5645 40.7715 69.5645H42.4023ZM55.4395 73.8027V76H47.4121V73.8027H55.4395ZM55.2832 67.0547L48.5449 76H46.6602V74.3301L53.3691 65.4336H55.2832V67.0547ZM54.2871 65.4336V67.6406H46.8164V65.4336H54.2871ZM62.9102 73.6172V68.9102C62.9102 68.5716 62.8548 68.2819 62.7441 68.041C62.6335 67.7936 62.4609 67.6016 62.2266 67.4648C61.9987 67.3281 61.7025 67.2598 61.3379 67.2598C61.0254 67.2598 60.7552 67.3151 60.5273 67.4258C60.2995 67.5299 60.1237 67.6829 60 67.8848C59.8763 68.0801 59.8145 68.3112 59.8145 68.5781H57.002C57.002 68.1289 57.1061 67.7025 57.3145 67.2988C57.5228 66.8952 57.8255 66.5404 58.2227 66.2344C58.6198 65.9219 59.0918 65.6777 59.6387 65.502C60.1921 65.3262 60.8105 65.2383 61.4941 65.2383C62.3145 65.2383 63.0436 65.375 63.6816 65.6484C64.3197 65.9219 64.821 66.332 65.1855 66.8789C65.5566 67.4258 65.7422 68.1094 65.7422 68.9297V73.4512C65.7422 74.0306 65.778 74.5059 65.8496 74.877C65.9212 75.2415 66.0254 75.5605 66.1621 75.834V76H63.3203C63.1836 75.7135 63.0794 75.3555 63.0078 74.9258C62.9427 74.4896 62.9102 74.0534 62.9102 73.6172ZM63.2812 69.5645L63.3008 71.1562H61.7285C61.3574 71.1562 61.0352 71.1986 60.7617 71.2832C60.4883 71.3678 60.2637 71.4883 60.0879 71.6445C59.9121 71.7943 59.7819 71.9701 59.6973 72.1719C59.6191 72.3737 59.5801 72.5951 59.5801 72.8359C59.5801 73.0768 59.6354 73.2949 59.7461 73.4902C59.8568 73.679 60.0163 73.8288 60.2246 73.9395C60.4329 74.0436 60.6771 74.0957 60.957 74.0957C61.3802 74.0957 61.748 74.0111 62.0605 73.8418C62.373 73.6725 62.6139 73.4642 62.7832 73.2168C62.959 72.9694 63.0501 72.735 63.0566 72.5137L63.7988 73.7051C63.6947 73.972 63.5514 74.2487 63.3691 74.5352C63.1934 74.8216 62.9688 75.0918 62.6953 75.3457C62.4219 75.5931 62.0931 75.7982 61.709 75.9609C61.3249 76.1172 60.8691 76.1953 60.3418 76.1953C59.6712 76.1953 59.0625 76.0618 58.5156 75.7949C57.9753 75.5215 57.5456 75.1471 57.2266 74.6719C56.9141 74.1901 56.7578 73.6432 56.7578 73.0312C56.7578 72.4779 56.862 71.9863 57.0703 71.5566C57.2786 71.127 57.5846 70.7656 57.9883 70.4727C58.3984 70.1732 58.9095 69.9486 59.5215 69.7988C60.1335 69.6426 60.8431 69.5645 61.6504 69.5645H63.2812ZM73.1152 68.8906V70.9316H67.7734V68.8906H73.1152ZM81.2988 73.1387C81.2988 72.9043 81.2402 72.6927 81.123 72.5039C81.0059 72.3086 80.7812 72.1328 80.4492 71.9766C80.1237 71.8203 79.6419 71.6771 79.0039 71.5469C78.444 71.4232 77.9297 71.2767 77.4609 71.1074C76.9987 70.9316 76.6016 70.7201 76.2695 70.4727C75.9375 70.2253 75.6803 69.9323 75.498 69.5938C75.3158 69.2552 75.2246 68.8646 75.2246 68.4219C75.2246 67.9922 75.319 67.5853 75.5078 67.2012C75.6966 66.8171 75.9668 66.4785 76.3184 66.1855C76.6699 65.8926 77.0964 65.6615 77.5977 65.4922C78.1055 65.3229 78.6719 65.2383 79.2969 65.2383C80.1823 65.2383 80.9408 65.388 81.5723 65.6875C82.2103 65.9805 82.6986 66.3809 83.0371 66.8887C83.3757 67.39 83.5449 67.9564 83.5449 68.5879H81.1914C81.1914 68.3079 81.1198 68.0475 80.9766 67.8066C80.8398 67.5592 80.6315 67.3607 80.3516 67.2109C80.0716 67.0547 79.7201 66.9766 79.2969 66.9766C78.8932 66.9766 78.5579 67.0417 78.291 67.1719C78.0306 67.2956 77.8353 67.4583 77.7051 67.6602C77.5814 67.862 77.5195 68.0833 77.5195 68.3242C77.5195 68.5 77.5521 68.6595 77.6172 68.8027C77.6888 68.9395 77.806 69.0664 77.9688 69.1836C78.1315 69.2943 78.3529 69.3984 78.6328 69.4961C78.9193 69.5938 79.2773 69.6882 79.707 69.7793C80.5143 69.9486 81.2077 70.1667 81.7871 70.4336C82.373 70.694 82.8223 71.0326 83.1348 71.4492C83.4473 71.8594 83.6035 72.3802 83.6035 73.0117C83.6035 73.4805 83.5026 73.9102 83.3008 74.3008C83.1055 74.6849 82.819 75.0202 82.4414 75.3066C82.0638 75.5866 81.6113 75.8047 81.084 75.9609C80.5632 76.1172 79.9772 76.1953 79.3262 76.1953C78.3691 76.1953 77.5586 76.026 76.8945 75.6875C76.2305 75.3424 75.7259 74.903 75.3809 74.3691C75.0423 73.8288 74.873 73.2689 74.873 72.6895H77.1484C77.1745 73.1257 77.2949 73.474 77.5098 73.7344C77.7311 73.9883 78.0046 74.1738 78.3301 74.291C78.6621 74.4017 79.0039 74.457 79.3555 74.457C79.7786 74.457 80.1335 74.4017 80.4199 74.291C80.7064 74.1738 80.9245 74.0176 81.0742 73.8223C81.224 73.6204 81.2988 73.3926 81.2988 73.1387ZM90.3223 76.1953C89.541 76.1953 88.8346 76.0684 88.2031 75.8145C87.5781 75.554 87.0443 75.1927 86.6016 74.7305C86.1654 74.2682 85.8301 73.7246 85.5957 73.0996C85.3613 72.4746 85.2441 71.8008 85.2441 71.0781V70.6875C85.2441 69.8607 85.3646 69.112 85.6055 68.4414C85.8464 67.7708 86.1816 67.1979 86.6113 66.7227C87.041 66.2409 87.5488 65.873 88.1348 65.6191C88.7207 65.3652 89.3555 65.2383 90.0391 65.2383C90.7943 65.2383 91.4551 65.3652 92.0215 65.6191C92.5879 65.873 93.0566 66.2311 93.4277 66.6934C93.8053 67.1491 94.0853 67.6927 94.2676 68.3242C94.4564 68.9557 94.5508 69.6523 94.5508 70.4141V71.4199H86.3867V69.7305H92.2266V69.5449C92.2135 69.1217 92.1289 68.7246 91.9727 68.3535C91.8229 67.9824 91.5918 67.6829 91.2793 67.4551C90.9668 67.2272 90.5501 67.1133 90.0293 67.1133C89.6387 67.1133 89.2904 67.1979 88.9844 67.3672C88.6849 67.5299 88.4342 67.7676 88.2324 68.0801C88.0306 68.3926 87.8743 68.7702 87.7637 69.2129C87.6595 69.6491 87.6074 70.1406 87.6074 70.6875V71.0781C87.6074 71.5404 87.6693 71.9701 87.793 72.3672C87.9232 72.7578 88.112 73.0996 88.3594 73.3926C88.6068 73.6855 88.9062 73.9167 89.2578 74.0859C89.6094 74.2487 90.0098 74.3301 90.459 74.3301C91.0254 74.3301 91.5299 74.2161 91.9727 73.9883C92.4154 73.7604 92.7995 73.4382 93.125 73.0215L94.3652 74.2227C94.1374 74.5547 93.8411 74.8737 93.4766 75.1797C93.112 75.4792 92.666 75.7233 92.1387 75.9121C91.6178 76.1009 91.0124 76.1953 90.3223 76.1953ZM98.75 67.4453V76H96.3965V65.4336H98.6426L98.75 67.4453ZM101.982 65.3652L101.963 67.5527C101.82 67.5267 101.663 67.5072 101.494 67.4941C101.331 67.4811 101.169 67.4746 101.006 67.4746C100.602 67.4746 100.247 67.5332 99.9414 67.6504C99.6354 67.7611 99.3783 67.9238 99.1699 68.1387C98.9681 68.347 98.8118 68.6009 98.7012 68.9004C98.5905 69.1999 98.5254 69.5352 98.5059 69.9062L97.9688 69.9453C97.9688 69.2812 98.0339 68.666 98.1641 68.0996C98.2943 67.5332 98.4896 67.0352 98.75 66.6055C99.0169 66.1758 99.349 65.8405 99.7461 65.5996C100.15 65.3587 100.615 65.2383 101.143 65.2383C101.286 65.2383 101.439 65.2513 101.602 65.2773C101.771 65.3034 101.898 65.3327 101.982 65.3652ZM107.07 74.1348L109.658 65.4336H112.1L108.428 76H106.904L107.07 74.1348ZM105.088 65.4336L107.725 74.1738L107.852 76H106.328L102.637 65.4336H105.088ZM116.074 65.4336V76H113.711V65.4336H116.074ZM113.555 62.6602C113.555 62.3021 113.672 62.0059 113.906 61.7715C114.147 61.5306 114.479 61.4102 114.902 61.4102C115.319 61.4102 115.648 61.5306 115.889 61.7715C116.13 62.0059 116.25 62.3021 116.25 62.6602C116.25 63.0117 116.13 63.3047 115.889 63.5391C115.648 63.7734 115.319 63.8906 114.902 63.8906C114.479 63.8906 114.147 63.7734 113.906 63.5391C113.672 63.3047 113.555 63.0117 113.555 62.6602ZM122.969 74.3203C123.353 74.3203 123.698 74.2454 124.004 74.0957C124.316 73.9395 124.567 73.7246 124.756 73.4512C124.951 73.1777 125.059 72.862 125.078 72.5039H127.295C127.282 73.1875 127.08 73.8092 126.689 74.3691C126.299 74.929 125.781 75.375 125.137 75.707C124.492 76.0326 123.779 76.1953 122.998 76.1953C122.191 76.1953 121.488 76.0586 120.889 75.7852C120.29 75.5052 119.792 75.1211 119.395 74.6328C118.997 74.1445 118.698 73.5814 118.496 72.9434C118.301 72.3053 118.203 71.6217 118.203 70.8926V70.5508C118.203 69.8216 118.301 69.138 118.496 68.5C118.698 67.8555 118.997 67.2891 119.395 66.8008C119.792 66.3125 120.29 65.9316 120.889 65.6582C121.488 65.3783 122.188 65.2383 122.988 65.2383C123.835 65.2383 124.577 65.4076 125.215 65.7461C125.853 66.0781 126.354 66.5436 126.719 67.1426C127.09 67.735 127.282 68.4251 127.295 69.2129H125.078C125.059 68.8223 124.961 68.4707 124.785 68.1582C124.616 67.8392 124.375 67.5853 124.062 67.3965C123.757 67.2077 123.389 67.1133 122.959 67.1133C122.484 67.1133 122.09 67.2109 121.777 67.4062C121.465 67.5951 121.221 67.8555 121.045 68.1875C120.869 68.513 120.742 68.8809 120.664 69.291C120.592 69.6947 120.557 70.1146 120.557 70.5508V70.8926C120.557 71.3288 120.592 71.752 120.664 72.1621C120.736 72.5723 120.859 72.9401 121.035 73.2656C121.217 73.5846 121.465 73.8418 121.777 74.0371C122.09 74.2259 122.487 74.3203 122.969 74.3203ZM133.76 76.1953C132.979 76.1953 132.272 76.0684 131.641 75.8145C131.016 75.554 130.482 75.1927 130.039 74.7305C129.603 74.2682 129.268 73.7246 129.033 73.0996C128.799 72.4746 128.682 71.8008 128.682 71.0781V70.6875C128.682 69.8607 128.802 69.112 129.043 68.4414C129.284 67.7708 129.619 67.1979 130.049 66.7227C130.479 66.2409 130.986 65.873 131.572 65.6191C132.158 65.3652 132.793 65.2383 133.477 65.2383C134.232 65.2383 134.893 65.3652 135.459 65.6191C136.025 65.873 136.494 66.2311 136.865 66.6934C137.243 67.1491 137.523 67.6927 137.705 68.3242C137.894 68.9557 137.988 69.6523 137.988 70.4141V71.4199H129.824V69.7305H135.664V69.5449C135.651 69.1217 135.566 68.7246 135.41 68.3535C135.26 67.9824 135.029 67.6829 134.717 67.4551C134.404 67.2272 133.988 67.1133 133.467 67.1133C133.076 67.1133 132.728 67.1979 132.422 67.3672C132.122 67.5299 131.872 67.7676 131.67 68.0801C131.468 68.3926 131.312 68.7702 131.201 69.2129C131.097 69.6491 131.045 70.1406 131.045 70.6875V71.0781C131.045 71.5404 131.107 71.9701 131.23 72.3672C131.361 72.7578 131.549 73.0996 131.797 73.3926C132.044 73.6855 132.344 73.9167 132.695 74.0859C133.047 74.2487 133.447 74.3301 133.896 74.3301C134.463 74.3301 134.967 74.2161 135.41 73.9883C135.853 73.7604 136.237 73.4382 136.562 73.0215L137.803 74.2227C137.575 74.5547 137.279 74.8737 136.914 75.1797C136.549 75.4792 136.104 75.7233 135.576 75.9121C135.055 76.1009 134.45 76.1953 133.76 76.1953ZM145.752 73.1387C145.752 72.9043 145.693 72.6927 145.576 72.5039C145.459 72.3086 145.234 72.1328 144.902 71.9766C144.577 71.8203 144.095 71.6771 143.457 71.5469C142.897 71.4232 142.383 71.2767 141.914 71.1074C141.452 70.9316 141.055 70.7201 140.723 70.4727C140.391 70.2253 140.133 69.9323 139.951 69.5938C139.769 69.2552 139.678 68.8646 139.678 68.4219C139.678 67.9922 139.772 67.5853 139.961 67.2012C140.15 66.8171 140.42 66.4785 140.771 66.1855C141.123 65.8926 141.549 65.6615 142.051 65.4922C142.559 65.3229 143.125 65.2383 143.75 65.2383C144.635 65.2383 145.394 65.388 146.025 65.6875C146.663 65.9805 147.152 66.3809 147.49 66.8887C147.829 67.39 147.998 67.9564 147.998 68.5879H145.645C145.645 68.3079 145.573 68.0475 145.43 67.8066C145.293 67.5592 145.085 67.3607 144.805 67.2109C144.525 67.0547 144.173 66.9766 143.75 66.9766C143.346 66.9766 143.011 67.0417 142.744 67.1719C142.484 67.2956 142.288 67.4583 142.158 67.6602C142.035 67.862 141.973 68.0833 141.973 68.3242C141.973 68.5 142.005 68.6595 142.07 68.8027C142.142 68.9395 142.259 69.0664 142.422 69.1836C142.585 69.2943 142.806 69.3984 143.086 69.4961C143.372 69.5938 143.73 69.6882 144.16 69.7793C144.967 69.9486 145.661 70.1667 146.24 70.4336C146.826 70.694 147.275 71.0326 147.588 71.4492C147.9 71.8594 148.057 72.3802 148.057 73.0117C148.057 73.4805 147.956 73.9102 147.754 74.3008C147.559 74.6849 147.272 75.0202 146.895 75.3066C146.517 75.5866 146.064 75.8047 145.537 75.9609C145.016 76.1172 144.43 76.1953 143.779 76.1953C142.822 76.1953 142.012 76.026 141.348 75.6875C140.684 75.3424 140.179 74.903 139.834 74.3691C139.495 73.8288 139.326 73.2689 139.326 72.6895H141.602C141.628 73.1257 141.748 73.474 141.963 73.7344C142.184 73.9883 142.458 74.1738 142.783 74.291C143.115 74.4017 143.457 74.457 143.809 74.457C144.232 74.457 144.587 74.4017 144.873 74.291C145.16 74.1738 145.378 74.0176 145.527 73.8223C145.677 73.6204 145.752 73.3926 145.752 73.1387Z" fill="white"/>
<circle cx="72.5" cy="26.5" r="21.5" fill="white" stroke="white" stroke-width="10"/>
<path d="M61 40.5219V21.9019H63C68.5228 21.9019 73 26.379 73 31.9019V42.9019" stroke="#087DAF" stroke-width="1.5" stroke-linecap="round"/>
<path d="M84 40.5219V21.9019H83C77.4772 21.9019 73 26.379 73 31.9019V42.9019" stroke="#087DAF" stroke-width="1.5" stroke-linecap="round"/>
<rect x="80" y="14" width="2" height="3" fill="#087DAF"/>
<path d="M72.4024 10L73.4846 11.6137L51.0822 26.6375C50.4845 25.7463 50.7225 24.5392 51.6137 23.9415L72.4024 10Z" fill="#087DAF"/>
<path d="M72.5976 10L71.5154 11.6137L93.9178 26.6375C94.5155 25.7463 94.2775 24.5392 93.3863 23.9415L72.5976 10Z" fill="#087DAF"/>
</svg>
