<svg width="63" height="63" viewBox="0 0 63 63" fill="none" xmlns="http://www.w3.org/2000/svg">
<path d="M31.5 63C27.1425 63 23.0475 62.1731 19.215 60.5194C15.3825 58.8656 12.0487 56.6213 9.21375 53.7863C6.37875 50.9512 4.13438 47.6175 2.48062 43.785C0.826875 39.9525 0 35.8575 0 31.5C0 27.1425 0.826875 23.0475 2.48062 19.215C4.13438 15.3825 6.37875 12.0487 9.21375 9.21375C12.0487 6.37875 15.3825 4.13438 19.215 2.48062C23.0475 0.826875 27.1425 0 31.5 0C35.8575 0 39.9525 0.826875 43.785 2.48062C47.6175 4.13438 50.9512 6.37875 53.7863 9.21375C56.6213 12.0487 58.8656 15.3825 60.5194 19.215C62.1731 23.0475 63 27.1425 63 31.5C63 32.9175 62.9212 34.3088 62.7637 35.6737C62.6063 37.0387 62.3438 38.3775 61.9762 39.69C61.2412 38.85 60.3881 38.1413 59.4169 37.5638C58.4456 36.9862 57.3825 36.5925 56.2275 36.3825C56.385 35.595 56.5031 34.7944 56.5819 33.9806C56.6606 33.1669 56.7 32.34 56.7 31.5C56.7 24.465 54.2588 18.5063 49.3763 13.6237C44.4938 8.74125 38.535 6.3 31.5 6.3C24.465 6.3 18.5063 8.74125 13.6237 13.6237C8.74125 18.5063 6.3 24.465 6.3 31.5C6.3 38.535 8.74125 44.4938 13.6237 49.3763C18.5063 54.2588 24.465 56.7 31.5 56.7C34.1775 56.7 36.7369 56.3062 39.1781 55.5187C41.6194 54.7313 43.8638 53.6287 45.9113 52.2113C46.5412 53.1037 47.3156 53.8913 48.2344 54.5737C49.1531 55.2562 50.1375 55.7812 51.1875 56.1488C48.51 58.3013 45.5044 59.9813 42.1706 61.1888C38.8369 62.3962 35.28 63 31.5 63ZM54.3375 50.4C53.235 50.4 52.3031 50.0194 51.5419 49.2581C50.7806 48.4969 50.4 47.565 50.4 46.4625C50.4 45.36 50.7806 44.4281 51.5419 43.6669C52.3031 42.9056 53.235 42.525 54.3375 42.525C55.44 42.525 56.3719 42.9056 57.1331 43.6669C57.8944 44.4281 58.275 45.36 58.275 46.4625C58.275 47.565 57.8944 48.4969 57.1331 49.2581C56.3719 50.0194 55.44 50.4 54.3375 50.4ZM41.895 46.305L28.35 32.76V15.75H34.65V30.24L46.305 41.895L41.895 46.305Z" fill="#E75D0E"/>
</svg>
