<svg width="216" height="53" viewBox="0 0 216 53" fill="none" xmlns="http://www.w3.org/2000/svg">
<path d="M68.3367 35.2197C68.4916 35.2197 68.63 35.1893 68.7517 35.1284C68.8735 35.0675 68.9703 34.9818 69.0422 34.8711C69.1169 34.7604 69.1571 34.6318 69.1626 34.4851H70.196C70.1905 34.7895 70.1047 35.062 69.9387 35.3027C69.7727 35.5435 69.5514 35.7344 69.2747 35.8755C69.0007 36.0138 68.6936 36.083 68.3533 36.083C68.0074 36.083 67.7058 36.0249 67.4485 35.9087C67.1912 35.7925 66.9767 35.6306 66.8052 35.4231C66.6364 35.2156 66.5091 34.9749 66.4233 34.7009C66.3403 34.427 66.2988 34.1337 66.2988 33.821V33.6882C66.2988 33.3756 66.3403 33.0823 66.4233 32.8083C66.5091 32.5344 66.6364 32.2937 66.8052 32.0862C66.9767 31.8787 67.1912 31.7168 67.4485 31.6006C67.7058 31.4844 68.006 31.4263 68.3491 31.4263C68.7116 31.4263 69.0298 31.4968 69.3037 31.6379C69.5804 31.7791 69.7962 31.9783 69.9512 32.2356C70.1089 32.4929 70.1905 32.7959 70.196 33.1445H69.1626C69.1571 32.984 69.1211 32.8402 69.0547 32.7129C68.9883 32.5856 68.8942 32.4832 68.7725 32.4058C68.6507 32.3283 68.5027 32.2896 68.3284 32.2896C68.143 32.2896 67.988 32.3283 67.8635 32.4058C67.7418 32.4832 67.6463 32.5898 67.5771 32.7253C67.5107 32.8582 67.4637 33.0076 67.436 33.1736C67.4111 33.3368 67.3987 33.5084 67.3987 33.6882V33.821C67.3987 34.0037 67.4111 34.178 67.436 34.344C67.4637 34.51 67.5107 34.6594 67.5771 34.7922C67.6463 34.9223 67.7418 35.026 67.8635 35.1035C67.988 35.181 68.1458 35.2197 68.3367 35.2197ZM70.7314 33.8003V33.7131C70.7314 33.3839 70.7785 33.0809 70.8726 32.8042C70.9666 32.5247 71.1036 32.2826 71.2834 32.0779C71.4633 31.8731 71.6833 31.714 71.9434 31.6006C72.2035 31.4844 72.4995 31.4263 72.8315 31.4263C73.1691 31.4263 73.4679 31.4844 73.728 31.6006C73.9909 31.714 74.2122 31.8731 74.3921 32.0779C74.5719 32.2826 74.7089 32.5247 74.803 32.8042C74.8971 33.0809 74.9441 33.3839 74.9441 33.7131V33.8003C74.9441 34.1268 74.8971 34.4298 74.803 34.7092C74.7089 34.9859 74.5719 35.228 74.3921 35.4355C74.2122 35.6403 73.9923 35.7994 73.7322 35.9128C73.4721 36.0263 73.1746 36.083 72.8398 36.083C72.5078 36.083 72.2104 36.0263 71.9475 35.9128C71.6847 35.7994 71.4633 35.6403 71.2834 35.4355C71.1036 35.228 70.9666 34.9859 70.8726 34.7092C70.7785 34.4298 70.7314 34.1268 70.7314 33.8003ZM71.8271 33.7131V33.8003C71.8271 33.9967 71.8465 34.1807 71.8853 34.3523C71.924 34.5238 71.9835 34.6746 72.0637 34.8047C72.144 34.9347 72.2477 35.0371 72.375 35.1118C72.505 35.1838 72.66 35.2197 72.8398 35.2197C73.0169 35.2197 73.1691 35.1838 73.2964 35.1118C73.4237 35.0371 73.5274 34.9347 73.6077 34.8047C73.6907 34.6746 73.7515 34.5238 73.7903 34.3523C73.829 34.1807 73.8484 33.9967 73.8484 33.8003V33.7131C73.8484 33.5194 73.829 33.3382 73.7903 33.1694C73.7515 32.9979 73.6907 32.8471 73.6077 32.717C73.5274 32.5842 73.4223 32.4805 73.2922 32.4058C73.165 32.3283 73.0114 32.2896 72.8315 32.2896C72.6545 32.2896 72.5023 32.3283 72.375 32.4058C72.2477 32.4805 72.144 32.5842 72.0637 32.717C71.9835 32.8471 71.924 32.9979 71.8853 33.1694C71.8465 33.3382 71.8271 33.5194 71.8271 33.7131ZM76.8159 32.468V36H75.7202V31.5093H76.7495L76.8159 32.468ZM76.6416 33.5928H76.3179C76.3206 33.2663 76.3649 32.9702 76.4507 32.7046C76.5365 32.439 76.6568 32.2107 76.8118 32.0198C76.9695 31.8289 77.1562 31.6822 77.3721 31.5798C77.5879 31.4775 77.8286 31.4263 78.0942 31.4263C78.3101 31.4263 78.5051 31.4567 78.6794 31.5176C78.8538 31.5785 79.0032 31.6753 79.1277 31.8081C79.255 31.9409 79.3518 32.1152 79.4182 32.3311C79.4874 32.5441 79.522 32.807 79.522 33.1196V36H78.418V33.1113C78.418 32.9066 78.3875 32.7447 78.3267 32.6257C78.2686 32.5068 78.1828 32.4224 78.0693 32.3726C77.9587 32.3228 77.8217 32.2979 77.6584 32.2979C77.4897 32.2979 77.3416 32.3324 77.2144 32.4016C77.0898 32.468 76.9847 32.5607 76.8989 32.6797C76.8159 32.7987 76.7523 32.9356 76.708 33.0906C76.6637 33.2455 76.6416 33.4129 76.6416 33.5928ZM81.925 36H80.821V31.0942C80.821 30.7567 80.8861 30.4731 81.0161 30.2434C81.1462 30.011 81.3315 29.8353 81.5723 29.7163C81.813 29.5973 82.0966 29.5378 82.4231 29.5378C82.531 29.5378 82.6334 29.5448 82.7302 29.5586C82.8298 29.5724 82.9281 29.5918 83.0249 29.6167L83.0042 30.4509C82.9516 30.4371 82.8935 30.4274 82.8298 30.4219C82.769 30.4163 82.7012 30.4136 82.6265 30.4136C82.4771 30.4136 82.3498 30.4399 82.2446 30.4924C82.1395 30.545 82.0592 30.6225 82.0039 30.7249C81.9513 30.8245 81.925 30.9476 81.925 31.0942V36ZM82.834 31.5093V32.2979H80.1445V31.5093H82.834ZM83.3154 33.8003V33.7131C83.3154 33.3839 83.3625 33.0809 83.4565 32.8042C83.5506 32.5247 83.6876 32.2826 83.8674 32.0779C84.0473 31.8731 84.2673 31.714 84.5273 31.6006C84.7874 31.4844 85.0835 31.4263 85.4155 31.4263C85.7531 31.4263 86.0519 31.4844 86.312 31.6006C86.5749 31.714 86.7962 31.8731 86.9761 32.0779C87.1559 32.2826 87.2929 32.5247 87.387 32.8042C87.481 33.0809 87.5281 33.3839 87.5281 33.7131V33.8003C87.5281 34.1268 87.481 34.4298 87.387 34.7092C87.2929 34.9859 87.1559 35.228 86.9761 35.4355C86.7962 35.6403 86.5763 35.7994 86.3162 35.9128C86.0561 36.0263 85.7586 36.083 85.4238 36.083C85.0918 36.083 84.7944 36.0263 84.5315 35.9128C84.2686 35.7994 84.0473 35.6403 83.8674 35.4355C83.6876 35.228 83.5506 34.9859 83.4565 34.7092C83.3625 34.4298 83.3154 34.1268 83.3154 33.8003ZM84.4111 33.7131V33.8003C84.4111 33.9967 84.4305 34.1807 84.4692 34.3523C84.508 34.5238 84.5675 34.6746 84.6477 34.8047C84.7279 34.9347 84.8317 35.0371 84.959 35.1118C85.089 35.1838 85.244 35.2197 85.4238 35.2197C85.6009 35.2197 85.7531 35.1838 85.8804 35.1118C86.0076 35.0371 86.1114 34.9347 86.1917 34.8047C86.2747 34.6746 86.3355 34.5238 86.3743 34.3523C86.413 34.1807 86.4324 33.9967 86.4324 33.8003V33.7131C86.4324 33.5194 86.413 33.3382 86.3743 33.1694C86.3355 32.9979 86.2747 32.8471 86.1917 32.717C86.1114 32.5842 86.0063 32.4805 85.8762 32.4058C85.7489 32.3283 85.5954 32.2896 85.4155 32.2896C85.2384 32.2896 85.0863 32.3283 84.959 32.4058C84.8317 32.4805 84.7279 32.5842 84.6477 32.717C84.5675 32.8471 84.508 32.9979 84.4692 33.1694C84.4305 33.3382 84.4111 33.5194 84.4111 33.7131ZM89.4207 32.4265V36H88.325V31.5093H89.3625L89.4207 32.4265ZM90.7861 31.4802L90.7695 32.5012C90.7087 32.4902 90.6395 32.4819 90.562 32.4763C90.4873 32.4708 90.4167 32.468 90.3503 32.468C90.1816 32.468 90.0335 32.4915 89.9062 32.5386C89.779 32.5828 89.6724 32.6479 89.5867 32.7336C89.5037 32.8194 89.44 32.9246 89.3958 33.0491C89.3515 33.1708 89.3266 33.3092 89.321 33.4641L89.0845 33.4351C89.0845 33.1501 89.1135 32.8858 89.1716 32.6423C89.2297 32.3988 89.3141 32.1858 89.4248 32.0032C89.5355 31.8206 89.6738 31.6794 89.8398 31.5798C90.0086 31.4775 90.2023 31.4263 90.4209 31.4263C90.4818 31.4263 90.5468 31.4318 90.616 31.4429C90.6879 31.4512 90.7446 31.4636 90.7861 31.4802ZM93.7205 31.5093V32.2979H91.1472V31.5093H93.7205ZM91.8362 30.4053H92.936V34.7051C92.936 34.8379 92.954 34.9403 92.99 35.0122C93.026 35.0841 93.0799 35.1326 93.1519 35.1575C93.2238 35.1824 93.3096 35.1948 93.4092 35.1948C93.4811 35.1948 93.5475 35.1907 93.6084 35.1824C93.6693 35.1741 93.7205 35.1658 93.762 35.1575L93.7661 35.9792C93.6748 36.0097 93.571 36.0346 93.4548 36.054C93.3414 36.0733 93.2127 36.083 93.0688 36.083C92.8226 36.083 92.6068 36.0415 92.4214 35.9585C92.236 35.8727 92.0921 35.7358 91.9897 35.5476C91.8874 35.3567 91.8362 35.1049 91.8362 34.7922V30.4053ZM95.4844 35.0122L95.4761 35.7717C95.4761 36.0678 95.4028 36.368 95.2561 36.6724C95.1095 36.9767 94.9199 37.2285 94.6875 37.4277L94.1064 37.1082C94.1812 36.9836 94.2503 36.8577 94.314 36.7305C94.3804 36.6032 94.4329 36.4648 94.4717 36.3154C94.5132 36.1688 94.5339 36.0042 94.5339 35.8215V35.0122H95.4844ZM101.038 34.7715C101.038 34.6774 101.013 34.593 100.963 34.5183C100.913 34.4436 100.819 34.3758 100.681 34.3149C100.545 34.2513 100.346 34.1918 100.083 34.1365C99.8506 34.0867 99.6361 34.0244 99.4397 33.9497C99.2432 33.875 99.0745 33.7851 98.9333 33.6799C98.7922 33.572 98.6816 33.4461 98.6013 33.3022C98.5238 33.1556 98.4851 32.9868 98.4851 32.7959C98.4851 32.6105 98.5252 32.4362 98.6055 32.2729C98.6857 32.1069 98.8019 31.9617 98.9541 31.8372C99.1063 31.7099 99.2917 31.6103 99.5103 31.5383C99.7288 31.4636 99.9751 31.4263 100.249 31.4263C100.631 31.4263 100.959 31.4885 101.233 31.613C101.509 31.7375 101.721 31.9091 101.868 32.1277C102.014 32.3435 102.088 32.587 102.088 32.8582H100.992C100.992 32.7392 100.964 32.6313 100.909 32.5344C100.856 32.4376 100.775 32.3601 100.664 32.302C100.553 32.2411 100.414 32.2107 100.245 32.2107C100.093 32.2107 99.964 32.2356 99.8589 32.2854C99.7565 32.3352 99.679 32.4002 99.6265 32.4805C99.5739 32.5607 99.5476 32.6493 99.5476 32.7461C99.5476 32.818 99.5614 32.8831 99.5891 32.9412C99.6195 32.9965 99.668 33.0477 99.7344 33.0947C99.8008 33.1418 99.8907 33.1847 100.004 33.2234C100.12 33.2621 100.263 33.2995 100.432 33.3354C100.766 33.4019 101.058 33.4904 101.307 33.6011C101.559 33.709 101.756 33.8529 101.897 34.0327C102.038 34.2126 102.108 34.4422 102.108 34.7217C102.108 34.9209 102.066 35.1035 101.98 35.2695C101.894 35.4328 101.769 35.5753 101.606 35.697C101.443 35.8188 101.248 35.9142 101.021 35.9834C100.794 36.0498 100.538 36.083 100.253 36.083C99.8409 36.083 99.4923 36.0097 99.2073 35.863C98.9223 35.7136 98.7065 35.5255 98.5598 35.2986C98.4132 35.0689 98.3398 34.831 98.3398 34.5847H99.3899C99.3982 34.759 99.4452 34.8988 99.531 35.0039C99.6168 35.109 99.7247 35.1851 99.8547 35.2322C99.9875 35.2764 100.127 35.2986 100.274 35.2986C100.44 35.2986 100.58 35.2764 100.693 35.2322C100.807 35.1851 100.892 35.1229 100.95 35.0454C101.009 34.9652 101.038 34.8739 101.038 34.7715ZM104.96 36.083C104.619 36.083 104.314 36.0277 104.042 35.917C103.771 35.8063 103.54 35.6528 103.349 35.4563C103.161 35.2571 103.016 35.026 102.914 34.7632C102.814 34.4976 102.764 34.2126 102.764 33.9082V33.7422C102.764 33.3963 102.814 33.0823 102.914 32.8C103.013 32.5151 103.154 32.2702 103.337 32.0654C103.52 31.8607 103.738 31.703 103.993 31.5923C104.247 31.4816 104.528 31.4263 104.835 31.4263C105.153 31.4263 105.434 31.4802 105.678 31.5881C105.921 31.6933 106.125 31.8427 106.288 32.0364C106.451 32.2301 106.574 32.4625 106.657 32.7336C106.74 33.002 106.782 33.2995 106.782 33.626V34.0867H103.262V33.3313H105.703V33.2483C105.697 33.074 105.664 32.9149 105.603 32.771C105.542 32.6243 105.448 32.5081 105.321 32.4224C105.194 32.3338 105.029 32.2896 104.827 32.2896C104.664 32.2896 104.521 32.3255 104.399 32.3975C104.28 32.4666 104.181 32.5662 104.101 32.6963C104.023 32.8236 103.965 32.9757 103.926 33.1528C103.888 33.3299 103.868 33.5264 103.868 33.7422V33.9082C103.868 34.0964 103.893 34.2707 103.943 34.4312C103.995 34.5916 104.072 34.7314 104.171 34.8503C104.274 34.9666 104.395 35.0579 104.536 35.1243C104.68 35.1879 104.844 35.2197 105.026 35.2197C105.256 35.2197 105.463 35.1755 105.649 35.0869C105.837 34.9956 106 34.8614 106.138 34.6843L106.69 35.2571C106.596 35.3954 106.469 35.5282 106.309 35.6555C106.151 35.7828 105.96 35.8866 105.736 35.9668C105.512 36.0443 105.253 36.083 104.96 36.083ZM104.192 30.8826L105.005 29.6208H106.217L105.084 30.8826H104.192ZM109.359 35.2197C109.514 35.2197 109.652 35.1893 109.774 35.1284C109.896 35.0675 109.993 34.9818 110.065 34.8711C110.139 34.7604 110.18 34.6318 110.185 34.4851H111.219C111.213 34.7895 111.127 35.062 110.961 35.3027C110.795 35.5435 110.574 35.7344 110.297 35.8755C110.023 36.0138 109.716 36.083 109.376 36.083C109.03 36.083 108.728 36.0249 108.471 35.9087C108.214 35.7925 107.999 35.6306 107.828 35.4231C107.659 35.2156 107.532 34.9749 107.446 34.7009C107.363 34.427 107.321 34.1337 107.321 33.821V33.6882C107.321 33.3756 107.363 33.0823 107.446 32.8083C107.532 32.5344 107.659 32.2937 107.828 32.0862C107.999 31.8787 108.214 31.7168 108.471 31.6006C108.728 31.4844 109.028 31.4263 109.372 31.4263C109.734 31.4263 110.052 31.4968 110.326 31.6379C110.603 31.7791 110.819 31.9783 110.974 32.2356C111.131 32.4929 111.213 32.7959 111.219 33.1445H110.185C110.18 32.984 110.144 32.8402 110.077 32.7129C110.011 32.5856 109.917 32.4832 109.795 32.4058C109.673 32.3283 109.525 32.2896 109.351 32.2896C109.165 32.2896 109.01 32.3283 108.886 32.4058C108.764 32.4832 108.669 32.5898 108.6 32.7253C108.533 32.8582 108.486 33.0076 108.458 33.1736C108.434 33.3368 108.421 33.5084 108.421 33.6882V33.821C108.421 34.0037 108.434 34.178 108.458 34.344C108.486 34.51 108.533 34.6594 108.6 34.7922C108.669 34.9223 108.764 35.026 108.886 35.1035C109.01 35.181 109.168 35.2197 109.359 35.2197ZM114.622 34.9333V31.5093H115.726V36H114.688L114.622 34.9333ZM114.763 34.0037L115.103 33.9954C115.103 34.297 115.07 34.575 115.004 34.8296C114.937 35.0841 114.833 35.3055 114.692 35.4937C114.554 35.679 114.378 35.8243 114.165 35.9294C113.952 36.0318 113.7 36.083 113.41 36.083C113.189 36.083 112.987 36.0526 112.804 35.9917C112.621 35.9281 112.464 35.8298 112.331 35.697C112.201 35.5614 112.1 35.3885 112.028 35.1782C111.956 34.9652 111.92 34.7092 111.92 34.4104V31.5093H113.016V34.4187C113.016 34.5681 113.032 34.6926 113.065 34.7922C113.101 34.8918 113.15 34.9735 113.211 35.0371C113.274 35.098 113.348 35.1423 113.431 35.1699C113.516 35.1948 113.608 35.2073 113.705 35.2073C113.97 35.2073 114.179 35.1547 114.331 35.0496C114.486 34.9417 114.597 34.7978 114.663 34.6179C114.73 34.4353 114.763 34.2306 114.763 34.0037ZM117.793 32.4265V36H116.697V31.5093H117.735L117.793 32.4265ZM119.158 31.4802L119.142 32.5012C119.081 32.4902 119.012 32.4819 118.934 32.4763C118.859 32.4708 118.789 32.468 118.722 32.468C118.554 32.468 118.406 32.4915 118.278 32.5386C118.151 32.5828 118.045 32.6479 117.959 32.7336C117.876 32.8194 117.812 32.9246 117.768 33.0491C117.724 33.1708 117.699 33.3092 117.693 33.4641L117.457 33.4351C117.457 33.1501 117.486 32.8858 117.544 32.6423C117.602 32.3988 117.686 32.1858 117.797 32.0032C117.908 31.8206 118.046 31.6794 118.212 31.5798C118.381 31.4775 118.574 31.4263 118.793 31.4263C118.854 31.4263 118.919 31.4318 118.988 31.4429C119.06 31.4512 119.117 31.4636 119.158 31.4802ZM120.922 31.5093V36H119.822V31.5093H120.922ZM119.748 30.3347C119.748 30.1715 119.803 30.0359 119.914 29.928C120.027 29.8201 120.179 29.7661 120.37 29.7661C120.561 29.7661 120.712 29.8201 120.823 29.928C120.936 30.0359 120.993 30.1715 120.993 30.3347C120.993 30.4952 120.936 30.6294 120.823 30.7373C120.712 30.8452 120.561 30.8992 120.37 30.8992C120.179 30.8992 120.027 30.8452 119.914 30.7373C119.803 30.6294 119.748 30.4952 119.748 30.3347ZM124.093 31.5093V32.2979H121.52V31.5093H124.093ZM122.209 30.4053H123.309V34.7051C123.309 34.8379 123.327 34.9403 123.363 35.0122C123.399 35.0841 123.452 35.1326 123.524 35.1575C123.596 35.1824 123.682 35.1948 123.782 35.1948C123.854 35.1948 123.92 35.1907 123.981 35.1824C124.042 35.1741 124.093 35.1658 124.135 35.1575L124.139 35.9792C124.047 36.0097 123.944 36.0346 123.827 36.054C123.714 36.0733 123.585 36.083 123.441 36.083C123.195 36.083 122.979 36.0415 122.794 35.9585C122.609 35.8727 122.465 35.7358 122.362 35.5476C122.26 35.3567 122.209 35.1049 122.209 34.7922V30.4053ZM126.841 36.083C126.5 36.083 126.194 36.0277 125.923 35.917C125.652 35.8063 125.421 35.6528 125.23 35.4563C125.042 35.2571 124.897 35.026 124.794 34.7632C124.695 34.4976 124.645 34.2126 124.645 33.9082V33.7422C124.645 33.3963 124.695 33.0823 124.794 32.8C124.894 32.5151 125.035 32.2702 125.218 32.0654C125.4 31.8607 125.619 31.703 125.874 31.5923C126.128 31.4816 126.409 31.4263 126.716 31.4263C127.034 31.4263 127.315 31.4802 127.559 31.5881C127.802 31.6933 128.005 31.8427 128.169 32.0364C128.332 32.2301 128.455 32.4625 128.538 32.7336C128.621 33.002 128.663 33.2995 128.663 33.626V34.0867H125.143V33.3313H127.583V33.2483C127.578 33.074 127.545 32.9149 127.484 32.771C127.423 32.6243 127.329 32.5081 127.202 32.4224C127.074 32.3338 126.91 32.2896 126.708 32.2896C126.545 32.2896 126.402 32.3255 126.28 32.3975C126.161 32.4666 126.062 32.5662 125.981 32.6963C125.904 32.8236 125.846 32.9757 125.807 33.1528C125.768 33.3299 125.749 33.5264 125.749 33.7422V33.9082C125.749 34.0964 125.774 34.2707 125.824 34.4312C125.876 34.5916 125.952 34.7314 126.052 34.8503C126.154 34.9666 126.276 35.0579 126.417 35.1243C126.561 35.1879 126.724 35.2197 126.907 35.2197C127.137 35.2197 127.344 35.1755 127.53 35.0869C127.718 34.9956 127.881 34.8614 128.019 34.6843L128.571 35.2571C128.477 35.3954 128.35 35.5282 128.189 35.6555C128.032 35.7828 127.841 35.8866 127.617 35.9668C127.393 36.0443 127.134 36.083 126.841 36.083ZM126.073 30.8826L126.886 29.6208H128.098L126.965 30.8826H126.073ZM133.531 36.083C133.191 36.083 132.885 36.0277 132.614 35.917C132.343 35.8063 132.112 35.6528 131.921 35.4563C131.733 35.2571 131.587 35.026 131.485 34.7632C131.385 34.4976 131.335 34.2126 131.335 33.9082V33.7422C131.335 33.3963 131.385 33.0823 131.485 32.8C131.584 32.5151 131.726 32.2702 131.908 32.0654C132.091 31.8607 132.309 31.703 132.564 31.5923C132.819 31.4816 133.099 31.4263 133.406 31.4263C133.725 31.4263 134.006 31.4802 134.249 31.5881C134.493 31.6933 134.696 31.8427 134.859 32.0364C135.022 32.2301 135.146 32.4625 135.229 32.7336C135.312 33.002 135.353 33.2995 135.353 33.626V34.0867H131.833V33.3313H134.274V33.2483C134.268 33.074 134.235 32.9149 134.174 32.771C134.113 32.6243 134.019 32.5081 133.892 32.4224C133.765 32.3338 133.6 32.2896 133.398 32.2896C133.235 32.2896 133.092 32.3255 132.971 32.3975C132.852 32.4666 132.752 32.5662 132.672 32.6963C132.594 32.8236 132.536 32.9757 132.498 33.1528C132.459 33.3299 132.439 33.5264 132.439 33.7422V33.9082C132.439 34.0964 132.464 34.2707 132.514 34.4312C132.567 34.5916 132.643 34.7314 132.742 34.8503C132.845 34.9666 132.967 35.0579 133.108 35.1243C133.252 35.1879 133.415 35.2197 133.597 35.2197C133.827 35.2197 134.035 35.1755 134.22 35.0869C134.408 34.9956 134.571 34.8614 134.71 34.6843L135.262 35.2571C135.168 35.3954 135.04 35.5282 134.88 35.6555C134.722 35.7828 134.531 35.8866 134.307 35.9668C134.083 36.0443 133.824 36.083 133.531 36.083ZM138.213 31.5093V32.2979H135.639V31.5093H138.213ZM136.328 30.4053H137.428V34.7051C137.428 34.8379 137.446 34.9403 137.482 35.0122C137.518 35.0841 137.572 35.1326 137.644 35.1575C137.716 35.1824 137.802 35.1948 137.901 35.1948C137.973 35.1948 138.04 35.1907 138.101 35.1824C138.161 35.1741 138.213 35.1658 138.254 35.1575L138.258 35.9792C138.167 36.0097 138.063 36.0346 137.947 36.054C137.834 36.0733 137.705 36.083 137.561 36.083C137.315 36.083 137.099 36.0415 136.914 35.9585C136.728 35.8727 136.584 35.7358 136.482 35.5476C136.38 35.3567 136.328 35.1049 136.328 34.7922V30.4053ZM141.056 29.625H142.156V35.0081L142.048 36H141.056V29.625ZM145.044 33.709V33.7961C145.044 34.1309 145.007 34.4381 144.932 34.7175C144.86 34.997 144.751 35.2391 144.604 35.4438C144.458 35.6458 144.275 35.8035 144.056 35.917C143.841 36.0277 143.587 36.083 143.297 36.083C143.02 36.083 142.779 36.0291 142.575 35.9211C142.373 35.8132 142.203 35.6611 142.064 35.4646C141.926 35.2654 141.815 35.0316 141.732 34.7632C141.649 34.492 141.587 34.196 141.545 33.875V33.6384C141.587 33.3147 141.649 33.0186 141.732 32.7502C141.815 32.4819 141.926 32.248 142.064 32.0488C142.203 31.8496 142.373 31.696 142.575 31.5881C142.777 31.4802 143.015 31.4263 143.289 31.4263C143.582 31.4263 143.838 31.483 144.056 31.5964C144.278 31.7071 144.46 31.8648 144.604 32.0696C144.751 32.2716 144.86 32.5123 144.932 32.7917C145.007 33.0684 145.044 33.3742 145.044 33.709ZM143.944 33.7961V33.709C143.944 33.5181 143.929 33.3382 143.899 33.1694C143.868 32.9979 143.818 32.8471 143.749 32.717C143.68 32.587 143.586 32.4846 143.467 32.4099C143.348 32.3352 143.199 32.2979 143.019 32.2979C142.847 32.2979 142.701 32.3269 142.579 32.385C142.46 32.4431 142.36 32.5234 142.28 32.6257C142.203 32.7281 142.142 32.8485 142.097 32.9868C142.056 33.1252 142.028 33.2746 142.014 33.4351V34.0825C142.034 34.2956 142.079 34.4879 142.151 34.6594C142.223 34.8282 142.33 34.9624 142.471 35.062C142.615 35.1616 142.8 35.2114 143.027 35.2114C143.204 35.2114 143.352 35.1768 143.471 35.1077C143.59 35.0357 143.684 34.9361 143.753 34.8088C143.823 34.6788 143.871 34.528 143.899 34.3564C143.929 34.1849 143.944 33.9981 143.944 33.7961ZM147.003 31.5093V36H145.903V31.5093H147.003ZM145.829 30.3347C145.829 30.1715 145.884 30.0359 145.995 29.928C146.108 29.8201 146.26 29.7661 146.451 29.7661C146.642 29.7661 146.793 29.8201 146.904 29.928C147.017 30.0359 147.074 30.1715 147.074 30.3347C147.074 30.4952 147.017 30.6294 146.904 30.7373C146.793 30.8452 146.642 30.8992 146.451 30.8992C146.26 30.8992 146.108 30.8452 145.995 30.7373C145.884 30.6294 145.829 30.4952 145.829 30.3347ZM150.066 36.083C149.726 36.083 149.42 36.0277 149.149 35.917C148.878 35.8063 148.647 35.6528 148.456 35.4563C148.268 35.2571 148.122 35.026 148.02 34.7632C147.92 34.4976 147.871 34.2126 147.871 33.9082V33.7422C147.871 33.3963 147.92 33.0823 148.02 32.8C148.12 32.5151 148.261 32.2702 148.443 32.0654C148.626 31.8607 148.845 31.703 149.099 31.5923C149.354 31.4816 149.635 31.4263 149.942 31.4263C150.26 31.4263 150.541 31.4802 150.784 31.5881C151.028 31.6933 151.231 31.8427 151.394 32.0364C151.558 32.2301 151.681 32.4625 151.764 32.7336C151.847 33.002 151.888 33.2995 151.888 33.626V34.0867H148.369V33.3313H150.809V33.2483C150.804 33.074 150.77 32.9149 150.709 32.771C150.649 32.6243 150.555 32.5081 150.427 32.4224C150.3 32.3338 150.135 32.2896 149.933 32.2896C149.77 32.2896 149.628 32.3255 149.506 32.3975C149.387 32.4666 149.287 32.5662 149.207 32.6963C149.13 32.8236 149.071 32.9757 149.033 33.1528C148.994 33.3299 148.975 33.5264 148.975 33.7422V33.9082C148.975 34.0964 149 34.2707 149.049 34.4312C149.102 34.5916 149.178 34.7314 149.278 34.8503C149.38 34.9666 149.502 35.0579 149.643 35.1243C149.787 35.1879 149.95 35.2197 150.133 35.2197C150.362 35.2197 150.57 35.1755 150.755 35.0869C150.943 34.9956 151.107 34.8614 151.245 34.6843L151.797 35.2571C151.703 35.3954 151.576 35.5282 151.415 35.6555C151.257 35.7828 151.066 35.8866 150.842 35.9668C150.618 36.0443 150.359 36.083 150.066 36.083ZM153.698 32.468V36H152.602V31.5093H153.631L153.698 32.468ZM153.523 33.5928H153.2C153.202 33.2663 153.247 32.9702 153.333 32.7046C153.418 32.439 153.539 32.2107 153.694 32.0198C153.851 31.8289 154.038 31.6822 154.254 31.5798C154.47 31.4775 154.71 31.4263 154.976 31.4263C155.192 31.4263 155.387 31.4567 155.561 31.5176C155.736 31.5785 155.885 31.6753 156.01 31.8081C156.137 31.9409 156.234 32.1152 156.3 32.3311C156.369 32.5441 156.404 32.807 156.404 33.1196V36H155.3V33.1113C155.3 32.9066 155.269 32.7447 155.208 32.6257C155.15 32.5068 155.065 32.4224 154.951 32.3726C154.84 32.3228 154.704 32.2979 154.54 32.2979C154.372 32.2979 154.223 32.3324 154.096 32.4016C153.972 32.468 153.867 32.5607 153.781 32.6797C153.698 32.7987 153.634 32.9356 153.59 33.0906C153.546 33.2455 153.523 33.4129 153.523 33.5928ZM159.554 32.9785V33.8459H157.284V32.9785H159.554ZM162.509 36.083C162.169 36.083 161.863 36.0277 161.592 35.917C161.321 35.8063 161.09 35.6528 160.899 35.4563C160.711 35.2571 160.565 35.026 160.463 34.7632C160.363 34.4976 160.313 34.2126 160.313 33.9082V33.7422C160.313 33.3963 160.363 33.0823 160.463 32.8C160.562 32.5151 160.704 32.2702 160.886 32.0654C161.069 31.8607 161.287 31.703 161.542 31.5923C161.797 31.4816 162.077 31.4263 162.385 31.4263C162.703 31.4263 162.984 31.4802 163.227 31.5881C163.471 31.6933 163.674 31.8427 163.837 32.0364C164 32.2301 164.124 32.4625 164.207 32.7336C164.29 33.002 164.331 33.2995 164.331 33.626V34.0867H160.812V33.3313H163.252V33.2483C163.246 33.074 163.213 32.9149 163.152 32.771C163.091 32.6243 162.997 32.5081 162.87 32.4224C162.743 32.3338 162.578 32.2896 162.376 32.2896C162.213 32.2896 162.07 32.3255 161.949 32.3975C161.83 32.4666 161.73 32.5662 161.65 32.6963C161.572 32.8236 161.514 32.9757 161.476 33.1528C161.437 33.3299 161.417 33.5264 161.417 33.7422V33.9082C161.417 34.0964 161.442 34.2707 161.492 34.4312C161.545 34.5916 161.621 34.7314 161.72 34.8503C161.823 34.9666 161.945 35.0579 162.086 35.1243C162.23 35.1879 162.393 35.2197 162.575 35.2197C162.805 35.2197 163.013 35.1755 163.198 35.0869C163.386 34.9956 163.549 34.8614 163.688 34.6843L164.24 35.2571C164.146 35.3954 164.018 35.5282 163.858 35.6555C163.7 35.7828 163.509 35.8866 163.285 35.9668C163.061 36.0443 162.802 36.083 162.509 36.083ZM162.596 29.6208L163.8 30.7705V30.8203H162.92L162.277 30.1895L161.637 30.8203H160.77V30.7622L161.957 29.6208H162.596ZM167.191 31.5093V32.2979H164.617V31.5093H167.191ZM165.306 30.4053H166.406V34.7051C166.406 34.8379 166.424 34.9403 166.46 35.0122C166.496 35.0841 166.55 35.1326 166.622 35.1575C166.694 35.1824 166.78 35.1948 166.879 35.1948C166.951 35.1948 167.018 35.1907 167.079 35.1824C167.139 35.1741 167.191 35.1658 167.232 35.1575L167.236 35.9792C167.145 36.0097 167.041 36.0346 166.925 36.054C166.812 36.0733 166.683 36.083 166.539 36.083C166.293 36.083 166.077 36.0415 165.892 35.9585C165.706 35.8727 165.562 35.7358 165.46 35.5476C165.358 35.3567 165.306 35.1049 165.306 34.7922V30.4053ZM169.017 32.4265V36H167.921V31.5093H168.959L169.017 32.4265ZM170.382 31.4802L170.366 32.5012C170.305 32.4902 170.236 32.4819 170.158 32.4763C170.083 32.4708 170.013 32.468 169.947 32.468C169.778 32.468 169.63 32.4915 169.502 32.5386C169.375 32.5828 169.269 32.6479 169.183 32.7336C169.1 32.8194 169.036 32.9246 168.992 33.0491C168.948 33.1708 168.923 33.3092 168.917 33.4641L168.681 33.4351C168.681 33.1501 168.71 32.8858 168.768 32.6423C168.826 32.3988 168.91 32.1858 169.021 32.0032C169.132 31.8206 169.27 31.6794 169.436 31.5798C169.605 31.4775 169.799 31.4263 170.017 31.4263C170.078 31.4263 170.143 31.4318 170.212 31.4429C170.284 31.4512 170.341 31.4636 170.382 31.4802ZM172.918 36.083C172.578 36.083 172.272 36.0277 172.001 35.917C171.73 35.8063 171.499 35.6528 171.308 35.4563C171.12 35.2571 170.974 35.026 170.872 34.7632C170.772 34.4976 170.723 34.2126 170.723 33.9082V33.7422C170.723 33.3963 170.772 33.0823 170.872 32.8C170.972 32.5151 171.113 32.2702 171.295 32.0654C171.478 31.8607 171.697 31.703 171.951 31.5923C172.206 31.4816 172.487 31.4263 172.794 31.4263C173.112 31.4263 173.393 31.4802 173.636 31.5881C173.88 31.6933 174.083 31.8427 174.246 32.0364C174.41 32.2301 174.533 32.4625 174.616 32.7336C174.699 33.002 174.74 33.2995 174.74 33.626V34.0867H171.221V33.3313H173.661V33.2483C173.656 33.074 173.622 32.9149 173.562 32.771C173.501 32.6243 173.407 32.5081 173.279 32.4224C173.152 32.3338 172.987 32.2896 172.785 32.2896C172.622 32.2896 172.48 32.3255 172.358 32.3975C172.239 32.4666 172.139 32.5662 172.059 32.6963C171.982 32.8236 171.924 32.9757 171.885 33.1528C171.846 33.3299 171.827 33.5264 171.827 33.7422V33.9082C171.827 34.0964 171.852 34.2707 171.901 34.4312C171.954 34.5916 172.03 34.7314 172.13 34.8503C172.232 34.9666 172.354 35.0579 172.495 35.1243C172.639 35.1879 172.802 35.2197 172.985 35.2197C173.214 35.2197 173.422 35.1755 173.607 35.0869C173.795 34.9956 173.959 34.8614 174.097 34.6843L174.649 35.2571C174.555 35.3954 174.428 35.5282 174.267 35.6555C174.109 35.7828 173.918 35.8866 173.694 35.9668C173.47 36.0443 173.212 36.083 172.918 36.083ZM179.434 35.2197C179.589 35.2197 179.728 35.1893 179.849 35.1284C179.971 35.0675 180.068 34.9818 180.14 34.8711C180.215 34.7604 180.255 34.6318 180.26 34.4851H181.294C181.288 34.7895 181.202 35.062 181.036 35.3027C180.87 35.5435 180.649 35.7344 180.372 35.8755C180.098 36.0138 179.791 36.083 179.451 36.083C179.105 36.083 178.803 36.0249 178.546 35.9087C178.289 35.7925 178.074 35.6306 177.903 35.4231C177.734 35.2156 177.607 34.9749 177.521 34.7009C177.438 34.427 177.396 34.1337 177.396 33.821V33.6882C177.396 33.3756 177.438 33.0823 177.521 32.8083C177.607 32.5344 177.734 32.2937 177.903 32.0862C178.074 31.8787 178.289 31.7168 178.546 31.6006C178.803 31.4844 179.104 31.4263 179.447 31.4263C179.809 31.4263 180.127 31.4968 180.401 31.6379C180.678 31.7791 180.894 31.9783 181.049 32.2356C181.207 32.4929 181.288 32.7959 181.294 33.1445H180.26C180.255 32.984 180.219 32.8402 180.152 32.7129C180.086 32.5856 179.992 32.4832 179.87 32.4058C179.748 32.3283 179.6 32.2896 179.426 32.2896C179.241 32.2896 179.086 32.3283 178.961 32.4058C178.839 32.4832 178.744 32.5898 178.675 32.7253C178.608 32.8582 178.561 33.0076 178.534 33.1736C178.509 33.3368 178.496 33.5084 178.496 33.6882V33.821C178.496 34.0037 178.509 34.178 178.534 34.344C178.561 34.51 178.608 34.6594 178.675 34.7922C178.744 34.9223 178.839 35.026 178.961 35.1035C179.086 35.181 179.243 35.2197 179.434 35.2197ZM183.099 29.625V36H181.999V29.625H183.099ZM182.925 33.5928H182.601C182.601 33.2801 182.643 32.9924 182.726 32.7295C182.809 32.4666 182.926 32.2384 183.078 32.0447C183.231 31.8482 183.412 31.696 183.622 31.5881C183.835 31.4802 184.07 31.4263 184.328 31.4263C184.549 31.4263 184.75 31.4581 184.929 31.5217C185.112 31.5826 185.268 31.6808 185.398 31.8164C185.528 31.952 185.628 32.1291 185.697 32.3477C185.769 32.5635 185.805 32.8263 185.805 33.1362V36H184.701V33.1279C184.701 32.9204 184.671 32.7572 184.61 32.6382C184.549 32.5164 184.462 32.4293 184.348 32.3767C184.238 32.3241 184.101 32.2979 183.938 32.2979C183.76 32.2979 183.608 32.3324 183.481 32.4016C183.354 32.468 183.249 32.5607 183.166 32.6797C183.085 32.7987 183.024 32.9356 182.983 33.0906C182.944 33.2455 182.925 33.4129 182.925 33.5928ZM188.789 36.083C188.449 36.083 188.143 36.0277 187.872 35.917C187.601 35.8063 187.37 35.6528 187.179 35.4563C186.991 35.2571 186.846 35.026 186.743 34.7632C186.644 34.4976 186.594 34.2126 186.594 33.9082V33.7422C186.594 33.3963 186.644 33.0823 186.743 32.8C186.843 32.5151 186.984 32.2702 187.167 32.0654C187.349 31.8607 187.568 31.703 187.822 31.5923C188.077 31.4816 188.358 31.4263 188.665 31.4263C188.983 31.4263 189.264 31.4802 189.507 31.5881C189.751 31.6933 189.954 31.8427 190.117 32.0364C190.281 32.2301 190.404 32.4625 190.487 32.7336C190.57 33.002 190.611 33.2995 190.611 33.626V34.0867H187.092V33.3313H189.532V33.2483C189.527 33.074 189.493 32.9149 189.433 32.771C189.372 32.6243 189.278 32.5081 189.15 32.4224C189.023 32.3338 188.858 32.2896 188.656 32.2896C188.493 32.2896 188.351 32.3255 188.229 32.3975C188.11 32.4666 188.01 32.5662 187.93 32.6963C187.853 32.8236 187.795 32.9757 187.756 33.1528C187.717 33.3299 187.698 33.5264 187.698 33.7422V33.9082C187.698 34.0964 187.723 34.2707 187.772 34.4312C187.825 34.5916 187.901 34.7314 188.001 34.8503C188.103 34.9666 188.225 35.0579 188.366 35.1243C188.51 35.1879 188.673 35.2197 188.856 35.2197C189.085 35.2197 189.293 35.1755 189.478 35.0869C189.666 34.9956 189.83 34.8614 189.968 34.6843L190.52 35.2571C190.426 35.3954 190.299 35.5282 190.138 35.6555C189.98 35.7828 189.79 35.8866 189.565 35.9668C189.341 36.0443 189.083 36.083 188.789 36.083ZM194.865 35.1367V36H191.487V35.1367H194.865ZM194.787 32.165L191.898 36H191.176V35.3235L194.048 31.5093H194.787V32.165ZM194.384 31.5093V32.3767H191.234V31.5093H194.384ZM199.252 35.1699L200.298 31.5093H201.444L199.904 36H199.207L199.252 35.1699ZM198.489 31.5093L199.547 35.1782L199.584 36H198.883L197.339 31.5093H198.489ZM201.759 33.8003V33.7131C201.759 33.3839 201.806 33.0809 201.9 32.8042C201.994 32.5247 202.131 32.2826 202.311 32.0779C202.491 31.8731 202.711 31.714 202.971 31.6006C203.231 31.4844 203.527 31.4263 203.859 31.4263C204.197 31.4263 204.496 31.4844 204.756 31.6006C205.019 31.714 205.24 31.8731 205.42 32.0779C205.6 32.2826 205.737 32.5247 205.831 32.8042C205.925 33.0809 205.972 33.3839 205.972 33.7131V33.8003C205.972 34.1268 205.925 34.4298 205.831 34.7092C205.737 34.9859 205.6 35.228 205.42 35.4355C205.24 35.6403 205.02 35.7994 204.76 35.9128C204.5 36.0263 204.202 36.083 203.868 36.083C203.536 36.083 203.238 36.0263 202.975 35.9128C202.712 35.7994 202.491 35.6403 202.311 35.4355C202.131 35.228 201.994 34.9859 201.9 34.7092C201.806 34.4298 201.759 34.1268 201.759 33.8003ZM202.855 33.7131V33.8003C202.855 33.9967 202.874 34.1807 202.913 34.3523C202.952 34.5238 203.011 34.6746 203.092 34.8047C203.172 34.9347 203.276 35.0371 203.403 35.1118C203.533 35.1838 203.688 35.2197 203.868 35.2197C204.045 35.2197 204.197 35.1838 204.324 35.1118C204.451 35.0371 204.555 34.9347 204.635 34.8047C204.719 34.6746 204.779 34.5238 204.818 34.3523C204.857 34.1807 204.876 33.9967 204.876 33.8003V33.7131C204.876 33.5194 204.857 33.3382 204.818 33.1694C204.779 32.9979 204.719 32.8471 204.635 32.717C204.555 32.5842 204.45 32.4805 204.32 32.4058C204.193 32.3283 204.039 32.2896 203.859 32.2896C203.682 32.2896 203.53 32.3283 203.403 32.4058C203.276 32.4805 203.172 32.5842 203.092 32.717C203.011 32.8471 202.952 32.9979 202.913 33.1694C202.874 33.3382 202.855 33.5194 202.855 33.7131ZM209.442 34.9333V31.5093H210.546V36H209.508L209.442 34.9333ZM209.583 34.0037L209.923 33.9954C209.923 34.297 209.89 34.575 209.823 34.8296C209.757 35.0841 209.653 35.3055 209.512 35.4937C209.374 35.679 209.198 35.8243 208.985 35.9294C208.772 36.0318 208.52 36.083 208.23 36.083C208.008 36.083 207.806 36.0526 207.624 35.9917C207.441 35.9281 207.283 35.8298 207.151 35.697C207.021 35.5614 206.92 35.3885 206.848 35.1782C206.776 34.9652 206.74 34.7092 206.74 34.4104V31.5093H207.835V34.4187C207.835 34.5681 207.852 34.6926 207.885 34.7922C207.921 34.8918 207.97 34.9735 208.031 35.0371C208.094 35.098 208.167 35.1423 208.25 35.1699C208.336 35.1948 208.428 35.2073 208.524 35.2073C208.79 35.2073 208.999 35.1547 209.151 35.0496C209.306 34.9417 209.417 34.7978 209.483 34.6179C209.55 34.4353 209.583 34.2306 209.583 34.0037ZM213.986 34.7715C213.986 34.6774 213.961 34.593 213.912 34.5183C213.862 34.4436 213.768 34.3758 213.629 34.3149C213.494 34.2513 213.295 34.1918 213.032 34.1365C212.799 34.0867 212.585 34.0244 212.388 33.9497C212.192 33.875 212.023 33.7851 211.882 33.6799C211.741 33.572 211.63 33.4461 211.55 33.3022C211.473 33.1556 211.434 32.9868 211.434 32.7959C211.434 32.6105 211.474 32.4362 211.554 32.2729C211.634 32.1069 211.751 31.9617 211.903 31.8372C212.055 31.7099 212.24 31.6103 212.459 31.5383C212.678 31.4636 212.924 31.4263 213.198 31.4263C213.58 31.4263 213.907 31.4885 214.181 31.613C214.458 31.7375 214.67 31.9091 214.816 32.1277C214.963 32.3435 215.036 32.587 215.036 32.8582H213.941C213.941 32.7392 213.913 32.6313 213.858 32.5344C213.805 32.4376 213.723 32.3601 213.613 32.302C213.502 32.2411 213.362 32.2107 213.194 32.2107C213.041 32.2107 212.913 32.2356 212.808 32.2854C212.705 32.3352 212.628 32.4002 212.575 32.4805C212.523 32.5607 212.496 32.6493 212.496 32.7461C212.496 32.818 212.51 32.8831 212.538 32.9412C212.568 32.9965 212.617 33.0477 212.683 33.0947C212.75 33.1418 212.839 33.1847 212.953 33.2234C213.069 33.2621 213.212 33.2995 213.38 33.3354C213.715 33.4019 214.007 33.4904 214.256 33.6011C214.508 33.709 214.704 33.8529 214.845 34.0327C214.987 34.2126 215.057 34.4422 215.057 34.7217C215.057 34.9209 215.014 35.1035 214.928 35.2695C214.843 35.4328 214.718 35.5753 214.555 35.697C214.392 35.8188 214.197 35.9142 213.97 35.9834C213.743 36.0498 213.487 36.083 213.202 36.083C212.79 36.083 212.441 36.0097 212.156 35.863C211.871 35.7136 211.655 35.5255 211.509 35.2986C211.362 35.0689 211.289 34.831 211.289 34.5847H212.339C212.347 34.759 212.394 34.8988 212.48 35.0039C212.566 35.109 212.673 35.1851 212.803 35.2322C212.936 35.2764 213.076 35.2986 213.223 35.2986C213.389 35.2986 213.528 35.2764 213.642 35.2322C213.755 35.1851 213.841 35.1229 213.899 35.0454C213.957 34.9652 213.986 34.8739 213.986 34.7715Z" fill="#E75D0E"/>
<path d="M69.5645 20.582V29H67.2109V18.4336H69.4277L69.5645 20.582ZM69.1836 23.3262L68.3828 23.3164C68.3828 22.5872 68.474 21.9134 68.6562 21.2949C68.8385 20.6764 69.1055 20.1393 69.457 19.6836C69.8086 19.2214 70.2448 18.8665 70.7656 18.6191C71.293 18.3652 71.9017 18.2383 72.5918 18.2383C73.0736 18.2383 73.513 18.3099 73.9102 18.4531C74.3138 18.5898 74.6621 18.8079 74.9551 19.1074C75.2546 19.4069 75.4824 19.791 75.6387 20.2598C75.8014 20.7285 75.8828 21.2949 75.8828 21.959V29H73.5293V22.1641C73.5293 21.6497 73.4512 21.2461 73.2949 20.9531C73.1452 20.6602 72.9271 20.4518 72.6406 20.3281C72.3607 20.1979 72.0254 20.1328 71.6348 20.1328C71.1921 20.1328 70.8145 20.2174 70.502 20.3867C70.196 20.556 69.9453 20.7871 69.75 21.0801C69.5547 21.373 69.4115 21.7116 69.3203 22.0957C69.2292 22.4798 69.1836 22.89 69.1836 23.3262ZM75.7363 22.7012L74.6328 22.9453C74.6328 22.3073 74.7207 21.7051 74.8965 21.1387C75.0788 20.5658 75.3424 20.0645 75.6875 19.6348C76.0391 19.1986 76.472 18.8568 76.9863 18.6094C77.5007 18.362 78.0898 18.2383 78.7539 18.2383C79.2943 18.2383 79.776 18.3132 80.1992 18.4629C80.6289 18.6061 80.9935 18.834 81.293 19.1465C81.5924 19.459 81.8203 19.8659 81.9766 20.3672C82.1328 20.862 82.2109 21.4609 82.2109 22.1641V29H79.8477V22.1543C79.8477 21.6204 79.7695 21.207 79.6133 20.9141C79.4635 20.6211 79.2487 20.4193 78.9688 20.3086C78.6888 20.1914 78.3535 20.1328 77.9629 20.1328C77.5983 20.1328 77.276 20.2012 76.9961 20.3379C76.7227 20.4681 76.4915 20.6536 76.3027 20.8945C76.1139 21.1289 75.9707 21.3991 75.873 21.7051C75.7819 22.0111 75.7363 22.3431 75.7363 22.7012ZM87.1523 18.4336V29H84.7891V18.4336H87.1523ZM84.6328 15.6602C84.6328 15.3021 84.75 15.0059 84.9844 14.7715C85.2253 14.5306 85.5573 14.4102 85.9805 14.4102C86.3971 14.4102 86.7259 14.5306 86.9668 14.7715C87.2077 15.0059 87.3281 15.3021 87.3281 15.6602C87.3281 16.0117 87.2077 16.3047 86.9668 16.5391C86.7259 16.7734 86.3971 16.8906 85.9805 16.8906C85.5573 16.8906 85.2253 16.7734 84.9844 16.5391C84.75 16.3047 84.6328 16.0117 84.6328 15.6602ZM92.7188 14.7812V29H89.7891V14.7812H92.7188ZM101.234 14.7812L95.5996 21.8027L92.3477 25.2988L91.8203 22.5254L94.0176 19.5176L97.6406 14.7812H101.234ZM97.9043 29L93.7148 22.4277L95.8828 20.6113L101.371 29H97.9043ZM108.031 26.6172V21.9102C108.031 21.5716 107.976 21.2819 107.865 21.041C107.755 20.7936 107.582 20.6016 107.348 20.4648C107.12 20.3281 106.824 20.2598 106.459 20.2598C106.146 20.2598 105.876 20.3151 105.648 20.4258C105.421 20.5299 105.245 20.6829 105.121 20.8848C104.997 21.0801 104.936 21.3112 104.936 21.5781H102.123C102.123 21.1289 102.227 20.7025 102.436 20.2988C102.644 19.8952 102.947 19.5404 103.344 19.2344C103.741 18.9219 104.213 18.6777 104.76 18.502C105.313 18.3262 105.932 18.2383 106.615 18.2383C107.436 18.2383 108.165 18.375 108.803 18.6484C109.441 18.9219 109.942 19.332 110.307 19.8789C110.678 20.4258 110.863 21.1094 110.863 21.9297V26.4512C110.863 27.0306 110.899 27.5059 110.971 27.877C111.042 28.2415 111.146 28.5605 111.283 28.834V29H108.441C108.305 28.7135 108.201 28.3555 108.129 27.9258C108.064 27.4896 108.031 27.0534 108.031 26.6172ZM108.402 22.5645L108.422 24.1562H106.85C106.479 24.1562 106.156 24.1986 105.883 24.2832C105.609 24.3678 105.385 24.4883 105.209 24.6445C105.033 24.7943 104.903 24.9701 104.818 25.1719C104.74 25.3737 104.701 25.5951 104.701 25.8359C104.701 26.0768 104.757 26.2949 104.867 26.4902C104.978 26.679 105.137 26.8288 105.346 26.9395C105.554 27.0436 105.798 27.0957 106.078 27.0957C106.501 27.0957 106.869 27.0111 107.182 26.8418C107.494 26.6725 107.735 26.4642 107.904 26.2168C108.08 25.9694 108.171 25.735 108.178 25.5137L108.92 26.7051C108.816 26.972 108.673 27.2487 108.49 27.5352C108.314 27.8216 108.09 28.0918 107.816 28.3457C107.543 28.5931 107.214 28.7982 106.83 28.9609C106.446 29.1172 105.99 29.1953 105.463 29.1953C104.792 29.1953 104.184 29.0618 103.637 28.7949C103.096 28.5215 102.667 28.1471 102.348 27.6719C102.035 27.1901 101.879 26.6432 101.879 26.0312C101.879 25.4779 101.983 24.9863 102.191 24.5566C102.4 24.127 102.706 23.7656 103.109 23.4727C103.52 23.1732 104.031 22.9486 104.643 22.7988C105.255 22.6426 105.964 22.5645 106.771 22.5645H108.402ZM121.439 26.8027V29H113.412V26.8027H121.439ZM121.283 20.0547L114.545 29H112.66V27.3301L119.369 18.4336H121.283V20.0547ZM120.287 18.4336V20.6406H112.816V18.4336H120.287ZM128.91 26.6172V21.9102C128.91 21.5716 128.855 21.2819 128.744 21.041C128.633 20.7936 128.461 20.6016 128.227 20.4648C127.999 20.3281 127.702 20.2598 127.338 20.2598C127.025 20.2598 126.755 20.3151 126.527 20.4258C126.299 20.5299 126.124 20.6829 126 20.8848C125.876 21.0801 125.814 21.3112 125.814 21.5781H123.002C123.002 21.1289 123.106 20.7025 123.314 20.2988C123.523 19.8952 123.826 19.5404 124.223 19.2344C124.62 18.9219 125.092 18.6777 125.639 18.502C126.192 18.3262 126.811 18.2383 127.494 18.2383C128.314 18.2383 129.044 18.375 129.682 18.6484C130.32 18.9219 130.821 19.332 131.186 19.8789C131.557 20.4258 131.742 21.1094 131.742 21.9297V26.4512C131.742 27.0306 131.778 27.5059 131.85 27.877C131.921 28.2415 132.025 28.5605 132.162 28.834V29H129.32C129.184 28.7135 129.079 28.3555 129.008 27.9258C128.943 27.4896 128.91 27.0534 128.91 26.6172ZM129.281 22.5645L129.301 24.1562H127.729C127.357 24.1562 127.035 24.1986 126.762 24.2832C126.488 24.3678 126.264 24.4883 126.088 24.6445C125.912 24.7943 125.782 24.9701 125.697 25.1719C125.619 25.3737 125.58 25.5951 125.58 25.8359C125.58 26.0768 125.635 26.2949 125.746 26.4902C125.857 26.679 126.016 26.8288 126.225 26.9395C126.433 27.0436 126.677 27.0957 126.957 27.0957C127.38 27.0957 127.748 27.0111 128.061 26.8418C128.373 26.6725 128.614 26.4642 128.783 26.2168C128.959 25.9694 129.05 25.735 129.057 25.5137L129.799 26.7051C129.695 26.972 129.551 27.2487 129.369 27.5352C129.193 27.8216 128.969 28.0918 128.695 28.3457C128.422 28.5931 128.093 28.7982 127.709 28.9609C127.325 29.1172 126.869 29.1953 126.342 29.1953C125.671 29.1953 125.062 29.0618 124.516 28.7949C123.975 28.5215 123.546 28.1471 123.227 27.6719C122.914 27.1901 122.758 26.6432 122.758 26.0312C122.758 25.4779 122.862 24.9863 123.07 24.5566C123.279 24.127 123.585 23.7656 123.988 23.4727C124.398 23.1732 124.91 22.9486 125.521 22.7988C126.133 22.6426 126.843 22.5645 127.65 22.5645H129.281ZM139.115 21.8906V23.9316H133.773V21.8906H139.115ZM147.299 26.1387C147.299 25.9043 147.24 25.6927 147.123 25.5039C147.006 25.3086 146.781 25.1328 146.449 24.9766C146.124 24.8203 145.642 24.6771 145.004 24.5469C144.444 24.4232 143.93 24.2767 143.461 24.1074C142.999 23.9316 142.602 23.7201 142.27 23.4727C141.938 23.2253 141.68 22.9323 141.498 22.5938C141.316 22.2552 141.225 21.8646 141.225 21.4219C141.225 20.9922 141.319 20.5853 141.508 20.2012C141.697 19.8171 141.967 19.4785 142.318 19.1855C142.67 18.8926 143.096 18.6615 143.598 18.4922C144.105 18.3229 144.672 18.2383 145.297 18.2383C146.182 18.2383 146.941 18.388 147.572 18.6875C148.21 18.9805 148.699 19.3809 149.037 19.8887C149.376 20.39 149.545 20.9564 149.545 21.5879H147.191C147.191 21.3079 147.12 21.0475 146.977 20.8066C146.84 20.5592 146.632 20.3607 146.352 20.2109C146.072 20.0547 145.72 19.9766 145.297 19.9766C144.893 19.9766 144.558 20.0417 144.291 20.1719C144.031 20.2956 143.835 20.4583 143.705 20.6602C143.581 20.862 143.52 21.0833 143.52 21.3242C143.52 21.5 143.552 21.6595 143.617 21.8027C143.689 21.9395 143.806 22.0664 143.969 22.1836C144.132 22.2943 144.353 22.3984 144.633 22.4961C144.919 22.5938 145.277 22.6882 145.707 22.7793C146.514 22.9486 147.208 23.1667 147.787 23.4336C148.373 23.694 148.822 24.0326 149.135 24.4492C149.447 24.8594 149.604 25.3802 149.604 26.0117C149.604 26.4805 149.503 26.9102 149.301 27.3008C149.105 27.6849 148.819 28.0202 148.441 28.3066C148.064 28.5866 147.611 28.8047 147.084 28.9609C146.563 29.1172 145.977 29.1953 145.326 29.1953C144.369 29.1953 143.559 29.026 142.895 28.6875C142.23 28.3424 141.726 27.903 141.381 27.3691C141.042 26.8288 140.873 26.2689 140.873 25.6895H143.148C143.174 26.1257 143.295 26.474 143.51 26.7344C143.731 26.9883 144.005 27.1738 144.33 27.291C144.662 27.4017 145.004 27.457 145.355 27.457C145.779 27.457 146.133 27.4017 146.42 27.291C146.706 27.1738 146.924 27.0176 147.074 26.8223C147.224 26.6204 147.299 26.3926 147.299 26.1387ZM156.322 29.1953C155.541 29.1953 154.835 29.0684 154.203 28.8145C153.578 28.554 153.044 28.1927 152.602 27.7305C152.165 27.2682 151.83 26.7246 151.596 26.0996C151.361 25.4746 151.244 24.8008 151.244 24.0781V23.6875C151.244 22.8607 151.365 22.112 151.605 21.4414C151.846 20.7708 152.182 20.1979 152.611 19.7227C153.041 19.2409 153.549 18.873 154.135 18.6191C154.721 18.3652 155.355 18.2383 156.039 18.2383C156.794 18.2383 157.455 18.3652 158.021 18.6191C158.588 18.873 159.057 19.2311 159.428 19.6934C159.805 20.1491 160.085 20.6927 160.268 21.3242C160.456 21.9557 160.551 22.6523 160.551 23.4141V24.4199H152.387V22.7305H158.227V22.5449C158.214 22.1217 158.129 21.7246 157.973 21.3535C157.823 20.9824 157.592 20.6829 157.279 20.4551C156.967 20.2272 156.55 20.1133 156.029 20.1133C155.639 20.1133 155.29 20.1979 154.984 20.3672C154.685 20.5299 154.434 20.7676 154.232 21.0801C154.031 21.3926 153.874 21.7702 153.764 22.2129C153.66 22.6491 153.607 23.1406 153.607 23.6875V24.0781C153.607 24.5404 153.669 24.9701 153.793 25.3672C153.923 25.7578 154.112 26.0996 154.359 26.3926C154.607 26.6855 154.906 26.9167 155.258 27.0859C155.609 27.2487 156.01 27.3301 156.459 27.3301C157.025 27.3301 157.53 27.2161 157.973 26.9883C158.415 26.7604 158.799 26.4382 159.125 26.0215L160.365 27.2227C160.137 27.5547 159.841 27.8737 159.477 28.1797C159.112 28.4792 158.666 28.7233 158.139 28.9121C157.618 29.1009 157.012 29.1953 156.322 29.1953ZM164.75 20.4453V29H162.396V18.4336H164.643L164.75 20.4453ZM167.982 18.3652L167.963 20.5527C167.82 20.5267 167.663 20.5072 167.494 20.4941C167.331 20.4811 167.169 20.4746 167.006 20.4746C166.602 20.4746 166.247 20.5332 165.941 20.6504C165.635 20.7611 165.378 20.9238 165.17 21.1387C164.968 21.347 164.812 21.6009 164.701 21.9004C164.59 22.1999 164.525 22.5352 164.506 22.9062L163.969 22.9453C163.969 22.2812 164.034 21.666 164.164 21.0996C164.294 20.5332 164.49 20.0352 164.75 19.6055C165.017 19.1758 165.349 18.8405 165.746 18.5996C166.15 18.3587 166.615 18.2383 167.143 18.2383C167.286 18.2383 167.439 18.2513 167.602 18.2773C167.771 18.3034 167.898 18.3327 167.982 18.3652ZM173.07 27.1348L175.658 18.4336H178.1L174.428 29H172.904L173.07 27.1348ZM171.088 18.4336L173.725 27.1738L173.852 29H172.328L168.637 18.4336H171.088ZM182.074 18.4336V29H179.711V18.4336H182.074ZM179.555 15.6602C179.555 15.3021 179.672 15.0059 179.906 14.7715C180.147 14.5306 180.479 14.4102 180.902 14.4102C181.319 14.4102 181.648 14.5306 181.889 14.7715C182.13 15.0059 182.25 15.3021 182.25 15.6602C182.25 16.0117 182.13 16.3047 181.889 16.5391C181.648 16.7734 181.319 16.8906 180.902 16.8906C180.479 16.8906 180.147 16.7734 179.906 16.5391C179.672 16.3047 179.555 16.0117 179.555 15.6602ZM188.969 27.3203C189.353 27.3203 189.698 27.2454 190.004 27.0957C190.316 26.9395 190.567 26.7246 190.756 26.4512C190.951 26.1777 191.059 25.862 191.078 25.5039H193.295C193.282 26.1875 193.08 26.8092 192.689 27.3691C192.299 27.929 191.781 28.375 191.137 28.707C190.492 29.0326 189.779 29.1953 188.998 29.1953C188.191 29.1953 187.488 29.0586 186.889 28.7852C186.29 28.5052 185.792 28.1211 185.395 27.6328C184.997 27.1445 184.698 26.5814 184.496 25.9434C184.301 25.3053 184.203 24.6217 184.203 23.8926V23.5508C184.203 22.8216 184.301 22.138 184.496 21.5C184.698 20.8555 184.997 20.2891 185.395 19.8008C185.792 19.3125 186.29 18.9316 186.889 18.6582C187.488 18.3783 188.188 18.2383 188.988 18.2383C189.835 18.2383 190.577 18.4076 191.215 18.7461C191.853 19.0781 192.354 19.5436 192.719 20.1426C193.09 20.735 193.282 21.4251 193.295 22.2129H191.078C191.059 21.8223 190.961 21.4707 190.785 21.1582C190.616 20.8392 190.375 20.5853 190.062 20.3965C189.757 20.2077 189.389 20.1133 188.959 20.1133C188.484 20.1133 188.09 20.2109 187.777 20.4062C187.465 20.5951 187.221 20.8555 187.045 21.1875C186.869 21.513 186.742 21.8809 186.664 22.291C186.592 22.6947 186.557 23.1146 186.557 23.5508V23.8926C186.557 24.3288 186.592 24.752 186.664 25.1621C186.736 25.5723 186.859 25.9401 187.035 26.2656C187.217 26.5846 187.465 26.8418 187.777 27.0371C188.09 27.2259 188.487 27.3203 188.969 27.3203ZM199.76 29.1953C198.979 29.1953 198.272 29.0684 197.641 28.8145C197.016 28.554 196.482 28.1927 196.039 27.7305C195.603 27.2682 195.268 26.7246 195.033 26.0996C194.799 25.4746 194.682 24.8008 194.682 24.0781V23.6875C194.682 22.8607 194.802 22.112 195.043 21.4414C195.284 20.7708 195.619 20.1979 196.049 19.7227C196.479 19.2409 196.986 18.873 197.572 18.6191C198.158 18.3652 198.793 18.2383 199.477 18.2383C200.232 18.2383 200.893 18.3652 201.459 18.6191C202.025 18.873 202.494 19.2311 202.865 19.6934C203.243 20.1491 203.523 20.6927 203.705 21.3242C203.894 21.9557 203.988 22.6523 203.988 23.4141V24.4199H195.824V22.7305H201.664V22.5449C201.651 22.1217 201.566 21.7246 201.41 21.3535C201.26 20.9824 201.029 20.6829 200.717 20.4551C200.404 20.2272 199.988 20.1133 199.467 20.1133C199.076 20.1133 198.728 20.1979 198.422 20.3672C198.122 20.5299 197.872 20.7676 197.67 21.0801C197.468 21.3926 197.312 21.7702 197.201 22.2129C197.097 22.6491 197.045 23.1406 197.045 23.6875V24.0781C197.045 24.5404 197.107 24.9701 197.23 25.3672C197.361 25.7578 197.549 26.0996 197.797 26.3926C198.044 26.6855 198.344 26.9167 198.695 27.0859C199.047 27.2487 199.447 27.3301 199.896 27.3301C200.463 27.3301 200.967 27.2161 201.41 26.9883C201.853 26.7604 202.237 26.4382 202.562 26.0215L203.803 27.2227C203.575 27.5547 203.279 27.8737 202.914 28.1797C202.549 28.4792 202.104 28.7233 201.576 28.9121C201.055 29.1009 200.45 29.1953 199.76 29.1953ZM211.752 26.1387C211.752 25.9043 211.693 25.6927 211.576 25.5039C211.459 25.3086 211.234 25.1328 210.902 24.9766C210.577 24.8203 210.095 24.6771 209.457 24.5469C208.897 24.4232 208.383 24.2767 207.914 24.1074C207.452 23.9316 207.055 23.7201 206.723 23.4727C206.391 23.2253 206.133 22.9323 205.951 22.5938C205.769 22.2552 205.678 21.8646 205.678 21.4219C205.678 20.9922 205.772 20.5853 205.961 20.2012C206.15 19.8171 206.42 19.4785 206.771 19.1855C207.123 18.8926 207.549 18.6615 208.051 18.4922C208.559 18.3229 209.125 18.2383 209.75 18.2383C210.635 18.2383 211.394 18.388 212.025 18.6875C212.663 18.9805 213.152 19.3809 213.49 19.8887C213.829 20.39 213.998 20.9564 213.998 21.5879H211.645C211.645 21.3079 211.573 21.0475 211.43 20.8066C211.293 20.5592 211.085 20.3607 210.805 20.2109C210.525 20.0547 210.173 19.9766 209.75 19.9766C209.346 19.9766 209.011 20.0417 208.744 20.1719C208.484 20.2956 208.288 20.4583 208.158 20.6602C208.035 20.862 207.973 21.0833 207.973 21.3242C207.973 21.5 208.005 21.6595 208.07 21.8027C208.142 21.9395 208.259 22.0664 208.422 22.1836C208.585 22.2943 208.806 22.3984 209.086 22.4961C209.372 22.5938 209.73 22.6882 210.16 22.7793C210.967 22.9486 211.661 23.1667 212.24 23.4336C212.826 23.694 213.275 24.0326 213.588 24.4492C213.9 24.8594 214.057 25.3802 214.057 26.0117C214.057 26.4805 213.956 26.9102 213.754 27.3008C213.559 27.6849 213.272 28.0202 212.895 28.3066C212.517 28.5866 212.064 28.8047 211.537 28.9609C211.016 29.1172 210.43 29.1953 209.779 29.1953C208.822 29.1953 208.012 29.026 207.348 28.6875C206.684 28.3424 206.179 27.903 205.834 27.3691C205.495 26.8288 205.326 26.2689 205.326 25.6895H207.602C207.628 26.1257 207.748 26.474 207.963 26.7344C208.184 26.9883 208.458 27.1738 208.783 27.291C209.115 27.4017 209.457 27.457 209.809 27.457C210.232 27.457 210.587 27.4017 210.873 27.291C211.16 27.1738 211.378 27.0176 211.527 26.8223C211.677 26.6204 211.752 26.3926 211.752 26.1387Z" fill="#E75D0E"/>
<circle cx="26.5" cy="26.5" r="21.5" fill="#E75D0E" stroke="#E75D0E" stroke-width="10"/>
<path d="M15 40.5217V21.9017H17C22.5228 21.9017 27 26.3789 27 31.9017V42.9017" stroke="white" stroke-width="1.5" stroke-linecap="round"/>
<path d="M38 40.5217V21.9017H37C31.4772 21.9017 27 26.3789 27 31.9017V42.9017" stroke="white" stroke-width="1.5" stroke-linecap="round"/>
<rect x="34" y="14" width="2" height="3" fill="white"/>
<path d="M26.4023 10L27.4846 11.6137L5.08217 26.6375C4.48447 25.7463 4.72244 24.5392 5.61369 23.9415L26.4023 10Z" fill="white"/>
<path d="M26.5977 10L25.5154 11.6137L47.9178 26.6375C48.5155 25.7463 48.2776 24.5392 47.3863 23.9415L26.5977 10Z" fill="white"/>
</svg>
