<svg width="63" height="63" viewBox="0 0 63 63" fill="none" xmlns="http://www.w3.org/2000/svg">
<path d="M42.525 28.35C43.8375 28.35 44.9531 27.8906 45.8719 26.9719C46.7906 26.0531 47.25 24.9375 47.25 23.625C47.25 22.3125 46.7906 21.1969 45.8719 20.2781C44.9531 19.3594 43.8375 18.9 42.525 18.9C41.2125 18.9 40.0969 19.3594 39.1781 20.2781C38.2594 21.1969 37.8 22.3125 37.8 23.625C37.8 24.9375 38.2594 26.0531 39.1781 26.9719C40.0969 27.8906 41.2125 28.35 42.525 28.35ZM20.475 28.35C21.7875 28.35 22.9031 27.8906 23.8219 26.9719C24.7406 26.0531 25.2 24.9375 25.2 23.625C25.2 22.3125 24.7406 21.1969 23.8219 20.2781C22.9031 19.3594 21.7875 18.9 20.475 18.9C19.1625 18.9 18.0469 19.3594 17.1281 20.2781C16.2094 21.1969 15.75 22.3125 15.75 23.625C15.75 24.9375 16.2094 26.0531 17.1281 26.9719C18.0469 27.8906 19.1625 28.35 20.475 28.35ZM31.5 48.825C35.07 48.825 38.3119 47.8144 41.2256 45.7931C44.1394 43.7719 46.2525 41.1075 47.565 37.8H42.3675C41.2125 39.7425 39.6769 41.2781 37.7606 42.4069C35.8444 43.5356 33.7575 44.1 31.5 44.1C29.2425 44.1 27.1556 43.5356 25.2394 42.4069C23.3231 41.2781 21.7875 39.7425 20.6325 37.8H15.435C16.7475 41.1075 18.8606 43.7719 21.7744 45.7931C24.6881 47.8144 27.93 48.825 31.5 48.825ZM31.5 63C27.1425 63 23.0475 62.1731 19.215 60.5194C15.3825 58.8656 12.0487 56.6213 9.21375 53.7863C6.37875 50.9512 4.13438 47.6175 2.48062 43.785C0.826875 39.9525 0 35.8575 0 31.5C0 27.1425 0.826875 23.0475 2.48062 19.215C4.13438 15.3825 6.37875 12.0487 9.21375 9.21375C12.0487 6.37875 15.3825 4.13438 19.215 2.48062C23.0475 0.826875 27.1425 0 31.5 0C35.8575 0 39.9525 0.826875 43.785 2.48062C47.6175 4.13438 50.9512 6.37875 53.7863 9.21375C56.6213 12.0487 58.8656 15.3825 60.5194 19.215C62.1731 23.0475 63 27.1425 63 31.5C63 35.8575 62.1731 39.9525 60.5194 43.785C58.8656 47.6175 56.6213 50.9512 53.7863 53.7863C50.9512 56.6213 47.6175 58.8656 43.785 60.5194C39.9525 62.1731 35.8575 63 31.5 63ZM31.5 56.7C38.535 56.7 44.4938 54.2588 49.3763 49.3763C54.2588 44.4938 56.7 38.535 56.7 31.5C56.7 24.465 54.2588 18.5063 49.3763 13.6237C44.4938 8.74125 38.535 6.3 31.5 6.3C24.465 6.3 18.5063 8.74125 13.6237 13.6237C8.74125 18.5063 6.3 24.465 6.3 31.5C6.3 38.535 8.74125 44.4938 13.6237 49.3763C18.5063 54.2588 24.465 56.7 31.5 56.7Z" fill="#E75D0E"/>
</svg>
