<svg width="55" height="69" viewBox="0 0 55 69" fill="none" xmlns="http://www.w3.org/2000/svg">
<path d="M22.3438 46.4062H32.6562V37.8125H41.25V27.5H32.6562V18.9062H22.3438V27.5H13.75V37.8125H22.3438V46.4062ZM27.5 68.75C19.5365 66.7448 12.9622 62.1758 7.77734 55.043C2.59245 47.9102 0 39.9896 0 31.2812V10.3125L27.5 0L55 10.3125V31.2812C55 39.9896 52.4076 47.9102 47.2227 55.043C42.0378 62.1758 35.4635 66.7448 27.5 68.75ZM27.5 61.5312C33.4583 59.6406 38.3854 55.8594 42.2812 50.1875C46.1771 44.5156 48.125 38.2135 48.125 31.2812V15.0391L27.5 7.30469L6.875 15.0391V31.2812C6.875 38.2135 8.82292 44.5156 12.7188 50.1875C16.6146 55.8594 21.5417 59.6406 27.5 61.5312Z" fill="#E75D0E"/>
</svg>
