<svg width="63" height="63" viewBox="0 0 63 63" fill="none" xmlns="http://www.w3.org/2000/svg">
<path d="M18.9 50.4L31.5 40.7925L44.1 50.4L39.375 34.8075L51.975 25.83H36.54L31.5 9.45L26.46 25.83H11.025L23.625 34.8075L18.9 50.4ZM31.5 63C27.1425 63 23.0475 62.1731 19.215 60.5194C15.3825 58.8656 12.0487 56.6213 9.21375 53.7863C6.37875 50.9512 4.13438 47.6175 2.48062 43.785C0.826875 39.9525 0 35.8575 0 31.5C0 27.1425 0.826875 23.0475 2.48062 19.215C4.13438 15.3825 6.37875 12.0487 9.21375 9.21375C12.0487 6.37875 15.3825 4.13438 19.215 2.48062C23.0475 0.826875 27.1425 0 31.5 0C35.8575 0 39.9525 0.826875 43.785 2.48062C47.6175 4.13438 50.9512 6.37875 53.7863 9.21375C56.6213 12.0487 58.8656 15.3825 60.5194 19.215C62.1731 23.0475 63 27.1425 63 31.5C63 35.8575 62.1731 39.9525 60.5194 43.785C58.8656 47.6175 56.6213 50.9512 53.7863 53.7863C50.9512 56.6213 47.6175 58.8656 43.785 60.5194C39.9525 62.1731 35.8575 63 31.5 63ZM31.5 56.7C38.535 56.7 44.4938 54.2588 49.3763 49.3763C54.2588 44.4938 56.7 38.535 56.7 31.5C56.7 24.465 54.2588 18.5063 49.3763 13.6237C44.4938 8.74125 38.535 6.3 31.5 6.3C24.465 6.3 18.5063 8.74125 13.6237 13.6237C8.74125 18.5063 6.3 24.465 6.3 31.5C6.3 38.535 8.74125 44.4938 13.6237 49.3763C18.5063 54.2588 24.465 56.7 31.5 56.7Z" fill="#E75D0E"/>
</svg>
