<svg width="125" height="82" viewBox="0 0 125 82" fill="none" xmlns="http://www.w3.org/2000/svg">
<path d="M3.38721 78.3628H4.32715C4.30208 78.6955 4.2098 78.9906 4.05029 79.248C3.89079 79.5033 3.66862 79.7038 3.38379 79.8496C3.09896 79.9954 2.75374 80.0684 2.34814 80.0684C2.03597 80.0684 1.75456 80.0137 1.50391 79.9043C1.25553 79.7926 1.04248 79.6343 0.864746 79.4292C0.68929 79.2218 0.55485 78.9735 0.461426 78.6841C0.368001 78.3924 0.321289 78.0654 0.321289 77.7031V77.3237C0.321289 76.9614 0.369141 76.6344 0.464844 76.3428C0.560547 76.0511 0.697266 75.8027 0.875 75.5977C1.05501 75.3903 1.27035 75.2308 1.521 75.1191C1.77393 75.0075 2.05648 74.9517 2.36865 74.9517C2.77425 74.9517 3.11719 75.0269 3.39746 75.1772C3.67773 75.3254 3.89535 75.5293 4.05029 75.7891C4.20524 76.0488 4.29867 76.3473 4.33057 76.6846H3.39062C3.3724 76.4749 3.32682 76.2972 3.25391 76.1514C3.18327 76.0055 3.07617 75.895 2.93262 75.8198C2.79134 75.7424 2.60335 75.7036 2.36865 75.7036C2.18636 75.7036 2.02572 75.7378 1.88672 75.8062C1.75 75.8745 1.63607 75.9771 1.54492 76.1138C1.45378 76.2482 1.38542 76.4168 1.33984 76.6196C1.29427 76.8201 1.27148 77.0526 1.27148 77.3169V77.7031C1.27148 77.9561 1.29199 78.1828 1.33301 78.3833C1.37402 78.5838 1.43783 78.7536 1.52441 78.8926C1.611 79.0316 1.72266 79.1375 1.85938 79.2104C1.99609 79.2834 2.15902 79.3198 2.34814 79.3198C2.57829 79.3198 2.76514 79.2834 2.90869 79.2104C3.05452 79.1375 3.16504 79.0304 3.24023 78.8892C3.31771 78.7479 3.3667 78.5724 3.38721 78.3628ZM4.82617 78.1885V78.1167C4.82617 77.8455 4.86491 77.596 4.94238 77.3682C5.01986 77.138 5.13265 76.9386 5.28076 76.77C5.42887 76.6014 5.61003 76.4704 5.82422 76.377C6.03841 76.2812 6.28223 76.2334 6.55566 76.2334C6.83366 76.2334 7.07975 76.2812 7.29395 76.377C7.51042 76.4704 7.69271 76.6014 7.84082 76.77C7.98893 76.9386 8.10173 77.138 8.1792 77.3682C8.25667 77.596 8.29541 77.8455 8.29541 78.1167V78.1885C8.29541 78.4574 8.25667 78.7069 8.1792 78.937C8.10173 79.1649 7.98893 79.3643 7.84082 79.5352C7.69271 79.7038 7.51156 79.8348 7.29736 79.9282C7.08317 80.0216 6.83822 80.0684 6.5625 80.0684C6.28906 80.0684 6.04411 80.0216 5.82764 79.9282C5.61117 79.8348 5.42887 79.7038 5.28076 79.5352C5.13265 79.3643 5.01986 79.1649 4.94238 78.937C4.86491 78.7069 4.82617 78.4574 4.82617 78.1885ZM5.72852 78.1167V78.1885C5.72852 78.3503 5.74447 78.5018 5.77637 78.6431C5.80827 78.7843 5.85726 78.9085 5.92334 79.0156C5.98942 79.1227 6.07487 79.207 6.17969 79.2686C6.28678 79.3278 6.41439 79.3574 6.5625 79.3574C6.70833 79.3574 6.83366 79.3278 6.93848 79.2686C7.04329 79.207 7.12874 79.1227 7.19482 79.0156C7.26318 78.9085 7.31331 78.7843 7.34521 78.6431C7.37712 78.5018 7.39307 78.3503 7.39307 78.1885V78.1167C7.39307 77.9572 7.37712 77.8079 7.34521 77.6689C7.31331 77.5277 7.26318 77.4035 7.19482 77.2964C7.12874 77.187 7.04215 77.1016 6.93506 77.04C6.83024 76.9762 6.70378 76.9443 6.55566 76.9443C6.40983 76.9443 6.28451 76.9762 6.17969 77.04C6.07487 77.1016 5.98942 77.187 5.92334 77.2964C5.85726 77.4035 5.80827 77.5277 5.77637 77.6689C5.74447 77.8079 5.72852 77.9572 5.72852 78.1167ZM9.83691 77.0913V80H8.93457V76.3018H9.78223L9.83691 77.0913ZM9.69336 78.0176H9.42676C9.42904 77.7487 9.46549 77.5049 9.53613 77.2861C9.60677 77.0674 9.70589 76.8794 9.8335 76.7222C9.96338 76.5649 10.1172 76.4442 10.2949 76.3599C10.4727 76.2756 10.6709 76.2334 10.8896 76.2334C11.0674 76.2334 11.228 76.2585 11.3716 76.3086C11.5151 76.3587 11.6382 76.4385 11.7407 76.5479C11.8455 76.6572 11.9253 76.8008 11.98 76.9785C12.0369 77.154 12.0654 77.3704 12.0654 77.6279V80H11.1562V77.6211C11.1562 77.4525 11.1312 77.3192 11.0811 77.2212C11.0332 77.1232 10.9626 77.0537 10.8691 77.0127C10.778 76.9717 10.6652 76.9512 10.5308 76.9512C10.3918 76.9512 10.2699 76.9797 10.165 77.0366C10.0625 77.0913 9.97591 77.1676 9.90527 77.2656C9.83691 77.3636 9.78451 77.4764 9.74805 77.604C9.71159 77.7316 9.69336 77.8695 9.69336 78.0176ZM14.0444 80H13.1353V75.96C13.1353 75.682 13.1888 75.4484 13.2959 75.2593C13.403 75.0679 13.5557 74.9232 13.7539 74.8252C13.9521 74.7272 14.1857 74.6782 14.4546 74.6782C14.5435 74.6782 14.6278 74.6839 14.7075 74.6953C14.7896 74.7067 14.8704 74.7227 14.9502 74.7432L14.9331 75.4302C14.8898 75.4188 14.842 75.4108 14.7896 75.4062C14.7394 75.4017 14.6836 75.3994 14.6221 75.3994C14.499 75.3994 14.3942 75.4211 14.3076 75.4644C14.221 75.5076 14.1549 75.5715 14.1094 75.6558C14.0661 75.7378 14.0444 75.8392 14.0444 75.96V80ZM14.793 76.3018V76.9512H12.5781V76.3018H14.793ZM15.1895 78.1885V78.1167C15.1895 77.8455 15.2282 77.596 15.3057 77.3682C15.3831 77.138 15.4959 76.9386 15.644 76.77C15.7922 76.6014 15.9733 76.4704 16.1875 76.377C16.4017 76.2812 16.6455 76.2334 16.9189 76.2334C17.1969 76.2334 17.443 76.2812 17.6572 76.377C17.8737 76.4704 18.056 76.6014 18.2041 76.77C18.3522 76.9386 18.465 77.138 18.5425 77.3682C18.62 77.596 18.6587 77.8455 18.6587 78.1167V78.1885C18.6587 78.4574 18.62 78.7069 18.5425 78.937C18.465 79.1649 18.3522 79.3643 18.2041 79.5352C18.056 79.7038 17.8748 79.8348 17.6606 79.9282C17.4465 80.0216 17.2015 80.0684 16.9258 80.0684C16.6523 80.0684 16.4074 80.0216 16.1909 79.9282C15.9744 79.8348 15.7922 79.7038 15.644 79.5352C15.4959 79.3643 15.3831 79.1649 15.3057 78.937C15.2282 78.7069 15.1895 78.4574 15.1895 78.1885ZM16.0918 78.1167V78.1885C16.0918 78.3503 16.1077 78.5018 16.1396 78.6431C16.1715 78.7843 16.2205 78.9085 16.2866 79.0156C16.3527 79.1227 16.4382 79.207 16.543 79.2686C16.6501 79.3278 16.7777 79.3574 16.9258 79.3574C17.0716 79.3574 17.1969 79.3278 17.3018 79.2686C17.4066 79.207 17.492 79.1227 17.5581 79.0156C17.6265 78.9085 17.6766 78.7843 17.7085 78.6431C17.7404 78.5018 17.7563 78.3503 17.7563 78.1885V78.1167C17.7563 77.9572 17.7404 77.8079 17.7085 77.6689C17.6766 77.5277 17.6265 77.4035 17.5581 77.2964C17.492 77.187 17.4054 77.1016 17.2983 77.04C17.1935 76.9762 17.0671 76.9443 16.9189 76.9443C16.7731 76.9443 16.6478 76.9762 16.543 77.04C16.4382 77.1016 16.3527 77.187 16.2866 77.2964C16.2205 77.4035 16.1715 77.5277 16.1396 77.6689C16.1077 77.8079 16.0918 77.9572 16.0918 78.1167ZM20.2173 77.0571V80H19.3149V76.3018H20.1694L20.2173 77.0571ZM21.3418 76.2778L21.3281 77.1187C21.278 77.1095 21.221 77.1027 21.1572 77.0981C21.0957 77.0936 21.0376 77.0913 20.9829 77.0913C20.8439 77.0913 20.722 77.1107 20.6172 77.1494C20.5124 77.1859 20.4246 77.2394 20.354 77.3101C20.2856 77.3807 20.2332 77.4673 20.1968 77.5698C20.1603 77.6701 20.1398 77.784 20.1353 77.9116L19.9404 77.8877C19.9404 77.653 19.9644 77.4354 20.0122 77.2349C20.0601 77.0343 20.1296 76.8589 20.2207 76.7085C20.3118 76.5581 20.4258 76.4419 20.5625 76.3599C20.7015 76.2756 20.861 76.2334 21.041 76.2334C21.0911 76.2334 21.1447 76.238 21.2017 76.2471C21.2609 76.2539 21.3076 76.2642 21.3418 76.2778ZM23.7583 76.3018V76.9512H21.6392V76.3018H23.7583ZM22.2065 75.3926H23.1123V78.9336C23.1123 79.043 23.1271 79.1273 23.1567 79.1865C23.1864 79.2458 23.2308 79.2856 23.29 79.3062C23.3493 79.3267 23.4199 79.3369 23.502 79.3369C23.5612 79.3369 23.6159 79.3335 23.666 79.3267C23.7161 79.3198 23.7583 79.313 23.7925 79.3062L23.7959 79.9829C23.7207 80.008 23.6353 80.0285 23.5396 80.0444C23.4461 80.0604 23.3402 80.0684 23.2217 80.0684C23.0189 80.0684 22.8411 80.0342 22.6885 79.9658C22.5358 79.8952 22.4173 79.7824 22.333 79.6274C22.2487 79.4702 22.2065 79.2629 22.2065 79.0054V75.3926ZM25.2109 79.1865L25.2041 79.812C25.2041 80.0558 25.1437 80.3031 25.0229 80.5537C24.9022 80.8044 24.7461 81.0117 24.5547 81.1758L24.0762 80.9126C24.1377 80.8101 24.1947 80.7064 24.2471 80.6016C24.3018 80.4967 24.3451 80.3828 24.377 80.2598C24.4111 80.139 24.4282 80.0034 24.4282 79.853V79.1865H25.2109ZM29.7842 78.9883C29.7842 78.9108 29.7637 78.8413 29.7227 78.7798C29.6816 78.7183 29.6042 78.6624 29.4902 78.6123C29.3786 78.5599 29.2145 78.5109 28.998 78.4653C28.8066 78.4243 28.63 78.373 28.4683 78.3115C28.3065 78.25 28.1675 78.1759 28.0513 78.0894C27.9351 78.0005 27.8439 77.8968 27.7778 77.7783C27.714 77.6576 27.6821 77.5186 27.6821 77.3613C27.6821 77.2087 27.7152 77.0651 27.7812 76.9307C27.8473 76.7939 27.943 76.6743 28.0684 76.5718C28.1937 76.467 28.3464 76.3849 28.5264 76.3257C28.7064 76.2642 28.9092 76.2334 29.1348 76.2334C29.4492 76.2334 29.7192 76.2847 29.9448 76.3872C30.1727 76.4897 30.347 76.631 30.4678 76.811C30.5885 76.9888 30.6489 77.1893 30.6489 77.4126H29.7466C29.7466 77.3146 29.7238 77.2257 29.6782 77.146C29.6349 77.0662 29.5677 77.0024 29.4766 76.9546C29.3854 76.9045 29.2703 76.8794 29.1313 76.8794C29.006 76.8794 28.9001 76.8999 28.8135 76.9409C28.7292 76.9819 28.6654 77.0355 28.6221 77.1016C28.5788 77.1676 28.5571 77.2406 28.5571 77.3203C28.5571 77.3796 28.5685 77.4331 28.5913 77.481C28.6164 77.5265 28.6562 77.5687 28.7109 77.6074C28.7656 77.6462 28.8397 77.6815 28.9331 77.7134C29.0288 77.7453 29.1462 77.776 29.2852 77.8057C29.5609 77.8604 29.8013 77.9333 30.0063 78.0244C30.2137 78.1133 30.3755 78.2318 30.4917 78.3799C30.6079 78.528 30.666 78.7171 30.666 78.9473C30.666 79.1113 30.6307 79.2617 30.5601 79.3984C30.4894 79.5329 30.3869 79.6502 30.2524 79.7505C30.118 79.8507 29.9574 79.9294 29.7705 79.9863C29.5837 80.041 29.3729 80.0684 29.1382 80.0684C28.7987 80.0684 28.5116 80.008 28.2769 79.8872C28.0422 79.7642 27.8644 79.6092 27.7437 79.4224C27.6229 79.2332 27.5625 79.0373 27.5625 78.8345H28.4272C28.4341 78.978 28.4728 79.0931 28.5435 79.1797C28.6141 79.2663 28.703 79.3289 28.8101 79.3677C28.9194 79.4041 29.0345 79.4224 29.1553 79.4224C29.292 79.4224 29.4071 79.4041 29.5005 79.3677C29.5939 79.3289 29.6646 79.2777 29.7124 79.2139C29.7603 79.1478 29.7842 79.0726 29.7842 78.9883ZM33.0142 80.0684C32.7339 80.0684 32.4821 80.0228 32.2588 79.9316C32.0355 79.8405 31.8452 79.714 31.688 79.5522C31.533 79.3882 31.4134 79.1979 31.3291 78.9814C31.2471 78.7627 31.2061 78.528 31.2061 78.2773V78.1406C31.2061 77.8558 31.2471 77.5972 31.3291 77.3647C31.4111 77.13 31.5273 76.9284 31.6777 76.7598C31.8281 76.5911 32.0081 76.4613 32.2178 76.3701C32.4274 76.279 32.6587 76.2334 32.9116 76.2334C33.1737 76.2334 33.4049 76.2778 33.6055 76.3667C33.806 76.4533 33.9735 76.5763 34.1079 76.7358C34.2424 76.8953 34.3438 77.0868 34.4121 77.3101C34.4805 77.5311 34.5146 77.776 34.5146 78.0449V78.4243H31.6162V77.8022H33.626V77.7339C33.6214 77.5903 33.5941 77.4593 33.5439 77.3408C33.4938 77.2201 33.4163 77.1243 33.3115 77.0537C33.2067 76.9808 33.0711 76.9443 32.9048 76.9443C32.7703 76.9443 32.653 76.974 32.5527 77.0332C32.4548 77.0902 32.3727 77.1722 32.3066 77.2793C32.2428 77.3841 32.195 77.5094 32.1631 77.6553C32.1312 77.8011 32.1152 77.9629 32.1152 78.1406V78.2773C32.1152 78.4323 32.1357 78.5758 32.1768 78.708C32.2201 78.8402 32.2827 78.9552 32.3647 79.0532C32.4491 79.1489 32.5493 79.2241 32.6655 79.2788C32.784 79.3312 32.9185 79.3574 33.0688 79.3574C33.258 79.3574 33.4289 79.321 33.5815 79.248C33.7365 79.1729 33.8709 79.0623 33.9849 78.9165L34.4395 79.3882C34.362 79.5021 34.2572 79.6115 34.125 79.7163C33.9951 79.8211 33.8379 79.9066 33.6533 79.9727C33.4688 80.0365 33.2557 80.0684 33.0142 80.0684ZM32.3818 75.7856L33.0518 74.7466H34.0498L33.1167 75.7856H32.3818ZM36.6372 79.3574C36.7648 79.3574 36.8787 79.3324 36.979 79.2822C37.0793 79.2321 37.159 79.1615 37.2183 79.0703C37.2798 78.9792 37.3128 78.8732 37.3174 78.7524H38.1685C38.1639 79.0031 38.0933 79.2275 37.9565 79.4258C37.8198 79.624 37.6375 79.7812 37.4097 79.8975C37.1841 80.0114 36.9312 80.0684 36.6509 80.0684C36.366 80.0684 36.1177 80.0205 35.9058 79.9248C35.6938 79.8291 35.5173 79.6958 35.376 79.5249C35.237 79.354 35.1322 79.1558 35.0615 78.9302C34.9932 78.7046 34.959 78.4631 34.959 78.2056V78.0962C34.959 77.8387 34.9932 77.5972 35.0615 77.3716C35.1322 77.146 35.237 76.9478 35.376 76.7769C35.5173 76.606 35.6938 76.4727 35.9058 76.377C36.1177 76.2812 36.3649 76.2334 36.6475 76.2334C36.946 76.2334 37.208 76.2915 37.4336 76.4077C37.6615 76.5239 37.8392 76.688 37.9668 76.8999C38.0967 77.1118 38.1639 77.3613 38.1685 77.6484H37.3174C37.3128 77.5163 37.2832 77.3978 37.2285 77.293C37.1738 77.1882 37.0964 77.1038 36.9961 77.04C36.8958 76.9762 36.7739 76.9443 36.6304 76.9443C36.4777 76.9443 36.3501 76.9762 36.2476 77.04C36.1473 77.1038 36.0687 77.1916 36.0117 77.3032C35.957 77.4126 35.9183 77.5356 35.8955 77.6724C35.875 77.8068 35.8647 77.9481 35.8647 78.0962V78.2056C35.8647 78.356 35.875 78.4995 35.8955 78.6362C35.9183 78.7729 35.957 78.896 36.0117 79.0054C36.0687 79.1125 36.1473 79.1979 36.2476 79.2617C36.3501 79.3255 36.48 79.3574 36.6372 79.3574ZM40.9712 79.1216V76.3018H41.8804V80H41.0259L40.9712 79.1216ZM41.0874 78.356L41.3677 78.3491C41.3677 78.5975 41.3403 78.8265 41.2856 79.0361C41.231 79.2458 41.1455 79.4281 41.0293 79.583C40.9154 79.7357 40.7707 79.8553 40.5952 79.9419C40.4198 80.0262 40.2124 80.0684 39.9731 80.0684C39.7909 80.0684 39.6245 80.0433 39.4741 79.9932C39.3237 79.9408 39.1938 79.8599 39.0845 79.7505C38.9774 79.6388 38.8942 79.4964 38.835 79.3232C38.7757 79.1478 38.7461 78.937 38.7461 78.6909V76.3018H39.6484V78.6978C39.6484 78.8208 39.6621 78.9233 39.6895 79.0054C39.7191 79.0874 39.759 79.1546 39.8091 79.207C39.8615 79.2572 39.9219 79.2936 39.9902 79.3164C40.0609 79.3369 40.1361 79.3472 40.2158 79.3472C40.4346 79.3472 40.6066 79.3039 40.7319 79.2173C40.8595 79.1284 40.9507 79.0099 41.0054 78.8618C41.0601 78.7114 41.0874 78.5428 41.0874 78.356ZM43.5825 77.0571V80H42.6802V76.3018H43.5347L43.5825 77.0571ZM44.707 76.2778L44.6934 77.1187C44.6432 77.1095 44.5863 77.1027 44.5225 77.0981C44.4609 77.0936 44.4028 77.0913 44.3481 77.0913C44.2091 77.0913 44.0872 77.1107 43.9824 77.1494C43.8776 77.1859 43.7899 77.2394 43.7192 77.3101C43.6509 77.3807 43.5985 77.4673 43.562 77.5698C43.5256 77.6701 43.505 77.784 43.5005 77.9116L43.3057 77.8877C43.3057 77.653 43.3296 77.4354 43.3774 77.2349C43.4253 77.0343 43.4948 76.8589 43.5859 76.7085C43.6771 76.5581 43.791 76.4419 43.9277 76.3599C44.0667 76.2756 44.2262 76.2334 44.4062 76.2334C44.4564 76.2334 44.5099 76.238 44.5669 76.2471C44.6261 76.2539 44.6729 76.2642 44.707 76.2778ZM46.1597 76.3018V80H45.2539V76.3018H46.1597ZM45.1924 75.3345C45.1924 75.2 45.238 75.0884 45.3291 74.9995C45.4225 74.9106 45.5479 74.8662 45.7051 74.8662C45.8623 74.8662 45.9865 74.9106 46.0776 74.9995C46.1711 75.0884 46.2178 75.2 46.2178 75.3345C46.2178 75.4666 46.1711 75.5771 46.0776 75.666C45.9865 75.7549 45.8623 75.7993 45.7051 75.7993C45.5479 75.7993 45.4225 75.7549 45.3291 75.666C45.238 75.5771 45.1924 75.4666 45.1924 75.3345ZM48.771 76.3018V76.9512H46.6519V76.3018H48.771ZM47.2192 75.3926H48.125V78.9336C48.125 79.043 48.1398 79.1273 48.1694 79.1865C48.1991 79.2458 48.2435 79.2856 48.3027 79.3062C48.362 79.3267 48.4326 79.3369 48.5146 79.3369C48.5739 79.3369 48.6286 79.3335 48.6787 79.3267C48.7288 79.3198 48.771 79.313 48.8052 79.3062L48.8086 79.9829C48.7334 80.008 48.6479 80.0285 48.5522 80.0444C48.4588 80.0604 48.3529 80.0684 48.2344 80.0684C48.0316 80.0684 47.8538 80.0342 47.7012 79.9658C47.5485 79.8952 47.43 79.7824 47.3457 79.6274C47.2614 79.4702 47.2192 79.2629 47.2192 79.0054V75.3926ZM51.0337 80.0684C50.7534 80.0684 50.5016 80.0228 50.2783 79.9316C50.055 79.8405 49.8647 79.714 49.7075 79.5522C49.5526 79.3882 49.4329 79.1979 49.3486 78.9814C49.2666 78.7627 49.2256 78.528 49.2256 78.2773V78.1406C49.2256 77.8558 49.2666 77.5972 49.3486 77.3647C49.4307 77.13 49.5469 76.9284 49.6973 76.7598C49.8477 76.5911 50.0277 76.4613 50.2373 76.3701C50.4469 76.279 50.6782 76.2334 50.9312 76.2334C51.1932 76.2334 51.4245 76.2778 51.625 76.3667C51.8255 76.4533 51.993 76.5763 52.1274 76.7358C52.2619 76.8953 52.3633 77.0868 52.4316 77.3101C52.5 77.5311 52.5342 77.776 52.5342 78.0449V78.4243H49.6357V77.8022H51.6455V77.7339C51.641 77.5903 51.6136 77.4593 51.5635 77.3408C51.5133 77.2201 51.4359 77.1243 51.3311 77.0537C51.2262 76.9808 51.0907 76.9443 50.9243 76.9443C50.7899 76.9443 50.6725 76.974 50.5723 77.0332C50.4743 77.0902 50.3923 77.1722 50.3262 77.2793C50.2624 77.3841 50.2145 77.5094 50.1826 77.6553C50.1507 77.8011 50.1348 77.9629 50.1348 78.1406V78.2773C50.1348 78.4323 50.1553 78.5758 50.1963 78.708C50.2396 78.8402 50.3022 78.9552 50.3843 79.0532C50.4686 79.1489 50.5688 79.2241 50.6851 79.2788C50.8035 79.3312 50.938 79.3574 51.0884 79.3574C51.2775 79.3574 51.4484 79.321 51.6011 79.248C51.756 79.1729 51.8905 79.0623 52.0044 78.9165L52.459 79.3882C52.3815 79.5021 52.2767 79.6115 52.1445 79.7163C52.0146 79.8211 51.8574 79.9066 51.6729 79.9727C51.4883 80.0365 51.2752 80.0684 51.0337 80.0684ZM50.4014 75.7856L51.0713 74.7466H52.0693L51.1362 75.7856H50.4014ZM56.5435 80.0684C56.2632 80.0684 56.0114 80.0228 55.7881 79.9316C55.5648 79.8405 55.3745 79.714 55.2173 79.5522C55.0623 79.3882 54.9427 79.1979 54.8584 78.9814C54.7764 78.7627 54.7354 78.528 54.7354 78.2773V78.1406C54.7354 77.8558 54.7764 77.5972 54.8584 77.3647C54.9404 77.13 55.0566 76.9284 55.207 76.7598C55.3574 76.5911 55.5374 76.4613 55.7471 76.3701C55.9567 76.279 56.188 76.2334 56.4409 76.2334C56.703 76.2334 56.9342 76.2778 57.1348 76.3667C57.3353 76.4533 57.5028 76.5763 57.6372 76.7358C57.7716 76.8953 57.873 77.0868 57.9414 77.3101C58.0098 77.5311 58.0439 77.776 58.0439 78.0449V78.4243H55.1455V77.8022H57.1553V77.7339C57.1507 77.5903 57.1234 77.4593 57.0732 77.3408C57.0231 77.2201 56.9456 77.1243 56.8408 77.0537C56.736 76.9808 56.6004 76.9443 56.4341 76.9443C56.2996 76.9443 56.1823 76.974 56.082 77.0332C55.984 77.0902 55.902 77.1722 55.8359 77.2793C55.7721 77.3841 55.7243 77.5094 55.6924 77.6553C55.6605 77.8011 55.6445 77.9629 55.6445 78.1406V78.2773C55.6445 78.4323 55.665 78.5758 55.7061 78.708C55.7493 78.8402 55.812 78.9552 55.894 79.0532C55.9784 79.1489 56.0786 79.2241 56.1948 79.2788C56.3133 79.3312 56.4478 79.3574 56.5981 79.3574C56.7873 79.3574 56.9582 79.321 57.1108 79.248C57.2658 79.1729 57.4002 79.0623 57.5142 78.9165L57.9688 79.3882C57.8913 79.5021 57.7865 79.6115 57.6543 79.7163C57.5244 79.8211 57.3672 79.9066 57.1826 79.9727C56.998 80.0365 56.785 80.0684 56.5435 80.0684ZM60.3989 76.3018V76.9512H58.2798V76.3018H60.3989ZM58.8472 75.3926H59.7529V78.9336C59.7529 79.043 59.7677 79.1273 59.7974 79.1865C59.827 79.2458 59.8714 79.2856 59.9307 79.3062C59.9899 79.3267 60.0605 79.3369 60.1426 79.3369C60.2018 79.3369 60.2565 79.3335 60.3066 79.3267C60.3568 79.3198 60.3989 79.313 60.4331 79.3062L60.4365 79.9829C60.3613 80.008 60.2759 80.0285 60.1802 80.0444C60.0868 80.0604 59.9808 80.0684 59.8623 80.0684C59.6595 80.0684 59.4818 80.0342 59.3291 79.9658C59.1764 79.8952 59.0579 79.7824 58.9736 79.6274C58.8893 79.4702 58.8472 79.2629 58.8472 79.0054V75.3926ZM62.7402 74.75H63.646V79.1831L63.5571 80H62.7402V74.75ZM66.0249 78.1133V78.1851C66.0249 78.4608 65.9941 78.7137 65.9326 78.9438C65.8734 79.174 65.7834 79.3734 65.6626 79.542C65.5418 79.7083 65.3914 79.8382 65.2114 79.9316C65.0337 80.0228 64.8252 80.0684 64.5859 80.0684C64.3581 80.0684 64.1598 80.0239 63.9912 79.9351C63.8249 79.8462 63.6847 79.7209 63.5708 79.5591C63.4569 79.395 63.3657 79.2025 63.2974 78.9814C63.229 78.7581 63.1777 78.5143 63.1436 78.25V78.0552C63.1777 77.7886 63.229 77.5448 63.2974 77.3237C63.3657 77.1027 63.4569 76.9102 63.5708 76.7461C63.6847 76.582 63.8249 76.4556 63.9912 76.3667C64.1576 76.2778 64.3535 76.2334 64.5791 76.2334C64.8206 76.2334 65.0314 76.2801 65.2114 76.3735C65.3937 76.4647 65.5441 76.5946 65.6626 76.7632C65.7834 76.9295 65.8734 77.1278 65.9326 77.3579C65.9941 77.5858 66.0249 77.8376 66.0249 78.1133ZM65.1191 78.1851V78.1133C65.1191 77.9561 65.1066 77.8079 65.0815 77.6689C65.0565 77.5277 65.0155 77.4035 64.9585 77.2964C64.9015 77.1893 64.8241 77.105 64.7261 77.0435C64.6281 76.9819 64.505 76.9512 64.3569 76.9512C64.2157 76.9512 64.0949 76.9751 63.9946 77.0229C63.8966 77.0708 63.8146 77.1369 63.7485 77.2212C63.6847 77.3055 63.6346 77.4046 63.5981 77.5186C63.564 77.6325 63.5412 77.7555 63.5298 77.8877V78.4209C63.5457 78.5964 63.5833 78.7547 63.6426 78.896C63.7018 79.035 63.7896 79.1455 63.9058 79.2275C64.0243 79.3096 64.1769 79.3506 64.3638 79.3506C64.5096 79.3506 64.6315 79.3221 64.7295 79.2651C64.8275 79.2059 64.9049 79.1239 64.9619 79.019C65.0189 78.9119 65.0588 78.7878 65.0815 78.6465C65.1066 78.5052 65.1191 78.3514 65.1191 78.1851ZM67.6382 76.3018V80H66.7324V76.3018H67.6382ZM66.6709 75.3345C66.6709 75.2 66.7165 75.0884 66.8076 74.9995C66.901 74.9106 67.0264 74.8662 67.1836 74.8662C67.3408 74.8662 67.465 74.9106 67.5562 74.9995C67.6496 75.0884 67.6963 75.2 67.6963 75.3345C67.6963 75.4666 67.6496 75.5771 67.5562 75.666C67.465 75.7549 67.3408 75.7993 67.1836 75.7993C67.0264 75.7993 66.901 75.7549 66.8076 75.666C66.7165 75.5771 66.6709 75.4666 66.6709 75.3345ZM70.1606 80.0684C69.8804 80.0684 69.6286 80.0228 69.4053 79.9316C69.182 79.8405 68.9917 79.714 68.8345 79.5522C68.6795 79.3882 68.5599 79.1979 68.4756 78.9814C68.3936 78.7627 68.3525 78.528 68.3525 78.2773V78.1406C68.3525 77.8558 68.3936 77.5972 68.4756 77.3647C68.5576 77.13 68.6738 76.9284 68.8242 76.7598C68.9746 76.5911 69.1546 76.4613 69.3643 76.3701C69.5739 76.279 69.8052 76.2334 70.0581 76.2334C70.3201 76.2334 70.5514 76.2778 70.752 76.3667C70.9525 76.4533 71.12 76.5763 71.2544 76.7358C71.3888 76.8953 71.4902 77.0868 71.5586 77.3101C71.627 77.5311 71.6611 77.776 71.6611 78.0449V78.4243H68.7627V77.8022H70.7725V77.7339C70.7679 77.5903 70.7406 77.4593 70.6904 77.3408C70.6403 77.2201 70.5628 77.1243 70.458 77.0537C70.3532 76.9808 70.2176 76.9443 70.0513 76.9443C69.9168 76.9443 69.7995 76.974 69.6992 77.0332C69.6012 77.0902 69.5192 77.1722 69.4531 77.2793C69.3893 77.3841 69.3415 77.5094 69.3096 77.6553C69.2777 77.8011 69.2617 77.9629 69.2617 78.1406V78.2773C69.2617 78.4323 69.2822 78.5758 69.3232 78.708C69.3665 78.8402 69.4292 78.9552 69.5112 79.0532C69.5955 79.1489 69.6958 79.2241 69.812 79.2788C69.9305 79.3312 70.0649 79.3574 70.2153 79.3574C70.4045 79.3574 70.5754 79.321 70.728 79.248C70.883 79.1729 71.0174 79.0623 71.1313 78.9165L71.5859 79.3882C71.5085 79.5021 71.4036 79.6115 71.2715 79.7163C71.1416 79.8211 70.9844 79.9066 70.7998 79.9727C70.6152 80.0365 70.4022 80.0684 70.1606 80.0684ZM73.1514 77.0913V80H72.249V76.3018H73.0967L73.1514 77.0913ZM73.0078 78.0176H72.7412C72.7435 77.7487 72.7799 77.5049 72.8506 77.2861C72.9212 77.0674 73.0203 76.8794 73.1479 76.7222C73.2778 76.5649 73.4316 76.4442 73.6094 76.3599C73.7871 76.2756 73.9854 76.2334 74.2041 76.2334C74.3818 76.2334 74.5425 76.2585 74.686 76.3086C74.8296 76.3587 74.9526 76.4385 75.0552 76.5479C75.16 76.6572 75.2397 76.8008 75.2944 76.9785C75.3514 77.154 75.3799 77.3704 75.3799 77.6279V80H74.4707V77.6211C74.4707 77.4525 74.4456 77.3192 74.3955 77.2212C74.3477 77.1232 74.277 77.0537 74.1836 77.0127C74.0924 76.9717 73.9797 76.9512 73.8452 76.9512C73.7062 76.9512 73.5843 76.9797 73.4795 77.0366C73.377 77.0913 73.2904 77.1676 73.2197 77.2656C73.1514 77.3636 73.099 77.4764 73.0625 77.604C73.026 77.7316 73.0078 77.8695 73.0078 78.0176ZM77.9741 77.5117V78.2261H76.1045V77.5117H77.9741ZM80.4077 80.0684C80.1274 80.0684 79.8757 80.0228 79.6523 79.9316C79.429 79.8405 79.2388 79.714 79.0815 79.5522C78.9266 79.3882 78.807 79.1979 78.7227 78.9814C78.6406 78.7627 78.5996 78.528 78.5996 78.2773V78.1406C78.5996 77.8558 78.6406 77.5972 78.7227 77.3647C78.8047 77.13 78.9209 76.9284 79.0713 76.7598C79.2217 76.5911 79.4017 76.4613 79.6113 76.3701C79.821 76.279 80.0522 76.2334 80.3052 76.2334C80.5672 76.2334 80.7985 76.2778 80.999 76.3667C81.1995 76.4533 81.367 76.5763 81.5015 76.7358C81.6359 76.8953 81.7373 77.0868 81.8057 77.3101C81.874 77.5311 81.9082 77.776 81.9082 78.0449V78.4243H79.0098V77.8022H81.0195V77.7339C81.015 77.5903 80.9876 77.4593 80.9375 77.3408C80.8874 77.2201 80.8099 77.1243 80.7051 77.0537C80.6003 76.9808 80.4647 76.9443 80.2983 76.9443C80.1639 76.9443 80.0465 76.974 79.9463 77.0332C79.8483 77.0902 79.7663 77.1722 79.7002 77.2793C79.6364 77.3841 79.5885 77.5094 79.5566 77.6553C79.5247 77.8011 79.5088 77.9629 79.5088 78.1406V78.2773C79.5088 78.4323 79.5293 78.5758 79.5703 78.708C79.6136 78.8402 79.6763 78.9552 79.7583 79.0532C79.8426 79.1489 79.9429 79.2241 80.0591 79.2788C80.1776 79.3312 80.312 79.3574 80.4624 79.3574C80.6515 79.3574 80.8224 79.321 80.9751 79.248C81.13 79.1729 81.2645 79.0623 81.3784 78.9165L81.833 79.3882C81.7555 79.5021 81.6507 79.6115 81.5186 79.7163C81.3887 79.8211 81.2314 79.9066 81.0469 79.9727C80.8623 80.0365 80.6493 80.0684 80.4077 80.0684ZM80.4795 74.7466L81.4707 75.6934V75.7344H80.7461L80.2163 75.2148L79.6899 75.7344H78.9756V75.6865L79.9531 74.7466H80.4795ZM84.2632 76.3018V76.9512H82.144V76.3018H84.2632ZM82.7114 75.3926H83.6172V78.9336C83.6172 79.043 83.632 79.1273 83.6616 79.1865C83.6912 79.2458 83.7357 79.2856 83.7949 79.3062C83.8542 79.3267 83.9248 79.3369 84.0068 79.3369C84.0661 79.3369 84.1208 79.3335 84.1709 79.3267C84.221 79.3198 84.2632 79.313 84.2974 79.3062L84.3008 79.9829C84.2256 80.008 84.1401 80.0285 84.0444 80.0444C83.951 80.0604 83.8451 80.0684 83.7266 80.0684C83.5238 80.0684 83.346 80.0342 83.1934 79.9658C83.0407 79.8952 82.9222 79.7824 82.8379 79.6274C82.7536 79.4702 82.7114 79.2629 82.7114 79.0054V75.3926ZM85.7671 77.0571V80H84.8647V76.3018H85.7192L85.7671 77.0571ZM86.8916 76.2778L86.8779 77.1187C86.8278 77.1095 86.7708 77.1027 86.707 77.0981C86.6455 77.0936 86.5874 77.0913 86.5327 77.0913C86.3937 77.0913 86.2718 77.1107 86.167 77.1494C86.0622 77.1859 85.9744 77.2394 85.9038 77.3101C85.8354 77.3807 85.783 77.4673 85.7466 77.5698C85.7101 77.6701 85.6896 77.784 85.6851 77.9116L85.4902 77.8877C85.4902 77.653 85.5142 77.4354 85.562 77.2349C85.6099 77.0343 85.6794 76.8589 85.7705 76.7085C85.8617 76.5581 85.9756 76.4419 86.1123 76.3599C86.2513 76.2756 86.4108 76.2334 86.5908 76.2334C86.641 76.2334 86.6945 76.238 86.7515 76.2471C86.8107 76.2539 86.8574 76.2642 86.8916 76.2778ZM88.98 80.0684C88.6997 80.0684 88.4479 80.0228 88.2246 79.9316C88.0013 79.8405 87.811 79.714 87.6538 79.5522C87.4989 79.3882 87.3792 79.1979 87.2949 78.9814C87.2129 78.7627 87.1719 78.528 87.1719 78.2773V78.1406C87.1719 77.8558 87.2129 77.5972 87.2949 77.3647C87.377 77.13 87.4932 76.9284 87.6436 76.7598C87.7939 76.5911 87.974 76.4613 88.1836 76.3701C88.3932 76.279 88.6245 76.2334 88.8774 76.2334C89.1395 76.2334 89.3708 76.2778 89.5713 76.3667C89.7718 76.4533 89.9393 76.5763 90.0737 76.7358C90.2082 76.8953 90.3096 77.0868 90.3779 77.3101C90.4463 77.5311 90.4805 77.776 90.4805 78.0449V78.4243H87.582V77.8022H89.5918V77.7339C89.5872 77.5903 89.5599 77.4593 89.5098 77.3408C89.4596 77.2201 89.3822 77.1243 89.2773 77.0537C89.1725 76.9808 89.0369 76.9443 88.8706 76.9443C88.7362 76.9443 88.6188 76.974 88.5186 77.0332C88.4206 77.0902 88.3385 77.1722 88.2725 77.2793C88.2087 77.3841 88.1608 77.5094 88.1289 77.6553C88.097 77.8011 88.0811 77.9629 88.0811 78.1406V78.2773C88.0811 78.4323 88.1016 78.5758 88.1426 78.708C88.1859 78.8402 88.2485 78.9552 88.3306 79.0532C88.4149 79.1489 88.5151 79.2241 88.6313 79.2788C88.7498 79.3312 88.8843 79.3574 89.0347 79.3574C89.2238 79.3574 89.3947 79.321 89.5474 79.248C89.7023 79.1729 89.8368 79.0623 89.9507 78.9165L90.4053 79.3882C90.3278 79.5021 90.223 79.6115 90.0908 79.7163C89.9609 79.8211 89.8037 79.9066 89.6191 79.9727C89.4346 80.0365 89.2215 80.0684 88.98 80.0684ZM94.3462 79.3574C94.4738 79.3574 94.5877 79.3324 94.688 79.2822C94.7882 79.2321 94.868 79.1615 94.9272 79.0703C94.9888 78.9792 95.0218 78.8732 95.0264 78.7524H95.8774C95.8729 79.0031 95.8022 79.2275 95.6655 79.4258C95.5288 79.624 95.3465 79.7812 95.1187 79.8975C94.8931 80.0114 94.6401 80.0684 94.3599 80.0684C94.075 80.0684 93.8267 80.0205 93.6147 79.9248C93.4028 79.8291 93.2262 79.6958 93.085 79.5249C92.946 79.354 92.8411 79.1558 92.7705 78.9302C92.7021 78.7046 92.668 78.4631 92.668 78.2056V78.0962C92.668 77.8387 92.7021 77.5972 92.7705 77.3716C92.8411 77.146 92.946 76.9478 93.085 76.7769C93.2262 76.606 93.4028 76.4727 93.6147 76.377C93.8267 76.2812 94.0739 76.2334 94.3564 76.2334C94.6549 76.2334 94.917 76.2915 95.1426 76.4077C95.3704 76.5239 95.5482 76.688 95.6758 76.8999C95.8057 77.1118 95.8729 77.3613 95.8774 77.6484H95.0264C95.0218 77.5163 94.9922 77.3978 94.9375 77.293C94.8828 77.1882 94.8053 77.1038 94.7051 77.04C94.6048 76.9762 94.4829 76.9443 94.3394 76.9443C94.1867 76.9443 94.0591 76.9762 93.9565 77.04C93.8563 77.1038 93.7777 77.1916 93.7207 77.3032C93.666 77.4126 93.6273 77.5356 93.6045 77.6724C93.584 77.8068 93.5737 77.9481 93.5737 78.0962V78.2056C93.5737 78.356 93.584 78.4995 93.6045 78.6362C93.6273 78.7729 93.666 78.896 93.7207 79.0054C93.7777 79.1125 93.8563 79.1979 93.9565 79.2617C94.0591 79.3255 94.189 79.3574 94.3462 79.3574ZM97.3643 74.75V80H96.4585V74.75H97.3643ZM97.2207 78.0176H96.9541C96.9541 77.7601 96.9883 77.5231 97.0566 77.3066C97.125 77.0902 97.2218 76.9022 97.3472 76.7427C97.4725 76.5809 97.6217 76.4556 97.7949 76.3667C97.9704 76.2778 98.1641 76.2334 98.376 76.2334C98.5583 76.2334 98.7235 76.2596 98.8716 76.312C99.022 76.3621 99.1507 76.443 99.2578 76.5547C99.3649 76.6663 99.4469 76.8122 99.5039 76.9922C99.5632 77.1699 99.5928 77.3864 99.5928 77.6416V80H98.6836V77.6348C98.6836 77.4639 98.6585 77.3294 98.6084 77.2314C98.5583 77.1312 98.4865 77.0594 98.3931 77.0161C98.3019 76.9728 98.1891 76.9512 98.0547 76.9512C97.9089 76.9512 97.7835 76.9797 97.6787 77.0366C97.5739 77.0913 97.4873 77.1676 97.4189 77.2656C97.3529 77.3636 97.3027 77.4764 97.2686 77.604C97.2367 77.7316 97.2207 77.8695 97.2207 78.0176ZM102.05 80.0684C101.77 80.0684 101.518 80.0228 101.295 79.9316C101.072 79.8405 100.881 79.714 100.724 79.5522C100.569 79.3882 100.45 79.1979 100.365 78.9814C100.283 78.7627 100.242 78.528 100.242 78.2773V78.1406C100.242 77.8558 100.283 77.5972 100.365 77.3647C100.447 77.13 100.563 76.9284 100.714 76.7598C100.864 76.5911 101.044 76.4613 101.254 76.3701C101.464 76.279 101.695 76.2334 101.948 76.2334C102.21 76.2334 102.441 76.2778 102.642 76.3667C102.842 76.4533 103.01 76.5763 103.144 76.7358C103.278 76.8953 103.38 77.0868 103.448 77.3101C103.517 77.5311 103.551 77.776 103.551 78.0449V78.4243H100.652V77.8022H102.662V77.7339C102.658 77.5903 102.63 77.4593 102.58 77.3408C102.53 77.2201 102.452 77.1243 102.348 77.0537C102.243 76.9808 102.107 76.9443 101.941 76.9443C101.806 76.9443 101.689 76.974 101.589 77.0332C101.491 77.0902 101.409 77.1722 101.343 77.2793C101.279 77.3841 101.231 77.5094 101.199 77.6553C101.167 77.8011 101.151 77.9629 101.151 78.1406V78.2773C101.151 78.4323 101.172 78.5758 101.213 78.708C101.256 78.8402 101.319 78.9552 101.401 79.0532C101.485 79.1489 101.585 79.2241 101.702 79.2788C101.82 79.3312 101.955 79.3574 102.105 79.3574C102.294 79.3574 102.465 79.321 102.618 79.248C102.773 79.1729 102.907 79.0623 103.021 78.9165L103.476 79.3882C103.398 79.5021 103.293 79.6115 103.161 79.7163C103.031 79.8211 102.874 79.9066 102.689 79.9727C102.505 80.0365 102.292 80.0684 102.05 80.0684ZM107.054 79.2891V80H104.272V79.2891H107.054ZM106.989 76.8418L104.61 80H104.016V79.4429L106.381 76.3018H106.989V76.8418ZM106.658 76.3018V77.0161H104.063V76.3018H106.658ZM110.667 79.3164L111.528 76.3018H112.472L111.204 80H110.629L110.667 79.3164ZM110.038 76.3018L110.91 79.3232L110.94 80H110.363L109.091 76.3018H110.038ZM112.731 78.1885V78.1167C112.731 77.8455 112.77 77.596 112.848 77.3682C112.925 77.138 113.038 76.9386 113.186 76.77C113.334 76.6014 113.515 76.4704 113.729 76.377C113.944 76.2812 114.188 76.2334 114.461 76.2334C114.739 76.2334 114.985 76.2812 115.199 76.377C115.416 76.4704 115.598 76.6014 115.746 76.77C115.894 76.9386 116.007 77.138 116.084 77.3682C116.162 77.596 116.201 77.8455 116.201 78.1167V78.1885C116.201 78.4574 116.162 78.7069 116.084 78.937C116.007 79.1649 115.894 79.3643 115.746 79.5352C115.598 79.7038 115.417 79.8348 115.203 79.9282C114.988 80.0216 114.743 80.0684 114.468 80.0684C114.194 80.0684 113.949 80.0216 113.733 79.9282C113.516 79.8348 113.334 79.7038 113.186 79.5352C113.038 79.3643 112.925 79.1649 112.848 78.937C112.77 78.7069 112.731 78.4574 112.731 78.1885ZM113.634 78.1167V78.1885C113.634 78.3503 113.65 78.5018 113.682 78.6431C113.714 78.7843 113.763 78.9085 113.829 79.0156C113.895 79.1227 113.98 79.207 114.085 79.2686C114.192 79.3278 114.32 79.3574 114.468 79.3574C114.614 79.3574 114.739 79.3278 114.844 79.2686C114.949 79.207 115.034 79.1227 115.1 79.0156C115.168 78.9085 115.219 78.7843 115.25 78.6431C115.282 78.5018 115.298 78.3503 115.298 78.1885V78.1167C115.298 77.9572 115.282 77.8079 115.25 77.6689C115.219 77.5277 115.168 77.4035 115.1 77.2964C115.034 77.187 114.947 77.1016 114.84 77.04C114.736 76.9762 114.609 76.9443 114.461 76.9443C114.315 76.9443 114.19 76.9762 114.085 77.04C113.98 77.1016 113.895 77.187 113.829 77.2964C113.763 77.4035 113.714 77.5277 113.682 77.6689C113.65 77.8079 113.634 77.9572 113.634 78.1167ZM119.058 79.1216V76.3018H119.967V80H119.113L119.058 79.1216ZM119.174 78.356L119.455 78.3491C119.455 78.5975 119.427 78.8265 119.373 79.0361C119.318 79.2458 119.232 79.4281 119.116 79.583C119.002 79.7357 118.858 79.8553 118.682 79.9419C118.507 80.0262 118.299 80.0684 118.06 80.0684C117.878 80.0684 117.711 80.0433 117.561 79.9932C117.411 79.9408 117.281 79.8599 117.171 79.7505C117.064 79.6388 116.981 79.4964 116.922 79.3232C116.863 79.1478 116.833 78.937 116.833 78.6909V76.3018H117.735V78.6978C117.735 78.8208 117.749 78.9233 117.776 79.0054C117.806 79.0874 117.846 79.1546 117.896 79.207C117.948 79.2572 118.009 79.2936 118.077 79.3164C118.148 79.3369 118.223 79.3472 118.303 79.3472C118.521 79.3472 118.694 79.3039 118.819 79.2173C118.946 79.1284 119.038 79.0099 119.092 78.8618C119.147 78.7114 119.174 78.5428 119.174 78.356ZM122.801 78.9883C122.801 78.9108 122.78 78.8413 122.739 78.7798C122.698 78.7183 122.621 78.6624 122.507 78.6123C122.395 78.5599 122.231 78.5109 122.015 78.4653C121.823 78.4243 121.647 78.373 121.485 78.3115C121.323 78.25 121.184 78.1759 121.068 78.0894C120.952 78.0005 120.861 77.8968 120.794 77.7783C120.731 77.6576 120.699 77.5186 120.699 77.3613C120.699 77.2087 120.732 77.0651 120.798 76.9307C120.864 76.7939 120.96 76.6743 121.085 76.5718C121.21 76.467 121.363 76.3849 121.543 76.3257C121.723 76.2642 121.926 76.2334 122.151 76.2334C122.466 76.2334 122.736 76.2847 122.961 76.3872C123.189 76.4897 123.364 76.631 123.484 76.811C123.605 76.9888 123.666 77.1893 123.666 77.4126H122.763C122.763 77.3146 122.74 77.2257 122.695 77.146C122.652 77.0662 122.584 77.0024 122.493 76.9546C122.402 76.9045 122.287 76.8794 122.148 76.8794C122.023 76.8794 121.917 76.8999 121.83 76.9409C121.746 76.9819 121.682 77.0355 121.639 77.1016C121.595 77.1676 121.574 77.2406 121.574 77.3203C121.574 77.3796 121.585 77.4331 121.608 77.481C121.633 77.5265 121.673 77.5687 121.728 77.6074C121.782 77.6462 121.856 77.6815 121.95 77.7134C122.045 77.7453 122.163 77.776 122.302 77.8057C122.577 77.8604 122.818 77.9333 123.023 78.0244C123.23 78.1133 123.392 78.2318 123.508 78.3799C123.625 78.528 123.683 78.7171 123.683 78.9473C123.683 79.1113 123.647 79.2617 123.577 79.3984C123.506 79.5329 123.403 79.6502 123.269 79.7505C123.135 79.8507 122.974 79.9294 122.787 79.9863C122.6 80.041 122.389 80.0684 122.155 80.0684C121.815 80.0684 121.528 80.008 121.293 79.8872C121.059 79.7642 120.881 79.6092 120.76 79.4224C120.639 79.2332 120.579 79.0373 120.579 78.8345H121.444C121.451 78.978 121.489 79.0931 121.56 79.1797C121.631 79.2663 121.72 79.3289 121.827 79.3677C121.936 79.4041 122.051 79.4224 122.172 79.4224C122.309 79.4224 122.424 79.4041 122.517 79.3677C122.611 79.3289 122.681 79.2777 122.729 79.2139C122.777 79.1478 122.801 79.0726 122.801 78.9883Z" fill="white"/>
<path d="M3.56445 63.582V72H1.21094V61.4336H3.42773L3.56445 63.582ZM3.18359 66.3262L2.38281 66.3164C2.38281 65.5872 2.47396 64.9134 2.65625 64.2949C2.83854 63.6764 3.10547 63.1393 3.45703 62.6836C3.80859 62.2214 4.24479 61.8665 4.76562 61.6191C5.29297 61.3652 5.90169 61.2383 6.5918 61.2383C7.07357 61.2383 7.51302 61.3099 7.91016 61.4531C8.3138 61.5898 8.66211 61.8079 8.95508 62.1074C9.25456 62.4069 9.48242 62.791 9.63867 63.2598C9.80143 63.7285 9.88281 64.2949 9.88281 64.959V72H7.5293V65.1641C7.5293 64.6497 7.45117 64.2461 7.29492 63.9531C7.14518 63.6602 6.92708 63.4518 6.64062 63.3281C6.36068 63.1979 6.02539 63.1328 5.63477 63.1328C5.19206 63.1328 4.81445 63.2174 4.50195 63.3867C4.19596 63.556 3.94531 63.7871 3.75 64.0801C3.55469 64.373 3.41146 64.7116 3.32031 65.0957C3.22917 65.4798 3.18359 65.89 3.18359 66.3262ZM9.73633 65.7012L8.63281 65.9453C8.63281 65.3073 8.7207 64.7051 8.89648 64.1387C9.07878 63.5658 9.34245 63.0645 9.6875 62.6348C10.0391 62.1986 10.472 61.8568 10.9863 61.6094C11.5007 61.362 12.0898 61.2383 12.7539 61.2383C13.2943 61.2383 13.776 61.3132 14.1992 61.4629C14.6289 61.6061 14.9935 61.834 15.293 62.1465C15.5924 62.459 15.8203 62.8659 15.9766 63.3672C16.1328 63.862 16.2109 64.4609 16.2109 65.1641V72H13.8477V65.1543C13.8477 64.6204 13.7695 64.207 13.6133 63.9141C13.4635 63.6211 13.2487 63.4193 12.9688 63.3086C12.6888 63.1914 12.3535 63.1328 11.9629 63.1328C11.5983 63.1328 11.276 63.2012 10.9961 63.3379C10.7227 63.4681 10.4915 63.6536 10.3027 63.8945C10.1139 64.1289 9.9707 64.3991 9.87305 64.7051C9.7819 65.0111 9.73633 65.3431 9.73633 65.7012ZM21.1523 61.4336V72H18.7891V61.4336H21.1523ZM18.6328 58.6602C18.6328 58.3021 18.75 58.0059 18.9844 57.7715C19.2253 57.5306 19.5573 57.4102 19.9805 57.4102C20.3971 57.4102 20.7259 57.5306 20.9668 57.7715C21.2077 58.0059 21.3281 58.3021 21.3281 58.6602C21.3281 59.0117 21.2077 59.3047 20.9668 59.5391C20.7259 59.7734 20.3971 59.8906 19.9805 59.8906C19.5573 59.8906 19.2253 59.7734 18.9844 59.5391C18.75 59.3047 18.6328 59.0117 18.6328 58.6602ZM26.7188 57.7812V72H23.7891V57.7812H26.7188ZM35.2344 57.7812L29.5996 64.8027L26.3477 68.2988L25.8203 65.5254L28.0176 62.5176L31.6406 57.7812H35.2344ZM31.9043 72L27.7148 65.4277L29.8828 63.6113L35.3711 72H31.9043ZM42.0312 69.6172V64.9102C42.0312 64.5716 41.9759 64.2819 41.8652 64.041C41.7546 63.7936 41.582 63.6016 41.3477 63.4648C41.1198 63.3281 40.8236 63.2598 40.459 63.2598C40.1465 63.2598 39.8763 63.3151 39.6484 63.4258C39.4206 63.5299 39.2448 63.6829 39.1211 63.8848C38.9974 64.0801 38.9355 64.3112 38.9355 64.5781H36.123C36.123 64.1289 36.2272 63.7025 36.4355 63.2988C36.6439 62.8952 36.9466 62.5404 37.3438 62.2344C37.7409 61.9219 38.2129 61.6777 38.7598 61.502C39.3132 61.3262 39.9316 61.2383 40.6152 61.2383C41.4355 61.2383 42.1647 61.375 42.8027 61.6484C43.4408 61.9219 43.9421 62.332 44.3066 62.8789C44.6777 63.4258 44.8633 64.1094 44.8633 64.9297V69.4512C44.8633 70.0306 44.8991 70.5059 44.9707 70.877C45.0423 71.2415 45.1465 71.5605 45.2832 71.834V72H42.4414C42.3047 71.7135 42.2005 71.3555 42.1289 70.9258C42.0638 70.4896 42.0312 70.0534 42.0312 69.6172ZM42.4023 65.5645L42.4219 67.1562H40.8496C40.4785 67.1562 40.1562 67.1986 39.8828 67.2832C39.6094 67.3678 39.3848 67.4883 39.209 67.6445C39.0332 67.7943 38.903 67.9701 38.8184 68.1719C38.7402 68.3737 38.7012 68.5951 38.7012 68.8359C38.7012 69.0768 38.7565 69.2949 38.8672 69.4902C38.9779 69.679 39.1374 69.8288 39.3457 69.9395C39.554 70.0436 39.7982 70.0957 40.0781 70.0957C40.5013 70.0957 40.8691 70.0111 41.1816 69.8418C41.4941 69.6725 41.735 69.4642 41.9043 69.2168C42.0801 68.9694 42.1712 68.735 42.1777 68.5137L42.9199 69.7051C42.8158 69.972 42.6725 70.2487 42.4902 70.5352C42.3145 70.8216 42.0898 71.0918 41.8164 71.3457C41.543 71.5931 41.2142 71.7982 40.8301 71.9609C40.446 72.1172 39.9902 72.1953 39.4629 72.1953C38.7923 72.1953 38.1836 72.0618 37.6367 71.7949C37.0964 71.5215 36.6667 71.1471 36.3477 70.6719C36.0352 70.1901 35.8789 69.6432 35.8789 69.0312C35.8789 68.4779 35.9831 67.9863 36.1914 67.5566C36.3997 67.127 36.7057 66.7656 37.1094 66.4727C37.5195 66.1732 38.0306 65.9486 38.6426 65.7988C39.2546 65.6426 39.9642 65.5645 40.7715 65.5645H42.4023ZM55.4395 69.8027V72H47.4121V69.8027H55.4395ZM55.2832 63.0547L48.5449 72H46.6602V70.3301L53.3691 61.4336H55.2832V63.0547ZM54.2871 61.4336V63.6406H46.8164V61.4336H54.2871ZM62.9102 69.6172V64.9102C62.9102 64.5716 62.8548 64.2819 62.7441 64.041C62.6335 63.7936 62.4609 63.6016 62.2266 63.4648C61.9987 63.3281 61.7025 63.2598 61.3379 63.2598C61.0254 63.2598 60.7552 63.3151 60.5273 63.4258C60.2995 63.5299 60.1237 63.6829 60 63.8848C59.8763 64.0801 59.8145 64.3112 59.8145 64.5781H57.002C57.002 64.1289 57.1061 63.7025 57.3145 63.2988C57.5228 62.8952 57.8255 62.5404 58.2227 62.2344C58.6198 61.9219 59.0918 61.6777 59.6387 61.502C60.1921 61.3262 60.8105 61.2383 61.4941 61.2383C62.3145 61.2383 63.0436 61.375 63.6816 61.6484C64.3197 61.9219 64.821 62.332 65.1855 62.8789C65.5566 63.4258 65.7422 64.1094 65.7422 64.9297V69.4512C65.7422 70.0306 65.778 70.5059 65.8496 70.877C65.9212 71.2415 66.0254 71.5605 66.1621 71.834V72H63.3203C63.1836 71.7135 63.0794 71.3555 63.0078 70.9258C62.9427 70.4896 62.9102 70.0534 62.9102 69.6172ZM63.2812 65.5645L63.3008 67.1562H61.7285C61.3574 67.1562 61.0352 67.1986 60.7617 67.2832C60.4883 67.3678 60.2637 67.4883 60.0879 67.6445C59.9121 67.7943 59.7819 67.9701 59.6973 68.1719C59.6191 68.3737 59.5801 68.5951 59.5801 68.8359C59.5801 69.0768 59.6354 69.2949 59.7461 69.4902C59.8568 69.679 60.0163 69.8288 60.2246 69.9395C60.4329 70.0436 60.6771 70.0957 60.957 70.0957C61.3802 70.0957 61.748 70.0111 62.0605 69.8418C62.373 69.6725 62.6139 69.4642 62.7832 69.2168C62.959 68.9694 63.0501 68.735 63.0566 68.5137L63.7988 69.7051C63.6947 69.972 63.5514 70.2487 63.3691 70.5352C63.1934 70.8216 62.9688 71.0918 62.6953 71.3457C62.4219 71.5931 62.0931 71.7982 61.709 71.9609C61.3249 72.1172 60.8691 72.1953 60.3418 72.1953C59.6712 72.1953 59.0625 72.0618 58.5156 71.7949C57.9753 71.5215 57.5456 71.1471 57.2266 70.6719C56.9141 70.1901 56.7578 69.6432 56.7578 69.0312C56.7578 68.4779 56.862 67.9863 57.0703 67.5566C57.2786 67.127 57.5846 66.7656 57.9883 66.4727C58.3984 66.1732 58.9095 65.9486 59.5215 65.7988C60.1335 65.6426 60.8431 65.5645 61.6504 65.5645H63.2812ZM73.1152 64.8906V66.9316H67.7734V64.8906H73.1152ZM77.7344 63.4453V72H75.3809V61.4336H77.627L77.7344 63.4453ZM80.9668 61.3652L80.9473 63.5527C80.804 63.5267 80.6478 63.5072 80.4785 63.4941C80.3158 63.4811 80.153 63.4746 79.9902 63.4746C79.5866 63.4746 79.2318 63.5332 78.9258 63.6504C78.6198 63.7611 78.3626 63.9238 78.1543 64.1387C77.9525 64.347 77.7962 64.6009 77.6855 64.9004C77.5749 65.1999 77.5098 65.5352 77.4902 65.9062L76.9531 65.9453C76.9531 65.2812 77.0182 64.666 77.1484 64.0996C77.2786 63.5332 77.474 63.0352 77.7344 62.6055C78.0013 62.1758 78.3333 61.8405 78.7305 61.5996C79.1341 61.3587 79.5996 61.2383 80.127 61.2383C80.2702 61.2383 80.4232 61.2513 80.5859 61.2773C80.7552 61.3034 80.8822 61.3327 80.9668 61.3652ZM86.9043 72.1953C86.123 72.1953 85.4167 72.0684 84.7852 71.8145C84.1602 71.554 83.6263 71.1927 83.1836 70.7305C82.7474 70.2682 82.4121 69.7246 82.1777 69.0996C81.9434 68.4746 81.8262 67.8008 81.8262 67.0781V66.6875C81.8262 65.8607 81.9466 65.112 82.1875 64.4414C82.4284 63.7708 82.7637 63.1979 83.1934 62.7227C83.623 62.2409 84.1309 61.873 84.7168 61.6191C85.3027 61.3652 85.9375 61.2383 86.6211 61.2383C87.3763 61.2383 88.0371 61.3652 88.6035 61.6191C89.1699 61.873 89.6387 62.2311 90.0098 62.6934C90.3874 63.1491 90.6673 63.6927 90.8496 64.3242C91.0384 64.9557 91.1328 65.6523 91.1328 66.4141V67.4199H82.9688V65.7305H88.8086V65.5449C88.7956 65.1217 88.7109 64.7246 88.5547 64.3535C88.4049 63.9824 88.1738 63.6829 87.8613 63.4551C87.5488 63.2272 87.1322 63.1133 86.6113 63.1133C86.2207 63.1133 85.8724 63.1979 85.5664 63.3672C85.2669 63.5299 85.0163 63.7676 84.8145 64.0801C84.6126 64.3926 84.4564 64.7702 84.3457 65.2129C84.2415 65.6491 84.1895 66.1406 84.1895 66.6875V67.0781C84.1895 67.5404 84.2513 67.9701 84.375 68.3672C84.5052 68.7578 84.694 69.0996 84.9414 69.3926C85.1888 69.6855 85.4883 69.9167 85.8398 70.0859C86.1914 70.2487 86.5918 70.3301 87.041 70.3301C87.6074 70.3301 88.112 70.2161 88.5547 69.9883C88.9974 69.7604 89.3815 69.4382 89.707 69.0215L90.9473 70.2227C90.7194 70.5547 90.4232 70.8737 90.0586 71.1797C89.694 71.4792 89.248 71.7233 88.7207 71.9121C88.1999 72.1009 87.5944 72.1953 86.9043 72.1953ZM95.3027 63.6895V72H92.9492V61.4336H95.166L95.3027 63.6895ZM94.8828 66.3262L94.1211 66.3164C94.1276 65.5677 94.2318 64.8809 94.4336 64.2559C94.6419 63.6309 94.9284 63.0938 95.293 62.6445C95.6641 62.1953 96.1068 61.8503 96.6211 61.6094C97.1354 61.362 97.7083 61.2383 98.3398 61.2383C98.8477 61.2383 99.3066 61.3099 99.7168 61.4531C100.133 61.5898 100.488 61.8145 100.781 62.127C101.081 62.4395 101.309 62.8464 101.465 63.3477C101.621 63.8424 101.699 64.4512 101.699 65.1738V72H99.3359V65.1641C99.3359 64.6562 99.2611 64.2559 99.1113 63.9629C98.9681 63.6634 98.7565 63.4518 98.4766 63.3281C98.2031 63.1979 97.8613 63.1328 97.4512 63.1328C97.0475 63.1328 96.6862 63.2174 96.3672 63.3867C96.0482 63.556 95.778 63.7871 95.5566 64.0801C95.3418 64.373 95.1758 64.7116 95.0586 65.0957C94.9414 65.4798 94.8828 65.89 94.8828 66.3262ZM103.652 66.834V66.6094C103.652 65.8477 103.763 65.1413 103.984 64.4902C104.206 63.8327 104.525 63.263 104.941 62.7812C105.365 62.293 105.879 61.9154 106.484 61.6484C107.096 61.375 107.786 61.2383 108.555 61.2383C109.329 61.2383 110.02 61.375 110.625 61.6484C111.237 61.9154 111.755 62.293 112.178 62.7812C112.601 63.263 112.923 63.8327 113.145 64.4902C113.366 65.1413 113.477 65.8477 113.477 66.6094V66.834C113.477 67.5957 113.366 68.3021 113.145 68.9531C112.923 69.6042 112.601 70.1738 112.178 70.6621C111.755 71.1439 111.24 71.5215 110.635 71.7949C110.029 72.0618 109.342 72.1953 108.574 72.1953C107.799 72.1953 107.106 72.0618 106.494 71.7949C105.889 71.5215 105.374 71.1439 104.951 70.6621C104.528 70.1738 104.206 69.6042 103.984 68.9531C103.763 68.3021 103.652 67.5957 103.652 66.834ZM106.006 66.6094V66.834C106.006 67.3092 106.055 67.7585 106.152 68.1816C106.25 68.6048 106.403 68.9759 106.611 69.2949C106.82 69.6139 107.087 69.8646 107.412 70.0469C107.738 70.2292 108.125 70.3203 108.574 70.3203C109.01 70.3203 109.388 70.2292 109.707 70.0469C110.033 69.8646 110.299 69.6139 110.508 69.2949C110.716 68.9759 110.869 68.6048 110.967 68.1816C111.071 67.7585 111.123 67.3092 111.123 66.834V66.6094C111.123 66.1406 111.071 65.6979 110.967 65.2812C110.869 64.8581 110.713 64.4837 110.498 64.1582C110.29 63.8327 110.023 63.5788 109.697 63.3965C109.378 63.2077 108.997 63.1133 108.555 63.1133C108.112 63.1133 107.728 63.2077 107.402 63.3965C107.083 63.5788 106.82 63.8327 106.611 64.1582C106.403 64.4837 106.25 64.8581 106.152 65.2812C106.055 65.6979 106.006 66.1406 106.006 66.6094ZM118.73 70.1348L121.318 61.4336H123.76L120.088 72H118.564L118.73 70.1348ZM116.748 61.4336L119.385 70.1738L119.512 72H117.988L114.297 61.4336H116.748Z" fill="white"/>
<circle cx="62.5" cy="26.5" r="21.5" fill="white" stroke="white" stroke-width="10"/>
<path d="M51 40.5219V21.9019H53C58.5228 21.9019 63 26.379 63 31.9019V42.9019" stroke="#087DAF" stroke-width="1.5" stroke-linecap="round"/>
<path d="M74 40.5219V21.9019H73C67.4772 21.9019 63 26.379 63 31.9019V42.9019" stroke="#087DAF" stroke-width="1.5" stroke-linecap="round"/>
<rect x="70" y="14" width="2" height="3" fill="#087DAF"/>
<path d="M62.4974 9.9314L63.5842 11.5519L41.0845 26.6409C40.4843 25.7459 40.7233 24.5338 41.6182 23.9336L62.4974 9.9314Z" fill="#087DAF"/>
<path d="M62.505 9.93311L61.4183 11.5535L83.9155 26.6409C84.5157 25.7459 84.2767 24.5339 83.3818 23.9337L62.505 9.93311Z" fill="#087DAF"/>
</svg>
