<svg width="125" height="28" viewBox="0 0 125 28" fill="none" xmlns="http://www.w3.org/2000/svg">
<path d="M3.38721 24.3628H4.32715C4.30208 24.6955 4.2098 24.9906 4.05029 25.248C3.89079 25.5033 3.66862 25.7038 3.38379 25.8496C3.09896 25.9954 2.75374 26.0684 2.34814 26.0684C2.03597 26.0684 1.75456 26.0137 1.50391 25.9043C1.25553 25.7926 1.04248 25.6343 0.864746 25.4292C0.68929 25.2218 0.55485 24.9735 0.461426 24.6841C0.368001 24.3924 0.321289 24.0654 0.321289 23.7031V23.3237C0.321289 22.9614 0.369141 22.6344 0.464844 22.3428C0.560547 22.0511 0.697266 21.8027 0.875 21.5977C1.05501 21.3903 1.27035 21.2308 1.521 21.1191C1.77393 21.0075 2.05648 20.9517 2.36865 20.9517C2.77425 20.9517 3.11719 21.0269 3.39746 21.1772C3.67773 21.3254 3.89535 21.5293 4.05029 21.7891C4.20524 22.0488 4.29867 22.3473 4.33057 22.6846H3.39062C3.3724 22.4749 3.32682 22.2972 3.25391 22.1514C3.18327 22.0055 3.07617 21.895 2.93262 21.8198C2.79134 21.7424 2.60335 21.7036 2.36865 21.7036C2.18636 21.7036 2.02572 21.7378 1.88672 21.8062C1.75 21.8745 1.63607 21.9771 1.54492 22.1138C1.45378 22.2482 1.38542 22.4168 1.33984 22.6196C1.29427 22.8201 1.27148 23.0526 1.27148 23.3169V23.7031C1.27148 23.9561 1.29199 24.1828 1.33301 24.3833C1.37402 24.5838 1.43783 24.7536 1.52441 24.8926C1.611 25.0316 1.72266 25.1375 1.85938 25.2104C1.99609 25.2834 2.15902 25.3198 2.34814 25.3198C2.57829 25.3198 2.76514 25.2834 2.90869 25.2104C3.05452 25.1375 3.16504 25.0304 3.24023 24.8892C3.31771 24.7479 3.3667 24.5724 3.38721 24.3628ZM4.82617 24.1885V24.1167C4.82617 23.8455 4.86491 23.596 4.94238 23.3682C5.01986 23.138 5.13265 22.9386 5.28076 22.77C5.42887 22.6014 5.61003 22.4704 5.82422 22.377C6.03841 22.2812 6.28223 22.2334 6.55566 22.2334C6.83366 22.2334 7.07975 22.2812 7.29395 22.377C7.51042 22.4704 7.69271 22.6014 7.84082 22.77C7.98893 22.9386 8.10173 23.138 8.1792 23.3682C8.25667 23.596 8.29541 23.8455 8.29541 24.1167V24.1885C8.29541 24.4574 8.25667 24.7069 8.1792 24.937C8.10173 25.1649 7.98893 25.3643 7.84082 25.5352C7.69271 25.7038 7.51156 25.8348 7.29736 25.9282C7.08317 26.0216 6.83822 26.0684 6.5625 26.0684C6.28906 26.0684 6.04411 26.0216 5.82764 25.9282C5.61117 25.8348 5.42887 25.7038 5.28076 25.5352C5.13265 25.3643 5.01986 25.1649 4.94238 24.937C4.86491 24.7069 4.82617 24.4574 4.82617 24.1885ZM5.72852 24.1167V24.1885C5.72852 24.3503 5.74447 24.5018 5.77637 24.6431C5.80827 24.7843 5.85726 24.9085 5.92334 25.0156C5.98942 25.1227 6.07487 25.207 6.17969 25.2686C6.28678 25.3278 6.41439 25.3574 6.5625 25.3574C6.70833 25.3574 6.83366 25.3278 6.93848 25.2686C7.04329 25.207 7.12874 25.1227 7.19482 25.0156C7.26318 24.9085 7.31331 24.7843 7.34521 24.6431C7.37712 24.5018 7.39307 24.3503 7.39307 24.1885V24.1167C7.39307 23.9572 7.37712 23.8079 7.34521 23.6689C7.31331 23.5277 7.26318 23.4035 7.19482 23.2964C7.12874 23.187 7.04215 23.1016 6.93506 23.04C6.83024 22.9762 6.70378 22.9443 6.55566 22.9443C6.40983 22.9443 6.28451 22.9762 6.17969 23.04C6.07487 23.1016 5.98942 23.187 5.92334 23.2964C5.85726 23.4035 5.80827 23.5277 5.77637 23.6689C5.74447 23.8079 5.72852 23.9572 5.72852 24.1167ZM9.83691 23.0913V26H8.93457V22.3018H9.78223L9.83691 23.0913ZM9.69336 24.0176H9.42676C9.42904 23.7487 9.46549 23.5049 9.53613 23.2861C9.60677 23.0674 9.70589 22.8794 9.8335 22.7222C9.96338 22.5649 10.1172 22.4442 10.2949 22.3599C10.4727 22.2756 10.6709 22.2334 10.8896 22.2334C11.0674 22.2334 11.228 22.2585 11.3716 22.3086C11.5151 22.3587 11.6382 22.4385 11.7407 22.5479C11.8455 22.6572 11.9253 22.8008 11.98 22.9785C12.0369 23.154 12.0654 23.3704 12.0654 23.6279V26H11.1562V23.6211C11.1562 23.4525 11.1312 23.3192 11.0811 23.2212C11.0332 23.1232 10.9626 23.0537 10.8691 23.0127C10.778 22.9717 10.6652 22.9512 10.5308 22.9512C10.3918 22.9512 10.2699 22.9797 10.165 23.0366C10.0625 23.0913 9.97591 23.1676 9.90527 23.2656C9.83691 23.3636 9.78451 23.4764 9.74805 23.604C9.71159 23.7316 9.69336 23.8695 9.69336 24.0176ZM14.0444 26H13.1353V21.96C13.1353 21.682 13.1888 21.4484 13.2959 21.2593C13.403 21.0679 13.5557 20.9232 13.7539 20.8252C13.9521 20.7272 14.1857 20.6782 14.4546 20.6782C14.5435 20.6782 14.6278 20.6839 14.7075 20.6953C14.7896 20.7067 14.8704 20.7227 14.9502 20.7432L14.9331 21.4302C14.8898 21.4188 14.842 21.4108 14.7896 21.4062C14.7394 21.4017 14.6836 21.3994 14.6221 21.3994C14.499 21.3994 14.3942 21.4211 14.3076 21.4644C14.221 21.5076 14.1549 21.5715 14.1094 21.6558C14.0661 21.7378 14.0444 21.8392 14.0444 21.96V26ZM14.793 22.3018V22.9512H12.5781V22.3018H14.793ZM15.1895 24.1885V24.1167C15.1895 23.8455 15.2282 23.596 15.3057 23.3682C15.3831 23.138 15.4959 22.9386 15.644 22.77C15.7922 22.6014 15.9733 22.4704 16.1875 22.377C16.4017 22.2812 16.6455 22.2334 16.9189 22.2334C17.1969 22.2334 17.443 22.2812 17.6572 22.377C17.8737 22.4704 18.056 22.6014 18.2041 22.77C18.3522 22.9386 18.465 23.138 18.5425 23.3682C18.62 23.596 18.6587 23.8455 18.6587 24.1167V24.1885C18.6587 24.4574 18.62 24.7069 18.5425 24.937C18.465 25.1649 18.3522 25.3643 18.2041 25.5352C18.056 25.7038 17.8748 25.8348 17.6606 25.9282C17.4465 26.0216 17.2015 26.0684 16.9258 26.0684C16.6523 26.0684 16.4074 26.0216 16.1909 25.9282C15.9744 25.8348 15.7922 25.7038 15.644 25.5352C15.4959 25.3643 15.3831 25.1649 15.3057 24.937C15.2282 24.7069 15.1895 24.4574 15.1895 24.1885ZM16.0918 24.1167V24.1885C16.0918 24.3503 16.1077 24.5018 16.1396 24.6431C16.1715 24.7843 16.2205 24.9085 16.2866 25.0156C16.3527 25.1227 16.4382 25.207 16.543 25.2686C16.6501 25.3278 16.7777 25.3574 16.9258 25.3574C17.0716 25.3574 17.1969 25.3278 17.3018 25.2686C17.4066 25.207 17.492 25.1227 17.5581 25.0156C17.6265 24.9085 17.6766 24.7843 17.7085 24.6431C17.7404 24.5018 17.7563 24.3503 17.7563 24.1885V24.1167C17.7563 23.9572 17.7404 23.8079 17.7085 23.6689C17.6766 23.5277 17.6265 23.4035 17.5581 23.2964C17.492 23.187 17.4054 23.1016 17.2983 23.04C17.1935 22.9762 17.0671 22.9443 16.9189 22.9443C16.7731 22.9443 16.6478 22.9762 16.543 23.04C16.4382 23.1016 16.3527 23.187 16.2866 23.2964C16.2205 23.4035 16.1715 23.5277 16.1396 23.6689C16.1077 23.8079 16.0918 23.9572 16.0918 24.1167ZM20.2173 23.0571V26H19.3149V22.3018H20.1694L20.2173 23.0571ZM21.3418 22.2778L21.3281 23.1187C21.278 23.1095 21.221 23.1027 21.1572 23.0981C21.0957 23.0936 21.0376 23.0913 20.9829 23.0913C20.8439 23.0913 20.722 23.1107 20.6172 23.1494C20.5124 23.1859 20.4246 23.2394 20.354 23.3101C20.2856 23.3807 20.2332 23.4673 20.1968 23.5698C20.1603 23.6701 20.1398 23.784 20.1353 23.9116L19.9404 23.8877C19.9404 23.653 19.9644 23.4354 20.0122 23.2349C20.0601 23.0343 20.1296 22.8589 20.2207 22.7085C20.3118 22.5581 20.4258 22.4419 20.5625 22.3599C20.7015 22.2756 20.861 22.2334 21.041 22.2334C21.0911 22.2334 21.1447 22.238 21.2017 22.2471C21.2609 22.2539 21.3076 22.2642 21.3418 22.2778ZM23.7583 22.3018V22.9512H21.6392V22.3018H23.7583ZM22.2065 21.3926H23.1123V24.9336C23.1123 25.043 23.1271 25.1273 23.1567 25.1865C23.1864 25.2458 23.2308 25.2856 23.29 25.3062C23.3493 25.3267 23.4199 25.3369 23.502 25.3369C23.5612 25.3369 23.6159 25.3335 23.666 25.3267C23.7161 25.3198 23.7583 25.313 23.7925 25.3062L23.7959 25.9829C23.7207 26.008 23.6353 26.0285 23.5396 26.0444C23.4461 26.0604 23.3402 26.0684 23.2217 26.0684C23.0189 26.0684 22.8411 26.0342 22.6885 25.9658C22.5358 25.8952 22.4173 25.7824 22.333 25.6274C22.2487 25.4702 22.2065 25.2629 22.2065 25.0054V21.3926ZM25.2109 25.1865L25.2041 25.812C25.2041 26.0558 25.1437 26.3031 25.0229 26.5537C24.9022 26.8044 24.7461 27.0117 24.5547 27.1758L24.0762 26.9126C24.1377 26.8101 24.1947 26.7064 24.2471 26.6016C24.3018 26.4967 24.3451 26.3828 24.377 26.2598C24.4111 26.139 24.4282 26.0034 24.4282 25.853V25.1865H25.2109ZM29.7842 24.9883C29.7842 24.9108 29.7637 24.8413 29.7227 24.7798C29.6816 24.7183 29.6042 24.6624 29.4902 24.6123C29.3786 24.5599 29.2145 24.5109 28.998 24.4653C28.8066 24.4243 28.63 24.373 28.4683 24.3115C28.3065 24.25 28.1675 24.1759 28.0513 24.0894C27.9351 24.0005 27.8439 23.8968 27.7778 23.7783C27.714 23.6576 27.6821 23.5186 27.6821 23.3613C27.6821 23.2087 27.7152 23.0651 27.7812 22.9307C27.8473 22.7939 27.943 22.6743 28.0684 22.5718C28.1937 22.467 28.3464 22.3849 28.5264 22.3257C28.7064 22.2642 28.9092 22.2334 29.1348 22.2334C29.4492 22.2334 29.7192 22.2847 29.9448 22.3872C30.1727 22.4897 30.347 22.631 30.4678 22.811C30.5885 22.9888 30.6489 23.1893 30.6489 23.4126H29.7466C29.7466 23.3146 29.7238 23.2257 29.6782 23.146C29.6349 23.0662 29.5677 23.0024 29.4766 22.9546C29.3854 22.9045 29.2703 22.8794 29.1313 22.8794C29.006 22.8794 28.9001 22.8999 28.8135 22.9409C28.7292 22.9819 28.6654 23.0355 28.6221 23.1016C28.5788 23.1676 28.5571 23.2406 28.5571 23.3203C28.5571 23.3796 28.5685 23.4331 28.5913 23.481C28.6164 23.5265 28.6562 23.5687 28.7109 23.6074C28.7656 23.6462 28.8397 23.6815 28.9331 23.7134C29.0288 23.7453 29.1462 23.776 29.2852 23.8057C29.5609 23.8604 29.8013 23.9333 30.0063 24.0244C30.2137 24.1133 30.3755 24.2318 30.4917 24.3799C30.6079 24.528 30.666 24.7171 30.666 24.9473C30.666 25.1113 30.6307 25.2617 30.5601 25.3984C30.4894 25.5329 30.3869 25.6502 30.2524 25.7505C30.118 25.8507 29.9574 25.9294 29.7705 25.9863C29.5837 26.041 29.3729 26.0684 29.1382 26.0684C28.7987 26.0684 28.5116 26.008 28.2769 25.8872C28.0422 25.7642 27.8644 25.6092 27.7437 25.4224C27.6229 25.2332 27.5625 25.0373 27.5625 24.8345H28.4272C28.4341 24.978 28.4728 25.0931 28.5435 25.1797C28.6141 25.2663 28.703 25.3289 28.8101 25.3677C28.9194 25.4041 29.0345 25.4224 29.1553 25.4224C29.292 25.4224 29.4071 25.4041 29.5005 25.3677C29.5939 25.3289 29.6646 25.2777 29.7124 25.2139C29.7603 25.1478 29.7842 25.0726 29.7842 24.9883ZM33.0142 26.0684C32.7339 26.0684 32.4821 26.0228 32.2588 25.9316C32.0355 25.8405 31.8452 25.714 31.688 25.5522C31.533 25.3882 31.4134 25.1979 31.3291 24.9814C31.2471 24.7627 31.2061 24.528 31.2061 24.2773V24.1406C31.2061 23.8558 31.2471 23.5972 31.3291 23.3647C31.4111 23.13 31.5273 22.9284 31.6777 22.7598C31.8281 22.5911 32.0081 22.4613 32.2178 22.3701C32.4274 22.279 32.6587 22.2334 32.9116 22.2334C33.1737 22.2334 33.4049 22.2778 33.6055 22.3667C33.806 22.4533 33.9735 22.5763 34.1079 22.7358C34.2424 22.8953 34.3438 23.0868 34.4121 23.3101C34.4805 23.5311 34.5146 23.776 34.5146 24.0449V24.4243H31.6162V23.8022H33.626V23.7339C33.6214 23.5903 33.5941 23.4593 33.5439 23.3408C33.4938 23.2201 33.4163 23.1243 33.3115 23.0537C33.2067 22.9808 33.0711 22.9443 32.9048 22.9443C32.7703 22.9443 32.653 22.974 32.5527 23.0332C32.4548 23.0902 32.3727 23.1722 32.3066 23.2793C32.2428 23.3841 32.195 23.5094 32.1631 23.6553C32.1312 23.8011 32.1152 23.9629 32.1152 24.1406V24.2773C32.1152 24.4323 32.1357 24.5758 32.1768 24.708C32.2201 24.8402 32.2827 24.9552 32.3647 25.0532C32.4491 25.1489 32.5493 25.2241 32.6655 25.2788C32.784 25.3312 32.9185 25.3574 33.0688 25.3574C33.258 25.3574 33.4289 25.321 33.5815 25.248C33.7365 25.1729 33.8709 25.0623 33.9849 24.9165L34.4395 25.3882C34.362 25.5021 34.2572 25.6115 34.125 25.7163C33.9951 25.8211 33.8379 25.9066 33.6533 25.9727C33.4688 26.0365 33.2557 26.0684 33.0142 26.0684ZM32.3818 21.7856L33.0518 20.7466H34.0498L33.1167 21.7856H32.3818ZM36.6372 25.3574C36.7648 25.3574 36.8787 25.3324 36.979 25.2822C37.0793 25.2321 37.159 25.1615 37.2183 25.0703C37.2798 24.9792 37.3128 24.8732 37.3174 24.7524H38.1685C38.1639 25.0031 38.0933 25.2275 37.9565 25.4258C37.8198 25.624 37.6375 25.7812 37.4097 25.8975C37.1841 26.0114 36.9312 26.0684 36.6509 26.0684C36.366 26.0684 36.1177 26.0205 35.9058 25.9248C35.6938 25.8291 35.5173 25.6958 35.376 25.5249C35.237 25.354 35.1322 25.1558 35.0615 24.9302C34.9932 24.7046 34.959 24.4631 34.959 24.2056V24.0962C34.959 23.8387 34.9932 23.5972 35.0615 23.3716C35.1322 23.146 35.237 22.9478 35.376 22.7769C35.5173 22.606 35.6938 22.4727 35.9058 22.377C36.1177 22.2812 36.3649 22.2334 36.6475 22.2334C36.946 22.2334 37.208 22.2915 37.4336 22.4077C37.6615 22.5239 37.8392 22.688 37.9668 22.8999C38.0967 23.1118 38.1639 23.3613 38.1685 23.6484H37.3174C37.3128 23.5163 37.2832 23.3978 37.2285 23.293C37.1738 23.1882 37.0964 23.1038 36.9961 23.04C36.8958 22.9762 36.7739 22.9443 36.6304 22.9443C36.4777 22.9443 36.3501 22.9762 36.2476 23.04C36.1473 23.1038 36.0687 23.1916 36.0117 23.3032C35.957 23.4126 35.9183 23.5356 35.8955 23.6724C35.875 23.8068 35.8647 23.9481 35.8647 24.0962V24.2056C35.8647 24.356 35.875 24.4995 35.8955 24.6362C35.9183 24.7729 35.957 24.896 36.0117 25.0054C36.0687 25.1125 36.1473 25.1979 36.2476 25.2617C36.3501 25.3255 36.48 25.3574 36.6372 25.3574ZM40.9712 25.1216V22.3018H41.8804V26H41.0259L40.9712 25.1216ZM41.0874 24.356L41.3677 24.3491C41.3677 24.5975 41.3403 24.8265 41.2856 25.0361C41.231 25.2458 41.1455 25.4281 41.0293 25.583C40.9154 25.7357 40.7707 25.8553 40.5952 25.9419C40.4198 26.0262 40.2124 26.0684 39.9731 26.0684C39.7909 26.0684 39.6245 26.0433 39.4741 25.9932C39.3237 25.9408 39.1938 25.8599 39.0845 25.7505C38.9774 25.6388 38.8942 25.4964 38.835 25.3232C38.7757 25.1478 38.7461 24.937 38.7461 24.6909V22.3018H39.6484V24.6978C39.6484 24.8208 39.6621 24.9233 39.6895 25.0054C39.7191 25.0874 39.759 25.1546 39.8091 25.207C39.8615 25.2572 39.9219 25.2936 39.9902 25.3164C40.0609 25.3369 40.1361 25.3472 40.2158 25.3472C40.4346 25.3472 40.6066 25.3039 40.7319 25.2173C40.8595 25.1284 40.9507 25.0099 41.0054 24.8618C41.0601 24.7114 41.0874 24.5428 41.0874 24.356ZM43.5825 23.0571V26H42.6802V22.3018H43.5347L43.5825 23.0571ZM44.707 22.2778L44.6934 23.1187C44.6432 23.1095 44.5863 23.1027 44.5225 23.0981C44.4609 23.0936 44.4028 23.0913 44.3481 23.0913C44.2091 23.0913 44.0872 23.1107 43.9824 23.1494C43.8776 23.1859 43.7899 23.2394 43.7192 23.3101C43.6509 23.3807 43.5985 23.4673 43.562 23.5698C43.5256 23.6701 43.505 23.784 43.5005 23.9116L43.3057 23.8877C43.3057 23.653 43.3296 23.4354 43.3774 23.2349C43.4253 23.0343 43.4948 22.8589 43.5859 22.7085C43.6771 22.5581 43.791 22.4419 43.9277 22.3599C44.0667 22.2756 44.2262 22.2334 44.4062 22.2334C44.4564 22.2334 44.5099 22.238 44.5669 22.2471C44.6261 22.2539 44.6729 22.2642 44.707 22.2778ZM46.1597 22.3018V26H45.2539V22.3018H46.1597ZM45.1924 21.3345C45.1924 21.2 45.238 21.0884 45.3291 20.9995C45.4225 20.9106 45.5479 20.8662 45.7051 20.8662C45.8623 20.8662 45.9865 20.9106 46.0776 20.9995C46.1711 21.0884 46.2178 21.2 46.2178 21.3345C46.2178 21.4666 46.1711 21.5771 46.0776 21.666C45.9865 21.7549 45.8623 21.7993 45.7051 21.7993C45.5479 21.7993 45.4225 21.7549 45.3291 21.666C45.238 21.5771 45.1924 21.4666 45.1924 21.3345ZM48.771 22.3018V22.9512H46.6519V22.3018H48.771ZM47.2192 21.3926H48.125V24.9336C48.125 25.043 48.1398 25.1273 48.1694 25.1865C48.1991 25.2458 48.2435 25.2856 48.3027 25.3062C48.362 25.3267 48.4326 25.3369 48.5146 25.3369C48.5739 25.3369 48.6286 25.3335 48.6787 25.3267C48.7288 25.3198 48.771 25.313 48.8052 25.3062L48.8086 25.9829C48.7334 26.008 48.6479 26.0285 48.5522 26.0444C48.4588 26.0604 48.3529 26.0684 48.2344 26.0684C48.0316 26.0684 47.8538 26.0342 47.7012 25.9658C47.5485 25.8952 47.43 25.7824 47.3457 25.6274C47.2614 25.4702 47.2192 25.2629 47.2192 25.0054V21.3926ZM51.0337 26.0684C50.7534 26.0684 50.5016 26.0228 50.2783 25.9316C50.055 25.8405 49.8647 25.714 49.7075 25.5522C49.5526 25.3882 49.4329 25.1979 49.3486 24.9814C49.2666 24.7627 49.2256 24.528 49.2256 24.2773V24.1406C49.2256 23.8558 49.2666 23.5972 49.3486 23.3647C49.4307 23.13 49.5469 22.9284 49.6973 22.7598C49.8477 22.5911 50.0277 22.4613 50.2373 22.3701C50.4469 22.279 50.6782 22.2334 50.9312 22.2334C51.1932 22.2334 51.4245 22.2778 51.625 22.3667C51.8255 22.4533 51.993 22.5763 52.1274 22.7358C52.2619 22.8953 52.3633 23.0868 52.4316 23.3101C52.5 23.5311 52.5342 23.776 52.5342 24.0449V24.4243H49.6357V23.8022H51.6455V23.7339C51.641 23.5903 51.6136 23.4593 51.5635 23.3408C51.5133 23.2201 51.4359 23.1243 51.3311 23.0537C51.2262 22.9808 51.0907 22.9443 50.9243 22.9443C50.7899 22.9443 50.6725 22.974 50.5723 23.0332C50.4743 23.0902 50.3923 23.1722 50.3262 23.2793C50.2624 23.3841 50.2145 23.5094 50.1826 23.6553C50.1507 23.8011 50.1348 23.9629 50.1348 24.1406V24.2773C50.1348 24.4323 50.1553 24.5758 50.1963 24.708C50.2396 24.8402 50.3022 24.9552 50.3843 25.0532C50.4686 25.1489 50.5688 25.2241 50.6851 25.2788C50.8035 25.3312 50.938 25.3574 51.0884 25.3574C51.2775 25.3574 51.4484 25.321 51.6011 25.248C51.756 25.1729 51.8905 25.0623 52.0044 24.9165L52.459 25.3882C52.3815 25.5021 52.2767 25.6115 52.1445 25.7163C52.0146 25.8211 51.8574 25.9066 51.6729 25.9727C51.4883 26.0365 51.2752 26.0684 51.0337 26.0684ZM50.4014 21.7856L51.0713 20.7466H52.0693L51.1362 21.7856H50.4014ZM56.5435 26.0684C56.2632 26.0684 56.0114 26.0228 55.7881 25.9316C55.5648 25.8405 55.3745 25.714 55.2173 25.5522C55.0623 25.3882 54.9427 25.1979 54.8584 24.9814C54.7764 24.7627 54.7354 24.528 54.7354 24.2773V24.1406C54.7354 23.8558 54.7764 23.5972 54.8584 23.3647C54.9404 23.13 55.0566 22.9284 55.207 22.7598C55.3574 22.5911 55.5374 22.4613 55.7471 22.3701C55.9567 22.279 56.188 22.2334 56.4409 22.2334C56.703 22.2334 56.9342 22.2778 57.1348 22.3667C57.3353 22.4533 57.5028 22.5763 57.6372 22.7358C57.7716 22.8953 57.873 23.0868 57.9414 23.3101C58.0098 23.5311 58.0439 23.776 58.0439 24.0449V24.4243H55.1455V23.8022H57.1553V23.7339C57.1507 23.5903 57.1234 23.4593 57.0732 23.3408C57.0231 23.2201 56.9456 23.1243 56.8408 23.0537C56.736 22.9808 56.6004 22.9443 56.4341 22.9443C56.2996 22.9443 56.1823 22.974 56.082 23.0332C55.984 23.0902 55.902 23.1722 55.8359 23.2793C55.7721 23.3841 55.7243 23.5094 55.6924 23.6553C55.6605 23.8011 55.6445 23.9629 55.6445 24.1406V24.2773C55.6445 24.4323 55.665 24.5758 55.7061 24.708C55.7493 24.8402 55.812 24.9552 55.894 25.0532C55.9784 25.1489 56.0786 25.2241 56.1948 25.2788C56.3133 25.3312 56.4478 25.3574 56.5981 25.3574C56.7873 25.3574 56.9582 25.321 57.1108 25.248C57.2658 25.1729 57.4002 25.0623 57.5142 24.9165L57.9688 25.3882C57.8913 25.5021 57.7865 25.6115 57.6543 25.7163C57.5244 25.8211 57.3672 25.9066 57.1826 25.9727C56.998 26.0365 56.785 26.0684 56.5435 26.0684ZM60.3989 22.3018V22.9512H58.2798V22.3018H60.3989ZM58.8472 21.3926H59.7529V24.9336C59.7529 25.043 59.7677 25.1273 59.7974 25.1865C59.827 25.2458 59.8714 25.2856 59.9307 25.3062C59.9899 25.3267 60.0605 25.3369 60.1426 25.3369C60.2018 25.3369 60.2565 25.3335 60.3066 25.3267C60.3568 25.3198 60.3989 25.313 60.4331 25.3062L60.4365 25.9829C60.3613 26.008 60.2759 26.0285 60.1802 26.0444C60.0868 26.0604 59.9808 26.0684 59.8623 26.0684C59.6595 26.0684 59.4818 26.0342 59.3291 25.9658C59.1764 25.8952 59.0579 25.7824 58.9736 25.6274C58.8893 25.4702 58.8472 25.2629 58.8472 25.0054V21.3926ZM62.7402 20.75H63.646V25.1831L63.5571 26H62.7402V20.75ZM66.0249 24.1133V24.1851C66.0249 24.4608 65.9941 24.7137 65.9326 24.9438C65.8734 25.174 65.7834 25.3734 65.6626 25.542C65.5418 25.7083 65.3914 25.8382 65.2114 25.9316C65.0337 26.0228 64.8252 26.0684 64.5859 26.0684C64.3581 26.0684 64.1598 26.0239 63.9912 25.9351C63.8249 25.8462 63.6847 25.7209 63.5708 25.5591C63.4569 25.395 63.3657 25.2025 63.2974 24.9814C63.229 24.7581 63.1777 24.5143 63.1436 24.25V24.0552C63.1777 23.7886 63.229 23.5448 63.2974 23.3237C63.3657 23.1027 63.4569 22.9102 63.5708 22.7461C63.6847 22.582 63.8249 22.4556 63.9912 22.3667C64.1576 22.2778 64.3535 22.2334 64.5791 22.2334C64.8206 22.2334 65.0314 22.2801 65.2114 22.3735C65.3937 22.4647 65.5441 22.5946 65.6626 22.7632C65.7834 22.9295 65.8734 23.1278 65.9326 23.3579C65.9941 23.5858 66.0249 23.8376 66.0249 24.1133ZM65.1191 24.1851V24.1133C65.1191 23.9561 65.1066 23.8079 65.0815 23.6689C65.0565 23.5277 65.0155 23.4035 64.9585 23.2964C64.9015 23.1893 64.8241 23.105 64.7261 23.0435C64.6281 22.9819 64.505 22.9512 64.3569 22.9512C64.2157 22.9512 64.0949 22.9751 63.9946 23.0229C63.8966 23.0708 63.8146 23.1369 63.7485 23.2212C63.6847 23.3055 63.6346 23.4046 63.5981 23.5186C63.564 23.6325 63.5412 23.7555 63.5298 23.8877V24.4209C63.5457 24.5964 63.5833 24.7547 63.6426 24.896C63.7018 25.035 63.7896 25.1455 63.9058 25.2275C64.0243 25.3096 64.1769 25.3506 64.3638 25.3506C64.5096 25.3506 64.6315 25.3221 64.7295 25.2651C64.8275 25.2059 64.9049 25.1239 64.9619 25.019C65.0189 24.9119 65.0588 24.7878 65.0815 24.6465C65.1066 24.5052 65.1191 24.3514 65.1191 24.1851ZM67.6382 22.3018V26H66.7324V22.3018H67.6382ZM66.6709 21.3345C66.6709 21.2 66.7165 21.0884 66.8076 20.9995C66.901 20.9106 67.0264 20.8662 67.1836 20.8662C67.3408 20.8662 67.465 20.9106 67.5562 20.9995C67.6496 21.0884 67.6963 21.2 67.6963 21.3345C67.6963 21.4666 67.6496 21.5771 67.5562 21.666C67.465 21.7549 67.3408 21.7993 67.1836 21.7993C67.0264 21.7993 66.901 21.7549 66.8076 21.666C66.7165 21.5771 66.6709 21.4666 66.6709 21.3345ZM70.1606 26.0684C69.8804 26.0684 69.6286 26.0228 69.4053 25.9316C69.182 25.8405 68.9917 25.714 68.8345 25.5522C68.6795 25.3882 68.5599 25.1979 68.4756 24.9814C68.3936 24.7627 68.3525 24.528 68.3525 24.2773V24.1406C68.3525 23.8558 68.3936 23.5972 68.4756 23.3647C68.5576 23.13 68.6738 22.9284 68.8242 22.7598C68.9746 22.5911 69.1546 22.4613 69.3643 22.3701C69.5739 22.279 69.8052 22.2334 70.0581 22.2334C70.3201 22.2334 70.5514 22.2778 70.752 22.3667C70.9525 22.4533 71.12 22.5763 71.2544 22.7358C71.3888 22.8953 71.4902 23.0868 71.5586 23.3101C71.627 23.5311 71.6611 23.776 71.6611 24.0449V24.4243H68.7627V23.8022H70.7725V23.7339C70.7679 23.5903 70.7406 23.4593 70.6904 23.3408C70.6403 23.2201 70.5628 23.1243 70.458 23.0537C70.3532 22.9808 70.2176 22.9443 70.0513 22.9443C69.9168 22.9443 69.7995 22.974 69.6992 23.0332C69.6012 23.0902 69.5192 23.1722 69.4531 23.2793C69.3893 23.3841 69.3415 23.5094 69.3096 23.6553C69.2777 23.8011 69.2617 23.9629 69.2617 24.1406V24.2773C69.2617 24.4323 69.2822 24.5758 69.3232 24.708C69.3665 24.8402 69.4292 24.9552 69.5112 25.0532C69.5955 25.1489 69.6958 25.2241 69.812 25.2788C69.9305 25.3312 70.0649 25.3574 70.2153 25.3574C70.4045 25.3574 70.5754 25.321 70.728 25.248C70.883 25.1729 71.0174 25.0623 71.1313 24.9165L71.5859 25.3882C71.5085 25.5021 71.4036 25.6115 71.2715 25.7163C71.1416 25.8211 70.9844 25.9066 70.7998 25.9727C70.6152 26.0365 70.4022 26.0684 70.1606 26.0684ZM73.1514 23.0913V26H72.249V22.3018H73.0967L73.1514 23.0913ZM73.0078 24.0176H72.7412C72.7435 23.7487 72.7799 23.5049 72.8506 23.2861C72.9212 23.0674 73.0203 22.8794 73.1479 22.7222C73.2778 22.5649 73.4316 22.4442 73.6094 22.3599C73.7871 22.2756 73.9854 22.2334 74.2041 22.2334C74.3818 22.2334 74.5425 22.2585 74.686 22.3086C74.8296 22.3587 74.9526 22.4385 75.0552 22.5479C75.16 22.6572 75.2397 22.8008 75.2944 22.9785C75.3514 23.154 75.3799 23.3704 75.3799 23.6279V26H74.4707V23.6211C74.4707 23.4525 74.4456 23.3192 74.3955 23.2212C74.3477 23.1232 74.277 23.0537 74.1836 23.0127C74.0924 22.9717 73.9797 22.9512 73.8452 22.9512C73.7062 22.9512 73.5843 22.9797 73.4795 23.0366C73.377 23.0913 73.2904 23.1676 73.2197 23.2656C73.1514 23.3636 73.099 23.4764 73.0625 23.604C73.026 23.7316 73.0078 23.8695 73.0078 24.0176ZM77.9741 23.5117V24.2261H76.1045V23.5117H77.9741ZM80.4077 26.0684C80.1274 26.0684 79.8757 26.0228 79.6523 25.9316C79.429 25.8405 79.2388 25.714 79.0815 25.5522C78.9266 25.3882 78.807 25.1979 78.7227 24.9814C78.6406 24.7627 78.5996 24.528 78.5996 24.2773V24.1406C78.5996 23.8558 78.6406 23.5972 78.7227 23.3647C78.8047 23.13 78.9209 22.9284 79.0713 22.7598C79.2217 22.5911 79.4017 22.4613 79.6113 22.3701C79.821 22.279 80.0522 22.2334 80.3052 22.2334C80.5672 22.2334 80.7985 22.2778 80.999 22.3667C81.1995 22.4533 81.367 22.5763 81.5015 22.7358C81.6359 22.8953 81.7373 23.0868 81.8057 23.3101C81.874 23.5311 81.9082 23.776 81.9082 24.0449V24.4243H79.0098V23.8022H81.0195V23.7339C81.015 23.5903 80.9876 23.4593 80.9375 23.3408C80.8874 23.2201 80.8099 23.1243 80.7051 23.0537C80.6003 22.9808 80.4647 22.9443 80.2983 22.9443C80.1639 22.9443 80.0465 22.974 79.9463 23.0332C79.8483 23.0902 79.7663 23.1722 79.7002 23.2793C79.6364 23.3841 79.5885 23.5094 79.5566 23.6553C79.5247 23.8011 79.5088 23.9629 79.5088 24.1406V24.2773C79.5088 24.4323 79.5293 24.5758 79.5703 24.708C79.6136 24.8402 79.6763 24.9552 79.7583 25.0532C79.8426 25.1489 79.9429 25.2241 80.0591 25.2788C80.1776 25.3312 80.312 25.3574 80.4624 25.3574C80.6515 25.3574 80.8224 25.321 80.9751 25.248C81.13 25.1729 81.2645 25.0623 81.3784 24.9165L81.833 25.3882C81.7555 25.5021 81.6507 25.6115 81.5186 25.7163C81.3887 25.8211 81.2314 25.9066 81.0469 25.9727C80.8623 26.0365 80.6493 26.0684 80.4077 26.0684ZM80.4795 20.7466L81.4707 21.6934V21.7344H80.7461L80.2163 21.2148L79.6899 21.7344H78.9756V21.6865L79.9531 20.7466H80.4795ZM84.2632 22.3018V22.9512H82.144V22.3018H84.2632ZM82.7114 21.3926H83.6172V24.9336C83.6172 25.043 83.632 25.1273 83.6616 25.1865C83.6912 25.2458 83.7357 25.2856 83.7949 25.3062C83.8542 25.3267 83.9248 25.3369 84.0068 25.3369C84.0661 25.3369 84.1208 25.3335 84.1709 25.3267C84.221 25.3198 84.2632 25.313 84.2974 25.3062L84.3008 25.9829C84.2256 26.008 84.1401 26.0285 84.0444 26.0444C83.951 26.0604 83.8451 26.0684 83.7266 26.0684C83.5238 26.0684 83.346 26.0342 83.1934 25.9658C83.0407 25.8952 82.9222 25.7824 82.8379 25.6274C82.7536 25.4702 82.7114 25.2629 82.7114 25.0054V21.3926ZM85.7671 23.0571V26H84.8647V22.3018H85.7192L85.7671 23.0571ZM86.8916 22.2778L86.8779 23.1187C86.8278 23.1095 86.7708 23.1027 86.707 23.0981C86.6455 23.0936 86.5874 23.0913 86.5327 23.0913C86.3937 23.0913 86.2718 23.1107 86.167 23.1494C86.0622 23.1859 85.9744 23.2394 85.9038 23.3101C85.8354 23.3807 85.783 23.4673 85.7466 23.5698C85.7101 23.6701 85.6896 23.784 85.6851 23.9116L85.4902 23.8877C85.4902 23.653 85.5142 23.4354 85.562 23.2349C85.6099 23.0343 85.6794 22.8589 85.7705 22.7085C85.8617 22.5581 85.9756 22.4419 86.1123 22.3599C86.2513 22.2756 86.4108 22.2334 86.5908 22.2334C86.641 22.2334 86.6945 22.238 86.7515 22.2471C86.8107 22.2539 86.8574 22.2642 86.8916 22.2778ZM88.98 26.0684C88.6997 26.0684 88.4479 26.0228 88.2246 25.9316C88.0013 25.8405 87.811 25.714 87.6538 25.5522C87.4989 25.3882 87.3792 25.1979 87.2949 24.9814C87.2129 24.7627 87.1719 24.528 87.1719 24.2773V24.1406C87.1719 23.8558 87.2129 23.5972 87.2949 23.3647C87.377 23.13 87.4932 22.9284 87.6436 22.7598C87.7939 22.5911 87.974 22.4613 88.1836 22.3701C88.3932 22.279 88.6245 22.2334 88.8774 22.2334C89.1395 22.2334 89.3708 22.2778 89.5713 22.3667C89.7718 22.4533 89.9393 22.5763 90.0737 22.7358C90.2082 22.8953 90.3096 23.0868 90.3779 23.3101C90.4463 23.5311 90.4805 23.776 90.4805 24.0449V24.4243H87.582V23.8022H89.5918V23.7339C89.5872 23.5903 89.5599 23.4593 89.5098 23.3408C89.4596 23.2201 89.3822 23.1243 89.2773 23.0537C89.1725 22.9808 89.0369 22.9443 88.8706 22.9443C88.7362 22.9443 88.6188 22.974 88.5186 23.0332C88.4206 23.0902 88.3385 23.1722 88.2725 23.2793C88.2087 23.3841 88.1608 23.5094 88.1289 23.6553C88.097 23.8011 88.0811 23.9629 88.0811 24.1406V24.2773C88.0811 24.4323 88.1016 24.5758 88.1426 24.708C88.1859 24.8402 88.2485 24.9552 88.3306 25.0532C88.4149 25.1489 88.5151 25.2241 88.6313 25.2788C88.7498 25.3312 88.8843 25.3574 89.0347 25.3574C89.2238 25.3574 89.3947 25.321 89.5474 25.248C89.7023 25.1729 89.8368 25.0623 89.9507 24.9165L90.4053 25.3882C90.3278 25.5021 90.223 25.6115 90.0908 25.7163C89.9609 25.8211 89.8037 25.9066 89.6191 25.9727C89.4346 26.0365 89.2215 26.0684 88.98 26.0684ZM94.3462 25.3574C94.4738 25.3574 94.5877 25.3324 94.688 25.2822C94.7882 25.2321 94.868 25.1615 94.9272 25.0703C94.9888 24.9792 95.0218 24.8732 95.0264 24.7524H95.8774C95.8729 25.0031 95.8022 25.2275 95.6655 25.4258C95.5288 25.624 95.3465 25.7812 95.1187 25.8975C94.8931 26.0114 94.6401 26.0684 94.3599 26.0684C94.075 26.0684 93.8267 26.0205 93.6147 25.9248C93.4028 25.8291 93.2262 25.6958 93.085 25.5249C92.946 25.354 92.8411 25.1558 92.7705 24.9302C92.7021 24.7046 92.668 24.4631 92.668 24.2056V24.0962C92.668 23.8387 92.7021 23.5972 92.7705 23.3716C92.8411 23.146 92.946 22.9478 93.085 22.7769C93.2262 22.606 93.4028 22.4727 93.6147 22.377C93.8267 22.2812 94.0739 22.2334 94.3564 22.2334C94.6549 22.2334 94.917 22.2915 95.1426 22.4077C95.3704 22.5239 95.5482 22.688 95.6758 22.8999C95.8057 23.1118 95.8729 23.3613 95.8774 23.6484H95.0264C95.0218 23.5163 94.9922 23.3978 94.9375 23.293C94.8828 23.1882 94.8053 23.1038 94.7051 23.04C94.6048 22.9762 94.4829 22.9443 94.3394 22.9443C94.1867 22.9443 94.0591 22.9762 93.9565 23.04C93.8563 23.1038 93.7777 23.1916 93.7207 23.3032C93.666 23.4126 93.6273 23.5356 93.6045 23.6724C93.584 23.8068 93.5737 23.9481 93.5737 24.0962V24.2056C93.5737 24.356 93.584 24.4995 93.6045 24.6362C93.6273 24.7729 93.666 24.896 93.7207 25.0054C93.7777 25.1125 93.8563 25.1979 93.9565 25.2617C94.0591 25.3255 94.189 25.3574 94.3462 25.3574ZM97.3643 20.75V26H96.4585V20.75H97.3643ZM97.2207 24.0176H96.9541C96.9541 23.7601 96.9883 23.5231 97.0566 23.3066C97.125 23.0902 97.2218 22.9022 97.3472 22.7427C97.4725 22.5809 97.6217 22.4556 97.7949 22.3667C97.9704 22.2778 98.1641 22.2334 98.376 22.2334C98.5583 22.2334 98.7235 22.2596 98.8716 22.312C99.022 22.3621 99.1507 22.443 99.2578 22.5547C99.3649 22.6663 99.4469 22.8122 99.5039 22.9922C99.5632 23.1699 99.5928 23.3864 99.5928 23.6416V26H98.6836V23.6348C98.6836 23.4639 98.6585 23.3294 98.6084 23.2314C98.5583 23.1312 98.4865 23.0594 98.3931 23.0161C98.3019 22.9728 98.1891 22.9512 98.0547 22.9512C97.9089 22.9512 97.7835 22.9797 97.6787 23.0366C97.5739 23.0913 97.4873 23.1676 97.4189 23.2656C97.3529 23.3636 97.3027 23.4764 97.2686 23.604C97.2367 23.7316 97.2207 23.8695 97.2207 24.0176ZM102.05 26.0684C101.77 26.0684 101.518 26.0228 101.295 25.9316C101.072 25.8405 100.881 25.714 100.724 25.5522C100.569 25.3882 100.45 25.1979 100.365 24.9814C100.283 24.7627 100.242 24.528 100.242 24.2773V24.1406C100.242 23.8558 100.283 23.5972 100.365 23.3647C100.447 23.13 100.563 22.9284 100.714 22.7598C100.864 22.5911 101.044 22.4613 101.254 22.3701C101.464 22.279 101.695 22.2334 101.948 22.2334C102.21 22.2334 102.441 22.2778 102.642 22.3667C102.842 22.4533 103.01 22.5763 103.144 22.7358C103.278 22.8953 103.38 23.0868 103.448 23.3101C103.517 23.5311 103.551 23.776 103.551 24.0449V24.4243H100.652V23.8022H102.662V23.7339C102.658 23.5903 102.63 23.4593 102.58 23.3408C102.53 23.2201 102.452 23.1243 102.348 23.0537C102.243 22.9808 102.107 22.9443 101.941 22.9443C101.806 22.9443 101.689 22.974 101.589 23.0332C101.491 23.0902 101.409 23.1722 101.343 23.2793C101.279 23.3841 101.231 23.5094 101.199 23.6553C101.167 23.8011 101.151 23.9629 101.151 24.1406V24.2773C101.151 24.4323 101.172 24.5758 101.213 24.708C101.256 24.8402 101.319 24.9552 101.401 25.0532C101.485 25.1489 101.585 25.2241 101.702 25.2788C101.82 25.3312 101.955 25.3574 102.105 25.3574C102.294 25.3574 102.465 25.321 102.618 25.248C102.773 25.1729 102.907 25.0623 103.021 24.9165L103.476 25.3882C103.398 25.5021 103.293 25.6115 103.161 25.7163C103.031 25.8211 102.874 25.9066 102.689 25.9727C102.505 26.0365 102.292 26.0684 102.05 26.0684ZM107.054 25.2891V26H104.272V25.2891H107.054ZM106.989 22.8418L104.61 26H104.016V25.4429L106.381 22.3018H106.989V22.8418ZM106.658 22.3018V23.0161H104.063V22.3018H106.658ZM110.667 25.3164L111.528 22.3018H112.472L111.204 26H110.629L110.667 25.3164ZM110.038 22.3018L110.91 25.3232L110.94 26H110.363L109.091 22.3018H110.038ZM112.731 24.1885V24.1167C112.731 23.8455 112.77 23.596 112.848 23.3682C112.925 23.138 113.038 22.9386 113.186 22.77C113.334 22.6014 113.515 22.4704 113.729 22.377C113.944 22.2812 114.188 22.2334 114.461 22.2334C114.739 22.2334 114.985 22.2812 115.199 22.377C115.416 22.4704 115.598 22.6014 115.746 22.77C115.894 22.9386 116.007 23.138 116.084 23.3682C116.162 23.596 116.201 23.8455 116.201 24.1167V24.1885C116.201 24.4574 116.162 24.7069 116.084 24.937C116.007 25.1649 115.894 25.3643 115.746 25.5352C115.598 25.7038 115.417 25.8348 115.203 25.9282C114.988 26.0216 114.743 26.0684 114.468 26.0684C114.194 26.0684 113.949 26.0216 113.733 25.9282C113.516 25.8348 113.334 25.7038 113.186 25.5352C113.038 25.3643 112.925 25.1649 112.848 24.937C112.77 24.7069 112.731 24.4574 112.731 24.1885ZM113.634 24.1167V24.1885C113.634 24.3503 113.65 24.5018 113.682 24.6431C113.714 24.7843 113.763 24.9085 113.829 25.0156C113.895 25.1227 113.98 25.207 114.085 25.2686C114.192 25.3278 114.32 25.3574 114.468 25.3574C114.614 25.3574 114.739 25.3278 114.844 25.2686C114.949 25.207 115.034 25.1227 115.1 25.0156C115.168 24.9085 115.219 24.7843 115.25 24.6431C115.282 24.5018 115.298 24.3503 115.298 24.1885V24.1167C115.298 23.9572 115.282 23.8079 115.25 23.6689C115.219 23.5277 115.168 23.4035 115.1 23.2964C115.034 23.187 114.947 23.1016 114.84 23.04C114.736 22.9762 114.609 22.9443 114.461 22.9443C114.315 22.9443 114.19 22.9762 114.085 23.04C113.98 23.1016 113.895 23.187 113.829 23.2964C113.763 23.4035 113.714 23.5277 113.682 23.6689C113.65 23.8079 113.634 23.9572 113.634 24.1167ZM119.058 25.1216V22.3018H119.967V26H119.113L119.058 25.1216ZM119.174 24.356L119.455 24.3491C119.455 24.5975 119.427 24.8265 119.373 25.0361C119.318 25.2458 119.232 25.4281 119.116 25.583C119.002 25.7357 118.858 25.8553 118.682 25.9419C118.507 26.0262 118.299 26.0684 118.06 26.0684C117.878 26.0684 117.711 26.0433 117.561 25.9932C117.411 25.9408 117.281 25.8599 117.171 25.7505C117.064 25.6388 116.981 25.4964 116.922 25.3232C116.863 25.1478 116.833 24.937 116.833 24.6909V22.3018H117.735V24.6978C117.735 24.8208 117.749 24.9233 117.776 25.0054C117.806 25.0874 117.846 25.1546 117.896 25.207C117.948 25.2572 118.009 25.2936 118.077 25.3164C118.148 25.3369 118.223 25.3472 118.303 25.3472C118.521 25.3472 118.694 25.3039 118.819 25.2173C118.946 25.1284 119.038 25.0099 119.092 24.8618C119.147 24.7114 119.174 24.5428 119.174 24.356ZM122.801 24.9883C122.801 24.9108 122.78 24.8413 122.739 24.7798C122.698 24.7183 122.621 24.6624 122.507 24.6123C122.395 24.5599 122.231 24.5109 122.015 24.4653C121.823 24.4243 121.647 24.373 121.485 24.3115C121.323 24.25 121.184 24.1759 121.068 24.0894C120.952 24.0005 120.861 23.8968 120.794 23.7783C120.731 23.6576 120.699 23.5186 120.699 23.3613C120.699 23.2087 120.732 23.0651 120.798 22.9307C120.864 22.7939 120.96 22.6743 121.085 22.5718C121.21 22.467 121.363 22.3849 121.543 22.3257C121.723 22.2642 121.926 22.2334 122.151 22.2334C122.466 22.2334 122.736 22.2847 122.961 22.3872C123.189 22.4897 123.364 22.631 123.484 22.811C123.605 22.9888 123.666 23.1893 123.666 23.4126H122.763C122.763 23.3146 122.74 23.2257 122.695 23.146C122.652 23.0662 122.584 23.0024 122.493 22.9546C122.402 22.9045 122.287 22.8794 122.148 22.8794C122.023 22.8794 121.917 22.8999 121.83 22.9409C121.746 22.9819 121.682 23.0355 121.639 23.1016C121.595 23.1676 121.574 23.2406 121.574 23.3203C121.574 23.3796 121.585 23.4331 121.608 23.481C121.633 23.5265 121.673 23.5687 121.728 23.6074C121.782 23.6462 121.856 23.6815 121.95 23.7134C122.045 23.7453 122.163 23.776 122.302 23.8057C122.577 23.8604 122.818 23.9333 123.023 24.0244C123.23 24.1133 123.392 24.2318 123.508 24.3799C123.625 24.528 123.683 24.7171 123.683 24.9473C123.683 25.1113 123.647 25.2617 123.577 25.3984C123.506 25.5329 123.403 25.6502 123.269 25.7505C123.135 25.8507 122.974 25.9294 122.787 25.9863C122.6 26.041 122.389 26.0684 122.155 26.0684C121.815 26.0684 121.528 26.008 121.293 25.8872C121.059 25.7642 120.881 25.6092 120.76 25.4224C120.639 25.2332 120.579 25.0373 120.579 24.8345H121.444C121.451 24.978 121.489 25.0931 121.56 25.1797C121.631 25.2663 121.72 25.3289 121.827 25.3677C121.936 25.4041 122.051 25.4224 122.172 25.4224C122.309 25.4224 122.424 25.4041 122.517 25.3677C122.611 25.3289 122.681 25.2777 122.729 25.2139C122.777 25.1478 122.801 25.0726 122.801 24.9883Z" fill="white"/>
<path d="M3.56445 9.58203V18H1.21094V7.43359H3.42773L3.56445 9.58203ZM3.18359 12.3262L2.38281 12.3164C2.38281 11.5872 2.47396 10.9134 2.65625 10.2949C2.83854 9.67643 3.10547 9.13932 3.45703 8.68359C3.80859 8.22135 4.24479 7.86654 4.76562 7.61914C5.29297 7.36523 5.90169 7.23828 6.5918 7.23828C7.07357 7.23828 7.51302 7.3099 7.91016 7.45312C8.3138 7.58984 8.66211 7.80794 8.95508 8.10742C9.25456 8.4069 9.48242 8.79102 9.63867 9.25977C9.80143 9.72852 9.88281 10.2949 9.88281 10.959V18H7.5293V11.1641C7.5293 10.6497 7.45117 10.2461 7.29492 9.95312C7.14518 9.66016 6.92708 9.45182 6.64062 9.32812C6.36068 9.19792 6.02539 9.13281 5.63477 9.13281C5.19206 9.13281 4.81445 9.21745 4.50195 9.38672C4.19596 9.55599 3.94531 9.78711 3.75 10.0801C3.55469 10.373 3.41146 10.7116 3.32031 11.0957C3.22917 11.4798 3.18359 11.89 3.18359 12.3262ZM9.73633 11.7012L8.63281 11.9453C8.63281 11.3073 8.7207 10.7051 8.89648 10.1387C9.07878 9.56576 9.34245 9.06445 9.6875 8.63477C10.0391 8.19857 10.472 7.85677 10.9863 7.60938C11.5007 7.36198 12.0898 7.23828 12.7539 7.23828C13.2943 7.23828 13.776 7.31315 14.1992 7.46289C14.6289 7.60612 14.9935 7.83398 15.293 8.14648C15.5924 8.45898 15.8203 8.86589 15.9766 9.36719C16.1328 9.86198 16.2109 10.4609 16.2109 11.1641V18H13.8477V11.1543C13.8477 10.6204 13.7695 10.207 13.6133 9.91406C13.4635 9.62109 13.2487 9.41927 12.9688 9.30859C12.6888 9.19141 12.3535 9.13281 11.9629 9.13281C11.5983 9.13281 11.276 9.20117 10.9961 9.33789C10.7227 9.4681 10.4915 9.65365 10.3027 9.89453C10.1139 10.1289 9.9707 10.3991 9.87305 10.7051C9.7819 11.0111 9.73633 11.3431 9.73633 11.7012ZM21.1523 7.43359V18H18.7891V7.43359H21.1523ZM18.6328 4.66016C18.6328 4.30208 18.75 4.00586 18.9844 3.77148C19.2253 3.5306 19.5573 3.41016 19.9805 3.41016C20.3971 3.41016 20.7259 3.5306 20.9668 3.77148C21.2077 4.00586 21.3281 4.30208 21.3281 4.66016C21.3281 5.01172 21.2077 5.30469 20.9668 5.53906C20.7259 5.77344 20.3971 5.89062 19.9805 5.89062C19.5573 5.89062 19.2253 5.77344 18.9844 5.53906C18.75 5.30469 18.6328 5.01172 18.6328 4.66016ZM26.7188 3.78125V18H23.7891V3.78125H26.7188ZM35.2344 3.78125L29.5996 10.8027L26.3477 14.2988L25.8203 11.5254L28.0176 8.51758L31.6406 3.78125H35.2344ZM31.9043 18L27.7148 11.4277L29.8828 9.61133L35.3711 18H31.9043ZM42.0312 15.6172V10.9102C42.0312 10.5716 41.9759 10.2819 41.8652 10.041C41.7546 9.79362 41.582 9.60156 41.3477 9.46484C41.1198 9.32812 40.8236 9.25977 40.459 9.25977C40.1465 9.25977 39.8763 9.3151 39.6484 9.42578C39.4206 9.52995 39.2448 9.68294 39.1211 9.88477C38.9974 10.0801 38.9355 10.3112 38.9355 10.5781H36.123C36.123 10.1289 36.2272 9.70247 36.4355 9.29883C36.6439 8.89518 36.9466 8.54036 37.3438 8.23438C37.7409 7.92188 38.2129 7.67773 38.7598 7.50195C39.3132 7.32617 39.9316 7.23828 40.6152 7.23828C41.4355 7.23828 42.1647 7.375 42.8027 7.64844C43.4408 7.92188 43.9421 8.33203 44.3066 8.87891C44.6777 9.42578 44.8633 10.1094 44.8633 10.9297V15.4512C44.8633 16.0306 44.8991 16.5059 44.9707 16.877C45.0423 17.2415 45.1465 17.5605 45.2832 17.834V18H42.4414C42.3047 17.7135 42.2005 17.3555 42.1289 16.9258C42.0638 16.4896 42.0312 16.0534 42.0312 15.6172ZM42.4023 11.5645L42.4219 13.1562H40.8496C40.4785 13.1562 40.1562 13.1986 39.8828 13.2832C39.6094 13.3678 39.3848 13.4883 39.209 13.6445C39.0332 13.7943 38.903 13.9701 38.8184 14.1719C38.7402 14.3737 38.7012 14.5951 38.7012 14.8359C38.7012 15.0768 38.7565 15.2949 38.8672 15.4902C38.9779 15.679 39.1374 15.8288 39.3457 15.9395C39.554 16.0436 39.7982 16.0957 40.0781 16.0957C40.5013 16.0957 40.8691 16.0111 41.1816 15.8418C41.4941 15.6725 41.735 15.4642 41.9043 15.2168C42.0801 14.9694 42.1712 14.735 42.1777 14.5137L42.9199 15.7051C42.8158 15.972 42.6725 16.2487 42.4902 16.5352C42.3145 16.8216 42.0898 17.0918 41.8164 17.3457C41.543 17.5931 41.2142 17.7982 40.8301 17.9609C40.446 18.1172 39.9902 18.1953 39.4629 18.1953C38.7923 18.1953 38.1836 18.0618 37.6367 17.7949C37.0964 17.5215 36.6667 17.1471 36.3477 16.6719C36.0352 16.1901 35.8789 15.6432 35.8789 15.0312C35.8789 14.4779 35.9831 13.9863 36.1914 13.5566C36.3997 13.127 36.7057 12.7656 37.1094 12.4727C37.5195 12.1732 38.0306 11.9486 38.6426 11.7988C39.2546 11.6426 39.9642 11.5645 40.7715 11.5645H42.4023ZM55.4395 15.8027V18H47.4121V15.8027H55.4395ZM55.2832 9.05469L48.5449 18H46.6602V16.3301L53.3691 7.43359H55.2832V9.05469ZM54.2871 7.43359V9.64062H46.8164V7.43359H54.2871ZM62.9102 15.6172V10.9102C62.9102 10.5716 62.8548 10.2819 62.7441 10.041C62.6335 9.79362 62.4609 9.60156 62.2266 9.46484C61.9987 9.32812 61.7025 9.25977 61.3379 9.25977C61.0254 9.25977 60.7552 9.3151 60.5273 9.42578C60.2995 9.52995 60.1237 9.68294 60 9.88477C59.8763 10.0801 59.8145 10.3112 59.8145 10.5781H57.002C57.002 10.1289 57.1061 9.70247 57.3145 9.29883C57.5228 8.89518 57.8255 8.54036 58.2227 8.23438C58.6198 7.92188 59.0918 7.67773 59.6387 7.50195C60.1921 7.32617 60.8105 7.23828 61.4941 7.23828C62.3145 7.23828 63.0436 7.375 63.6816 7.64844C64.3197 7.92188 64.821 8.33203 65.1855 8.87891C65.5566 9.42578 65.7422 10.1094 65.7422 10.9297V15.4512C65.7422 16.0306 65.778 16.5059 65.8496 16.877C65.9212 17.2415 66.0254 17.5605 66.1621 17.834V18H63.3203C63.1836 17.7135 63.0794 17.3555 63.0078 16.9258C62.9427 16.4896 62.9102 16.0534 62.9102 15.6172ZM63.2812 11.5645L63.3008 13.1562H61.7285C61.3574 13.1562 61.0352 13.1986 60.7617 13.2832C60.4883 13.3678 60.2637 13.4883 60.0879 13.6445C59.9121 13.7943 59.7819 13.9701 59.6973 14.1719C59.6191 14.3737 59.5801 14.5951 59.5801 14.8359C59.5801 15.0768 59.6354 15.2949 59.7461 15.4902C59.8568 15.679 60.0163 15.8288 60.2246 15.9395C60.4329 16.0436 60.6771 16.0957 60.957 16.0957C61.3802 16.0957 61.748 16.0111 62.0605 15.8418C62.373 15.6725 62.6139 15.4642 62.7832 15.2168C62.959 14.9694 63.0501 14.735 63.0566 14.5137L63.7988 15.7051C63.6947 15.972 63.5514 16.2487 63.3691 16.5352C63.1934 16.8216 62.9688 17.0918 62.6953 17.3457C62.4219 17.5931 62.0931 17.7982 61.709 17.9609C61.3249 18.1172 60.8691 18.1953 60.3418 18.1953C59.6712 18.1953 59.0625 18.0618 58.5156 17.7949C57.9753 17.5215 57.5456 17.1471 57.2266 16.6719C56.9141 16.1901 56.7578 15.6432 56.7578 15.0312C56.7578 14.4779 56.862 13.9863 57.0703 13.5566C57.2786 13.127 57.5846 12.7656 57.9883 12.4727C58.3984 12.1732 58.9095 11.9486 59.5215 11.7988C60.1335 11.6426 60.8431 11.5645 61.6504 11.5645H63.2812ZM73.1152 10.8906V12.9316H67.7734V10.8906H73.1152ZM77.7344 9.44531V18H75.3809V7.43359H77.627L77.7344 9.44531ZM80.9668 7.36523L80.9473 9.55273C80.804 9.52669 80.6478 9.50716 80.4785 9.49414C80.3158 9.48112 80.153 9.47461 79.9902 9.47461C79.5866 9.47461 79.2318 9.5332 78.9258 9.65039C78.6198 9.76107 78.3626 9.92383 78.1543 10.1387C77.9525 10.347 77.7962 10.6009 77.6855 10.9004C77.5749 11.1999 77.5098 11.5352 77.4902 11.9062L76.9531 11.9453C76.9531 11.2812 77.0182 10.666 77.1484 10.0996C77.2786 9.5332 77.474 9.03516 77.7344 8.60547C78.0013 8.17578 78.3333 7.84049 78.7305 7.59961C79.1341 7.35872 79.5996 7.23828 80.127 7.23828C80.2702 7.23828 80.4232 7.2513 80.5859 7.27734C80.7552 7.30339 80.8822 7.33268 80.9668 7.36523ZM86.9043 18.1953C86.123 18.1953 85.4167 18.0684 84.7852 17.8145C84.1602 17.554 83.6263 17.1927 83.1836 16.7305C82.7474 16.2682 82.4121 15.7246 82.1777 15.0996C81.9434 14.4746 81.8262 13.8008 81.8262 13.0781V12.6875C81.8262 11.8607 81.9466 11.112 82.1875 10.4414C82.4284 9.77083 82.7637 9.19792 83.1934 8.72266C83.623 8.24089 84.1309 7.87305 84.7168 7.61914C85.3027 7.36523 85.9375 7.23828 86.6211 7.23828C87.3763 7.23828 88.0371 7.36523 88.6035 7.61914C89.1699 7.87305 89.6387 8.23112 90.0098 8.69336C90.3874 9.14909 90.6673 9.69271 90.8496 10.3242C91.0384 10.9557 91.1328 11.6523 91.1328 12.4141V13.4199H82.9688V11.7305H88.8086V11.5449C88.7956 11.1217 88.7109 10.7246 88.5547 10.3535C88.4049 9.98242 88.1738 9.68294 87.8613 9.45508C87.5488 9.22721 87.1322 9.11328 86.6113 9.11328C86.2207 9.11328 85.8724 9.19792 85.5664 9.36719C85.2669 9.52995 85.0163 9.76758 84.8145 10.0801C84.6126 10.3926 84.4564 10.7702 84.3457 11.2129C84.2415 11.6491 84.1895 12.1406 84.1895 12.6875V13.0781C84.1895 13.5404 84.2513 13.9701 84.375 14.3672C84.5052 14.7578 84.694 15.0996 84.9414 15.3926C85.1888 15.6855 85.4883 15.9167 85.8398 16.0859C86.1914 16.2487 86.5918 16.3301 87.041 16.3301C87.6074 16.3301 88.112 16.2161 88.5547 15.9883C88.9974 15.7604 89.3815 15.4382 89.707 15.0215L90.9473 16.2227C90.7194 16.5547 90.4232 16.8737 90.0586 17.1797C89.694 17.4792 89.248 17.7233 88.7207 17.9121C88.1999 18.1009 87.5944 18.1953 86.9043 18.1953ZM95.3027 9.68945V18H92.9492V7.43359H95.166L95.3027 9.68945ZM94.8828 12.3262L94.1211 12.3164C94.1276 11.5677 94.2318 10.8809 94.4336 10.2559C94.6419 9.63086 94.9284 9.09375 95.293 8.64453C95.6641 8.19531 96.1068 7.85026 96.6211 7.60938C97.1354 7.36198 97.7083 7.23828 98.3398 7.23828C98.8477 7.23828 99.3066 7.3099 99.7168 7.45312C100.133 7.58984 100.488 7.81445 100.781 8.12695C101.081 8.43945 101.309 8.84635 101.465 9.34766C101.621 9.84245 101.699 10.4512 101.699 11.1738V18H99.3359V11.1641C99.3359 10.6562 99.2611 10.2559 99.1113 9.96289C98.9681 9.66341 98.7565 9.45182 98.4766 9.32812C98.2031 9.19792 97.8613 9.13281 97.4512 9.13281C97.0475 9.13281 96.6862 9.21745 96.3672 9.38672C96.0482 9.55599 95.778 9.78711 95.5566 10.0801C95.3418 10.373 95.1758 10.7116 95.0586 11.0957C94.9414 11.4798 94.8828 11.89 94.8828 12.3262ZM103.652 12.834V12.6094C103.652 11.8477 103.763 11.1413 103.984 10.4902C104.206 9.83268 104.525 9.26302 104.941 8.78125C105.365 8.29297 105.879 7.91536 106.484 7.64844C107.096 7.375 107.786 7.23828 108.555 7.23828C109.329 7.23828 110.02 7.375 110.625 7.64844C111.237 7.91536 111.755 8.29297 112.178 8.78125C112.601 9.26302 112.923 9.83268 113.145 10.4902C113.366 11.1413 113.477 11.8477 113.477 12.6094V12.834C113.477 13.5957 113.366 14.3021 113.145 14.9531C112.923 15.6042 112.601 16.1738 112.178 16.6621C111.755 17.1439 111.24 17.5215 110.635 17.7949C110.029 18.0618 109.342 18.1953 108.574 18.1953C107.799 18.1953 107.106 18.0618 106.494 17.7949C105.889 17.5215 105.374 17.1439 104.951 16.6621C104.528 16.1738 104.206 15.6042 103.984 14.9531C103.763 14.3021 103.652 13.5957 103.652 12.834ZM106.006 12.6094V12.834C106.006 13.3092 106.055 13.7585 106.152 14.1816C106.25 14.6048 106.403 14.9759 106.611 15.2949C106.82 15.6139 107.087 15.8646 107.412 16.0469C107.738 16.2292 108.125 16.3203 108.574 16.3203C109.01 16.3203 109.388 16.2292 109.707 16.0469C110.033 15.8646 110.299 15.6139 110.508 15.2949C110.716 14.9759 110.869 14.6048 110.967 14.1816C111.071 13.7585 111.123 13.3092 111.123 12.834V12.6094C111.123 12.1406 111.071 11.6979 110.967 11.2812C110.869 10.8581 110.713 10.4837 110.498 10.1582C110.29 9.83268 110.023 9.57878 109.697 9.39648C109.378 9.20768 108.997 9.11328 108.555 9.11328C108.112 9.11328 107.728 9.20768 107.402 9.39648C107.083 9.57878 106.82 9.83268 106.611 10.1582C106.403 10.4837 106.25 10.8581 106.152 11.2812C106.055 11.6979 106.006 12.1406 106.006 12.6094ZM118.73 16.1348L121.318 7.43359H123.76L120.088 18H118.564L118.73 16.1348ZM116.748 7.43359L119.385 16.1738L119.512 18H117.988L114.297 7.43359H116.748Z" fill="white"/>
</svg>
