<svg width="124" height="137" viewBox="0 0 124 137" fill="none" xmlns="http://www.w3.org/2000/svg">
<path d="M1.92432 134.357C2.05192 134.357 2.16585 134.332 2.26611 134.282C2.36637 134.232 2.44613 134.161 2.50537 134.07C2.56689 133.979 2.59993 133.873 2.60449 133.752H3.45557C3.45101 134.003 3.38037 134.228 3.24365 134.426C3.10693 134.624 2.92464 134.781 2.69678 134.897C2.47119 135.011 2.21826 135.068 1.93799 135.068C1.65316 135.068 1.40479 135.021 1.19287 134.925C0.980957 134.829 0.804362 134.696 0.663086 134.525C0.524089 134.354 0.419271 134.156 0.348633 133.93C0.280273 133.705 0.246094 133.463 0.246094 133.206V133.096C0.246094 132.839 0.280273 132.597 0.348633 132.372C0.419271 132.146 0.524089 131.948 0.663086 131.777C0.804362 131.606 0.980957 131.473 1.19287 131.377C1.40479 131.281 1.65202 131.233 1.93457 131.233C2.23307 131.233 2.49512 131.292 2.7207 131.408C2.94857 131.524 3.1263 131.688 3.25391 131.9C3.38379 132.112 3.45101 132.361 3.45557 132.648H2.60449C2.59993 132.516 2.57031 132.398 2.51562 132.293C2.46094 132.188 2.38346 132.104 2.2832 132.04C2.18294 131.976 2.06104 131.944 1.91748 131.944C1.76481 131.944 1.63721 131.976 1.53467 132.04C1.43441 132.104 1.35579 132.192 1.29883 132.303C1.24414 132.413 1.2054 132.536 1.18262 132.672C1.16211 132.807 1.15186 132.948 1.15186 133.096V133.206C1.15186 133.356 1.16211 133.5 1.18262 133.636C1.2054 133.773 1.24414 133.896 1.29883 134.005C1.35579 134.112 1.43441 134.198 1.53467 134.262C1.63721 134.326 1.76709 134.357 1.92432 134.357ZM3.89648 133.188V133.117C3.89648 132.846 3.93522 132.596 4.0127 132.368C4.09017 132.138 4.20296 131.939 4.35107 131.77C4.49919 131.601 4.68034 131.47 4.89453 131.377C5.10872 131.281 5.35254 131.233 5.62598 131.233C5.90397 131.233 6.15007 131.281 6.36426 131.377C6.58073 131.47 6.76302 131.601 6.91113 131.77C7.05924 131.939 7.17204 132.138 7.24951 132.368C7.32699 132.596 7.36572 132.846 7.36572 133.117V133.188C7.36572 133.457 7.32699 133.707 7.24951 133.937C7.17204 134.165 7.05924 134.364 6.91113 134.535C6.76302 134.704 6.58187 134.835 6.36768 134.928C6.15348 135.022 5.90853 135.068 5.63281 135.068C5.35938 135.068 5.11442 135.022 4.89795 134.928C4.68148 134.835 4.49919 134.704 4.35107 134.535C4.20296 134.364 4.09017 134.165 4.0127 133.937C3.93522 133.707 3.89648 133.457 3.89648 133.188ZM4.79883 133.117V133.188C4.79883 133.35 4.81478 133.502 4.84668 133.643C4.87858 133.784 4.92757 133.909 4.99365 134.016C5.05973 134.123 5.14518 134.207 5.25 134.269C5.3571 134.328 5.4847 134.357 5.63281 134.357C5.77865 134.357 5.90397 134.328 6.00879 134.269C6.11361 134.207 6.19906 134.123 6.26514 134.016C6.3335 133.909 6.38363 133.784 6.41553 133.643C6.44743 133.502 6.46338 133.35 6.46338 133.188V133.117C6.46338 132.957 6.44743 132.808 6.41553 132.669C6.38363 132.528 6.3335 132.403 6.26514 132.296C6.19906 132.187 6.11247 132.102 6.00537 132.04C5.90055 131.976 5.77409 131.944 5.62598 131.944C5.48014 131.944 5.35482 131.976 5.25 132.04C5.14518 132.102 5.05973 132.187 4.99365 132.296C4.92757 132.403 4.87858 132.528 4.84668 132.669C4.81478 132.808 4.79883 132.957 4.79883 133.117ZM8.90723 132.091V135H8.00488V131.302H8.85254L8.90723 132.091ZM8.76367 133.018H8.49707C8.49935 132.749 8.53581 132.505 8.60645 132.286C8.67708 132.067 8.7762 131.879 8.90381 131.722C9.03369 131.565 9.1875 131.444 9.36523 131.36C9.54297 131.276 9.74121 131.233 9.95996 131.233C10.1377 131.233 10.2983 131.258 10.4419 131.309C10.5854 131.359 10.7085 131.438 10.811 131.548C10.9159 131.657 10.9956 131.801 11.0503 131.979C11.1073 132.154 11.1357 132.37 11.1357 132.628V135H10.2266V132.621C10.2266 132.452 10.2015 132.319 10.1514 132.221C10.1035 132.123 10.0329 132.054 9.93945 132.013C9.84831 131.972 9.73551 131.951 9.60107 131.951C9.46208 131.951 9.34017 131.98 9.23535 132.037C9.13281 132.091 9.04622 132.168 8.97559 132.266C8.90723 132.364 8.85482 132.476 8.81836 132.604C8.7819 132.732 8.76367 132.869 8.76367 133.018ZM13.1147 135H12.2056V130.96C12.2056 130.682 12.2591 130.448 12.3662 130.259C12.4733 130.068 12.626 129.923 12.8242 129.825C13.0225 129.727 13.256 129.678 13.5249 129.678C13.6138 129.678 13.6981 129.684 13.7778 129.695C13.8599 129.707 13.9408 129.723 14.0205 129.743L14.0034 130.43C13.9601 130.419 13.9123 130.411 13.8599 130.406C13.8097 130.402 13.7539 130.399 13.6924 130.399C13.5693 130.399 13.4645 130.421 13.3779 130.464C13.2913 130.508 13.2253 130.571 13.1797 130.656C13.1364 130.738 13.1147 130.839 13.1147 130.96V135ZM13.8633 131.302V131.951H11.6484V131.302H13.8633ZM14.2598 133.188V133.117C14.2598 132.846 14.2985 132.596 14.376 132.368C14.4535 132.138 14.5662 131.939 14.7144 131.77C14.8625 131.601 15.0436 131.47 15.2578 131.377C15.472 131.281 15.7158 131.233 15.9893 131.233C16.2673 131.233 16.5133 131.281 16.7275 131.377C16.944 131.47 17.1263 131.601 17.2744 131.77C17.4225 131.939 17.5353 132.138 17.6128 132.368C17.6903 132.596 17.729 132.846 17.729 133.117V133.188C17.729 133.457 17.6903 133.707 17.6128 133.937C17.5353 134.165 17.4225 134.364 17.2744 134.535C17.1263 134.704 16.9451 134.835 16.731 134.928C16.5168 135.022 16.2718 135.068 15.9961 135.068C15.7227 135.068 15.4777 135.022 15.2612 134.928C15.0448 134.835 14.8625 134.704 14.7144 134.535C14.5662 134.364 14.4535 134.165 14.376 133.937C14.2985 133.707 14.2598 133.457 14.2598 133.188ZM15.1621 133.117V133.188C15.1621 133.35 15.1781 133.502 15.21 133.643C15.2419 133.784 15.2909 133.909 15.3569 134.016C15.423 134.123 15.5085 134.207 15.6133 134.269C15.7204 134.328 15.848 134.357 15.9961 134.357C16.1419 134.357 16.2673 134.328 16.3721 134.269C16.4769 134.207 16.5623 134.123 16.6284 134.016C16.6968 133.909 16.7469 133.784 16.7788 133.643C16.8107 133.502 16.8267 133.35 16.8267 133.188V133.117C16.8267 132.957 16.8107 132.808 16.7788 132.669C16.7469 132.528 16.6968 132.403 16.6284 132.296C16.5623 132.187 16.4757 132.102 16.3687 132.04C16.2638 131.976 16.1374 131.944 15.9893 131.944C15.8434 131.944 15.7181 131.976 15.6133 132.04C15.5085 132.102 15.423 132.187 15.3569 132.296C15.2909 132.403 15.2419 132.528 15.21 132.669C15.1781 132.808 15.1621 132.957 15.1621 133.117ZM19.2876 132.057V135H18.3853V131.302H19.2397L19.2876 132.057ZM20.4121 131.278L20.3984 132.119C20.3483 132.11 20.2913 132.103 20.2275 132.098C20.166 132.094 20.1079 132.091 20.0532 132.091C19.9142 132.091 19.7923 132.111 19.6875 132.149C19.5827 132.186 19.495 132.239 19.4243 132.31C19.356 132.381 19.3035 132.467 19.2671 132.57C19.2306 132.67 19.2101 132.784 19.2056 132.912L19.0107 132.888C19.0107 132.653 19.0347 132.435 19.0825 132.235C19.1304 132.034 19.1999 131.859 19.291 131.708C19.3822 131.558 19.4961 131.442 19.6328 131.36C19.7718 131.276 19.9313 131.233 20.1113 131.233C20.1615 131.233 20.215 131.238 20.272 131.247C20.3312 131.254 20.3779 131.264 20.4121 131.278ZM22.8286 131.302V131.951H20.7095V131.302H22.8286ZM21.2769 130.393H22.1826V133.934C22.1826 134.043 22.1974 134.127 22.2271 134.187C22.2567 134.246 22.3011 134.286 22.3604 134.306C22.4196 134.327 22.4902 134.337 22.5723 134.337C22.6315 134.337 22.6862 134.333 22.7363 134.327C22.7865 134.32 22.8286 134.313 22.8628 134.306L22.8662 134.983C22.791 135.008 22.7056 135.028 22.6099 135.044C22.5164 135.06 22.4105 135.068 22.292 135.068C22.0892 135.068 21.9115 135.034 21.7588 134.966C21.6061 134.895 21.4876 134.782 21.4033 134.627C21.319 134.47 21.2769 134.263 21.2769 134.005V130.393ZM24.2812 134.187L24.2744 134.812C24.2744 135.056 24.214 135.303 24.0933 135.554C23.9725 135.804 23.8164 136.012 23.625 136.176L23.1465 135.913C23.208 135.81 23.265 135.706 23.3174 135.602C23.3721 135.497 23.4154 135.383 23.4473 135.26C23.4814 135.139 23.4985 135.003 23.4985 134.853V134.187H24.2812ZM28.8545 133.988C28.8545 133.911 28.834 133.841 28.793 133.78C28.752 133.718 28.6745 133.662 28.5605 133.612C28.4489 133.56 28.2848 133.511 28.0684 133.465C27.877 133.424 27.7004 133.373 27.5386 133.312C27.3768 133.25 27.2378 133.176 27.1216 133.089C27.0054 133 26.9142 132.897 26.8481 132.778C26.7843 132.658 26.7524 132.519 26.7524 132.361C26.7524 132.209 26.7855 132.065 26.8516 131.931C26.9176 131.794 27.0133 131.674 27.1387 131.572C27.264 131.467 27.4167 131.385 27.5967 131.326C27.7767 131.264 27.9795 131.233 28.2051 131.233C28.5195 131.233 28.7896 131.285 29.0151 131.387C29.243 131.49 29.4173 131.631 29.5381 131.811C29.6589 131.989 29.7192 132.189 29.7192 132.413H28.8169C28.8169 132.315 28.7941 132.226 28.7485 132.146C28.7052 132.066 28.638 132.002 28.5469 131.955C28.4557 131.904 28.3407 131.879 28.2017 131.879C28.0763 131.879 27.9704 131.9 27.8838 131.941C27.7995 131.982 27.7357 132.035 27.6924 132.102C27.6491 132.168 27.6274 132.241 27.6274 132.32C27.6274 132.38 27.6388 132.433 27.6616 132.481C27.6867 132.527 27.7266 132.569 27.7812 132.607C27.8359 132.646 27.91 132.681 28.0034 132.713C28.0991 132.745 28.2165 132.776 28.3555 132.806C28.6312 132.86 28.8716 132.933 29.0767 133.024C29.284 133.113 29.4458 133.232 29.562 133.38C29.6782 133.528 29.7363 133.717 29.7363 133.947C29.7363 134.111 29.701 134.262 29.6304 134.398C29.5597 134.533 29.4572 134.65 29.3228 134.75C29.1883 134.851 29.0277 134.929 28.8408 134.986C28.654 135.041 28.4432 135.068 28.2085 135.068C27.869 135.068 27.5819 135.008 27.3472 134.887C27.1125 134.764 26.9347 134.609 26.814 134.422C26.6932 134.233 26.6328 134.037 26.6328 133.834H27.4976C27.5044 133.978 27.5431 134.093 27.6138 134.18C27.6844 134.266 27.7733 134.329 27.8804 134.368C27.9897 134.404 28.1048 134.422 28.2256 134.422C28.3623 134.422 28.4774 134.404 28.5708 134.368C28.6642 134.329 28.7349 134.278 28.7827 134.214C28.8306 134.148 28.8545 134.073 28.8545 133.988ZM32.0845 135.068C31.8042 135.068 31.5524 135.023 31.3291 134.932C31.1058 134.84 30.9155 134.714 30.7583 134.552C30.6034 134.388 30.4837 134.198 30.3994 133.981C30.3174 133.763 30.2764 133.528 30.2764 133.277V133.141C30.2764 132.856 30.3174 132.597 30.3994 132.365C30.4814 132.13 30.5977 131.928 30.748 131.76C30.8984 131.591 31.0785 131.461 31.2881 131.37C31.4977 131.279 31.729 131.233 31.9819 131.233C32.244 131.233 32.4753 131.278 32.6758 131.367C32.8763 131.453 33.0438 131.576 33.1782 131.736C33.3127 131.895 33.4141 132.087 33.4824 132.31C33.5508 132.531 33.585 132.776 33.585 133.045V133.424H30.6865V132.802H32.6963V132.734C32.6917 132.59 32.6644 132.459 32.6143 132.341C32.5641 132.22 32.4867 132.124 32.3818 132.054C32.277 131.981 32.1414 131.944 31.9751 131.944C31.8407 131.944 31.7233 131.974 31.623 132.033C31.5251 132.09 31.443 132.172 31.377 132.279C31.3132 132.384 31.2653 132.509 31.2334 132.655C31.2015 132.801 31.1855 132.963 31.1855 133.141V133.277C31.1855 133.432 31.2061 133.576 31.2471 133.708C31.2904 133.84 31.353 133.955 31.4351 134.053C31.5194 134.149 31.6196 134.224 31.7358 134.279C31.8543 134.331 31.9888 134.357 32.1392 134.357C32.3283 134.357 32.4992 134.321 32.6519 134.248C32.8068 134.173 32.9412 134.062 33.0552 133.917L33.5098 134.388C33.4323 134.502 33.3275 134.611 33.1953 134.716C33.0654 134.821 32.9082 134.907 32.7236 134.973C32.5391 135.036 32.326 135.068 32.0845 135.068ZM31.4521 130.786L32.1221 129.747H33.1201L32.187 130.786H31.4521ZM35.7075 134.357C35.8351 134.357 35.9491 134.332 36.0493 134.282C36.1496 134.232 36.2293 134.161 36.2886 134.07C36.3501 133.979 36.3831 133.873 36.3877 133.752H37.2388C37.2342 134.003 37.1636 134.228 37.0269 134.426C36.8901 134.624 36.7078 134.781 36.48 134.897C36.2544 135.011 36.0015 135.068 35.7212 135.068C35.4364 135.068 35.188 135.021 34.9761 134.925C34.7642 134.829 34.5876 134.696 34.4463 134.525C34.3073 134.354 34.2025 134.156 34.1318 133.93C34.0635 133.705 34.0293 133.463 34.0293 133.206V133.096C34.0293 132.839 34.0635 132.597 34.1318 132.372C34.2025 132.146 34.3073 131.948 34.4463 131.777C34.5876 131.606 34.7642 131.473 34.9761 131.377C35.188 131.281 35.4352 131.233 35.7178 131.233C36.0163 131.233 36.2783 131.292 36.5039 131.408C36.7318 131.524 36.9095 131.688 37.0371 131.9C37.167 132.112 37.2342 132.361 37.2388 132.648H36.3877C36.3831 132.516 36.3535 132.398 36.2988 132.293C36.2441 132.188 36.1667 132.104 36.0664 132.04C35.9661 131.976 35.8442 131.944 35.7007 131.944C35.548 131.944 35.4204 131.976 35.3179 132.04C35.2176 132.104 35.139 132.192 35.082 132.303C35.0273 132.413 34.9886 132.536 34.9658 132.672C34.9453 132.807 34.9351 132.948 34.9351 133.096V133.206C34.9351 133.356 34.9453 133.5 34.9658 133.636C34.9886 133.773 35.0273 133.896 35.082 134.005C35.139 134.112 35.2176 134.198 35.3179 134.262C35.4204 134.326 35.5503 134.357 35.7075 134.357ZM40.0415 134.122V131.302H40.9507V135H40.0962L40.0415 134.122ZM40.1577 133.356L40.438 133.349C40.438 133.597 40.4106 133.826 40.356 134.036C40.3013 134.246 40.2158 134.428 40.0996 134.583C39.9857 134.736 39.841 134.855 39.6655 134.942C39.4901 135.026 39.2827 135.068 39.0435 135.068C38.8612 135.068 38.6948 135.043 38.5444 134.993C38.394 134.941 38.2642 134.86 38.1548 134.75C38.0477 134.639 37.9645 134.496 37.9053 134.323C37.846 134.148 37.8164 133.937 37.8164 133.691V131.302H38.7188V133.698C38.7188 133.821 38.7324 133.923 38.7598 134.005C38.7894 134.087 38.8293 134.155 38.8794 134.207C38.9318 134.257 38.9922 134.294 39.0605 134.316C39.1312 134.337 39.2064 134.347 39.2861 134.347C39.5049 134.347 39.6769 134.304 39.8022 134.217C39.9299 134.128 40.021 134.01 40.0757 133.862C40.1304 133.711 40.1577 133.543 40.1577 133.356ZM42.6528 132.057V135H41.7505V131.302H42.605L42.6528 132.057ZM43.7773 131.278L43.7637 132.119C43.7135 132.11 43.6566 132.103 43.5928 132.098C43.5312 132.094 43.4731 132.091 43.4185 132.091C43.2795 132.091 43.1576 132.111 43.0527 132.149C42.9479 132.186 42.8602 132.239 42.7896 132.31C42.7212 132.381 42.6688 132.467 42.6323 132.57C42.5959 132.67 42.5754 132.784 42.5708 132.912L42.376 132.888C42.376 132.653 42.3999 132.435 42.4478 132.235C42.4956 132.034 42.5651 131.859 42.6562 131.708C42.7474 131.558 42.8613 131.442 42.998 131.36C43.137 131.276 43.2965 131.233 43.4766 131.233C43.5267 131.233 43.5802 131.238 43.6372 131.247C43.6965 131.254 43.7432 131.264 43.7773 131.278ZM45.23 131.302V135H44.3242V131.302H45.23ZM44.2627 130.334C44.2627 130.2 44.3083 130.088 44.3994 130C44.4928 129.911 44.6182 129.866 44.7754 129.866C44.9326 129.866 45.0568 129.911 45.1479 130C45.2414 130.088 45.2881 130.2 45.2881 130.334C45.2881 130.467 45.2414 130.577 45.1479 130.666C45.0568 130.755 44.9326 130.799 44.7754 130.799C44.6182 130.799 44.4928 130.755 44.3994 130.666C44.3083 130.577 44.2627 130.467 44.2627 130.334ZM47.8413 131.302V131.951H45.7222V131.302H47.8413ZM46.2896 130.393H47.1953V133.934C47.1953 134.043 47.2101 134.127 47.2397 134.187C47.2694 134.246 47.3138 134.286 47.373 134.306C47.4323 134.327 47.5029 134.337 47.585 134.337C47.6442 134.337 47.6989 134.333 47.749 134.327C47.7992 134.32 47.8413 134.313 47.8755 134.306L47.8789 134.983C47.8037 135.008 47.7183 135.028 47.6226 135.044C47.5291 135.06 47.4232 135.068 47.3047 135.068C47.1019 135.068 46.9242 135.034 46.7715 134.966C46.6188 134.895 46.5003 134.782 46.416 134.627C46.3317 134.47 46.2896 134.263 46.2896 134.005V130.393ZM50.104 135.068C49.8237 135.068 49.5719 135.023 49.3486 134.932C49.1253 134.84 48.9351 134.714 48.7778 134.552C48.6229 134.388 48.5033 134.198 48.4189 133.981C48.3369 133.763 48.2959 133.528 48.2959 133.277V133.141C48.2959 132.856 48.3369 132.597 48.4189 132.365C48.501 132.13 48.6172 131.928 48.7676 131.76C48.918 131.591 49.098 131.461 49.3076 131.37C49.5173 131.279 49.7485 131.233 50.0015 131.233C50.2635 131.233 50.4948 131.278 50.6953 131.367C50.8958 131.453 51.0633 131.576 51.1978 131.736C51.3322 131.895 51.4336 132.087 51.502 132.31C51.5703 132.531 51.6045 132.776 51.6045 133.045V133.424H48.7061V132.802H50.7158V132.734C50.7113 132.59 50.6839 132.459 50.6338 132.341C50.5837 132.22 50.5062 132.124 50.4014 132.054C50.2965 131.981 50.161 131.944 49.9946 131.944C49.8602 131.944 49.7428 131.974 49.6426 132.033C49.5446 132.09 49.4626 132.172 49.3965 132.279C49.3327 132.384 49.2848 132.509 49.2529 132.655C49.221 132.801 49.2051 132.963 49.2051 133.141V133.277C49.2051 133.432 49.2256 133.576 49.2666 133.708C49.3099 133.84 49.3726 133.955 49.4546 134.053C49.5389 134.149 49.6392 134.224 49.7554 134.279C49.8739 134.331 50.0083 134.357 50.1587 134.357C50.3478 134.357 50.5187 134.321 50.6714 134.248C50.8263 134.173 50.9608 134.062 51.0747 133.917L51.5293 134.388C51.4518 134.502 51.347 134.611 51.2148 134.716C51.085 134.821 50.9277 134.907 50.7432 134.973C50.5586 135.036 50.3455 135.068 50.104 135.068ZM49.4717 130.786L50.1416 129.747H51.1396L50.2065 130.786H49.4717ZM55.6138 135.068C55.3335 135.068 55.0817 135.023 54.8584 134.932C54.6351 134.84 54.4448 134.714 54.2876 134.552C54.1326 134.388 54.013 134.198 53.9287 133.981C53.8467 133.763 53.8057 133.528 53.8057 133.277V133.141C53.8057 132.856 53.8467 132.597 53.9287 132.365C54.0107 132.13 54.127 131.928 54.2773 131.76C54.4277 131.591 54.6077 131.461 54.8174 131.37C55.027 131.279 55.2583 131.233 55.5112 131.233C55.7733 131.233 56.0046 131.278 56.2051 131.367C56.4056 131.453 56.5731 131.576 56.7075 131.736C56.842 131.895 56.9434 132.087 57.0117 132.31C57.0801 132.531 57.1143 132.776 57.1143 133.045V133.424H54.2158V132.802H56.2256V132.734C56.221 132.59 56.1937 132.459 56.1436 132.341C56.0934 132.22 56.016 132.124 55.9111 132.054C55.8063 131.981 55.6707 131.944 55.5044 131.944C55.37 131.944 55.2526 131.974 55.1523 132.033C55.0544 132.09 54.9723 132.172 54.9062 132.279C54.8424 132.384 54.7946 132.509 54.7627 132.655C54.7308 132.801 54.7148 132.963 54.7148 133.141V133.277C54.7148 133.432 54.7354 133.576 54.7764 133.708C54.8197 133.84 54.8823 133.955 54.9644 134.053C55.0487 134.149 55.1489 134.224 55.2651 134.279C55.3836 134.331 55.5181 134.357 55.6685 134.357C55.8576 134.357 56.0285 134.321 56.1812 134.248C56.3361 134.173 56.4705 134.062 56.5845 133.917L57.0391 134.388C56.9616 134.502 56.8568 134.611 56.7246 134.716C56.5947 134.821 56.4375 134.907 56.2529 134.973C56.0684 135.036 55.8553 135.068 55.6138 135.068ZM59.4692 131.302V131.951H57.3501V131.302H59.4692ZM57.9175 130.393H58.8232V133.934C58.8232 134.043 58.8381 134.127 58.8677 134.187C58.8973 134.246 58.9417 134.286 59.001 134.306C59.0602 134.327 59.1309 134.337 59.2129 134.337C59.2721 134.337 59.3268 134.333 59.377 134.327C59.4271 134.32 59.4692 134.313 59.5034 134.306L59.5068 134.983C59.4316 135.008 59.3462 135.028 59.2505 135.044C59.1571 135.06 59.0511 135.068 58.9326 135.068C58.7298 135.068 58.5521 135.034 58.3994 134.966C58.2467 134.895 58.1283 134.782 58.0439 134.627C57.9596 134.47 57.9175 134.263 57.9175 134.005V130.393ZM61.8105 129.75H62.7163V134.183L62.6274 135H61.8105V129.75ZM65.0952 133.113V133.185C65.0952 133.461 65.0645 133.714 65.0029 133.944C64.9437 134.174 64.8537 134.373 64.7329 134.542C64.6121 134.708 64.4618 134.838 64.2817 134.932C64.104 135.023 63.8955 135.068 63.6562 135.068C63.4284 135.068 63.2301 135.024 63.0615 134.935C62.8952 134.846 62.755 134.721 62.6411 134.559C62.5272 134.395 62.436 134.202 62.3677 133.981C62.2993 133.758 62.248 133.514 62.2139 133.25V133.055C62.248 132.789 62.2993 132.545 62.3677 132.324C62.436 132.103 62.5272 131.91 62.6411 131.746C62.755 131.582 62.8952 131.456 63.0615 131.367C63.2279 131.278 63.4238 131.233 63.6494 131.233C63.891 131.233 64.1017 131.28 64.2817 131.374C64.464 131.465 64.6144 131.595 64.7329 131.763C64.8537 131.93 64.9437 132.128 65.0029 132.358C65.0645 132.586 65.0952 132.838 65.0952 133.113ZM64.1895 133.185V133.113C64.1895 132.956 64.1769 132.808 64.1519 132.669C64.1268 132.528 64.0858 132.403 64.0288 132.296C63.9718 132.189 63.8944 132.105 63.7964 132.043C63.6984 131.982 63.5754 131.951 63.4272 131.951C63.286 131.951 63.1652 131.975 63.0649 132.023C62.967 132.071 62.8849 132.137 62.8188 132.221C62.755 132.306 62.7049 132.405 62.6685 132.519C62.6343 132.632 62.6115 132.756 62.6001 132.888V133.421C62.616 133.596 62.6536 133.755 62.7129 133.896C62.7721 134.035 62.8599 134.146 62.9761 134.228C63.0946 134.31 63.2472 134.351 63.4341 134.351C63.5799 134.351 63.7018 134.322 63.7998 134.265C63.8978 134.206 63.9753 134.124 64.0322 134.019C64.0892 133.912 64.1291 133.788 64.1519 133.646C64.1769 133.505 64.1895 133.351 64.1895 133.185ZM66.7085 131.302V135H65.8027V131.302H66.7085ZM65.7412 130.334C65.7412 130.2 65.7868 130.088 65.8779 130C65.9714 129.911 66.0967 129.866 66.2539 129.866C66.4111 129.866 66.5353 129.911 66.6265 130C66.7199 130.088 66.7666 130.2 66.7666 130.334C66.7666 130.467 66.7199 130.577 66.6265 130.666C66.5353 130.755 66.4111 130.799 66.2539 130.799C66.0967 130.799 65.9714 130.755 65.8779 130.666C65.7868 130.577 65.7412 130.467 65.7412 130.334ZM69.231 135.068C68.9507 135.068 68.6989 135.023 68.4756 134.932C68.2523 134.84 68.062 134.714 67.9048 134.552C67.7498 134.388 67.6302 134.198 67.5459 133.981C67.4639 133.763 67.4229 133.528 67.4229 133.277V133.141C67.4229 132.856 67.4639 132.597 67.5459 132.365C67.6279 132.13 67.7441 131.928 67.8945 131.76C68.0449 131.591 68.2249 131.461 68.4346 131.37C68.6442 131.279 68.8755 131.233 69.1284 131.233C69.3905 131.233 69.6217 131.278 69.8223 131.367C70.0228 131.453 70.1903 131.576 70.3247 131.736C70.4591 131.895 70.5605 132.087 70.6289 132.31C70.6973 132.531 70.7314 132.776 70.7314 133.045V133.424H67.833V132.802H69.8428V132.734C69.8382 132.59 69.8109 132.459 69.7607 132.341C69.7106 132.22 69.6331 132.124 69.5283 132.054C69.4235 131.981 69.2879 131.944 69.1216 131.944C68.9871 131.944 68.8698 131.974 68.7695 132.033C68.6715 132.09 68.5895 132.172 68.5234 132.279C68.4596 132.384 68.4118 132.509 68.3799 132.655C68.348 132.801 68.332 132.963 68.332 133.141V133.277C68.332 133.432 68.3525 133.576 68.3936 133.708C68.4368 133.84 68.4995 133.955 68.5815 134.053C68.6659 134.149 68.7661 134.224 68.8823 134.279C69.0008 134.331 69.1353 134.357 69.2856 134.357C69.4748 134.357 69.6457 134.321 69.7983 134.248C69.9533 134.173 70.0877 134.062 70.2017 133.917L70.6562 134.388C70.5788 134.502 70.474 134.611 70.3418 134.716C70.2119 134.821 70.0547 134.907 69.8701 134.973C69.6855 135.036 69.4725 135.068 69.231 135.068ZM72.2217 132.091V135H71.3193V131.302H72.167L72.2217 132.091ZM72.0781 133.018H71.8115C71.8138 132.749 71.8503 132.505 71.9209 132.286C71.9915 132.067 72.0907 131.879 72.2183 131.722C72.3481 131.565 72.502 131.444 72.6797 131.36C72.8574 131.276 73.0557 131.233 73.2744 131.233C73.4521 131.233 73.6128 131.258 73.7563 131.309C73.8999 131.359 74.0229 131.438 74.1255 131.548C74.2303 131.657 74.3101 131.801 74.3647 131.979C74.4217 132.154 74.4502 132.37 74.4502 132.628V135H73.541V132.621C73.541 132.452 73.516 132.319 73.4658 132.221C73.418 132.123 73.3473 132.054 73.2539 132.013C73.1628 131.972 73.05 131.951 72.9155 131.951C72.7765 131.951 72.6546 131.98 72.5498 132.037C72.4473 132.091 72.3607 132.168 72.29 132.266C72.2217 132.364 72.1693 132.476 72.1328 132.604C72.0964 132.732 72.0781 132.869 72.0781 133.018ZM77.0444 132.512V133.226H75.1748V132.512H77.0444ZM79.478 135.068C79.1978 135.068 78.946 135.023 78.7227 134.932C78.4993 134.84 78.3091 134.714 78.1519 134.552C77.9969 134.388 77.8773 134.198 77.793 133.981C77.7109 133.763 77.6699 133.528 77.6699 133.277V133.141C77.6699 132.856 77.7109 132.597 77.793 132.365C77.875 132.13 77.9912 131.928 78.1416 131.76C78.292 131.591 78.472 131.461 78.6816 131.37C78.8913 131.279 79.1226 131.233 79.3755 131.233C79.6375 131.233 79.8688 131.278 80.0693 131.367C80.2699 131.453 80.4373 131.576 80.5718 131.736C80.7062 131.895 80.8076 132.087 80.876 132.31C80.9443 132.531 80.9785 132.776 80.9785 133.045V133.424H78.0801V132.802H80.0898V132.734C80.0853 132.59 80.0579 132.459 80.0078 132.341C79.9577 132.22 79.8802 132.124 79.7754 132.054C79.6706 131.981 79.535 131.944 79.3687 131.944C79.2342 131.944 79.1169 131.974 79.0166 132.033C78.9186 132.09 78.8366 132.172 78.7705 132.279C78.7067 132.384 78.6589 132.509 78.627 132.655C78.5951 132.801 78.5791 132.963 78.5791 133.141V133.277C78.5791 133.432 78.5996 133.576 78.6406 133.708C78.6839 133.84 78.7466 133.955 78.8286 134.053C78.9129 134.149 79.0132 134.224 79.1294 134.279C79.2479 134.331 79.3823 134.357 79.5327 134.357C79.7218 134.357 79.8927 134.321 80.0454 134.248C80.2004 134.173 80.3348 134.062 80.4487 133.917L80.9033 134.388C80.8258 134.502 80.721 134.611 80.5889 134.716C80.459 134.821 80.3018 134.907 80.1172 134.973C79.9326 135.036 79.7196 135.068 79.478 135.068ZM79.5498 129.747L80.541 130.693V130.734H79.8164L79.2866 130.215L78.7603 130.734H78.0459V130.687L79.0234 129.747H79.5498ZM83.3335 131.302V131.951H81.2144V131.302H83.3335ZM81.7817 130.393H82.6875V133.934C82.6875 134.043 82.7023 134.127 82.7319 134.187C82.7616 134.246 82.806 134.286 82.8652 134.306C82.9245 134.327 82.9951 134.337 83.0771 134.337C83.1364 134.337 83.1911 134.333 83.2412 134.327C83.2913 134.32 83.3335 134.313 83.3677 134.306L83.3711 134.983C83.2959 135.008 83.2104 135.028 83.1147 135.044C83.0213 135.06 82.9154 135.068 82.7969 135.068C82.5941 135.068 82.4163 135.034 82.2637 134.966C82.111 134.895 81.9925 134.782 81.9082 134.627C81.8239 134.47 81.7817 134.263 81.7817 134.005V130.393ZM84.8374 132.057V135H83.9351V131.302H84.7896L84.8374 132.057ZM85.9619 131.278L85.9482 132.119C85.8981 132.11 85.8411 132.103 85.7773 132.098C85.7158 132.094 85.6577 132.091 85.603 132.091C85.464 132.091 85.3421 132.111 85.2373 132.149C85.1325 132.186 85.0448 132.239 84.9741 132.31C84.9058 132.381 84.8534 132.467 84.8169 132.57C84.7804 132.67 84.7599 132.784 84.7554 132.912L84.5605 132.888C84.5605 132.653 84.5845 132.435 84.6323 132.235C84.6802 132.034 84.7497 131.859 84.8408 131.708C84.932 131.558 85.0459 131.442 85.1826 131.36C85.3216 131.276 85.4811 131.233 85.6611 131.233C85.7113 131.233 85.7648 131.238 85.8218 131.247C85.881 131.254 85.9277 131.264 85.9619 131.278ZM88.0503 135.068C87.77 135.068 87.5182 135.023 87.2949 134.932C87.0716 134.84 86.8813 134.714 86.7241 134.552C86.5692 134.388 86.4495 134.198 86.3652 133.981C86.2832 133.763 86.2422 133.528 86.2422 133.277V133.141C86.2422 132.856 86.2832 132.597 86.3652 132.365C86.4473 132.13 86.5635 131.928 86.7139 131.76C86.8643 131.591 87.0443 131.461 87.2539 131.37C87.4635 131.279 87.6948 131.233 87.9478 131.233C88.2098 131.233 88.4411 131.278 88.6416 131.367C88.8421 131.453 89.0096 131.576 89.144 131.736C89.2785 131.895 89.3799 132.087 89.4482 132.31C89.5166 132.531 89.5508 132.776 89.5508 133.045V133.424H86.6523V132.802H88.6621V132.734C88.6576 132.59 88.6302 132.459 88.5801 132.341C88.5299 132.22 88.4525 132.124 88.3477 132.054C88.2428 131.981 88.1073 131.944 87.9409 131.944C87.8065 131.944 87.6891 131.974 87.5889 132.033C87.4909 132.09 87.4089 132.172 87.3428 132.279C87.279 132.384 87.2311 132.509 87.1992 132.655C87.1673 132.801 87.1514 132.963 87.1514 133.141V133.277C87.1514 133.432 87.1719 133.576 87.2129 133.708C87.2562 133.84 87.3188 133.955 87.4009 134.053C87.4852 134.149 87.5854 134.224 87.7017 134.279C87.8201 134.331 87.9546 134.357 88.105 134.357C88.2941 134.357 88.465 134.321 88.6177 134.248C88.7726 134.173 88.9071 134.062 89.021 133.917L89.4756 134.388C89.3981 134.502 89.2933 134.611 89.1611 134.716C89.0312 134.821 88.874 134.907 88.6895 134.973C88.5049 135.036 88.2918 135.068 88.0503 135.068ZM93.4165 134.357C93.5441 134.357 93.658 134.332 93.7583 134.282C93.8586 134.232 93.9383 134.161 93.9976 134.07C94.0591 133.979 94.0921 133.873 94.0967 133.752H94.9478C94.9432 134.003 94.8726 134.228 94.7358 134.426C94.5991 134.624 94.4168 134.781 94.189 134.897C93.9634 135.011 93.7104 135.068 93.4302 135.068C93.1453 135.068 92.897 135.021 92.6851 134.925C92.4731 134.829 92.2965 134.696 92.1553 134.525C92.0163 134.354 91.9115 134.156 91.8408 133.93C91.7725 133.705 91.7383 133.463 91.7383 133.206V133.096C91.7383 132.839 91.7725 132.597 91.8408 132.372C91.9115 132.146 92.0163 131.948 92.1553 131.777C92.2965 131.606 92.4731 131.473 92.6851 131.377C92.897 131.281 93.1442 131.233 93.4268 131.233C93.7253 131.233 93.9873 131.292 94.2129 131.408C94.4408 131.524 94.6185 131.688 94.7461 131.9C94.876 132.112 94.9432 132.361 94.9478 132.648H94.0967C94.0921 132.516 94.0625 132.398 94.0078 132.293C93.9531 132.188 93.8757 132.104 93.7754 132.04C93.6751 131.976 93.5532 131.944 93.4097 131.944C93.257 131.944 93.1294 131.976 93.0269 132.04C92.9266 132.104 92.848 132.192 92.791 132.303C92.7363 132.413 92.6976 132.536 92.6748 132.672C92.6543 132.807 92.644 132.948 92.644 133.096V133.206C92.644 133.356 92.6543 133.5 92.6748 133.636C92.6976 133.773 92.7363 133.896 92.791 134.005C92.848 134.112 92.9266 134.198 93.0269 134.262C93.1294 134.326 93.2593 134.357 93.4165 134.357ZM96.4346 129.75V135H95.5288V129.75H96.4346ZM96.291 133.018H96.0244C96.0244 132.76 96.0586 132.523 96.127 132.307C96.1953 132.09 96.2922 131.902 96.4175 131.743C96.5428 131.581 96.6921 131.456 96.8652 131.367C97.0407 131.278 97.2344 131.233 97.4463 131.233C97.6286 131.233 97.7938 131.26 97.9419 131.312C98.0923 131.362 98.221 131.443 98.3281 131.555C98.4352 131.666 98.5173 131.812 98.5742 131.992C98.6335 132.17 98.6631 132.386 98.6631 132.642V135H97.7539V132.635C97.7539 132.464 97.7288 132.329 97.6787 132.231C97.6286 132.131 97.5568 132.059 97.4634 132.016C97.3722 131.973 97.2594 131.951 97.125 131.951C96.9792 131.951 96.8538 131.98 96.749 132.037C96.6442 132.091 96.5576 132.168 96.4893 132.266C96.4232 132.364 96.373 132.476 96.3389 132.604C96.307 132.732 96.291 132.869 96.291 133.018ZM101.121 135.068C100.84 135.068 100.589 135.023 100.365 134.932C100.142 134.84 99.9517 134.714 99.7944 134.552C99.6395 134.388 99.5199 134.198 99.4355 133.981C99.3535 133.763 99.3125 133.528 99.3125 133.277V133.141C99.3125 132.856 99.3535 132.597 99.4355 132.365C99.5176 132.13 99.6338 131.928 99.7842 131.76C99.9346 131.591 100.115 131.461 100.324 131.37C100.534 131.279 100.765 131.233 101.018 131.233C101.28 131.233 101.511 131.278 101.712 131.367C101.912 131.453 102.08 131.576 102.214 131.736C102.349 131.895 102.45 132.087 102.519 132.31C102.587 132.531 102.621 132.776 102.621 133.045V133.424H99.7227V132.802H101.732V132.734C101.728 132.59 101.701 132.459 101.65 132.341C101.6 132.22 101.523 132.124 101.418 132.054C101.313 131.981 101.178 131.944 101.011 131.944C100.877 131.944 100.759 131.974 100.659 132.033C100.561 132.09 100.479 132.172 100.413 132.279C100.349 132.384 100.301 132.509 100.27 132.655C100.238 132.801 100.222 132.963 100.222 133.141V133.277C100.222 133.432 100.242 133.576 100.283 133.708C100.326 133.84 100.389 133.955 100.471 134.053C100.556 134.149 100.656 134.224 100.772 134.279C100.89 134.331 101.025 134.357 101.175 134.357C101.364 134.357 101.535 134.321 101.688 134.248C101.843 134.173 101.977 134.062 102.091 133.917L102.546 134.388C102.468 134.502 102.364 134.611 102.231 134.716C102.102 134.821 101.944 134.907 101.76 134.973C101.575 135.036 101.362 135.068 101.121 135.068ZM106.125 134.289V135H103.342V134.289H106.125ZM106.06 131.842L103.681 135H103.086V134.443L105.451 131.302H106.06V131.842ZM105.728 131.302V132.016H103.134V131.302H105.728ZM109.737 134.316L110.599 131.302H111.542L110.274 135H109.7L109.737 134.316ZM109.108 131.302L109.98 134.323L110.011 135H109.433L108.162 131.302H109.108ZM111.802 133.188V133.117C111.802 132.846 111.84 132.596 111.918 132.368C111.995 132.138 112.108 131.939 112.256 131.77C112.404 131.601 112.586 131.47 112.8 131.377C113.014 131.281 113.258 131.233 113.531 131.233C113.809 131.233 114.055 131.281 114.27 131.377C114.486 131.47 114.668 131.601 114.816 131.77C114.965 131.939 115.077 132.138 115.155 132.368C115.232 132.596 115.271 132.846 115.271 133.117V133.188C115.271 133.457 115.232 133.707 115.155 133.937C115.077 134.165 114.965 134.364 114.816 134.535C114.668 134.704 114.487 134.835 114.273 134.928C114.059 135.022 113.814 135.068 113.538 135.068C113.265 135.068 113.02 135.022 112.803 134.928C112.587 134.835 112.404 134.704 112.256 134.535C112.108 134.364 111.995 134.165 111.918 133.937C111.84 133.707 111.802 133.457 111.802 133.188ZM112.704 133.117V133.188C112.704 133.35 112.72 133.502 112.752 133.643C112.784 133.784 112.833 133.909 112.899 134.016C112.965 134.123 113.05 134.207 113.155 134.269C113.262 134.328 113.39 134.357 113.538 134.357C113.684 134.357 113.809 134.328 113.914 134.269C114.019 134.207 114.104 134.123 114.17 134.016C114.239 133.909 114.289 133.784 114.321 133.643C114.353 133.502 114.369 133.35 114.369 133.188V133.117C114.369 132.957 114.353 132.808 114.321 132.669C114.289 132.528 114.239 132.403 114.17 132.296C114.104 132.187 114.018 132.102 113.911 132.04C113.806 131.976 113.679 131.944 113.531 131.944C113.385 131.944 113.26 131.976 113.155 132.04C113.05 132.102 112.965 132.187 112.899 132.296C112.833 132.403 112.784 132.528 112.752 132.669C112.72 132.808 112.704 132.957 112.704 133.117ZM118.128 134.122V131.302H119.038V135H118.183L118.128 134.122ZM118.245 133.356L118.525 133.349C118.525 133.597 118.498 133.826 118.443 134.036C118.388 134.246 118.303 134.428 118.187 134.583C118.073 134.736 117.928 134.855 117.752 134.942C117.577 135.026 117.37 135.068 117.13 135.068C116.948 135.068 116.782 135.043 116.631 134.993C116.481 134.941 116.351 134.86 116.242 134.75C116.135 134.639 116.051 134.496 115.992 134.323C115.933 134.148 115.903 133.937 115.903 133.691V131.302H116.806V133.698C116.806 133.821 116.819 133.923 116.847 134.005C116.876 134.087 116.916 134.155 116.966 134.207C117.019 134.257 117.079 134.294 117.147 134.316C117.218 134.337 117.293 134.347 117.373 134.347C117.592 134.347 117.764 134.304 117.889 134.217C118.017 134.128 118.108 134.01 118.163 133.862C118.217 133.711 118.245 133.543 118.245 133.356ZM121.871 133.988C121.871 133.911 121.851 133.841 121.81 133.78C121.769 133.718 121.691 133.662 121.577 133.612C121.465 133.56 121.301 133.511 121.085 133.465C120.894 133.424 120.717 133.373 120.555 133.312C120.393 133.25 120.254 133.176 120.138 133.089C120.022 133 119.931 132.897 119.865 132.778C119.801 132.658 119.769 132.519 119.769 132.361C119.769 132.209 119.802 132.065 119.868 131.931C119.934 131.794 120.03 131.674 120.155 131.572C120.281 131.467 120.433 131.385 120.613 131.326C120.793 131.264 120.996 131.233 121.222 131.233C121.536 131.233 121.806 131.285 122.032 131.387C122.26 131.49 122.434 131.631 122.555 131.811C122.675 131.989 122.736 132.189 122.736 132.413H121.833C121.833 132.315 121.811 132.226 121.765 132.146C121.722 132.066 121.655 132.002 121.563 131.955C121.472 131.904 121.357 131.879 121.218 131.879C121.093 131.879 120.987 131.9 120.9 131.941C120.816 131.982 120.752 132.035 120.709 132.102C120.666 132.168 120.644 132.241 120.644 132.32C120.644 132.38 120.655 132.433 120.678 132.481C120.703 132.527 120.743 132.569 120.798 132.607C120.853 132.646 120.927 132.681 121.02 132.713C121.116 132.745 121.233 132.776 121.372 132.806C121.648 132.86 121.888 132.933 122.093 133.024C122.301 133.113 122.462 133.232 122.579 133.38C122.695 133.528 122.753 133.717 122.753 133.947C122.753 134.111 122.718 134.262 122.647 134.398C122.576 134.533 122.474 134.65 122.339 134.75C122.205 134.851 122.044 134.929 121.857 134.986C121.671 135.041 121.46 135.068 121.225 135.068C120.886 135.068 120.598 135.008 120.364 134.887C120.129 134.764 119.951 134.609 119.831 134.422C119.71 134.233 119.649 134.037 119.649 133.834H120.514C120.521 133.978 120.56 134.093 120.63 134.18C120.701 134.266 120.79 134.329 120.897 134.368C121.006 134.404 121.121 134.422 121.242 134.422C121.379 134.422 121.494 134.404 121.587 134.368C121.681 134.329 121.751 134.278 121.799 134.214C121.847 134.148 121.871 134.073 121.871 133.988Z" fill="white"/>
<path d="M110.5 51.0101C110.5 78.368 88.5478 100.52 61.5 100.52C34.4522 100.52 12.5 78.368 12.5 51.0101C12.5 23.6522 34.4522 1.5 61.5 1.5C88.5478 1.5 110.5 23.6522 110.5 51.0101Z" stroke="white" stroke-width="3"/>
<path d="M44.1309 43.6353L61.8087 25.9575" stroke="white" stroke-width="3" stroke-linecap="round"/>
<path d="M79.5234 43.6353L61.8266 25.9385" stroke="white" stroke-width="3" stroke-linecap="round"/>
<path d="M79.3535 48.9697L79.3535 72.4344" stroke="white" stroke-width="3" stroke-linecap="round"/>
<path d="M43.6465 43.8687L43.6465 73.4545" stroke="white" stroke-width="3" stroke-linecap="round"/>
<path d="M49.7676 72.4346L79.3534 72.4346" stroke="white" stroke-width="3" stroke-linecap="round"/>
<path d="M4.85156 115.266V122H2.96875V113.547H4.74219L4.85156 115.266ZM4.54688 117.461L3.90625 117.453C3.90625 116.87 3.97917 116.331 4.125 115.836C4.27083 115.341 4.48438 114.911 4.76562 114.547C5.04688 114.177 5.39583 113.893 5.8125 113.695C6.23438 113.492 6.72135 113.391 7.27344 113.391C7.65885 113.391 8.01042 113.448 8.32812 113.562C8.65104 113.672 8.92969 113.846 9.16406 114.086C9.40365 114.326 9.58594 114.633 9.71094 115.008C9.84115 115.383 9.90625 115.836 9.90625 116.367V122H8.02344V116.531C8.02344 116.12 7.96094 115.797 7.83594 115.562C7.71615 115.328 7.54167 115.161 7.3125 115.062C7.08854 114.958 6.82031 114.906 6.50781 114.906C6.15365 114.906 5.85156 114.974 5.60156 115.109C5.35677 115.245 5.15625 115.43 5 115.664C4.84375 115.898 4.72917 116.169 4.65625 116.477C4.58333 116.784 4.54688 117.112 4.54688 117.461ZM9.78906 116.961L8.90625 117.156C8.90625 116.646 8.97656 116.164 9.11719 115.711C9.26302 115.253 9.47396 114.852 9.75 114.508C10.0312 114.159 10.3776 113.885 10.7891 113.688C11.2005 113.49 11.6719 113.391 12.2031 113.391C12.6354 113.391 13.0208 113.451 13.3594 113.57C13.7031 113.685 13.9948 113.867 14.2344 114.117C14.474 114.367 14.6562 114.693 14.7812 115.094C14.9062 115.49 14.9688 115.969 14.9688 116.531V122H13.0781V116.523C13.0781 116.096 13.0156 115.766 12.8906 115.531C12.7708 115.297 12.599 115.135 12.375 115.047C12.151 114.953 11.8828 114.906 11.5703 114.906C11.2786 114.906 11.0208 114.961 10.7969 115.07C10.5781 115.174 10.3932 115.323 10.2422 115.516C10.0911 115.703 9.97656 115.919 9.89844 116.164C9.82552 116.409 9.78906 116.674 9.78906 116.961ZM18.9219 113.547V122H17.0312V113.547H18.9219ZM16.9062 111.328C16.9062 111.042 17 110.805 17.1875 110.617C17.3802 110.424 17.6458 110.328 17.9844 110.328C18.3177 110.328 18.5807 110.424 18.7734 110.617C18.9661 110.805 19.0625 111.042 19.0625 111.328C19.0625 111.609 18.9661 111.844 18.7734 112.031C18.5807 112.219 18.3177 112.312 17.9844 112.312C17.6458 112.312 17.3802 112.219 17.1875 112.031C17 111.844 16.9062 111.609 16.9062 111.328ZM23.375 110.625V122H21.0312V110.625H23.375ZM30.1875 110.625L25.6797 116.242L23.0781 119.039L22.6562 116.82L24.4141 114.414L27.3125 110.625H30.1875ZM27.5234 122L24.1719 116.742L25.9062 115.289L30.2969 122H27.5234ZM35.625 120.094V116.328C35.625 116.057 35.5807 115.826 35.4922 115.633C35.4036 115.435 35.2656 115.281 35.0781 115.172C34.8958 115.062 34.6589 115.008 34.3672 115.008C34.1172 115.008 33.901 115.052 33.7188 115.141C33.5365 115.224 33.3958 115.346 33.2969 115.508C33.1979 115.664 33.1484 115.849 33.1484 116.062H30.8984C30.8984 115.703 30.9818 115.362 31.1484 115.039C31.3151 114.716 31.5573 114.432 31.875 114.188C32.1927 113.938 32.5703 113.742 33.0078 113.602C33.4505 113.461 33.9453 113.391 34.4922 113.391C35.1484 113.391 35.7318 113.5 36.2422 113.719C36.7526 113.938 37.1536 114.266 37.4453 114.703C37.7422 115.141 37.8906 115.688 37.8906 116.344V119.961C37.8906 120.424 37.9193 120.805 37.9766 121.102C38.0339 121.393 38.1172 121.648 38.2266 121.867V122H35.9531C35.8438 121.771 35.7604 121.484 35.7031 121.141C35.651 120.792 35.625 120.443 35.625 120.094ZM35.9219 116.852L35.9375 118.125H34.6797C34.3828 118.125 34.125 118.159 33.9062 118.227C33.6875 118.294 33.5078 118.391 33.3672 118.516C33.2266 118.635 33.1224 118.776 33.0547 118.938C32.9922 119.099 32.9609 119.276 32.9609 119.469C32.9609 119.661 33.0052 119.836 33.0938 119.992C33.1823 120.143 33.3099 120.263 33.4766 120.352C33.6432 120.435 33.8385 120.477 34.0625 120.477C34.401 120.477 34.6953 120.409 34.9453 120.273C35.1953 120.138 35.388 119.971 35.5234 119.773C35.6641 119.576 35.737 119.388 35.7422 119.211L36.3359 120.164C36.2526 120.378 36.138 120.599 35.9922 120.828C35.8516 121.057 35.6719 121.273 35.4531 121.477C35.2344 121.674 34.9714 121.839 34.6641 121.969C34.3568 122.094 33.9922 122.156 33.5703 122.156C33.0339 122.156 32.5469 122.049 32.1094 121.836C31.6771 121.617 31.3333 121.318 31.0781 120.938C30.8281 120.552 30.7031 120.115 30.7031 119.625C30.7031 119.182 30.7865 118.789 30.9531 118.445C31.1198 118.102 31.3646 117.812 31.6875 117.578C32.0156 117.339 32.4245 117.159 32.9141 117.039C33.4036 116.914 33.9714 116.852 34.6172 116.852H35.9219ZM46.3516 120.242V122H39.9297V120.242H46.3516ZM46.2266 114.844L40.8359 122H39.3281V120.664L44.6953 113.547H46.2266V114.844ZM45.4297 113.547V115.312H39.4531V113.547H45.4297ZM52.3281 120.094V116.328C52.3281 116.057 52.2839 115.826 52.1953 115.633C52.1068 115.435 51.9688 115.281 51.7812 115.172C51.599 115.062 51.362 115.008 51.0703 115.008C50.8203 115.008 50.6042 115.052 50.4219 115.141C50.2396 115.224 50.099 115.346 50 115.508C49.901 115.664 49.8516 115.849 49.8516 116.062H47.6016C47.6016 115.703 47.6849 115.362 47.8516 115.039C48.0182 114.716 48.2604 114.432 48.5781 114.188C48.8958 113.938 49.2734 113.742 49.7109 113.602C50.1536 113.461 50.6484 113.391 51.1953 113.391C51.8516 113.391 52.4349 113.5 52.9453 113.719C53.4557 113.938 53.8568 114.266 54.1484 114.703C54.4453 115.141 54.5938 115.688 54.5938 116.344V119.961C54.5938 120.424 54.6224 120.805 54.6797 121.102C54.737 121.393 54.8203 121.648 54.9297 121.867V122H52.6562C52.5469 121.771 52.4635 121.484 52.4062 121.141C52.3542 120.792 52.3281 120.443 52.3281 120.094ZM52.625 116.852L52.6406 118.125H51.3828C51.0859 118.125 50.8281 118.159 50.6094 118.227C50.3906 118.294 50.2109 118.391 50.0703 118.516C49.9297 118.635 49.8255 118.776 49.7578 118.938C49.6953 119.099 49.6641 119.276 49.6641 119.469C49.6641 119.661 49.7083 119.836 49.7969 119.992C49.8854 120.143 50.013 120.263 50.1797 120.352C50.3464 120.435 50.5417 120.477 50.7656 120.477C51.1042 120.477 51.3984 120.409 51.6484 120.273C51.8984 120.138 52.0911 119.971 52.2266 119.773C52.3672 119.576 52.4401 119.388 52.4453 119.211L53.0391 120.164C52.9557 120.378 52.8411 120.599 52.6953 120.828C52.5547 121.057 52.375 121.273 52.1562 121.477C51.9375 121.674 51.6745 121.839 51.3672 121.969C51.0599 122.094 50.6953 122.156 50.2734 122.156C49.737 122.156 49.25 122.049 48.8125 121.836C48.3802 121.617 48.0365 121.318 47.7812 120.938C47.5312 120.552 47.4062 120.115 47.4062 119.625C47.4062 119.182 47.4896 118.789 47.6562 118.445C47.8229 118.102 48.0677 117.812 48.3906 117.578C48.7188 117.339 49.1276 117.159 49.6172 117.039C50.1068 116.914 50.6745 116.852 51.3203 116.852H52.625ZM60.4922 116.312V117.945H56.2188V116.312H60.4922ZM67.0391 119.711C67.0391 119.523 66.9922 119.354 66.8984 119.203C66.8047 119.047 66.625 118.906 66.3594 118.781C66.099 118.656 65.7135 118.542 65.2031 118.438C64.7552 118.339 64.3438 118.221 63.9688 118.086C63.599 117.945 63.2812 117.776 63.0156 117.578C62.75 117.38 62.5443 117.146 62.3984 116.875C62.2526 116.604 62.1797 116.292 62.1797 115.938C62.1797 115.594 62.2552 115.268 62.4062 114.961C62.5573 114.654 62.7734 114.383 63.0547 114.148C63.3359 113.914 63.6771 113.729 64.0781 113.594C64.4844 113.458 64.9375 113.391 65.4375 113.391C66.1458 113.391 66.7526 113.51 67.2578 113.75C67.7682 113.984 68.1589 114.305 68.4297 114.711C68.7005 115.112 68.8359 115.565 68.8359 116.07H66.9531C66.9531 115.846 66.8958 115.638 66.7812 115.445C66.6719 115.247 66.5052 115.089 66.2812 114.969C66.0573 114.844 65.776 114.781 65.4375 114.781C65.1146 114.781 64.8464 114.833 64.6328 114.938C64.4245 115.036 64.2682 115.167 64.1641 115.328C64.0651 115.49 64.0156 115.667 64.0156 115.859C64.0156 116 64.0417 116.128 64.0938 116.242C64.151 116.352 64.2448 116.453 64.375 116.547C64.5052 116.635 64.6823 116.719 64.9062 116.797C65.1354 116.875 65.4219 116.951 65.7656 117.023C66.4115 117.159 66.9661 117.333 67.4297 117.547C67.8984 117.755 68.2578 118.026 68.5078 118.359C68.7578 118.688 68.8828 119.104 68.8828 119.609C68.8828 119.984 68.8021 120.328 68.6406 120.641C68.4844 120.948 68.2552 121.216 67.9531 121.445C67.651 121.669 67.2891 121.844 66.8672 121.969C66.4505 122.094 65.9818 122.156 65.4609 122.156C64.6953 122.156 64.0469 122.021 63.5156 121.75C62.9844 121.474 62.5807 121.122 62.3047 120.695C62.0339 120.263 61.8984 119.815 61.8984 119.352H63.7188C63.7396 119.701 63.8359 119.979 64.0078 120.188C64.1849 120.391 64.4036 120.539 64.6641 120.633C64.9297 120.721 65.2031 120.766 65.4844 120.766C65.8229 120.766 66.1068 120.721 66.3359 120.633C66.5651 120.539 66.7396 120.414 66.8594 120.258C66.9792 120.096 67.0391 119.914 67.0391 119.711ZM74.2578 122.156C73.6328 122.156 73.0677 122.055 72.5625 121.852C72.0625 121.643 71.6354 121.354 71.2812 120.984C70.9323 120.615 70.6641 120.18 70.4766 119.68C70.2891 119.18 70.1953 118.641 70.1953 118.062V117.75C70.1953 117.089 70.2917 116.49 70.4844 115.953C70.6771 115.417 70.9453 114.958 71.2891 114.578C71.6328 114.193 72.0391 113.898 72.5078 113.695C72.9766 113.492 73.4844 113.391 74.0312 113.391C74.6354 113.391 75.1641 113.492 75.6172 113.695C76.0703 113.898 76.4453 114.185 76.7422 114.555C77.0443 114.919 77.2682 115.354 77.4141 115.859C77.5651 116.365 77.6406 116.922 77.6406 117.531V118.336H71.1094V116.984H75.7812V116.836C75.7708 116.497 75.7031 116.18 75.5781 115.883C75.4583 115.586 75.2734 115.346 75.0234 115.164C74.7734 114.982 74.4401 114.891 74.0234 114.891C73.7109 114.891 73.4323 114.958 73.1875 115.094C72.9479 115.224 72.7474 115.414 72.5859 115.664C72.4245 115.914 72.2995 116.216 72.2109 116.57C72.1276 116.919 72.0859 117.312 72.0859 117.75V118.062C72.0859 118.432 72.1354 118.776 72.2344 119.094C72.3385 119.406 72.4896 119.68 72.6875 119.914C72.8854 120.148 73.125 120.333 73.4062 120.469C73.6875 120.599 74.0078 120.664 74.3672 120.664C74.8203 120.664 75.224 120.573 75.5781 120.391C75.9323 120.208 76.2396 119.951 76.5 119.617L77.4922 120.578C77.3099 120.844 77.0729 121.099 76.7812 121.344C76.4896 121.583 76.1328 121.779 75.7109 121.93C75.2943 122.081 74.8099 122.156 74.2578 122.156ZM81 115.156V122H79.1172V113.547H80.9141L81 115.156ZM83.5859 113.492L83.5703 115.242C83.4557 115.221 83.3307 115.206 83.1953 115.195C83.0651 115.185 82.9349 115.18 82.8047 115.18C82.4818 115.18 82.1979 115.227 81.9531 115.32C81.7083 115.409 81.5026 115.539 81.3359 115.711C81.1745 115.878 81.0495 116.081 80.9609 116.32C80.8724 116.56 80.8203 116.828 80.8047 117.125L80.375 117.156C80.375 116.625 80.4271 116.133 80.5312 115.68C80.6354 115.227 80.7917 114.828 81 114.484C81.2135 114.141 81.4792 113.872 81.7969 113.68C82.1198 113.487 82.4922 113.391 82.9141 113.391C83.0286 113.391 83.151 113.401 83.2812 113.422C83.4167 113.443 83.5182 113.466 83.5859 113.492ZM87.6562 120.508L89.7266 113.547H91.6797L88.7422 122H87.5234L87.6562 120.508ZM86.0703 113.547L88.1797 120.539L88.2812 122H87.0625L84.1094 113.547H86.0703ZM94.8594 113.547V122H92.9688V113.547H94.8594ZM92.8438 111.328C92.8438 111.042 92.9375 110.805 93.125 110.617C93.3177 110.424 93.5833 110.328 93.9219 110.328C94.2552 110.328 94.5182 110.424 94.7109 110.617C94.9036 110.805 95 111.042 95 111.328C95 111.609 94.9036 111.844 94.7109 112.031C94.5182 112.219 94.2552 112.312 93.9219 112.312C93.5833 112.312 93.3177 112.219 93.125 112.031C92.9375 111.844 92.8438 111.609 92.8438 111.328ZM100.375 120.656C100.682 120.656 100.958 120.596 101.203 120.477C101.453 120.352 101.654 120.18 101.805 119.961C101.961 119.742 102.047 119.49 102.062 119.203H103.836C103.826 119.75 103.664 120.247 103.352 120.695C103.039 121.143 102.625 121.5 102.109 121.766C101.594 122.026 101.023 122.156 100.398 122.156C99.7526 122.156 99.1901 122.047 98.7109 121.828C98.2318 121.604 97.8333 121.297 97.5156 120.906C97.1979 120.516 96.9583 120.065 96.7969 119.555C96.6406 119.044 96.5625 118.497 96.5625 117.914V117.641C96.5625 117.057 96.6406 116.51 96.7969 116C96.9583 115.484 97.1979 115.031 97.5156 114.641C97.8333 114.25 98.2318 113.945 98.7109 113.727C99.1901 113.503 99.75 113.391 100.391 113.391C101.068 113.391 101.661 113.526 102.172 113.797C102.682 114.062 103.083 114.435 103.375 114.914C103.672 115.388 103.826 115.94 103.836 116.57H102.062C102.047 116.258 101.969 115.977 101.828 115.727C101.693 115.471 101.5 115.268 101.25 115.117C101.005 114.966 100.711 114.891 100.367 114.891C99.987 114.891 99.6719 114.969 99.4219 115.125C99.1719 115.276 98.9766 115.484 98.8359 115.75C98.6953 116.01 98.5938 116.305 98.5312 116.633C98.474 116.956 98.4453 117.292 98.4453 117.641V117.914C98.4453 118.263 98.474 118.602 98.5312 118.93C98.5885 119.258 98.6875 119.552 98.8281 119.812C98.974 120.068 99.1719 120.273 99.4219 120.43C99.6719 120.581 99.9896 120.656 100.375 120.656ZM109.008 122.156C108.383 122.156 107.818 122.055 107.312 121.852C106.812 121.643 106.385 121.354 106.031 120.984C105.682 120.615 105.414 120.18 105.227 119.68C105.039 119.18 104.945 118.641 104.945 118.062V117.75C104.945 117.089 105.042 116.49 105.234 115.953C105.427 115.417 105.695 114.958 106.039 114.578C106.383 114.193 106.789 113.898 107.258 113.695C107.727 113.492 108.234 113.391 108.781 113.391C109.385 113.391 109.914 113.492 110.367 113.695C110.82 113.898 111.195 114.185 111.492 114.555C111.794 114.919 112.018 115.354 112.164 115.859C112.315 116.365 112.391 116.922 112.391 117.531V118.336H105.859V116.984H110.531V116.836C110.521 116.497 110.453 116.18 110.328 115.883C110.208 115.586 110.023 115.346 109.773 115.164C109.523 114.982 109.19 114.891 108.773 114.891C108.461 114.891 108.182 114.958 107.938 115.094C107.698 115.224 107.497 115.414 107.336 115.664C107.174 115.914 107.049 116.216 106.961 116.57C106.878 116.919 106.836 117.312 106.836 117.75V118.062C106.836 118.432 106.885 118.776 106.984 119.094C107.089 119.406 107.24 119.68 107.438 119.914C107.635 120.148 107.875 120.333 108.156 120.469C108.438 120.599 108.758 120.664 109.117 120.664C109.57 120.664 109.974 120.573 110.328 120.391C110.682 120.208 110.99 119.951 111.25 119.617L112.242 120.578C112.06 120.844 111.823 121.099 111.531 121.344C111.24 121.583 110.883 121.779 110.461 121.93C110.044 122.081 109.56 122.156 109.008 122.156ZM118.602 119.711C118.602 119.523 118.555 119.354 118.461 119.203C118.367 119.047 118.188 118.906 117.922 118.781C117.661 118.656 117.276 118.542 116.766 118.438C116.318 118.339 115.906 118.221 115.531 118.086C115.161 117.945 114.844 117.776 114.578 117.578C114.312 117.38 114.107 117.146 113.961 116.875C113.815 116.604 113.742 116.292 113.742 115.938C113.742 115.594 113.818 115.268 113.969 114.961C114.12 114.654 114.336 114.383 114.617 114.148C114.898 113.914 115.24 113.729 115.641 113.594C116.047 113.458 116.5 113.391 117 113.391C117.708 113.391 118.315 113.51 118.82 113.75C119.331 113.984 119.721 114.305 119.992 114.711C120.263 115.112 120.398 115.565 120.398 116.07H118.516C118.516 115.846 118.458 115.638 118.344 115.445C118.234 115.247 118.068 115.089 117.844 114.969C117.62 114.844 117.339 114.781 117 114.781C116.677 114.781 116.409 114.833 116.195 114.938C115.987 115.036 115.831 115.167 115.727 115.328C115.628 115.49 115.578 115.667 115.578 115.859C115.578 116 115.604 116.128 115.656 116.242C115.714 116.352 115.807 116.453 115.938 116.547C116.068 116.635 116.245 116.719 116.469 116.797C116.698 116.875 116.984 116.951 117.328 117.023C117.974 117.159 118.529 117.333 118.992 117.547C119.461 117.755 119.82 118.026 120.07 118.359C120.32 118.688 120.445 119.104 120.445 119.609C120.445 119.984 120.365 120.328 120.203 120.641C120.047 120.948 119.818 121.216 119.516 121.445C119.214 121.669 118.852 121.844 118.43 121.969C118.013 122.094 117.544 122.156 117.023 122.156C116.258 122.156 115.609 122.021 115.078 121.75C114.547 121.474 114.143 121.122 113.867 120.695C113.596 120.263 113.461 119.815 113.461 119.352H115.281C115.302 119.701 115.398 119.979 115.57 120.188C115.747 120.391 115.966 120.539 116.227 120.633C116.492 120.721 116.766 120.766 117.047 120.766C117.385 120.766 117.669 120.721 117.898 120.633C118.128 120.539 118.302 120.414 118.422 120.258C118.542 120.096 118.602 119.914 118.602 119.711Z" fill="white"/>
</svg>
