<svg width="186" height="53" viewBox="0 0 186 53" fill="none" xmlns="http://www.w3.org/2000/svg">
<path d="M64.3872 32.3628H65.3271C65.3021 32.6955 65.2098 32.9906 65.0503 33.248C64.8908 33.5033 64.6686 33.7038 64.3838 33.8496C64.099 33.9954 63.7537 34.0684 63.3481 34.0684C63.036 34.0684 62.7546 34.0137 62.5039 33.9043C62.2555 33.7926 62.0425 33.6343 61.8647 33.4292C61.6893 33.2218 61.5549 32.9735 61.4614 32.6841C61.368 32.3924 61.3213 32.0654 61.3213 31.7031V31.3237C61.3213 30.9614 61.3691 30.6344 61.4648 30.3428C61.5605 30.0511 61.6973 29.8027 61.875 29.5977C62.055 29.3903 62.2703 29.2308 62.521 29.1191C62.7739 29.0075 63.0565 28.9517 63.3687 28.9517C63.7743 28.9517 64.1172 29.0269 64.3975 29.1772C64.6777 29.3254 64.8953 29.5293 65.0503 29.7891C65.2052 30.0488 65.2987 30.3473 65.3306 30.6846H64.3906C64.3724 30.4749 64.3268 30.2972 64.2539 30.1514C64.1833 30.0055 64.0762 29.895 63.9326 29.8198C63.7913 29.7424 63.6034 29.7036 63.3687 29.7036C63.1864 29.7036 63.0257 29.7378 62.8867 29.8062C62.75 29.8745 62.6361 29.9771 62.5449 30.1138C62.4538 30.2482 62.3854 30.4168 62.3398 30.6196C62.2943 30.8201 62.2715 31.0526 62.2715 31.3169V31.7031C62.2715 31.9561 62.292 32.1828 62.333 32.3833C62.374 32.5838 62.4378 32.7536 62.5244 32.8926C62.611 33.0316 62.7227 33.1375 62.8594 33.2104C62.9961 33.2834 63.159 33.3198 63.3481 33.3198C63.5783 33.3198 63.7651 33.2834 63.9087 33.2104C64.0545 33.1375 64.165 33.0304 64.2402 32.8892C64.3177 32.7479 64.3667 32.5724 64.3872 32.3628ZM65.8262 32.1885V32.1167C65.8262 31.8455 65.8649 31.596 65.9424 31.3682C66.0199 31.138 66.1326 30.9386 66.2808 30.77C66.4289 30.6014 66.61 30.4704 66.8242 30.377C67.0384 30.2812 67.2822 30.2334 67.5557 30.2334C67.8337 30.2334 68.0798 30.2812 68.2939 30.377C68.5104 30.4704 68.6927 30.6014 68.8408 30.77C68.9889 30.9386 69.1017 31.138 69.1792 31.3682C69.2567 31.596 69.2954 31.8455 69.2954 32.1167V32.1885C69.2954 32.4574 69.2567 32.7069 69.1792 32.937C69.1017 33.1649 68.9889 33.3643 68.8408 33.5352C68.6927 33.7038 68.5116 33.8348 68.2974 33.9282C68.0832 34.0216 67.8382 34.0684 67.5625 34.0684C67.2891 34.0684 67.0441 34.0216 66.8276 33.9282C66.6112 33.8348 66.4289 33.7038 66.2808 33.5352C66.1326 33.3643 66.0199 33.1649 65.9424 32.937C65.8649 32.7069 65.8262 32.4574 65.8262 32.1885ZM66.7285 32.1167V32.1885C66.7285 32.3503 66.7445 32.5018 66.7764 32.6431C66.8083 32.7843 66.8573 32.9085 66.9233 33.0156C66.9894 33.1227 67.0749 33.207 67.1797 33.2686C67.2868 33.3278 67.4144 33.3574 67.5625 33.3574C67.7083 33.3574 67.8337 33.3278 67.9385 33.2686C68.0433 33.207 68.1287 33.1227 68.1948 33.0156C68.2632 32.9085 68.3133 32.7843 68.3452 32.6431C68.3771 32.5018 68.3931 32.3503 68.3931 32.1885V32.1167C68.3931 31.9572 68.3771 31.8079 68.3452 31.6689C68.3133 31.5277 68.2632 31.4035 68.1948 31.2964C68.1287 31.187 68.0422 31.1016 67.9351 31.04C67.8302 30.9762 67.7038 30.9443 67.5557 30.9443C67.4098 30.9443 67.2845 30.9762 67.1797 31.04C67.0749 31.1016 66.9894 31.187 66.9233 31.2964C66.8573 31.4035 66.8083 31.5277 66.7764 31.6689C66.7445 31.8079 66.7285 31.9572 66.7285 32.1167ZM70.8369 31.0913V34H69.9346V30.3018H70.7822L70.8369 31.0913ZM70.6934 32.0176H70.4268C70.429 31.7487 70.4655 31.5049 70.5361 31.2861C70.6068 31.0674 70.7059 30.8794 70.8335 30.7222C70.9634 30.5649 71.1172 30.4442 71.2949 30.3599C71.4727 30.2756 71.6709 30.2334 71.8896 30.2334C72.0674 30.2334 72.228 30.2585 72.3716 30.3086C72.5151 30.3587 72.6382 30.4385 72.7407 30.5479C72.8455 30.6572 72.9253 30.8008 72.98 30.9785C73.0369 31.154 73.0654 31.3704 73.0654 31.6279V34H72.1562V31.6211C72.1562 31.4525 72.1312 31.3192 72.0811 31.2212C72.0332 31.1232 71.9626 31.0537 71.8691 31.0127C71.778 30.9717 71.6652 30.9512 71.5308 30.9512C71.3918 30.9512 71.2699 30.9797 71.165 31.0366C71.0625 31.0913 70.9759 31.1676 70.9053 31.2656C70.8369 31.3636 70.7845 31.4764 70.748 31.604C70.7116 31.7316 70.6934 31.8695 70.6934 32.0176ZM75.0444 34H74.1353V29.96C74.1353 29.682 74.1888 29.4484 74.2959 29.2593C74.403 29.0679 74.5557 28.9232 74.7539 28.8252C74.9521 28.7272 75.1857 28.6782 75.4546 28.6782C75.5435 28.6782 75.6278 28.6839 75.7075 28.6953C75.7896 28.7067 75.8704 28.7227 75.9502 28.7432L75.9331 29.4302C75.8898 29.4188 75.842 29.4108 75.7896 29.4062C75.7394 29.4017 75.6836 29.3994 75.6221 29.3994C75.499 29.3994 75.3942 29.4211 75.3076 29.4644C75.221 29.5076 75.1549 29.5715 75.1094 29.6558C75.0661 29.7378 75.0444 29.8392 75.0444 29.96V34ZM75.793 30.3018V30.9512H73.5781V30.3018H75.793ZM76.1895 32.1885V32.1167C76.1895 31.8455 76.2282 31.596 76.3057 31.3682C76.3831 31.138 76.4959 30.9386 76.644 30.77C76.7922 30.6014 76.9733 30.4704 77.1875 30.377C77.4017 30.2812 77.6455 30.2334 77.9189 30.2334C78.1969 30.2334 78.443 30.2812 78.6572 30.377C78.8737 30.4704 79.056 30.6014 79.2041 30.77C79.3522 30.9386 79.465 31.138 79.5425 31.3682C79.62 31.596 79.6587 31.8455 79.6587 32.1167V32.1885C79.6587 32.4574 79.62 32.7069 79.5425 32.937C79.465 33.1649 79.3522 33.3643 79.2041 33.5352C79.056 33.7038 78.8748 33.8348 78.6606 33.9282C78.4465 34.0216 78.2015 34.0684 77.9258 34.0684C77.6523 34.0684 77.4074 34.0216 77.1909 33.9282C76.9744 33.8348 76.7922 33.7038 76.644 33.5352C76.4959 33.3643 76.3831 33.1649 76.3057 32.937C76.2282 32.7069 76.1895 32.4574 76.1895 32.1885ZM77.0918 32.1167V32.1885C77.0918 32.3503 77.1077 32.5018 77.1396 32.6431C77.1715 32.7843 77.2205 32.9085 77.2866 33.0156C77.3527 33.1227 77.4382 33.207 77.543 33.2686C77.6501 33.3278 77.7777 33.3574 77.9258 33.3574C78.0716 33.3574 78.1969 33.3278 78.3018 33.2686C78.4066 33.207 78.492 33.1227 78.5581 33.0156C78.6265 32.9085 78.6766 32.7843 78.7085 32.6431C78.7404 32.5018 78.7563 32.3503 78.7563 32.1885V32.1167C78.7563 31.9572 78.7404 31.8079 78.7085 31.6689C78.6766 31.5277 78.6265 31.4035 78.5581 31.2964C78.492 31.187 78.4054 31.1016 78.2983 31.04C78.1935 30.9762 78.0671 30.9443 77.9189 30.9443C77.7731 30.9443 77.6478 30.9762 77.543 31.04C77.4382 31.1016 77.3527 31.187 77.2866 31.2964C77.2205 31.4035 77.1715 31.5277 77.1396 31.6689C77.1077 31.8079 77.0918 31.9572 77.0918 32.1167ZM81.2173 31.0571V34H80.3149V30.3018H81.1694L81.2173 31.0571ZM82.3418 30.2778L82.3281 31.1187C82.278 31.1095 82.221 31.1027 82.1572 31.0981C82.0957 31.0936 82.0376 31.0913 81.9829 31.0913C81.8439 31.0913 81.722 31.1107 81.6172 31.1494C81.5124 31.1859 81.4246 31.2394 81.354 31.3101C81.2856 31.3807 81.2332 31.4673 81.1968 31.5698C81.1603 31.6701 81.1398 31.784 81.1353 31.9116L80.9404 31.8877C80.9404 31.653 80.9644 31.4354 81.0122 31.2349C81.0601 31.0343 81.1296 30.8589 81.2207 30.7085C81.3118 30.5581 81.4258 30.4419 81.5625 30.3599C81.7015 30.2756 81.861 30.2334 82.041 30.2334C82.0911 30.2334 82.1447 30.238 82.2017 30.2471C82.2609 30.2539 82.3076 30.2642 82.3418 30.2778ZM84.7583 30.3018V30.9512H82.6392V30.3018H84.7583ZM83.2065 29.3926H84.1123V32.9336C84.1123 33.043 84.1271 33.1273 84.1567 33.1865C84.1864 33.2458 84.2308 33.2856 84.29 33.3062C84.3493 33.3267 84.4199 33.3369 84.502 33.3369C84.5612 33.3369 84.6159 33.3335 84.666 33.3267C84.7161 33.3198 84.7583 33.313 84.7925 33.3062L84.7959 33.9829C84.7207 34.008 84.6353 34.0285 84.5396 34.0444C84.4461 34.0604 84.3402 34.0684 84.2217 34.0684C84.0189 34.0684 83.8411 34.0342 83.6885 33.9658C83.5358 33.8952 83.4173 33.7824 83.333 33.6274C83.2487 33.4702 83.2065 33.2629 83.2065 33.0054V29.3926ZM86.2109 33.1865L86.2041 33.812C86.2041 34.0558 86.1437 34.3031 86.0229 34.5537C85.9022 34.8044 85.7461 35.0117 85.5547 35.1758L85.0762 34.9126C85.1377 34.8101 85.1947 34.7064 85.2471 34.6016C85.3018 34.4967 85.3451 34.3828 85.377 34.2598C85.4111 34.139 85.4282 34.0034 85.4282 33.853V33.1865H86.2109ZM90.7842 32.9883C90.7842 32.9108 90.7637 32.8413 90.7227 32.7798C90.6816 32.7183 90.6042 32.6624 90.4902 32.6123C90.3786 32.5599 90.2145 32.5109 89.998 32.4653C89.8066 32.4243 89.63 32.373 89.4683 32.3115C89.3065 32.25 89.1675 32.1759 89.0513 32.0894C88.9351 32.0005 88.8439 31.8968 88.7778 31.7783C88.714 31.6576 88.6821 31.5186 88.6821 31.3613C88.6821 31.2087 88.7152 31.0651 88.7812 30.9307C88.8473 30.7939 88.943 30.6743 89.0684 30.5718C89.1937 30.467 89.3464 30.3849 89.5264 30.3257C89.7064 30.2642 89.9092 30.2334 90.1348 30.2334C90.4492 30.2334 90.7192 30.2847 90.9448 30.3872C91.1727 30.4897 91.347 30.631 91.4678 30.811C91.5885 30.9888 91.6489 31.1893 91.6489 31.4126H90.7466C90.7466 31.3146 90.7238 31.2257 90.6782 31.146C90.6349 31.0662 90.5677 31.0024 90.4766 30.9546C90.3854 30.9045 90.2703 30.8794 90.1313 30.8794C90.006 30.8794 89.9001 30.8999 89.8135 30.9409C89.7292 30.9819 89.6654 31.0355 89.6221 31.1016C89.5788 31.1676 89.5571 31.2406 89.5571 31.3203C89.5571 31.3796 89.5685 31.4331 89.5913 31.481C89.6164 31.5265 89.6562 31.5687 89.7109 31.6074C89.7656 31.6462 89.8397 31.6815 89.9331 31.7134C90.0288 31.7453 90.1462 31.776 90.2852 31.8057C90.5609 31.8604 90.8013 31.9333 91.0063 32.0244C91.2137 32.1133 91.3755 32.2318 91.4917 32.3799C91.6079 32.528 91.666 32.7171 91.666 32.9473C91.666 33.1113 91.6307 33.2617 91.5601 33.3984C91.4894 33.5329 91.3869 33.6502 91.2524 33.7505C91.118 33.8507 90.9574 33.9294 90.7705 33.9863C90.5837 34.041 90.3729 34.0684 90.1382 34.0684C89.7987 34.0684 89.5116 34.008 89.2769 33.8872C89.0422 33.7642 88.8644 33.6092 88.7437 33.4224C88.6229 33.2332 88.5625 33.0373 88.5625 32.8345H89.4272C89.4341 32.978 89.4728 33.0931 89.5435 33.1797C89.6141 33.2663 89.703 33.3289 89.8101 33.3677C89.9194 33.4041 90.0345 33.4224 90.1553 33.4224C90.292 33.4224 90.4071 33.4041 90.5005 33.3677C90.5939 33.3289 90.6646 33.2777 90.7124 33.2139C90.7603 33.1478 90.7842 33.0726 90.7842 32.9883ZM94.0142 34.0684C93.7339 34.0684 93.4821 34.0228 93.2588 33.9316C93.0355 33.8405 92.8452 33.714 92.688 33.5522C92.533 33.3882 92.4134 33.1979 92.3291 32.9814C92.2471 32.7627 92.2061 32.528 92.2061 32.2773V32.1406C92.2061 31.8558 92.2471 31.5972 92.3291 31.3647C92.4111 31.13 92.5273 30.9284 92.6777 30.7598C92.8281 30.5911 93.0081 30.4613 93.2178 30.3701C93.4274 30.279 93.6587 30.2334 93.9116 30.2334C94.1737 30.2334 94.4049 30.2778 94.6055 30.3667C94.806 30.4533 94.9735 30.5763 95.1079 30.7358C95.2424 30.8953 95.3438 31.0868 95.4121 31.3101C95.4805 31.5311 95.5146 31.776 95.5146 32.0449V32.4243H92.6162V31.8022H94.626V31.7339C94.6214 31.5903 94.5941 31.4593 94.5439 31.3408C94.4938 31.2201 94.4163 31.1243 94.3115 31.0537C94.2067 30.9808 94.0711 30.9443 93.9048 30.9443C93.7703 30.9443 93.653 30.974 93.5527 31.0332C93.4548 31.0902 93.3727 31.1722 93.3066 31.2793C93.2428 31.3841 93.195 31.5094 93.1631 31.6553C93.1312 31.8011 93.1152 31.9629 93.1152 32.1406V32.2773C93.1152 32.4323 93.1357 32.5758 93.1768 32.708C93.2201 32.8402 93.2827 32.9552 93.3647 33.0532C93.4491 33.1489 93.5493 33.2241 93.6655 33.2788C93.784 33.3312 93.9185 33.3574 94.0688 33.3574C94.258 33.3574 94.4289 33.321 94.5815 33.248C94.7365 33.1729 94.8709 33.0623 94.9849 32.9165L95.4395 33.3882C95.362 33.5021 95.2572 33.6115 95.125 33.7163C94.9951 33.8211 94.8379 33.9066 94.6533 33.9727C94.4688 34.0365 94.2557 34.0684 94.0142 34.0684ZM93.3818 29.7856L94.0518 28.7466H95.0498L94.1167 29.7856H93.3818ZM97.6372 33.3574C97.7648 33.3574 97.8787 33.3324 97.979 33.2822C98.0793 33.2321 98.159 33.1615 98.2183 33.0703C98.2798 32.9792 98.3128 32.8732 98.3174 32.7524H99.1685C99.1639 33.0031 99.0933 33.2275 98.9565 33.4258C98.8198 33.624 98.6375 33.7812 98.4097 33.8975C98.1841 34.0114 97.9312 34.0684 97.6509 34.0684C97.366 34.0684 97.1177 34.0205 96.9058 33.9248C96.6938 33.8291 96.5173 33.6958 96.376 33.5249C96.237 33.354 96.1322 33.1558 96.0615 32.9302C95.9932 32.7046 95.959 32.4631 95.959 32.2056V32.0962C95.959 31.8387 95.9932 31.5972 96.0615 31.3716C96.1322 31.146 96.237 30.9478 96.376 30.7769C96.5173 30.606 96.6938 30.4727 96.9058 30.377C97.1177 30.2812 97.3649 30.2334 97.6475 30.2334C97.946 30.2334 98.208 30.2915 98.4336 30.4077C98.6615 30.5239 98.8392 30.688 98.9668 30.8999C99.0967 31.1118 99.1639 31.3613 99.1685 31.6484H98.3174C98.3128 31.5163 98.2832 31.3978 98.2285 31.293C98.1738 31.1882 98.0964 31.1038 97.9961 31.04C97.8958 30.9762 97.7739 30.9443 97.6304 30.9443C97.4777 30.9443 97.3501 30.9762 97.2476 31.04C97.1473 31.1038 97.0687 31.1916 97.0117 31.3032C96.957 31.4126 96.9183 31.5356 96.8955 31.6724C96.875 31.8068 96.8647 31.9481 96.8647 32.0962V32.2056C96.8647 32.356 96.875 32.4995 96.8955 32.6362C96.9183 32.7729 96.957 32.896 97.0117 33.0054C97.0687 33.1125 97.1473 33.1979 97.2476 33.2617C97.3501 33.3255 97.48 33.3574 97.6372 33.3574ZM101.971 33.1216V30.3018H102.88V34H102.026L101.971 33.1216ZM102.087 32.356L102.368 32.3491C102.368 32.5975 102.34 32.8265 102.286 33.0361C102.231 33.2458 102.146 33.4281 102.029 33.583C101.915 33.7357 101.771 33.8553 101.595 33.9419C101.42 34.0262 101.212 34.0684 100.973 34.0684C100.791 34.0684 100.625 34.0433 100.474 33.9932C100.324 33.9408 100.194 33.8599 100.084 33.7505C99.9774 33.6388 99.8942 33.4964 99.835 33.3232C99.7757 33.1478 99.7461 32.937 99.7461 32.6909V30.3018H100.648V32.6978C100.648 32.8208 100.662 32.9233 100.689 33.0054C100.719 33.0874 100.759 33.1546 100.809 33.207C100.861 33.2572 100.922 33.2936 100.99 33.3164C101.061 33.3369 101.136 33.3472 101.216 33.3472C101.435 33.3472 101.607 33.3039 101.732 33.2173C101.86 33.1284 101.951 33.0099 102.005 32.8618C102.06 32.7114 102.087 32.5428 102.087 32.356ZM104.583 31.0571V34H103.68V30.3018H104.535L104.583 31.0571ZM105.707 30.2778L105.693 31.1187C105.643 31.1095 105.586 31.1027 105.522 31.0981C105.461 31.0936 105.403 31.0913 105.348 31.0913C105.209 31.0913 105.087 31.1107 104.982 31.1494C104.878 31.1859 104.79 31.2394 104.719 31.3101C104.651 31.3807 104.598 31.4673 104.562 31.5698C104.526 31.6701 104.505 31.784 104.5 31.9116L104.306 31.8877C104.306 31.653 104.33 31.4354 104.377 31.2349C104.425 31.0343 104.495 30.8589 104.586 30.7085C104.677 30.5581 104.791 30.4419 104.928 30.3599C105.067 30.2756 105.226 30.2334 105.406 30.2334C105.456 30.2334 105.51 30.238 105.567 30.2471C105.626 30.2539 105.673 30.2642 105.707 30.2778ZM107.16 30.3018V34H106.254V30.3018H107.16ZM106.192 29.3345C106.192 29.2 106.238 29.0884 106.329 28.9995C106.423 28.9106 106.548 28.8662 106.705 28.8662C106.862 28.8662 106.986 28.9106 107.078 28.9995C107.171 29.0884 107.218 29.2 107.218 29.3345C107.218 29.4666 107.171 29.5771 107.078 29.666C106.986 29.7549 106.862 29.7993 106.705 29.7993C106.548 29.7993 106.423 29.7549 106.329 29.666C106.238 29.5771 106.192 29.4666 106.192 29.3345ZM109.771 30.3018V30.9512H107.652V30.3018H109.771ZM108.219 29.3926H109.125V32.9336C109.125 33.043 109.14 33.1273 109.169 33.1865C109.199 33.2458 109.243 33.2856 109.303 33.3062C109.362 33.3267 109.433 33.3369 109.515 33.3369C109.574 33.3369 109.629 33.3335 109.679 33.3267C109.729 33.3198 109.771 33.313 109.805 33.3062L109.809 33.9829C109.733 34.008 109.648 34.0285 109.552 34.0444C109.459 34.0604 109.353 34.0684 109.234 34.0684C109.032 34.0684 108.854 34.0342 108.701 33.9658C108.549 33.8952 108.43 33.7824 108.346 33.6274C108.261 33.4702 108.219 33.2629 108.219 33.0054V29.3926ZM112.034 34.0684C111.753 34.0684 111.502 34.0228 111.278 33.9316C111.055 33.8405 110.865 33.714 110.708 33.5522C110.553 33.3882 110.433 33.1979 110.349 32.9814C110.267 32.7627 110.226 32.528 110.226 32.2773V32.1406C110.226 31.8558 110.267 31.5972 110.349 31.3647C110.431 31.13 110.547 30.9284 110.697 30.7598C110.848 30.5911 111.028 30.4613 111.237 30.3701C111.447 30.279 111.678 30.2334 111.931 30.2334C112.193 30.2334 112.424 30.2778 112.625 30.3667C112.826 30.4533 112.993 30.5763 113.127 30.7358C113.262 30.8953 113.363 31.0868 113.432 31.3101C113.5 31.5311 113.534 31.776 113.534 32.0449V32.4243H110.636V31.8022H112.646V31.7339C112.641 31.5903 112.614 31.4593 112.563 31.3408C112.513 31.2201 112.436 31.1243 112.331 31.0537C112.226 30.9808 112.091 30.9443 111.924 30.9443C111.79 30.9443 111.673 30.974 111.572 31.0332C111.474 31.0902 111.392 31.1722 111.326 31.2793C111.262 31.3841 111.215 31.5094 111.183 31.6553C111.151 31.8011 111.135 31.9629 111.135 32.1406V32.2773C111.135 32.4323 111.155 32.5758 111.196 32.708C111.24 32.8402 111.302 32.9552 111.384 33.0532C111.469 33.1489 111.569 33.2241 111.685 33.2788C111.804 33.3312 111.938 33.3574 112.088 33.3574C112.278 33.3574 112.448 33.321 112.601 33.248C112.756 33.1729 112.89 33.0623 113.004 32.9165L113.459 33.3882C113.382 33.5021 113.277 33.6115 113.145 33.7163C113.015 33.8211 112.857 33.9066 112.673 33.9727C112.488 34.0365 112.275 34.0684 112.034 34.0684ZM111.401 29.7856L112.071 28.7466H113.069L112.136 29.7856H111.401ZM117.543 34.0684C117.263 34.0684 117.011 34.0228 116.788 33.9316C116.565 33.8405 116.375 33.714 116.217 33.5522C116.062 33.3882 115.943 33.1979 115.858 32.9814C115.776 32.7627 115.735 32.528 115.735 32.2773V32.1406C115.735 31.8558 115.776 31.5972 115.858 31.3647C115.94 31.13 116.057 30.9284 116.207 30.7598C116.357 30.5911 116.537 30.4613 116.747 30.3701C116.957 30.279 117.188 30.2334 117.441 30.2334C117.703 30.2334 117.934 30.2778 118.135 30.3667C118.335 30.4533 118.503 30.5763 118.637 30.7358C118.772 30.8953 118.873 31.0868 118.941 31.3101C119.01 31.5311 119.044 31.776 119.044 32.0449V32.4243H116.146V31.8022H118.155V31.7339C118.151 31.5903 118.123 31.4593 118.073 31.3408C118.023 31.2201 117.946 31.1243 117.841 31.0537C117.736 30.9808 117.6 30.9443 117.434 30.9443C117.3 30.9443 117.182 30.974 117.082 31.0332C116.984 31.0902 116.902 31.1722 116.836 31.2793C116.772 31.3841 116.724 31.5094 116.692 31.6553C116.66 31.8011 116.645 31.9629 116.645 32.1406V32.2773C116.645 32.4323 116.665 32.5758 116.706 32.708C116.749 32.8402 116.812 32.9552 116.894 33.0532C116.978 33.1489 117.079 33.2241 117.195 33.2788C117.313 33.3312 117.448 33.3574 117.598 33.3574C117.787 33.3574 117.958 33.321 118.111 33.248C118.266 33.1729 118.4 33.0623 118.514 32.9165L118.969 33.3882C118.891 33.5021 118.786 33.6115 118.654 33.7163C118.524 33.8211 118.367 33.9066 118.183 33.9727C117.998 34.0365 117.785 34.0684 117.543 34.0684ZM121.399 30.3018V30.9512H119.28V30.3018H121.399ZM119.847 29.3926H120.753V32.9336C120.753 33.043 120.768 33.1273 120.797 33.1865C120.827 33.2458 120.871 33.2856 120.931 33.3062C120.99 33.3267 121.061 33.3369 121.143 33.3369C121.202 33.3369 121.257 33.3335 121.307 33.3267C121.357 33.3198 121.399 33.313 121.433 33.3062L121.437 33.9829C121.361 34.008 121.276 34.0285 121.18 34.0444C121.087 34.0604 120.981 34.0684 120.862 34.0684C120.66 34.0684 120.482 34.0342 120.329 33.9658C120.176 33.8952 120.058 33.7824 119.974 33.6274C119.889 33.4702 119.847 33.2629 119.847 33.0054V29.3926ZM123.74 28.75H124.646V33.1831L124.557 34H123.74V28.75ZM127.025 32.1133V32.1851C127.025 32.4608 126.994 32.7137 126.933 32.9438C126.873 33.174 126.783 33.3734 126.663 33.542C126.542 33.7083 126.391 33.8382 126.211 33.9316C126.034 34.0228 125.825 34.0684 125.586 34.0684C125.358 34.0684 125.16 34.0239 124.991 33.9351C124.825 33.8462 124.685 33.7209 124.571 33.5591C124.457 33.395 124.366 33.2025 124.297 32.9814C124.229 32.7581 124.178 32.5143 124.144 32.25V32.0552C124.178 31.7886 124.229 31.5448 124.297 31.3237C124.366 31.1027 124.457 30.9102 124.571 30.7461C124.685 30.582 124.825 30.4556 124.991 30.3667C125.158 30.2778 125.354 30.2334 125.579 30.2334C125.821 30.2334 126.031 30.2801 126.211 30.3735C126.394 30.4647 126.544 30.5946 126.663 30.7632C126.783 30.9295 126.873 31.1278 126.933 31.3579C126.994 31.5858 127.025 31.8376 127.025 32.1133ZM126.119 32.1851V32.1133C126.119 31.9561 126.107 31.8079 126.082 31.6689C126.056 31.5277 126.015 31.4035 125.958 31.2964C125.902 31.1893 125.824 31.105 125.726 31.0435C125.628 30.9819 125.505 30.9512 125.357 30.9512C125.216 30.9512 125.095 30.9751 124.995 31.0229C124.897 31.0708 124.815 31.1369 124.749 31.2212C124.685 31.3055 124.635 31.4046 124.598 31.5186C124.564 31.6325 124.541 31.7555 124.53 31.8877V32.4209C124.546 32.5964 124.583 32.7547 124.643 32.896C124.702 33.035 124.79 33.1455 124.906 33.2275C125.024 33.3096 125.177 33.3506 125.364 33.3506C125.51 33.3506 125.632 33.3221 125.729 33.2651C125.827 33.2059 125.905 33.1239 125.962 33.019C126.019 32.9119 126.059 32.7878 126.082 32.6465C126.107 32.5052 126.119 32.3514 126.119 32.1851ZM128.638 30.3018V34H127.732V30.3018H128.638ZM127.671 29.3345C127.671 29.2 127.716 29.0884 127.808 28.9995C127.901 28.9106 128.026 28.8662 128.184 28.8662C128.341 28.8662 128.465 28.9106 128.556 28.9995C128.65 29.0884 128.696 29.2 128.696 29.3345C128.696 29.4666 128.65 29.5771 128.556 29.666C128.465 29.7549 128.341 29.7993 128.184 29.7993C128.026 29.7993 127.901 29.7549 127.808 29.666C127.716 29.5771 127.671 29.4666 127.671 29.3345ZM131.161 34.0684C130.88 34.0684 130.629 34.0228 130.405 33.9316C130.182 33.8405 129.992 33.714 129.834 33.5522C129.68 33.3882 129.56 33.1979 129.476 32.9814C129.394 32.7627 129.353 32.528 129.353 32.2773V32.1406C129.353 31.8558 129.394 31.5972 129.476 31.3647C129.558 31.13 129.674 30.9284 129.824 30.7598C129.975 30.5911 130.155 30.4613 130.364 30.3701C130.574 30.279 130.805 30.2334 131.058 30.2334C131.32 30.2334 131.551 30.2778 131.752 30.3667C131.952 30.4533 132.12 30.5763 132.254 30.7358C132.389 30.8953 132.49 31.0868 132.559 31.3101C132.627 31.5311 132.661 31.776 132.661 32.0449V32.4243H129.763V31.8022H131.772V31.7339C131.768 31.5903 131.741 31.4593 131.69 31.3408C131.64 31.2201 131.563 31.1243 131.458 31.0537C131.353 30.9808 131.218 30.9443 131.051 30.9443C130.917 30.9443 130.799 30.974 130.699 31.0332C130.601 31.0902 130.519 31.1722 130.453 31.2793C130.389 31.3841 130.341 31.5094 130.31 31.6553C130.278 31.8011 130.262 31.9629 130.262 32.1406V32.2773C130.262 32.4323 130.282 32.5758 130.323 32.708C130.367 32.8402 130.429 32.9552 130.511 33.0532C130.596 33.1489 130.696 33.2241 130.812 33.2788C130.931 33.3312 131.065 33.3574 131.215 33.3574C131.404 33.3574 131.575 33.321 131.728 33.248C131.883 33.1729 132.017 33.0623 132.131 32.9165L132.586 33.3882C132.508 33.5021 132.404 33.6115 132.271 33.7163C132.142 33.8211 131.984 33.9066 131.8 33.9727C131.615 34.0365 131.402 34.0684 131.161 34.0684ZM134.151 31.0913V34H133.249V30.3018H134.097L134.151 31.0913ZM134.008 32.0176H133.741C133.743 31.7487 133.78 31.5049 133.851 31.2861C133.921 31.0674 134.02 30.8794 134.148 30.7222C134.278 30.5649 134.432 30.4442 134.609 30.3599C134.787 30.2756 134.985 30.2334 135.204 30.2334C135.382 30.2334 135.542 30.2585 135.686 30.3086C135.83 30.3587 135.953 30.4385 136.055 30.5479C136.16 30.6572 136.24 30.8008 136.294 30.9785C136.351 31.154 136.38 31.3704 136.38 31.6279V34H135.471V31.6211C135.471 31.4525 135.446 31.3192 135.396 31.2212C135.348 31.1232 135.277 31.0537 135.184 31.0127C135.092 30.9717 134.98 30.9512 134.845 30.9512C134.706 30.9512 134.584 30.9797 134.479 31.0366C134.377 31.0913 134.29 31.1676 134.22 31.2656C134.151 31.3636 134.099 31.4764 134.062 31.604C134.026 31.7316 134.008 31.8695 134.008 32.0176ZM138.974 31.5117V32.2261H137.104V31.5117H138.974ZM141.408 34.0684C141.127 34.0684 140.876 34.0228 140.652 33.9316C140.429 33.8405 140.239 33.714 140.082 33.5522C139.927 33.3882 139.807 33.1979 139.723 32.9814C139.641 32.7627 139.6 32.528 139.6 32.2773V32.1406C139.6 31.8558 139.641 31.5972 139.723 31.3647C139.805 31.13 139.921 30.9284 140.071 30.7598C140.222 30.5911 140.402 30.4613 140.611 30.3701C140.821 30.279 141.052 30.2334 141.305 30.2334C141.567 30.2334 141.799 30.2778 141.999 30.3667C142.2 30.4533 142.367 30.5763 142.501 30.7358C142.636 30.8953 142.737 31.0868 142.806 31.3101C142.874 31.5311 142.908 31.776 142.908 32.0449V32.4243H140.01V31.8022H142.02V31.7339C142.015 31.5903 141.988 31.4593 141.938 31.3408C141.887 31.2201 141.81 31.1243 141.705 31.0537C141.6 30.9808 141.465 30.9443 141.298 30.9443C141.164 30.9443 141.047 30.974 140.946 31.0332C140.848 31.0902 140.766 31.1722 140.7 31.2793C140.636 31.3841 140.589 31.5094 140.557 31.6553C140.525 31.8011 140.509 31.9629 140.509 32.1406V32.2773C140.509 32.4323 140.529 32.5758 140.57 32.708C140.614 32.8402 140.676 32.9552 140.758 33.0532C140.843 33.1489 140.943 33.2241 141.059 33.2788C141.178 33.3312 141.312 33.3574 141.462 33.3574C141.652 33.3574 141.822 33.321 141.975 33.248C142.13 33.1729 142.264 33.0623 142.378 32.9165L142.833 33.3882C142.756 33.5021 142.651 33.6115 142.519 33.7163C142.389 33.8211 142.231 33.9066 142.047 33.9727C141.862 34.0365 141.649 34.0684 141.408 34.0684ZM141.479 28.7466L142.471 29.6934V29.7344H141.746L141.216 29.2148L140.69 29.7344H139.976V29.6865L140.953 28.7466H141.479ZM145.263 30.3018V30.9512H143.144V30.3018H145.263ZM143.711 29.3926H144.617V32.9336C144.617 33.043 144.632 33.1273 144.662 33.1865C144.691 33.2458 144.736 33.2856 144.795 33.3062C144.854 33.3267 144.925 33.3369 145.007 33.3369C145.066 33.3369 145.121 33.3335 145.171 33.3267C145.221 33.3198 145.263 33.313 145.297 33.3062L145.301 33.9829C145.226 34.008 145.14 34.0285 145.044 34.0444C144.951 34.0604 144.845 34.0684 144.727 34.0684C144.524 34.0684 144.346 34.0342 144.193 33.9658C144.041 33.8952 143.922 33.7824 143.838 33.6274C143.754 33.4702 143.711 33.2629 143.711 33.0054V29.3926ZM146.767 31.0571V34H145.865V30.3018H146.719L146.767 31.0571ZM147.892 30.2778L147.878 31.1187C147.828 31.1095 147.771 31.1027 147.707 31.0981C147.646 31.0936 147.587 31.0913 147.533 31.0913C147.394 31.0913 147.272 31.1107 147.167 31.1494C147.062 31.1859 146.974 31.2394 146.904 31.3101C146.835 31.3807 146.783 31.4673 146.747 31.5698C146.71 31.6701 146.69 31.784 146.685 31.9116L146.49 31.8877C146.49 31.653 146.514 31.4354 146.562 31.2349C146.61 31.0343 146.679 30.8589 146.771 30.7085C146.862 30.5581 146.976 30.4419 147.112 30.3599C147.251 30.2756 147.411 30.2334 147.591 30.2334C147.641 30.2334 147.694 30.238 147.751 30.2471C147.811 30.2539 147.857 30.2642 147.892 30.2778ZM149.98 34.0684C149.7 34.0684 149.448 34.0228 149.225 33.9316C149.001 33.8405 148.811 33.714 148.654 33.5522C148.499 33.3882 148.379 33.1979 148.295 32.9814C148.213 32.7627 148.172 32.528 148.172 32.2773V32.1406C148.172 31.8558 148.213 31.5972 148.295 31.3647C148.377 31.13 148.493 30.9284 148.644 30.7598C148.794 30.5911 148.974 30.4613 149.184 30.3701C149.393 30.279 149.625 30.2334 149.877 30.2334C150.139 30.2334 150.371 30.2778 150.571 30.3667C150.772 30.4533 150.939 30.5763 151.074 30.7358C151.208 30.8953 151.31 31.0868 151.378 31.3101C151.446 31.5311 151.48 31.776 151.48 32.0449V32.4243H148.582V31.8022H150.592V31.7339C150.587 31.5903 150.56 31.4593 150.51 31.3408C150.46 31.2201 150.382 31.1243 150.277 31.0537C150.173 30.9808 150.037 30.9443 149.871 30.9443C149.736 30.9443 149.619 30.974 149.519 31.0332C149.421 31.0902 149.339 31.1722 149.272 31.2793C149.209 31.3841 149.161 31.5094 149.129 31.6553C149.097 31.8011 149.081 31.9629 149.081 32.1406V32.2773C149.081 32.4323 149.102 32.5758 149.143 32.708C149.186 32.8402 149.249 32.9552 149.331 33.0532C149.415 33.1489 149.515 33.2241 149.631 33.2788C149.75 33.3312 149.884 33.3574 150.035 33.3574C150.224 33.3574 150.395 33.321 150.547 33.248C150.702 33.1729 150.837 33.0623 150.951 32.9165L151.405 33.3882C151.328 33.5021 151.223 33.6115 151.091 33.7163C150.961 33.8211 150.804 33.9066 150.619 33.9727C150.435 34.0365 150.222 34.0684 149.98 34.0684ZM155.346 33.3574C155.474 33.3574 155.588 33.3324 155.688 33.2822C155.788 33.2321 155.868 33.1615 155.927 33.0703C155.989 32.9792 156.022 32.8732 156.026 32.7524H156.877C156.873 33.0031 156.802 33.2275 156.666 33.4258C156.529 33.624 156.347 33.7812 156.119 33.8975C155.893 34.0114 155.64 34.0684 155.36 34.0684C155.075 34.0684 154.827 34.0205 154.615 33.9248C154.403 33.8291 154.226 33.6958 154.085 33.5249C153.946 33.354 153.841 33.1558 153.771 32.9302C153.702 32.7046 153.668 32.4631 153.668 32.2056V32.0962C153.668 31.8387 153.702 31.5972 153.771 31.3716C153.841 31.146 153.946 30.9478 154.085 30.7769C154.226 30.606 154.403 30.4727 154.615 30.377C154.827 30.2812 155.074 30.2334 155.356 30.2334C155.655 30.2334 155.917 30.2915 156.143 30.4077C156.37 30.5239 156.548 30.688 156.676 30.8999C156.806 31.1118 156.873 31.3613 156.877 31.6484H156.026C156.022 31.5163 155.992 31.3978 155.938 31.293C155.883 31.1882 155.805 31.1038 155.705 31.04C155.605 30.9762 155.483 30.9443 155.339 30.9443C155.187 30.9443 155.059 30.9762 154.957 31.04C154.856 31.1038 154.778 31.1916 154.721 31.3032C154.666 31.4126 154.627 31.5356 154.604 31.6724C154.584 31.8068 154.574 31.9481 154.574 32.0962V32.2056C154.574 32.356 154.584 32.4995 154.604 32.6362C154.627 32.7729 154.666 32.896 154.721 33.0054C154.778 33.1125 154.856 33.1979 154.957 33.2617C155.059 33.3255 155.189 33.3574 155.346 33.3574ZM158.364 28.75V34H157.458V28.75H158.364ZM158.221 32.0176H157.954C157.954 31.7601 157.988 31.5231 158.057 31.3066C158.125 31.0902 158.222 30.9022 158.347 30.7427C158.472 30.5809 158.622 30.4556 158.795 30.3667C158.97 30.2778 159.164 30.2334 159.376 30.2334C159.558 30.2334 159.723 30.2596 159.872 30.312C160.022 30.3621 160.151 30.443 160.258 30.5547C160.365 30.6663 160.447 30.8122 160.504 30.9922C160.563 31.1699 160.593 31.3864 160.593 31.6416V34H159.684V31.6348C159.684 31.4639 159.659 31.3294 159.608 31.2314C159.558 31.1312 159.486 31.0594 159.393 31.0161C159.302 30.9728 159.189 30.9512 159.055 30.9512C158.909 30.9512 158.784 30.9797 158.679 31.0366C158.574 31.0913 158.487 31.1676 158.419 31.2656C158.353 31.3636 158.303 31.4764 158.269 31.604C158.237 31.7316 158.221 31.8695 158.221 32.0176ZM163.05 34.0684C162.77 34.0684 162.518 34.0228 162.295 33.9316C162.072 33.8405 161.881 33.714 161.724 33.5522C161.569 33.3882 161.45 33.1979 161.365 32.9814C161.283 32.7627 161.242 32.528 161.242 32.2773V32.1406C161.242 31.8558 161.283 31.5972 161.365 31.3647C161.447 31.13 161.563 30.9284 161.714 30.7598C161.864 30.5911 162.044 30.4613 162.254 30.3701C162.464 30.279 162.695 30.2334 162.948 30.2334C163.21 30.2334 163.441 30.2778 163.642 30.3667C163.842 30.4533 164.01 30.5763 164.144 30.7358C164.278 30.8953 164.38 31.0868 164.448 31.3101C164.517 31.5311 164.551 31.776 164.551 32.0449V32.4243H161.652V31.8022H163.662V31.7339C163.658 31.5903 163.63 31.4593 163.58 31.3408C163.53 31.2201 163.452 31.1243 163.348 31.0537C163.243 30.9808 163.107 30.9443 162.941 30.9443C162.806 30.9443 162.689 30.974 162.589 31.0332C162.491 31.0902 162.409 31.1722 162.343 31.2793C162.279 31.3841 162.231 31.5094 162.199 31.6553C162.167 31.8011 162.151 31.9629 162.151 32.1406V32.2773C162.151 32.4323 162.172 32.5758 162.213 32.708C162.256 32.8402 162.319 32.9552 162.401 33.0532C162.485 33.1489 162.585 33.2241 162.702 33.2788C162.82 33.3312 162.955 33.3574 163.105 33.3574C163.294 33.3574 163.465 33.321 163.618 33.248C163.773 33.1729 163.907 33.0623 164.021 32.9165L164.476 33.3882C164.398 33.5021 164.293 33.6115 164.161 33.7163C164.031 33.8211 163.874 33.9066 163.689 33.9727C163.505 34.0365 163.292 34.0684 163.05 34.0684ZM168.054 33.2891V34H165.272V33.2891H168.054ZM167.989 30.8418L165.61 34H165.016V33.4429L167.381 30.3018H167.989V30.8418ZM167.658 30.3018V31.0161H165.063V30.3018H167.658ZM171.667 33.3164L172.528 30.3018H173.472L172.204 34H171.629L171.667 33.3164ZM171.038 30.3018L171.91 33.3232L171.94 34H171.363L170.091 30.3018H171.038ZM173.731 32.1885V32.1167C173.731 31.8455 173.77 31.596 173.848 31.3682C173.925 31.138 174.038 30.9386 174.186 30.77C174.334 30.6014 174.515 30.4704 174.729 30.377C174.944 30.2812 175.188 30.2334 175.461 30.2334C175.739 30.2334 175.985 30.2812 176.199 30.377C176.416 30.4704 176.598 30.6014 176.746 30.77C176.894 30.9386 177.007 31.138 177.084 31.3682C177.162 31.596 177.201 31.8455 177.201 32.1167V32.1885C177.201 32.4574 177.162 32.7069 177.084 32.937C177.007 33.1649 176.894 33.3643 176.746 33.5352C176.598 33.7038 176.417 33.8348 176.203 33.9282C175.988 34.0216 175.743 34.0684 175.468 34.0684C175.194 34.0684 174.949 34.0216 174.733 33.9282C174.516 33.8348 174.334 33.7038 174.186 33.5352C174.038 33.3643 173.925 33.1649 173.848 32.937C173.77 32.7069 173.731 32.4574 173.731 32.1885ZM174.634 32.1167V32.1885C174.634 32.3503 174.65 32.5018 174.682 32.6431C174.714 32.7843 174.763 32.9085 174.829 33.0156C174.895 33.1227 174.98 33.207 175.085 33.2686C175.192 33.3278 175.32 33.3574 175.468 33.3574C175.614 33.3574 175.739 33.3278 175.844 33.2686C175.949 33.207 176.034 33.1227 176.1 33.0156C176.168 32.9085 176.219 32.7843 176.25 32.6431C176.282 32.5018 176.298 32.3503 176.298 32.1885V32.1167C176.298 31.9572 176.282 31.8079 176.25 31.6689C176.219 31.5277 176.168 31.4035 176.1 31.2964C176.034 31.187 175.947 31.1016 175.84 31.04C175.736 30.9762 175.609 30.9443 175.461 30.9443C175.315 30.9443 175.19 30.9762 175.085 31.04C174.98 31.1016 174.895 31.187 174.829 31.2964C174.763 31.4035 174.714 31.5277 174.682 31.6689C174.65 31.8079 174.634 31.9572 174.634 32.1167ZM180.058 33.1216V30.3018H180.967V34H180.113L180.058 33.1216ZM180.174 32.356L180.455 32.3491C180.455 32.5975 180.427 32.8265 180.373 33.0361C180.318 33.2458 180.232 33.4281 180.116 33.583C180.002 33.7357 179.858 33.8553 179.682 33.9419C179.507 34.0262 179.299 34.0684 179.06 34.0684C178.878 34.0684 178.711 34.0433 178.561 33.9932C178.411 33.9408 178.281 33.8599 178.171 33.7505C178.064 33.6388 177.981 33.4964 177.922 33.3232C177.863 33.1478 177.833 32.937 177.833 32.6909V30.3018H178.735V32.6978C178.735 32.8208 178.749 32.9233 178.776 33.0054C178.806 33.0874 178.846 33.1546 178.896 33.207C178.948 33.2572 179.009 33.2936 179.077 33.3164C179.148 33.3369 179.223 33.3472 179.303 33.3472C179.521 33.3472 179.694 33.3039 179.819 33.2173C179.946 33.1284 180.038 33.0099 180.092 32.8618C180.147 32.7114 180.174 32.5428 180.174 32.356ZM183.801 32.9883C183.801 32.9108 183.78 32.8413 183.739 32.7798C183.698 32.7183 183.621 32.6624 183.507 32.6123C183.395 32.5599 183.231 32.5109 183.015 32.4653C182.823 32.4243 182.647 32.373 182.485 32.3115C182.323 32.25 182.184 32.1759 182.068 32.0894C181.952 32.0005 181.861 31.8968 181.794 31.7783C181.731 31.6576 181.699 31.5186 181.699 31.3613C181.699 31.2087 181.732 31.0651 181.798 30.9307C181.864 30.7939 181.96 30.6743 182.085 30.5718C182.21 30.467 182.363 30.3849 182.543 30.3257C182.723 30.2642 182.926 30.2334 183.151 30.2334C183.466 30.2334 183.736 30.2847 183.961 30.3872C184.189 30.4897 184.364 30.631 184.484 30.811C184.605 30.9888 184.666 31.1893 184.666 31.4126H183.763C183.763 31.3146 183.74 31.2257 183.695 31.146C183.652 31.0662 183.584 31.0024 183.493 30.9546C183.402 30.9045 183.287 30.8794 183.148 30.8794C183.023 30.8794 182.917 30.8999 182.83 30.9409C182.746 30.9819 182.682 31.0355 182.639 31.1016C182.595 31.1676 182.574 31.2406 182.574 31.3203C182.574 31.3796 182.585 31.4331 182.608 31.481C182.633 31.5265 182.673 31.5687 182.728 31.6074C182.782 31.6462 182.856 31.6815 182.95 31.7134C183.045 31.7453 183.163 31.776 183.302 31.8057C183.577 31.8604 183.818 31.9333 184.023 32.0244C184.23 32.1133 184.392 32.2318 184.508 32.3799C184.625 32.528 184.683 32.7171 184.683 32.9473C184.683 33.1113 184.647 33.2617 184.577 33.3984C184.506 33.5329 184.403 33.6502 184.269 33.7505C184.135 33.8507 183.974 33.9294 183.787 33.9863C183.6 34.041 183.389 34.0684 183.155 34.0684C182.815 34.0684 182.528 34.008 182.293 33.8872C182.059 33.7642 181.881 33.6092 181.76 33.4224C181.639 33.2332 181.579 33.0373 181.579 32.8345H182.444C182.451 32.978 182.489 33.0931 182.56 33.1797C182.631 33.2663 182.72 33.3289 182.827 33.3677C182.936 33.4041 183.051 33.4224 183.172 33.4224C183.309 33.4224 183.424 33.4041 183.517 33.3677C183.611 33.3289 183.681 33.2777 183.729 33.2139C183.777 33.1478 183.801 33.0726 183.801 32.9883Z" fill="#E75D0E"/>
<path d="M64.5645 17.582V26H62.2109V15.4336H64.4277L64.5645 17.582ZM64.1836 20.3262L63.3828 20.3164C63.3828 19.5872 63.474 18.9134 63.6562 18.2949C63.8385 17.6764 64.1055 17.1393 64.457 16.6836C64.8086 16.2214 65.2448 15.8665 65.7656 15.6191C66.293 15.3652 66.9017 15.2383 67.5918 15.2383C68.0736 15.2383 68.513 15.3099 68.9102 15.4531C69.3138 15.5898 69.6621 15.8079 69.9551 16.1074C70.2546 16.4069 70.4824 16.791 70.6387 17.2598C70.8014 17.7285 70.8828 18.2949 70.8828 18.959V26H68.5293V19.1641C68.5293 18.6497 68.4512 18.2461 68.2949 17.9531C68.1452 17.6602 67.9271 17.4518 67.6406 17.3281C67.3607 17.1979 67.0254 17.1328 66.6348 17.1328C66.1921 17.1328 65.8145 17.2174 65.502 17.3867C65.196 17.556 64.9453 17.7871 64.75 18.0801C64.5547 18.373 64.4115 18.7116 64.3203 19.0957C64.2292 19.4798 64.1836 19.89 64.1836 20.3262ZM70.7363 19.7012L69.6328 19.9453C69.6328 19.3073 69.7207 18.7051 69.8965 18.1387C70.0788 17.5658 70.3424 17.0645 70.6875 16.6348C71.0391 16.1986 71.472 15.8568 71.9863 15.6094C72.5007 15.362 73.0898 15.2383 73.7539 15.2383C74.2943 15.2383 74.776 15.3132 75.1992 15.4629C75.6289 15.6061 75.9935 15.834 76.293 16.1465C76.5924 16.459 76.8203 16.8659 76.9766 17.3672C77.1328 17.862 77.2109 18.4609 77.2109 19.1641V26H74.8477V19.1543C74.8477 18.6204 74.7695 18.207 74.6133 17.9141C74.4635 17.6211 74.2487 17.4193 73.9688 17.3086C73.6888 17.1914 73.3535 17.1328 72.9629 17.1328C72.5983 17.1328 72.276 17.2012 71.9961 17.3379C71.7227 17.4681 71.4915 17.6536 71.3027 17.8945C71.1139 18.1289 70.9707 18.3991 70.873 18.7051C70.7819 19.0111 70.7363 19.3431 70.7363 19.7012ZM82.1523 15.4336V26H79.7891V15.4336H82.1523ZM79.6328 12.6602C79.6328 12.3021 79.75 12.0059 79.9844 11.7715C80.2253 11.5306 80.5573 11.4102 80.9805 11.4102C81.3971 11.4102 81.7259 11.5306 81.9668 11.7715C82.2077 12.0059 82.3281 12.3021 82.3281 12.6602C82.3281 13.0117 82.2077 13.3047 81.9668 13.5391C81.7259 13.7734 81.3971 13.8906 80.9805 13.8906C80.5573 13.8906 80.2253 13.7734 79.9844 13.5391C79.75 13.3047 79.6328 13.0117 79.6328 12.6602ZM87.7188 11.7812V26H84.7891V11.7812H87.7188ZM96.2344 11.7812L90.5996 18.8027L87.3477 22.2988L86.8203 19.5254L89.0176 16.5176L92.6406 11.7812H96.2344ZM92.9043 26L88.7148 19.4277L90.8828 17.6113L96.3711 26H92.9043ZM103.031 23.6172V18.9102C103.031 18.5716 102.976 18.2819 102.865 18.041C102.755 17.7936 102.582 17.6016 102.348 17.4648C102.12 17.3281 101.824 17.2598 101.459 17.2598C101.146 17.2598 100.876 17.3151 100.648 17.4258C100.421 17.5299 100.245 17.6829 100.121 17.8848C99.9974 18.0801 99.9355 18.3112 99.9355 18.5781H97.123C97.123 18.1289 97.2272 17.7025 97.4355 17.2988C97.6439 16.8952 97.9466 16.5404 98.3438 16.2344C98.7409 15.9219 99.2129 15.6777 99.7598 15.502C100.313 15.3262 100.932 15.2383 101.615 15.2383C102.436 15.2383 103.165 15.375 103.803 15.6484C104.441 15.9219 104.942 16.332 105.307 16.8789C105.678 17.4258 105.863 18.1094 105.863 18.9297V23.4512C105.863 24.0306 105.899 24.5059 105.971 24.877C106.042 25.2415 106.146 25.5605 106.283 25.834V26H103.441C103.305 25.7135 103.201 25.3555 103.129 24.9258C103.064 24.4896 103.031 24.0534 103.031 23.6172ZM103.402 19.5645L103.422 21.1562H101.85C101.479 21.1562 101.156 21.1986 100.883 21.2832C100.609 21.3678 100.385 21.4883 100.209 21.6445C100.033 21.7943 99.903 21.9701 99.8184 22.1719C99.7402 22.3737 99.7012 22.5951 99.7012 22.8359C99.7012 23.0768 99.7565 23.2949 99.8672 23.4902C99.9779 23.679 100.137 23.8288 100.346 23.9395C100.554 24.0436 100.798 24.0957 101.078 24.0957C101.501 24.0957 101.869 24.0111 102.182 23.8418C102.494 23.6725 102.735 23.4642 102.904 23.2168C103.08 22.9694 103.171 22.735 103.178 22.5137L103.92 23.7051C103.816 23.972 103.673 24.2487 103.49 24.5352C103.314 24.8216 103.09 25.0918 102.816 25.3457C102.543 25.5931 102.214 25.7982 101.83 25.9609C101.446 26.1172 100.99 26.1953 100.463 26.1953C99.7923 26.1953 99.1836 26.0618 98.6367 25.7949C98.0964 25.5215 97.6667 25.1471 97.3477 24.6719C97.0352 24.1901 96.8789 23.6432 96.8789 23.0312C96.8789 22.4779 96.9831 21.9863 97.1914 21.5566C97.3997 21.127 97.7057 20.7656 98.1094 20.4727C98.5195 20.1732 99.0306 19.9486 99.6426 19.7988C100.255 19.6426 100.964 19.5645 101.771 19.5645H103.402ZM116.439 23.8027V26H108.412V23.8027H116.439ZM116.283 17.0547L109.545 26H107.66V24.3301L114.369 15.4336H116.283V17.0547ZM115.287 15.4336V17.6406H107.816V15.4336H115.287ZM123.91 23.6172V18.9102C123.91 18.5716 123.855 18.2819 123.744 18.041C123.633 17.7936 123.461 17.6016 123.227 17.4648C122.999 17.3281 122.702 17.2598 122.338 17.2598C122.025 17.2598 121.755 17.3151 121.527 17.4258C121.299 17.5299 121.124 17.6829 121 17.8848C120.876 18.0801 120.814 18.3112 120.814 18.5781H118.002C118.002 18.1289 118.106 17.7025 118.314 17.2988C118.523 16.8952 118.826 16.5404 119.223 16.2344C119.62 15.9219 120.092 15.6777 120.639 15.502C121.192 15.3262 121.811 15.2383 122.494 15.2383C123.314 15.2383 124.044 15.375 124.682 15.6484C125.32 15.9219 125.821 16.332 126.186 16.8789C126.557 17.4258 126.742 18.1094 126.742 18.9297V23.4512C126.742 24.0306 126.778 24.5059 126.85 24.877C126.921 25.2415 127.025 25.5605 127.162 25.834V26H124.32C124.184 25.7135 124.079 25.3555 124.008 24.9258C123.943 24.4896 123.91 24.0534 123.91 23.6172ZM124.281 19.5645L124.301 21.1562H122.729C122.357 21.1562 122.035 21.1986 121.762 21.2832C121.488 21.3678 121.264 21.4883 121.088 21.6445C120.912 21.7943 120.782 21.9701 120.697 22.1719C120.619 22.3737 120.58 22.5951 120.58 22.8359C120.58 23.0768 120.635 23.2949 120.746 23.4902C120.857 23.679 121.016 23.8288 121.225 23.9395C121.433 24.0436 121.677 24.0957 121.957 24.0957C122.38 24.0957 122.748 24.0111 123.061 23.8418C123.373 23.6725 123.614 23.4642 123.783 23.2168C123.959 22.9694 124.05 22.735 124.057 22.5137L124.799 23.7051C124.695 23.972 124.551 24.2487 124.369 24.5352C124.193 24.8216 123.969 25.0918 123.695 25.3457C123.422 25.5931 123.093 25.7982 122.709 25.9609C122.325 26.1172 121.869 26.1953 121.342 26.1953C120.671 26.1953 120.062 26.0618 119.516 25.7949C118.975 25.5215 118.546 25.1471 118.227 24.6719C117.914 24.1901 117.758 23.6432 117.758 23.0312C117.758 22.4779 117.862 21.9863 118.07 21.5566C118.279 21.127 118.585 20.7656 118.988 20.4727C119.398 20.1732 119.91 19.9486 120.521 19.7988C121.133 19.6426 121.843 19.5645 122.65 19.5645H124.281ZM134.115 18.8906V20.9316H128.773V18.8906H134.115ZM138.734 17.4453V26H136.381V15.4336H138.627L138.734 17.4453ZM141.967 15.3652L141.947 17.5527C141.804 17.5267 141.648 17.5072 141.479 17.4941C141.316 17.4811 141.153 17.4746 140.99 17.4746C140.587 17.4746 140.232 17.5332 139.926 17.6504C139.62 17.7611 139.363 17.9238 139.154 18.1387C138.952 18.347 138.796 18.6009 138.686 18.9004C138.575 19.1999 138.51 19.5352 138.49 19.9062L137.953 19.9453C137.953 19.2812 138.018 18.666 138.148 18.0996C138.279 17.5332 138.474 17.0352 138.734 16.6055C139.001 16.1758 139.333 15.8405 139.73 15.5996C140.134 15.3587 140.6 15.2383 141.127 15.2383C141.27 15.2383 141.423 15.2513 141.586 15.2773C141.755 15.3034 141.882 15.3327 141.967 15.3652ZM147.904 26.1953C147.123 26.1953 146.417 26.0684 145.785 25.8145C145.16 25.554 144.626 25.1927 144.184 24.7305C143.747 24.2682 143.412 23.7246 143.178 23.0996C142.943 22.4746 142.826 21.8008 142.826 21.0781V20.6875C142.826 19.8607 142.947 19.112 143.188 18.4414C143.428 17.7708 143.764 17.1979 144.193 16.7227C144.623 16.2409 145.131 15.873 145.717 15.6191C146.303 15.3652 146.938 15.2383 147.621 15.2383C148.376 15.2383 149.037 15.3652 149.604 15.6191C150.17 15.873 150.639 16.2311 151.01 16.6934C151.387 17.1491 151.667 17.6927 151.85 18.3242C152.038 18.9557 152.133 19.6523 152.133 20.4141V21.4199H143.969V19.7305H149.809V19.5449C149.796 19.1217 149.711 18.7246 149.555 18.3535C149.405 17.9824 149.174 17.6829 148.861 17.4551C148.549 17.2272 148.132 17.1133 147.611 17.1133C147.221 17.1133 146.872 17.1979 146.566 17.3672C146.267 17.5299 146.016 17.7676 145.814 18.0801C145.613 18.3926 145.456 18.7702 145.346 19.2129C145.242 19.6491 145.189 20.1406 145.189 20.6875V21.0781C145.189 21.5404 145.251 21.9701 145.375 22.3672C145.505 22.7578 145.694 23.0996 145.941 23.3926C146.189 23.6855 146.488 23.9167 146.84 24.0859C147.191 24.2487 147.592 24.3301 148.041 24.3301C148.607 24.3301 149.112 24.2161 149.555 23.9883C149.997 23.7604 150.382 23.4382 150.707 23.0215L151.947 24.2227C151.719 24.5547 151.423 24.8737 151.059 25.1797C150.694 25.4792 150.248 25.7233 149.721 25.9121C149.2 26.1009 148.594 26.1953 147.904 26.1953ZM156.303 17.6895V26H153.949V15.4336H156.166L156.303 17.6895ZM155.883 20.3262L155.121 20.3164C155.128 19.5677 155.232 18.8809 155.434 18.2559C155.642 17.6309 155.928 17.0938 156.293 16.6445C156.664 16.1953 157.107 15.8503 157.621 15.6094C158.135 15.362 158.708 15.2383 159.34 15.2383C159.848 15.2383 160.307 15.3099 160.717 15.4531C161.133 15.5898 161.488 15.8145 161.781 16.127C162.081 16.4395 162.309 16.8464 162.465 17.3477C162.621 17.8424 162.699 18.4512 162.699 19.1738V26H160.336V19.1641C160.336 18.6562 160.261 18.2559 160.111 17.9629C159.968 17.6634 159.757 17.4518 159.477 17.3281C159.203 17.1979 158.861 17.1328 158.451 17.1328C158.048 17.1328 157.686 17.2174 157.367 17.3867C157.048 17.556 156.778 17.7871 156.557 18.0801C156.342 18.373 156.176 18.7116 156.059 19.0957C155.941 19.4798 155.883 19.89 155.883 20.3262ZM164.652 20.834V20.6094C164.652 19.8477 164.763 19.1413 164.984 18.4902C165.206 17.8327 165.525 17.263 165.941 16.7812C166.365 16.293 166.879 15.9154 167.484 15.6484C168.096 15.375 168.786 15.2383 169.555 15.2383C170.329 15.2383 171.02 15.375 171.625 15.6484C172.237 15.9154 172.755 16.293 173.178 16.7812C173.601 17.263 173.923 17.8327 174.145 18.4902C174.366 19.1413 174.477 19.8477 174.477 20.6094V20.834C174.477 21.5957 174.366 22.3021 174.145 22.9531C173.923 23.6042 173.601 24.1738 173.178 24.6621C172.755 25.1439 172.24 25.5215 171.635 25.7949C171.029 26.0618 170.342 26.1953 169.574 26.1953C168.799 26.1953 168.106 26.0618 167.494 25.7949C166.889 25.5215 166.374 25.1439 165.951 24.6621C165.528 24.1738 165.206 23.6042 164.984 22.9531C164.763 22.3021 164.652 21.5957 164.652 20.834ZM167.006 20.6094V20.834C167.006 21.3092 167.055 21.7585 167.152 22.1816C167.25 22.6048 167.403 22.9759 167.611 23.2949C167.82 23.6139 168.087 23.8646 168.412 24.0469C168.738 24.2292 169.125 24.3203 169.574 24.3203C170.01 24.3203 170.388 24.2292 170.707 24.0469C171.033 23.8646 171.299 23.6139 171.508 23.2949C171.716 22.9759 171.869 22.6048 171.967 22.1816C172.071 21.7585 172.123 21.3092 172.123 20.834V20.6094C172.123 20.1406 172.071 19.6979 171.967 19.2812C171.869 18.8581 171.713 18.4837 171.498 18.1582C171.29 17.8327 171.023 17.5788 170.697 17.3965C170.378 17.2077 169.997 17.1133 169.555 17.1133C169.112 17.1133 168.728 17.2077 168.402 17.3965C168.083 17.5788 167.82 17.8327 167.611 18.1582C167.403 18.4837 167.25 18.8581 167.152 19.2812C167.055 19.6979 167.006 20.1406 167.006 20.6094ZM179.73 24.1348L182.318 15.4336H184.76L181.088 26H179.564L179.73 24.1348ZM177.748 15.4336L180.385 24.1738L180.512 26H178.988L175.297 15.4336H177.748Z" fill="#E75D0E"/>
<circle cx="26.5" cy="26.5" r="21.5" fill="#E75D0E" stroke="#E75D0E" stroke-width="10"/>
<path d="M15 40.5217V21.9017H17C22.5228 21.9017 27 26.3789 27 31.9017V42.9017" stroke="white" stroke-width="1.5" stroke-linecap="round"/>
<path d="M38 40.5217V21.9017H37C31.4772 21.9017 27 26.3789 27 31.9017V42.9017" stroke="white" stroke-width="1.5" stroke-linecap="round"/>
<rect x="34" y="14" width="2" height="3" fill="white"/>
<path d="M26.498 9.9314L27.5848 11.5519L5.08514 26.6409C4.48493 25.7459 4.7239 24.5338 5.61888 23.9336L26.498 9.9314Z" fill="white"/>
<path d="M26.5049 9.93307L25.4182 11.5535L47.9154 26.6408C48.5155 25.7459 48.2766 24.5339 47.3816 23.9337L26.5049 9.93307Z" fill="white"/>
</svg>
