<svg width="30" height="28" viewBox="0 0 30 28" fill="none" xmlns="http://www.w3.org/2000/svg">
<path d="M14.6154 27.3742V25.6645H25.6408C25.9186 25.6645 26.159 25.5769 26.3621 25.4017C26.5651 25.2261 26.6667 24.9959 26.6667 24.711V12.9338C26.6667 9.73161 25.5187 7.05696 23.2229 4.90989C20.9268 2.76311 18.1858 1.68972 15 1.68972C11.8142 1.68972 9.07319 2.76311 6.77708 4.90989C4.48125 7.05696 3.33333 9.73161 3.33333 12.9338V22.6397H2.5C1.81833 22.6397 1.23125 22.4035 0.73875 21.931C0.24625 21.4589 0 20.8732 0 20.1739V16.9516C0 16.441 0.161805 15.9879 0.485416 15.5924C0.809305 15.1966 1.20306 14.8749 1.66667 14.6273L1.69542 12.5265C1.74681 10.7422 2.14056 9.08949 2.87667 7.56844C3.61278 6.04712 4.58181 4.72311 5.78375 3.59644C6.98569 2.46976 8.38208 1.59198 9.97292 0.963106C11.5638 0.333945 13.2394 0.0193634 15 0.0193634C16.7606 0.0193634 18.4347 0.333945 20.0225 0.963106C21.61 1.59198 23.0064 2.46819 24.2117 3.59173C25.4167 4.71499 26.3857 6.03714 27.1187 7.55819C27.8515 9.07951 28.2468 10.7322 28.3046 12.5162L28.3333 14.5747C28.7756 14.7873 29.1639 15.0734 29.4983 15.433C29.8328 15.7923 30 16.224 30 16.728V20.4303C30 20.9344 29.8328 21.3663 29.4983 21.7259C29.1639 22.0852 28.7756 22.3711 28.3333 22.5837V24.711C28.3333 25.4541 28.0711 26.0837 27.5467 26.5997C27.0219 27.116 26.3867 27.3742 25.6408 27.3742H14.6154ZM10.6408 16.3271C10.2969 16.3271 9.99736 16.2072 9.74208 15.9672C9.48681 15.727 9.35917 15.4305 9.35917 15.0778C9.35917 14.7247 9.48681 14.4228 9.74208 14.1721C9.99736 13.921 10.2969 13.7955 10.6408 13.7955C10.985 13.7955 11.2847 13.921 11.54 14.1721C11.7953 14.4228 11.9229 14.7247 11.9229 15.0778C11.9229 15.4305 11.7953 15.727 11.54 15.9672C11.2847 16.2072 10.985 16.3271 10.6408 16.3271ZM19.3592 16.3271C19.015 16.3271 18.7153 16.2072 18.46 15.9672C18.2047 15.727 18.0771 15.4305 18.0771 15.0778C18.0771 14.7247 18.2047 14.4228 18.46 14.1721C18.7153 13.921 19.015 13.7955 19.3592 13.7955C19.7031 13.7955 20.0026 13.921 20.2579 14.1721C20.5132 14.4228 20.6408 14.7247 20.6408 15.0778C20.6408 15.4305 20.5132 15.727 20.2579 15.9672C20.0026 16.2072 19.7031 16.3271 19.3592 16.3271ZM6.19542 13.6113C6.04375 11.0511 6.84722 8.86908 8.60583 7.06537C10.3644 5.26138 12.5236 4.35938 15.0833 4.35938C17.235 4.35938 19.1415 5.02188 20.8029 6.34688C22.4643 7.67188 23.4788 9.41276 23.8463 11.5695C21.639 11.541 19.5904 10.9634 17.7004 9.83676C15.8104 8.71008 14.36 7.14288 13.3492 5.13515C12.9475 7.10783 12.1115 8.83674 10.8413 10.3219C9.57097 11.8067 8.02236 12.9032 6.19542 13.6113Z" fill="white"/>
</svg>
