<svg width="104" height="12" viewBox="0 0 104 12" fill="none" xmlns="http://www.w3.org/2000/svg">
<path d="M2.49512 5.10742V11H0.847656V3.60352H2.39941L2.49512 5.10742ZM2.22852 7.02832L1.66797 7.02148C1.66797 6.51107 1.73177 6.03939 1.85938 5.60645C1.98698 5.1735 2.17383 4.79753 2.41992 4.47852C2.66602 4.15495 2.97135 3.90658 3.33594 3.7334C3.70508 3.55566 4.13118 3.4668 4.61426 3.4668C4.9515 3.4668 5.25911 3.51693 5.53711 3.61719C5.81966 3.71289 6.06348 3.86556 6.26855 4.0752C6.47819 4.28483 6.6377 4.55371 6.74707 4.88184C6.861 5.20996 6.91797 5.60645 6.91797 6.07129V11H5.27051V6.21484C5.27051 5.85482 5.21582 5.57227 5.10645 5.36719C5.00163 5.16211 4.84896 5.01628 4.64844 4.92969C4.45247 4.83854 4.21777 4.79297 3.94434 4.79297C3.63444 4.79297 3.37012 4.85221 3.15137 4.9707C2.93717 5.08919 2.76172 5.25098 2.625 5.45605C2.48828 5.66113 2.38802 5.89811 2.32422 6.16699C2.26042 6.43587 2.22852 6.72298 2.22852 7.02832ZM6.81543 6.59082L6.04297 6.76172C6.04297 6.3151 6.10449 5.89355 6.22754 5.49707C6.35514 5.09603 6.53971 4.74512 6.78125 4.44434C7.02734 4.139 7.3304 3.89974 7.69043 3.72656C8.05046 3.55339 8.46289 3.4668 8.92773 3.4668C9.30599 3.4668 9.64323 3.51921 9.93945 3.62402C10.2402 3.72428 10.4954 3.88379 10.7051 4.10254C10.9147 4.32129 11.0742 4.60612 11.1836 4.95703C11.293 5.30339 11.3477 5.72266 11.3477 6.21484V11H9.69336V6.20801C9.69336 5.83431 9.63867 5.54492 9.5293 5.33984C9.42448 5.13477 9.27409 4.99349 9.07812 4.91602C8.88216 4.83398 8.64746 4.79297 8.37402 4.79297C8.11882 4.79297 7.89323 4.84082 7.69727 4.93652C7.50586 5.02767 7.34408 5.15755 7.21191 5.32617C7.07975 5.49023 6.97949 5.67936 6.91113 5.89355C6.84733 6.10775 6.81543 6.34017 6.81543 6.59082ZM14.8066 3.60352V11H13.1523V3.60352H14.8066ZM13.043 1.66211C13.043 1.41146 13.125 1.2041 13.2891 1.04004C13.4577 0.871419 13.6901 0.787109 13.9863 0.787109C14.278 0.787109 14.5081 0.871419 14.6768 1.04004C14.8454 1.2041 14.9297 1.41146 14.9297 1.66211C14.9297 1.9082 14.8454 2.11328 14.6768 2.27734C14.5081 2.44141 14.278 2.52344 13.9863 2.52344C13.6901 2.52344 13.4577 2.44141 13.2891 2.27734C13.125 2.11328 13.043 1.9082 13.043 1.66211ZM18.7031 1.04688V11H16.6523V1.04688H18.7031ZM24.6641 1.04688L20.7197 5.96191L18.4434 8.40918L18.0742 6.46777L19.6123 4.3623L22.1484 1.04688H24.6641ZM22.333 11L19.4004 6.39941L20.918 5.12793L24.7598 11H22.333ZM29.4219 9.33203V6.03711C29.4219 5.80013 29.3831 5.59733 29.3057 5.42871C29.2282 5.25553 29.1074 5.12109 28.9434 5.02539C28.7839 4.92969 28.5765 4.88184 28.3213 4.88184C28.1025 4.88184 27.9134 4.92057 27.7539 4.99805C27.5944 5.07096 27.4714 5.17806 27.3848 5.31934C27.2982 5.45605 27.2549 5.61784 27.2549 5.80469H25.2861C25.2861 5.49023 25.359 5.19173 25.5049 4.90918C25.6507 4.62663 25.8626 4.37826 26.1406 4.16406C26.4186 3.94531 26.749 3.77441 27.1318 3.65137C27.5192 3.52832 27.9521 3.4668 28.4307 3.4668C29.0049 3.4668 29.5153 3.5625 29.9619 3.75391C30.4085 3.94531 30.7594 4.23242 31.0146 4.61523C31.2744 4.99805 31.4043 5.47656 31.4043 6.05078V9.21582C31.4043 9.62142 31.4294 9.9541 31.4795 10.2139C31.5296 10.4691 31.6025 10.6924 31.6982 10.8838V11H29.709C29.6133 10.7995 29.5404 10.5488 29.4902 10.248C29.4447 9.94271 29.4219 9.63737 29.4219 9.33203ZM29.6816 6.49512L29.6953 7.60938H28.5947C28.335 7.60938 28.1094 7.639 27.918 7.69824C27.7266 7.75749 27.5693 7.8418 27.4463 7.95117C27.3232 8.05599 27.2321 8.17904 27.1729 8.32031C27.1182 8.46159 27.0908 8.61654 27.0908 8.78516C27.0908 8.95378 27.1296 9.10645 27.207 9.24316C27.2845 9.37533 27.3962 9.48014 27.542 9.55762C27.6878 9.63053 27.8587 9.66699 28.0547 9.66699C28.3509 9.66699 28.6084 9.60775 28.8271 9.48926C29.0459 9.37077 29.2145 9.22493 29.333 9.05176C29.4561 8.87858 29.5199 8.71452 29.5244 8.55957L30.0439 9.39355C29.971 9.5804 29.8708 9.77409 29.7432 9.97461C29.6201 10.1751 29.4629 10.3643 29.2715 10.542C29.0801 10.7152 28.8499 10.8587 28.5811 10.9727C28.3122 11.082 27.9932 11.1367 27.624 11.1367C27.1546 11.1367 26.7285 11.0433 26.3457 10.8564C25.9674 10.665 25.6667 10.403 25.4434 10.0703C25.2246 9.73307 25.1152 9.35026 25.1152 8.92188C25.1152 8.53451 25.1882 8.19043 25.334 7.88965C25.4798 7.58887 25.694 7.33594 25.9766 7.13086C26.2637 6.92122 26.6214 6.764 27.0498 6.65918C27.4782 6.5498 27.9749 6.49512 28.54 6.49512H29.6816ZM38.8076 9.46191V11H33.1885V9.46191H38.8076ZM38.6982 4.73828L33.9814 11H32.6621V9.83105L37.3584 3.60352H38.6982V4.73828ZM38.001 3.60352V5.14844H32.7715V3.60352H38.001ZM44.0371 9.33203V6.03711C44.0371 5.80013 43.9984 5.59733 43.9209 5.42871C43.8434 5.25553 43.7227 5.12109 43.5586 5.02539C43.3991 4.92969 43.1917 4.88184 42.9365 4.88184C42.7178 4.88184 42.5286 4.92057 42.3691 4.99805C42.2096 5.07096 42.0866 5.17806 42 5.31934C41.9134 5.45605 41.8701 5.61784 41.8701 5.80469H39.9014C39.9014 5.49023 39.9743 5.19173 40.1201 4.90918C40.266 4.62663 40.4779 4.37826 40.7559 4.16406C41.0339 3.94531 41.3643 3.77441 41.7471 3.65137C42.1344 3.52832 42.5674 3.4668 43.0459 3.4668C43.6201 3.4668 44.1305 3.5625 44.5771 3.75391C45.0238 3.94531 45.3747 4.23242 45.6299 4.61523C45.8896 4.99805 46.0195 5.47656 46.0195 6.05078V9.21582C46.0195 9.62142 46.0446 9.9541 46.0947 10.2139C46.1449 10.4691 46.2178 10.6924 46.3135 10.8838V11H44.3242C44.2285 10.7995 44.1556 10.5488 44.1055 10.248C44.0599 9.94271 44.0371 9.63737 44.0371 9.33203ZM44.2969 6.49512L44.3105 7.60938H43.21C42.9502 7.60938 42.7246 7.639 42.5332 7.69824C42.3418 7.75749 42.1846 7.8418 42.0615 7.95117C41.9385 8.05599 41.8473 8.17904 41.7881 8.32031C41.7334 8.46159 41.7061 8.61654 41.7061 8.78516C41.7061 8.95378 41.7448 9.10645 41.8223 9.24316C41.8997 9.37533 42.0114 9.48014 42.1572 9.55762C42.3031 9.63053 42.474 9.66699 42.6699 9.66699C42.9661 9.66699 43.2236 9.60775 43.4424 9.48926C43.6611 9.37077 43.8298 9.22493 43.9482 9.05176C44.0713 8.87858 44.1351 8.71452 44.1396 8.55957L44.6592 9.39355C44.5863 9.5804 44.486 9.77409 44.3584 9.97461C44.2354 10.1751 44.0781 10.3643 43.8867 10.542C43.6953 10.7152 43.4652 10.8587 43.1963 10.9727C42.9274 11.082 42.6084 11.1367 42.2393 11.1367C41.7699 11.1367 41.3438 11.0433 40.9609 10.8564C40.5827 10.665 40.2819 10.403 40.0586 10.0703C39.8398 9.73307 39.7305 9.35026 39.7305 8.92188C39.7305 8.53451 39.8034 8.19043 39.9492 7.88965C40.0951 7.58887 40.3092 7.33594 40.5918 7.13086C40.8789 6.92122 41.2367 6.764 41.665 6.65918C42.0934 6.5498 42.5902 6.49512 43.1553 6.49512H44.2969ZM51.1807 6.02344V7.45215H47.4414V6.02344H51.1807ZM56.9092 8.99707C56.9092 8.83301 56.8682 8.6849 56.7861 8.55273C56.7041 8.41602 56.5469 8.29297 56.3145 8.18359C56.0866 8.07422 55.7493 7.97396 55.3027 7.88281C54.9108 7.79622 54.5508 7.69368 54.2227 7.5752C53.8991 7.45215 53.6211 7.30404 53.3887 7.13086C53.1562 6.95768 52.9762 6.7526 52.8486 6.51562C52.721 6.27865 52.6572 6.00521 52.6572 5.69531C52.6572 5.39453 52.7233 5.1097 52.8555 4.84082C52.9876 4.57194 53.1768 4.33496 53.4229 4.12988C53.6689 3.9248 53.9674 3.76302 54.3184 3.64453C54.6738 3.52604 55.0703 3.4668 55.5078 3.4668C56.1276 3.4668 56.6585 3.57161 57.1006 3.78125C57.5472 3.98633 57.889 4.2666 58.126 4.62207C58.363 4.97298 58.4814 5.36947 58.4814 5.81152H56.834C56.834 5.61556 56.7839 5.43327 56.6836 5.26465C56.5879 5.09147 56.4421 4.95247 56.2461 4.84766C56.0501 4.73828 55.804 4.68359 55.5078 4.68359C55.2253 4.68359 54.9906 4.72917 54.8037 4.82031C54.6214 4.9069 54.4847 5.02083 54.3936 5.16211C54.307 5.30339 54.2637 5.45833 54.2637 5.62695C54.2637 5.75 54.2865 5.86165 54.332 5.96191C54.3822 6.05762 54.4642 6.14648 54.5781 6.22852C54.6921 6.30599 54.847 6.37891 55.043 6.44727C55.2435 6.51562 55.4941 6.58171 55.7949 6.64551C56.36 6.764 56.8454 6.91667 57.251 7.10352C57.6611 7.28581 57.9756 7.52279 58.1943 7.81445C58.4131 8.10156 58.5225 8.46615 58.5225 8.9082C58.5225 9.23633 58.4518 9.53711 58.3105 9.81055C58.1738 10.0794 57.9733 10.3141 57.709 10.5146C57.4447 10.7106 57.1279 10.8633 56.7588 10.9727C56.3942 11.082 55.984 11.1367 55.5283 11.1367C54.8584 11.1367 54.291 11.0182 53.8262 10.7812C53.3613 10.5397 53.0081 10.2321 52.7666 9.8584C52.5296 9.48014 52.4111 9.08822 52.4111 8.68262H54.0039C54.0221 8.98796 54.1064 9.23177 54.2568 9.41406C54.4118 9.5918 54.6032 9.72168 54.8311 9.80371C55.0635 9.88118 55.3027 9.91992 55.5488 9.91992C55.8451 9.91992 56.0934 9.88118 56.2939 9.80371C56.4945 9.72168 56.6471 9.6123 56.752 9.47559C56.8568 9.33431 56.9092 9.1748 56.9092 8.99707ZM63.2256 11.1367C62.6787 11.1367 62.1842 11.0479 61.7422 10.8701C61.3047 10.6878 60.931 10.4349 60.6211 10.1113C60.3158 9.78776 60.0811 9.40723 59.917 8.96973C59.7529 8.53223 59.6709 8.06055 59.6709 7.55469V7.28125C59.6709 6.70247 59.7552 6.17839 59.9238 5.70898C60.0924 5.23958 60.3271 4.83854 60.6279 4.50586C60.9287 4.16862 61.2842 3.91113 61.6943 3.7334C62.1045 3.55566 62.5488 3.4668 63.0273 3.4668C63.556 3.4668 64.0186 3.55566 64.415 3.7334C64.8115 3.91113 65.1396 4.16178 65.3994 4.48535C65.6637 4.80436 65.8597 5.1849 65.9873 5.62695C66.1195 6.06901 66.1855 6.55664 66.1855 7.08984V7.79395H60.4707V6.61133H64.5586V6.48145C64.5495 6.18522 64.4902 5.90723 64.3809 5.64746C64.276 5.3877 64.1143 5.17806 63.8955 5.01855C63.6768 4.85905 63.3851 4.7793 63.0205 4.7793C62.7471 4.7793 62.5033 4.83854 62.2891 4.95703C62.0794 5.07096 61.904 5.2373 61.7627 5.45605C61.6214 5.6748 61.512 5.93913 61.4346 6.24902C61.3617 6.55436 61.3252 6.89844 61.3252 7.28125V7.55469C61.3252 7.87826 61.3685 8.17904 61.4551 8.45703C61.5462 8.73047 61.6784 8.96973 61.8516 9.1748C62.0247 9.37988 62.2344 9.54167 62.4805 9.66016C62.7266 9.77409 63.0068 9.83105 63.3213 9.83105C63.7178 9.83105 64.071 9.7513 64.3809 9.5918C64.6908 9.43229 64.9596 9.20671 65.1875 8.91504L66.0557 9.75586C65.8962 9.98828 65.6888 10.2116 65.4336 10.4258C65.1784 10.6354 64.8662 10.8063 64.4971 10.9385C64.1325 11.0706 63.7087 11.1367 63.2256 11.1367ZM69.125 5.01172V11H67.4775V3.60352H69.0498L69.125 5.01172ZM71.3877 3.55566L71.374 5.08691C71.2738 5.06868 71.1644 5.05501 71.0459 5.0459C70.932 5.03678 70.818 5.03223 70.7041 5.03223C70.4215 5.03223 70.1732 5.07324 69.959 5.15527C69.7448 5.23275 69.5648 5.34668 69.4189 5.49707C69.2777 5.6429 69.1683 5.82064 69.0908 6.03027C69.0133 6.23991 68.9678 6.47461 68.9541 6.73438L68.5781 6.76172C68.5781 6.29688 68.6237 5.86621 68.7148 5.46973C68.806 5.07324 68.9427 4.72461 69.125 4.42383C69.3118 4.12305 69.5443 3.88835 69.8223 3.71973C70.1048 3.55111 70.4307 3.4668 70.7998 3.4668C70.9001 3.4668 71.0072 3.47591 71.1211 3.49414C71.2396 3.51237 71.3285 3.53288 71.3877 3.55566ZM74.9492 9.69434L76.7607 3.60352H78.4697L75.8994 11H74.833L74.9492 9.69434ZM73.5615 3.60352L75.4072 9.72168L75.4961 11H74.4297L71.8457 3.60352H73.5615ZM81.252 3.60352V11H79.5977V3.60352H81.252ZM79.4883 1.66211C79.4883 1.41146 79.5703 1.2041 79.7344 1.04004C79.903 0.871419 80.1354 0.787109 80.4316 0.787109C80.7233 0.787109 80.9535 0.871419 81.1221 1.04004C81.2907 1.2041 81.375 1.41146 81.375 1.66211C81.375 1.9082 81.2907 2.11328 81.1221 2.27734C80.9535 2.44141 80.7233 2.52344 80.4316 2.52344C80.1354 2.52344 79.903 2.44141 79.7344 2.27734C79.5703 2.11328 79.4883 1.9082 79.4883 1.66211ZM86.0781 9.82422C86.347 9.82422 86.5885 9.77181 86.8027 9.66699C87.0215 9.55762 87.1969 9.40723 87.3291 9.21582C87.4658 9.02441 87.541 8.80339 87.5547 8.55273H89.1064C89.0973 9.03125 88.9561 9.46647 88.6826 9.8584C88.4092 10.2503 88.0469 10.5625 87.5957 10.7949C87.1445 11.0228 86.6455 11.1367 86.0986 11.1367C85.5335 11.1367 85.0413 11.041 84.6221 10.8496C84.2028 10.6536 83.8542 10.3848 83.5762 10.043C83.2982 9.70117 83.0885 9.30697 82.9473 8.86035C82.8105 8.41374 82.7422 7.93522 82.7422 7.4248V7.18555C82.7422 6.67513 82.8105 6.19661 82.9473 5.75C83.0885 5.29883 83.2982 4.90234 83.5762 4.56055C83.8542 4.21875 84.2028 3.95215 84.6221 3.76074C85.0413 3.56478 85.5312 3.4668 86.0918 3.4668C86.6842 3.4668 87.2038 3.58529 87.6504 3.82227C88.097 4.05469 88.4479 4.38053 88.7031 4.7998C88.9629 5.21452 89.0973 5.69759 89.1064 6.24902H87.5547C87.541 5.97559 87.4727 5.72949 87.3496 5.51074C87.2311 5.28743 87.0625 5.1097 86.8438 4.97754C86.6296 4.84538 86.3721 4.7793 86.0713 4.7793C85.7386 4.7793 85.4629 4.84766 85.2441 4.98438C85.0254 5.11654 84.8545 5.29883 84.7314 5.53125C84.6084 5.75911 84.5195 6.0166 84.4648 6.30371C84.4147 6.58626 84.3896 6.88021 84.3896 7.18555V7.4248C84.3896 7.73014 84.4147 8.02637 84.4648 8.31348C84.515 8.60059 84.6016 8.85807 84.7246 9.08594C84.8522 9.30924 85.0254 9.48926 85.2441 9.62598C85.4629 9.75814 85.7409 9.82422 86.0781 9.82422ZM93.6318 11.1367C93.085 11.1367 92.5905 11.0479 92.1484 10.8701C91.7109 10.6878 91.3372 10.4349 91.0273 10.1113C90.722 9.78776 90.4873 9.40723 90.3232 8.96973C90.1592 8.53223 90.0771 8.06055 90.0771 7.55469V7.28125C90.0771 6.70247 90.1615 6.17839 90.3301 5.70898C90.4987 5.23958 90.7334 4.83854 91.0342 4.50586C91.335 4.16862 91.6904 3.91113 92.1006 3.7334C92.5107 3.55566 92.9551 3.4668 93.4336 3.4668C93.9622 3.4668 94.4248 3.55566 94.8213 3.7334C95.2178 3.91113 95.5459 4.16178 95.8057 4.48535C96.07 4.80436 96.266 5.1849 96.3936 5.62695C96.5257 6.06901 96.5918 6.55664 96.5918 7.08984V7.79395H90.877V6.61133H94.9648V6.48145C94.9557 6.18522 94.8965 5.90723 94.7871 5.64746C94.6823 5.3877 94.5205 5.17806 94.3018 5.01855C94.083 4.85905 93.7913 4.7793 93.4268 4.7793C93.1533 4.7793 92.9095 4.83854 92.6953 4.95703C92.4857 5.07096 92.3102 5.2373 92.1689 5.45605C92.0277 5.6748 91.9183 5.93913 91.8408 6.24902C91.7679 6.55436 91.7314 6.89844 91.7314 7.28125V7.55469C91.7314 7.87826 91.7747 8.17904 91.8613 8.45703C91.9525 8.73047 92.0846 8.96973 92.2578 9.1748C92.431 9.37988 92.6406 9.54167 92.8867 9.66016C93.1328 9.77409 93.4131 9.83105 93.7275 9.83105C94.124 9.83105 94.4772 9.7513 94.7871 9.5918C95.097 9.43229 95.3659 9.20671 95.5938 8.91504L96.4619 9.75586C96.3024 9.98828 96.0951 10.2116 95.8398 10.4258C95.5846 10.6354 95.2725 10.8063 94.9033 10.9385C94.5387 11.0706 94.1149 11.1367 93.6318 11.1367ZM102.026 8.99707C102.026 8.83301 101.985 8.6849 101.903 8.55273C101.821 8.41602 101.664 8.29297 101.432 8.18359C101.204 8.07422 100.867 7.97396 100.42 7.88281C100.028 7.79622 99.668 7.69368 99.3398 7.5752C99.0163 7.45215 98.7383 7.30404 98.5059 7.13086C98.2734 6.95768 98.0934 6.7526 97.9658 6.51562C97.8382 6.27865 97.7744 6.00521 97.7744 5.69531C97.7744 5.39453 97.8405 5.1097 97.9727 4.84082C98.1048 4.57194 98.2939 4.33496 98.54 4.12988C98.7861 3.9248 99.0846 3.76302 99.4355 3.64453C99.791 3.52604 100.188 3.4668 100.625 3.4668C101.245 3.4668 101.776 3.57161 102.218 3.78125C102.664 3.98633 103.006 4.2666 103.243 4.62207C103.48 4.97298 103.599 5.36947 103.599 5.81152H101.951C101.951 5.61556 101.901 5.43327 101.801 5.26465C101.705 5.09147 101.559 4.95247 101.363 4.84766C101.167 4.73828 100.921 4.68359 100.625 4.68359C100.342 4.68359 100.108 4.72917 99.9209 4.82031C99.7386 4.9069 99.6019 5.02083 99.5107 5.16211C99.4242 5.30339 99.3809 5.45833 99.3809 5.62695C99.3809 5.75 99.4036 5.86165 99.4492 5.96191C99.4993 6.05762 99.5814 6.14648 99.6953 6.22852C99.8092 6.30599 99.9642 6.37891 100.16 6.44727C100.361 6.51562 100.611 6.58171 100.912 6.64551C101.477 6.764 101.963 6.91667 102.368 7.10352C102.778 7.28581 103.093 7.52279 103.312 7.81445C103.53 8.10156 103.64 8.46615 103.64 8.9082C103.64 9.23633 103.569 9.53711 103.428 9.81055C103.291 10.0794 103.09 10.3141 102.826 10.5146C102.562 10.7106 102.245 10.8633 101.876 10.9727C101.511 11.082 101.101 11.1367 100.646 11.1367C99.9756 11.1367 99.4082 11.0182 98.9434 10.7812C98.4785 10.5397 98.1253 10.2321 97.8838 9.8584C97.6468 9.48014 97.5283 9.08822 97.5283 8.68262H99.1211C99.1393 8.98796 99.2236 9.23177 99.374 9.41406C99.529 9.5918 99.7204 9.72168 99.9482 9.80371C100.181 9.88118 100.42 9.91992 100.666 9.91992C100.962 9.91992 101.211 9.88118 101.411 9.80371C101.612 9.72168 101.764 9.6123 101.869 9.47559C101.974 9.33431 102.026 9.1748 102.026 8.99707Z" fill="#E75D0E"/>
</svg>
