<svg width="106" height="7" viewBox="0 0 106 7" fill="none" xmlns="http://www.w3.org/2000/svg">
<path d="M1.64941 5.44922C1.75879 5.44922 1.85645 5.42773 1.94238 5.38477C2.02832 5.3418 2.09668 5.28125 2.14746 5.20312C2.2002 5.125 2.22852 5.03418 2.23242 4.93066H2.96191C2.95801 5.14551 2.89746 5.33789 2.78027 5.50781C2.66309 5.67773 2.50684 5.8125 2.31152 5.91211C2.11816 6.00977 1.90137 6.05859 1.66113 6.05859C1.41699 6.05859 1.2041 6.01758 1.02246 5.93555C0.84082 5.85352 0.689453 5.73926 0.568359 5.59277C0.449219 5.44629 0.359375 5.27637 0.298828 5.08301C0.240234 4.88965 0.210938 4.68262 0.210938 4.46191V4.36816C0.210938 4.14746 0.240234 3.94043 0.298828 3.74707C0.359375 3.55371 0.449219 3.38379 0.568359 3.2373C0.689453 3.09082 0.84082 2.97656 1.02246 2.89453C1.2041 2.8125 1.41602 2.77148 1.6582 2.77148C1.91406 2.77148 2.13867 2.82129 2.33203 2.9209C2.52734 3.02051 2.67969 3.16113 2.78906 3.34277C2.90039 3.52441 2.95801 3.73828 2.96191 3.98438H2.23242C2.22852 3.87109 2.20312 3.76953 2.15625 3.67969C2.10938 3.58984 2.04297 3.51758 1.95703 3.46289C1.87109 3.4082 1.7666 3.38086 1.64355 3.38086C1.5127 3.38086 1.40332 3.4082 1.31543 3.46289C1.22949 3.51758 1.16211 3.59277 1.11328 3.68848C1.06641 3.78223 1.0332 3.8877 1.01367 4.00488C0.996094 4.12012 0.987305 4.24121 0.987305 4.36816V4.46191C0.987305 4.59082 0.996094 4.71387 1.01367 4.83105C1.0332 4.94824 1.06641 5.05371 1.11328 5.14746C1.16211 5.23926 1.22949 5.3125 1.31543 5.36719C1.40332 5.42188 1.51465 5.44922 1.64941 5.44922ZM3.33984 4.44727V4.38574C3.33984 4.15332 3.37305 3.93945 3.43945 3.74414C3.50586 3.54688 3.60254 3.37598 3.72949 3.23145C3.85645 3.08691 4.01172 2.97461 4.19531 2.89453C4.37891 2.8125 4.58789 2.77148 4.82227 2.77148C5.06055 2.77148 5.27148 2.8125 5.45508 2.89453C5.64062 2.97461 5.79688 3.08691 5.92383 3.23145C6.05078 3.37598 6.14746 3.54688 6.21387 3.74414C6.28027 3.93945 6.31348 4.15332 6.31348 4.38574V4.44727C6.31348 4.67773 6.28027 4.8916 6.21387 5.08887C6.14746 5.28418 6.05078 5.45508 5.92383 5.60156C5.79688 5.74609 5.6416 5.8584 5.45801 5.93848C5.27441 6.01855 5.06445 6.05859 4.82812 6.05859C4.59375 6.05859 4.38379 6.01855 4.19824 5.93848C4.0127 5.8584 3.85645 5.74609 3.72949 5.60156C3.60254 5.45508 3.50586 5.28418 3.43945 5.08887C3.37305 4.8916 3.33984 4.67773 3.33984 4.44727ZM4.11328 4.38574V4.44727C4.11328 4.58594 4.12695 4.71582 4.1543 4.83691C4.18164 4.95801 4.22363 5.06445 4.28027 5.15625C4.33691 5.24805 4.41016 5.32031 4.5 5.37305C4.5918 5.42383 4.70117 5.44922 4.82812 5.44922C4.95312 5.44922 5.06055 5.42383 5.15039 5.37305C5.24023 5.32031 5.31348 5.24805 5.37012 5.15625C5.42871 5.06445 5.47168 4.95801 5.49902 4.83691C5.52637 4.71582 5.54004 4.58594 5.54004 4.44727V4.38574C5.54004 4.24902 5.52637 4.12109 5.49902 4.00195C5.47168 3.88086 5.42871 3.77441 5.37012 3.68262C5.31348 3.58887 5.23926 3.51562 5.14746 3.46289C5.05762 3.4082 4.94922 3.38086 4.82227 3.38086C4.69727 3.38086 4.58984 3.4082 4.5 3.46289C4.41016 3.51562 4.33691 3.58887 4.28027 3.68262C4.22363 3.77441 4.18164 3.88086 4.1543 4.00195C4.12695 4.12109 4.11328 4.24902 4.11328 4.38574ZM7.63477 3.50684V6H6.86133V2.83008H7.58789L7.63477 3.50684ZM7.51172 4.30078H7.2832C7.28516 4.07031 7.31641 3.86133 7.37695 3.67383C7.4375 3.48633 7.52246 3.3252 7.63184 3.19043C7.74316 3.05566 7.875 2.95215 8.02734 2.87988C8.17969 2.80762 8.34961 2.77148 8.53711 2.77148C8.68945 2.77148 8.82715 2.79297 8.9502 2.83594C9.07324 2.87891 9.17871 2.94727 9.2666 3.04102C9.35645 3.13477 9.4248 3.25781 9.47168 3.41016C9.52051 3.56055 9.54492 3.74609 9.54492 3.9668V6H8.76562V3.96094C8.76562 3.81641 8.74414 3.70215 8.70117 3.61816C8.66016 3.53418 8.59961 3.47461 8.51953 3.43945C8.44141 3.4043 8.34473 3.38672 8.22949 3.38672C8.11035 3.38672 8.00586 3.41113 7.91602 3.45996C7.82812 3.50684 7.75391 3.57227 7.69336 3.65625C7.63477 3.74023 7.58984 3.83691 7.55859 3.94629C7.52734 4.05566 7.51172 4.17383 7.51172 4.30078ZM11.2412 6H10.4619V2.53711C10.4619 2.29883 10.5078 2.09863 10.5996 1.93652C10.6914 1.77246 10.8223 1.64844 10.9922 1.56445C11.1621 1.48047 11.3623 1.43848 11.5928 1.43848C11.6689 1.43848 11.7412 1.44336 11.8096 1.45312C11.8799 1.46289 11.9492 1.47656 12.0176 1.49414L12.0029 2.08301C11.9658 2.07324 11.9248 2.06641 11.8799 2.0625C11.8369 2.05859 11.7891 2.05664 11.7363 2.05664C11.6309 2.05664 11.541 2.0752 11.4668 2.1123C11.3926 2.14941 11.3359 2.2041 11.2969 2.27637C11.2598 2.34668 11.2412 2.43359 11.2412 2.53711V6ZM11.8828 2.83008V3.38672H9.98438V2.83008H11.8828ZM12.2227 4.44727V4.38574C12.2227 4.15332 12.2559 3.93945 12.3223 3.74414C12.3887 3.54688 12.4854 3.37598 12.6123 3.23145C12.7393 3.08691 12.8945 2.97461 13.0781 2.89453C13.2617 2.8125 13.4707 2.77148 13.7051 2.77148C13.9434 2.77148 14.1543 2.8125 14.3379 2.89453C14.5234 2.97461 14.6797 3.08691 14.8066 3.23145C14.9336 3.37598 15.0303 3.54688 15.0967 3.74414C15.1631 3.93945 15.1963 4.15332 15.1963 4.38574V4.44727C15.1963 4.67773 15.1631 4.8916 15.0967 5.08887C15.0303 5.28418 14.9336 5.45508 14.8066 5.60156C14.6797 5.74609 14.5244 5.8584 14.3408 5.93848C14.1572 6.01855 13.9473 6.05859 13.7109 6.05859C13.4766 6.05859 13.2666 6.01855 13.0811 5.93848C12.8955 5.8584 12.7393 5.74609 12.6123 5.60156C12.4854 5.45508 12.3887 5.28418 12.3223 5.08887C12.2559 4.8916 12.2227 4.67773 12.2227 4.44727ZM12.9961 4.38574V4.44727C12.9961 4.58594 13.0098 4.71582 13.0371 4.83691C13.0645 4.95801 13.1064 5.06445 13.1631 5.15625C13.2197 5.24805 13.293 5.32031 13.3828 5.37305C13.4746 5.42383 13.584 5.44922 13.7109 5.44922C13.8359 5.44922 13.9434 5.42383 14.0332 5.37305C14.123 5.32031 14.1963 5.24805 14.2529 5.15625C14.3115 5.06445 14.3545 4.95801 14.3818 4.83691C14.4092 4.71582 14.4229 4.58594 14.4229 4.44727V4.38574C14.4229 4.24902 14.4092 4.12109 14.3818 4.00195C14.3545 3.88086 14.3115 3.77441 14.2529 3.68262C14.1963 3.58887 14.1221 3.51562 14.0303 3.46289C13.9404 3.4082 13.832 3.38086 13.7051 3.38086C13.5801 3.38086 13.4727 3.4082 13.3828 3.46289C13.293 3.51562 13.2197 3.58887 13.1631 3.68262C13.1064 3.77441 13.0645 3.88086 13.0371 4.00195C13.0098 4.12109 12.9961 4.24902 12.9961 4.38574ZM16.5322 3.47754V6H15.7588V2.83008H16.4912L16.5322 3.47754ZM17.4961 2.80957L17.4844 3.53027C17.4414 3.52246 17.3926 3.5166 17.3379 3.5127C17.2852 3.50879 17.2354 3.50684 17.1885 3.50684C17.0693 3.50684 16.9648 3.52344 16.875 3.55664C16.7852 3.58789 16.71 3.63379 16.6494 3.69434C16.5908 3.75488 16.5459 3.8291 16.5146 3.91699C16.4834 4.00293 16.4658 4.10059 16.4619 4.20996L16.2949 4.18945C16.2949 3.98828 16.3154 3.80176 16.3564 3.62988C16.3975 3.45801 16.457 3.30762 16.5352 3.17871C16.6133 3.0498 16.7109 2.9502 16.8281 2.87988C16.9473 2.80762 17.084 2.77148 17.2383 2.77148C17.2812 2.77148 17.3271 2.77539 17.376 2.7832C17.4268 2.78906 17.4668 2.79785 17.4961 2.80957ZM19.5674 2.83008V3.38672H17.751V2.83008H19.5674ZM18.2373 2.05078H19.0137V5.08594C19.0137 5.17969 19.0264 5.25195 19.0518 5.30273C19.0771 5.35352 19.1152 5.3877 19.166 5.40527C19.2168 5.42285 19.2773 5.43164 19.3477 5.43164C19.3984 5.43164 19.4453 5.42871 19.4883 5.42285C19.5312 5.41699 19.5674 5.41113 19.5967 5.40527L19.5996 5.98535C19.5352 6.00684 19.4619 6.02441 19.3799 6.03809C19.2998 6.05176 19.209 6.05859 19.1074 6.05859C18.9336 6.05859 18.7812 6.0293 18.6504 5.9707C18.5195 5.91016 18.418 5.81348 18.3457 5.68066C18.2734 5.5459 18.2373 5.36816 18.2373 5.14746V2.05078ZM20.8125 5.30273L20.8066 5.83887C20.8066 6.04785 20.7549 6.25977 20.6514 6.47461C20.5479 6.68945 20.4141 6.86719 20.25 7.00781L19.8398 6.78223C19.8926 6.69434 19.9414 6.60547 19.9863 6.51562C20.0332 6.42578 20.0703 6.32812 20.0977 6.22266C20.127 6.11914 20.1416 6.00293 20.1416 5.87402V5.30273H20.8125ZM24.7324 5.13281C24.7324 5.06641 24.7148 5.00684 24.6797 4.9541C24.6445 4.90137 24.5781 4.85352 24.4805 4.81055C24.3848 4.76562 24.2441 4.72363 24.0586 4.68457C23.8945 4.64941 23.7432 4.60547 23.6045 4.55273C23.4658 4.5 23.3467 4.43652 23.2471 4.3623C23.1475 4.28613 23.0693 4.19727 23.0127 4.0957C22.958 3.99219 22.9307 3.87305 22.9307 3.73828C22.9307 3.60742 22.959 3.48438 23.0156 3.36914C23.0723 3.25195 23.1543 3.14941 23.2617 3.06152C23.3691 2.97168 23.5 2.90137 23.6543 2.85059C23.8086 2.79785 23.9824 2.77148 24.1758 2.77148C24.4453 2.77148 24.6768 2.81543 24.8701 2.90332C25.0654 2.99121 25.2148 3.1123 25.3184 3.2666C25.4219 3.41895 25.4736 3.59082 25.4736 3.78223H24.7002C24.7002 3.69824 24.6807 3.62207 24.6416 3.55371C24.6045 3.48535 24.5469 3.43066 24.4688 3.38965C24.3906 3.34668 24.292 3.3252 24.1729 3.3252C24.0654 3.3252 23.9746 3.34277 23.9004 3.37793C23.8281 3.41309 23.7734 3.45898 23.7363 3.51562C23.6992 3.57227 23.6807 3.63477 23.6807 3.70312C23.6807 3.75391 23.6904 3.7998 23.71 3.84082C23.7314 3.87988 23.7656 3.91602 23.8125 3.94922C23.8594 3.98242 23.9229 4.0127 24.0029 4.04004C24.085 4.06738 24.1855 4.09375 24.3047 4.11914C24.541 4.16602 24.7471 4.22852 24.9229 4.30664C25.1006 4.38281 25.2393 4.48438 25.3389 4.61133C25.4385 4.73828 25.4883 4.90039 25.4883 5.09766C25.4883 5.23828 25.458 5.36719 25.3975 5.48438C25.3369 5.59961 25.249 5.7002 25.1338 5.78613C25.0186 5.87207 24.8809 5.93945 24.7207 5.98828C24.5605 6.03516 24.3799 6.05859 24.1787 6.05859C23.8877 6.05859 23.6416 6.00684 23.4404 5.90332C23.2393 5.79785 23.0869 5.66504 22.9834 5.50488C22.8799 5.34277 22.8281 5.1748 22.8281 5.00098H23.5693C23.5752 5.12402 23.6084 5.22266 23.6689 5.29688C23.7295 5.37109 23.8057 5.4248 23.8975 5.45801C23.9912 5.48926 24.0898 5.50488 24.1934 5.50488C24.3105 5.50488 24.4092 5.48926 24.4893 5.45801C24.5693 5.4248 24.6299 5.38086 24.6709 5.32617C24.7119 5.26953 24.7324 5.20508 24.7324 5.13281ZM27.501 6.05859C27.2607 6.05859 27.0449 6.01953 26.8535 5.94141C26.6621 5.86328 26.499 5.75488 26.3643 5.61621C26.2314 5.47559 26.1289 5.3125 26.0566 5.12695C25.9863 4.93945 25.9512 4.73828 25.9512 4.52344V4.40625C25.9512 4.16211 25.9863 3.94043 26.0566 3.74121C26.127 3.54004 26.2266 3.36719 26.3555 3.22266C26.4844 3.07812 26.6387 2.9668 26.8184 2.88867C26.998 2.81055 27.1963 2.77148 27.4131 2.77148C27.6377 2.77148 27.8359 2.80957 28.0078 2.88574C28.1797 2.95996 28.3232 3.06543 28.4385 3.20215C28.5537 3.33887 28.6406 3.50293 28.6992 3.69434C28.7578 3.88379 28.7871 4.09375 28.7871 4.32422V4.64941H26.3027V4.11621H28.0254V4.05762C28.0215 3.93457 27.998 3.82227 27.9551 3.7207C27.9121 3.61719 27.8457 3.53516 27.7559 3.47461C27.666 3.41211 27.5498 3.38086 27.4072 3.38086C27.292 3.38086 27.1914 3.40625 27.1055 3.45703C27.0215 3.50586 26.9512 3.57617 26.8945 3.66797C26.8398 3.75781 26.7988 3.86523 26.7715 3.99023C26.7441 4.11523 26.7305 4.25391 26.7305 4.40625V4.52344C26.7305 4.65625 26.748 4.7793 26.7832 4.89258C26.8203 5.00586 26.874 5.10449 26.9443 5.18848C27.0166 5.27051 27.1025 5.33496 27.2021 5.38184C27.3037 5.42676 27.4189 5.44922 27.5479 5.44922C27.71 5.44922 27.8564 5.41797 27.9873 5.35547C28.1201 5.29102 28.2354 5.19629 28.333 5.07129L28.7227 5.47559C28.6562 5.57324 28.5664 5.66699 28.4531 5.75684C28.3418 5.84668 28.207 5.91992 28.0488 5.97656C27.8906 6.03125 27.708 6.05859 27.501 6.05859ZM26.959 2.3877L27.5332 1.49707H28.3887L27.5889 2.3877H26.959ZM30.6064 5.44922C30.7158 5.44922 30.8135 5.42773 30.8994 5.38477C30.9854 5.3418 31.0537 5.28125 31.1045 5.20312C31.1572 5.125 31.1855 5.03418 31.1895 4.93066H31.9189C31.915 5.14551 31.8545 5.33789 31.7373 5.50781C31.6201 5.67773 31.4639 5.8125 31.2686 5.91211C31.0752 6.00977 30.8584 6.05859 30.6182 6.05859C30.374 6.05859 30.1611 6.01758 29.9795 5.93555C29.7979 5.85352 29.6465 5.73926 29.5254 5.59277C29.4062 5.44629 29.3164 5.27637 29.2559 5.08301C29.1973 4.88965 29.168 4.68262 29.168 4.46191V4.36816C29.168 4.14746 29.1973 3.94043 29.2559 3.74707C29.3164 3.55371 29.4062 3.38379 29.5254 3.2373C29.6465 3.09082 29.7979 2.97656 29.9795 2.89453C30.1611 2.8125 30.373 2.77148 30.6152 2.77148C30.8711 2.77148 31.0957 2.82129 31.2891 2.9209C31.4844 3.02051 31.6367 3.16113 31.7461 3.34277C31.8574 3.52441 31.915 3.73828 31.9189 3.98438H31.1895C31.1855 3.87109 31.1602 3.76953 31.1133 3.67969C31.0664 3.58984 31 3.51758 30.9141 3.46289C30.8281 3.4082 30.7236 3.38086 30.6006 3.38086C30.4697 3.38086 30.3604 3.4082 30.2725 3.46289C30.1865 3.51758 30.1191 3.59277 30.0703 3.68848C30.0234 3.78223 29.9902 3.8877 29.9707 4.00488C29.9531 4.12012 29.9443 4.24121 29.9443 4.36816V4.46191C29.9443 4.59082 29.9531 4.71387 29.9707 4.83105C29.9902 4.94824 30.0234 5.05371 30.0703 5.14746C30.1191 5.23926 30.1865 5.3125 30.2725 5.36719C30.3604 5.42188 30.4717 5.44922 30.6064 5.44922ZM34.3213 5.24707V2.83008H35.1006V6H34.3682L34.3213 5.24707ZM34.4209 4.59082L34.6611 4.58496C34.6611 4.79785 34.6377 4.99414 34.5908 5.17383C34.5439 5.35352 34.4707 5.50977 34.3711 5.64258C34.2734 5.77344 34.1494 5.87598 33.999 5.9502C33.8486 6.02246 33.6709 6.05859 33.4658 6.05859C33.3096 6.05859 33.167 6.03711 33.0381 5.99414C32.9092 5.94922 32.7979 5.87988 32.7041 5.78613C32.6123 5.69043 32.541 5.56836 32.4902 5.41992C32.4395 5.26953 32.4141 5.08887 32.4141 4.87793V2.83008H33.1875V4.88379C33.1875 4.98926 33.1992 5.07715 33.2227 5.14746C33.248 5.21777 33.2822 5.27539 33.3252 5.32031C33.3701 5.36328 33.4219 5.39453 33.4805 5.41406C33.541 5.43164 33.6055 5.44043 33.6738 5.44043C33.8613 5.44043 34.0088 5.40332 34.1162 5.3291C34.2256 5.25293 34.3037 5.15137 34.3506 5.02441C34.3975 4.89551 34.4209 4.75098 34.4209 4.59082ZM36.5596 3.47754V6H35.7861V2.83008H36.5186L36.5596 3.47754ZM37.5234 2.80957L37.5117 3.53027C37.4688 3.52246 37.4199 3.5166 37.3652 3.5127C37.3125 3.50879 37.2627 3.50684 37.2158 3.50684C37.0967 3.50684 36.9922 3.52344 36.9023 3.55664C36.8125 3.58789 36.7373 3.63379 36.6768 3.69434C36.6182 3.75488 36.5732 3.8291 36.542 3.91699C36.5107 4.00293 36.4932 4.10059 36.4893 4.20996L36.3223 4.18945C36.3223 3.98828 36.3428 3.80176 36.3838 3.62988C36.4248 3.45801 36.4844 3.30762 36.5625 3.17871C36.6406 3.0498 36.7383 2.9502 36.8555 2.87988C36.9746 2.80762 37.1113 2.77148 37.2656 2.77148C37.3086 2.77148 37.3545 2.77539 37.4033 2.7832C37.4541 2.78906 37.4941 2.79785 37.5234 2.80957ZM38.7686 2.83008V6H37.9922V2.83008H38.7686ZM37.9395 2.00098C37.9395 1.88574 37.9785 1.79004 38.0566 1.71387C38.1367 1.6377 38.2441 1.59961 38.3789 1.59961C38.5137 1.59961 38.6201 1.6377 38.6982 1.71387C38.7783 1.79004 38.8184 1.88574 38.8184 2.00098C38.8184 2.11426 38.7783 2.20898 38.6982 2.28516C38.6201 2.36133 38.5137 2.39941 38.3789 2.39941C38.2441 2.39941 38.1367 2.36133 38.0566 2.28516C37.9785 2.20898 37.9395 2.11426 37.9395 2.00098ZM41.0068 2.83008V3.38672H39.1904V2.83008H41.0068ZM39.6768 2.05078H40.4531V5.08594C40.4531 5.17969 40.4658 5.25195 40.4912 5.30273C40.5166 5.35352 40.5547 5.3877 40.6055 5.40527C40.6562 5.42285 40.7168 5.43164 40.7871 5.43164C40.8379 5.43164 40.8848 5.42871 40.9277 5.42285C40.9707 5.41699 41.0068 5.41113 41.0361 5.40527L41.0391 5.98535C40.9746 6.00684 40.9014 6.02441 40.8193 6.03809C40.7393 6.05176 40.6484 6.05859 40.5469 6.05859C40.373 6.05859 40.2207 6.0293 40.0898 5.9707C39.959 5.91016 39.8574 5.81348 39.7852 5.68066C39.7129 5.5459 39.6768 5.36816 39.6768 5.14746V2.05078ZM42.9463 6.05859C42.7061 6.05859 42.4902 6.01953 42.2988 5.94141C42.1074 5.86328 41.9443 5.75488 41.8096 5.61621C41.6768 5.47559 41.5742 5.3125 41.502 5.12695C41.4316 4.93945 41.3965 4.73828 41.3965 4.52344V4.40625C41.3965 4.16211 41.4316 3.94043 41.502 3.74121C41.5723 3.54004 41.6719 3.36719 41.8008 3.22266C41.9297 3.07812 42.084 2.9668 42.2637 2.88867C42.4434 2.81055 42.6416 2.77148 42.8584 2.77148C43.083 2.77148 43.2812 2.80957 43.4531 2.88574C43.625 2.95996 43.7686 3.06543 43.8838 3.20215C43.999 3.33887 44.0859 3.50293 44.1445 3.69434C44.2031 3.88379 44.2324 4.09375 44.2324 4.32422V4.64941H41.748V4.11621H43.4707V4.05762C43.4668 3.93457 43.4434 3.82227 43.4004 3.7207C43.3574 3.61719 43.291 3.53516 43.2012 3.47461C43.1113 3.41211 42.9951 3.38086 42.8525 3.38086C42.7373 3.38086 42.6367 3.40625 42.5508 3.45703C42.4668 3.50586 42.3965 3.57617 42.3398 3.66797C42.2852 3.75781 42.2441 3.86523 42.2168 3.99023C42.1895 4.11523 42.1758 4.25391 42.1758 4.40625V4.52344C42.1758 4.65625 42.1934 4.7793 42.2285 4.89258C42.2656 5.00586 42.3193 5.10449 42.3896 5.18848C42.4619 5.27051 42.5479 5.33496 42.6475 5.38184C42.749 5.42676 42.8643 5.44922 42.9932 5.44922C43.1553 5.44922 43.3018 5.41797 43.4326 5.35547C43.5654 5.29102 43.6807 5.19629 43.7783 5.07129L44.168 5.47559C44.1016 5.57324 44.0117 5.66699 43.8984 5.75684C43.7871 5.84668 43.6523 5.91992 43.4941 5.97656C43.3359 6.03125 43.1533 6.05859 42.9463 6.05859ZM42.4043 2.3877L42.9785 1.49707H43.834L43.0342 2.3877H42.4043ZM47.6689 6.05859C47.4287 6.05859 47.2129 6.01953 47.0215 5.94141C46.8301 5.86328 46.667 5.75488 46.5322 5.61621C46.3994 5.47559 46.2969 5.3125 46.2246 5.12695C46.1543 4.93945 46.1191 4.73828 46.1191 4.52344V4.40625C46.1191 4.16211 46.1543 3.94043 46.2246 3.74121C46.2949 3.54004 46.3945 3.36719 46.5234 3.22266C46.6523 3.07812 46.8066 2.9668 46.9863 2.88867C47.166 2.81055 47.3643 2.77148 47.5811 2.77148C47.8057 2.77148 48.0039 2.80957 48.1758 2.88574C48.3477 2.95996 48.4912 3.06543 48.6064 3.20215C48.7217 3.33887 48.8086 3.50293 48.8672 3.69434C48.9258 3.88379 48.9551 4.09375 48.9551 4.32422V4.64941H46.4707V4.11621H48.1934V4.05762C48.1895 3.93457 48.166 3.82227 48.123 3.7207C48.0801 3.61719 48.0137 3.53516 47.9238 3.47461C47.834 3.41211 47.7178 3.38086 47.5752 3.38086C47.46 3.38086 47.3594 3.40625 47.2734 3.45703C47.1895 3.50586 47.1191 3.57617 47.0625 3.66797C47.0078 3.75781 46.9668 3.86523 46.9395 3.99023C46.9121 4.11523 46.8984 4.25391 46.8984 4.40625V4.52344C46.8984 4.65625 46.916 4.7793 46.9512 4.89258C46.9883 5.00586 47.042 5.10449 47.1123 5.18848C47.1846 5.27051 47.2705 5.33496 47.3701 5.38184C47.4717 5.42676 47.5869 5.44922 47.7158 5.44922C47.8779 5.44922 48.0244 5.41797 48.1553 5.35547C48.2881 5.29102 48.4033 5.19629 48.501 5.07129L48.8906 5.47559C48.8242 5.57324 48.7344 5.66699 48.6211 5.75684C48.5098 5.84668 48.375 5.91992 48.2168 5.97656C48.0586 6.03125 47.876 6.05859 47.6689 6.05859ZM50.9736 2.83008V3.38672H49.1572V2.83008H50.9736ZM49.6436 2.05078H50.4199V5.08594C50.4199 5.17969 50.4326 5.25195 50.458 5.30273C50.4834 5.35352 50.5215 5.3877 50.5723 5.40527C50.623 5.42285 50.6836 5.43164 50.7539 5.43164C50.8047 5.43164 50.8516 5.42871 50.8945 5.42285C50.9375 5.41699 50.9736 5.41113 51.0029 5.40527L51.0059 5.98535C50.9414 6.00684 50.8682 6.02441 50.7861 6.03809C50.7061 6.05176 50.6152 6.05859 50.5137 6.05859C50.3398 6.05859 50.1875 6.0293 50.0566 5.9707C49.9258 5.91016 49.8242 5.81348 49.752 5.68066C49.6797 5.5459 49.6436 5.36816 49.6436 5.14746V2.05078ZM52.9805 1.5H53.7568V5.2998L53.6807 6H52.9805V1.5ZM55.7959 4.38281V4.44434C55.7959 4.68066 55.7695 4.89746 55.7168 5.09473C55.666 5.29199 55.5889 5.46289 55.4854 5.60742C55.3818 5.75 55.2529 5.86133 55.0986 5.94141C54.9463 6.01953 54.7676 6.05859 54.5625 6.05859C54.3672 6.05859 54.1973 6.02051 54.0527 5.94434C53.9102 5.86816 53.79 5.76074 53.6924 5.62207C53.5947 5.48145 53.5166 5.31641 53.458 5.12695C53.3994 4.93555 53.3555 4.72656 53.3262 4.5V4.33301C53.3555 4.10449 53.3994 3.89551 53.458 3.70605C53.5166 3.5166 53.5947 3.35156 53.6924 3.21094C53.79 3.07031 53.9102 2.96191 54.0527 2.88574C54.1953 2.80957 54.3633 2.77148 54.5566 2.77148C54.7637 2.77148 54.9443 2.81152 55.0986 2.8916C55.2549 2.96973 55.3838 3.08105 55.4854 3.22559C55.5889 3.36816 55.666 3.53809 55.7168 3.73535C55.7695 3.93066 55.7959 4.14648 55.7959 4.38281ZM55.0195 4.44434V4.38281C55.0195 4.24805 55.0088 4.12109 54.9873 4.00195C54.9658 3.88086 54.9307 3.77441 54.8818 3.68262C54.833 3.59082 54.7666 3.51855 54.6826 3.46582C54.5986 3.41309 54.4932 3.38672 54.3662 3.38672C54.2451 3.38672 54.1416 3.40723 54.0557 3.44824C53.9717 3.48926 53.9014 3.5459 53.8447 3.61816C53.79 3.69043 53.7471 3.77539 53.7158 3.87305C53.6865 3.9707 53.667 4.07617 53.6572 4.18945V4.64648C53.6709 4.79688 53.7031 4.93262 53.7539 5.05371C53.8047 5.17285 53.8799 5.26758 53.9795 5.33789C54.0811 5.4082 54.2119 5.44336 54.3721 5.44336C54.4971 5.44336 54.6016 5.41895 54.6855 5.37012C54.7695 5.31934 54.8359 5.24902 54.8848 5.15918C54.9336 5.06738 54.9678 4.96094 54.9873 4.83984C55.0088 4.71875 55.0195 4.58691 55.0195 4.44434ZM57.1787 2.83008V6H56.4023V2.83008H57.1787ZM56.3496 2.00098C56.3496 1.88574 56.3887 1.79004 56.4668 1.71387C56.5469 1.6377 56.6543 1.59961 56.7891 1.59961C56.9238 1.59961 57.0303 1.6377 57.1084 1.71387C57.1885 1.79004 57.2285 1.88574 57.2285 2.00098C57.2285 2.11426 57.1885 2.20898 57.1084 2.28516C57.0303 2.36133 56.9238 2.39941 56.7891 2.39941C56.6543 2.39941 56.5469 2.36133 56.4668 2.28516C56.3887 2.20898 56.3496 2.11426 56.3496 2.00098ZM59.3408 6.05859C59.1006 6.05859 58.8848 6.01953 58.6934 5.94141C58.502 5.86328 58.3389 5.75488 58.2041 5.61621C58.0713 5.47559 57.9688 5.3125 57.8965 5.12695C57.8262 4.93945 57.791 4.73828 57.791 4.52344V4.40625C57.791 4.16211 57.8262 3.94043 57.8965 3.74121C57.9668 3.54004 58.0664 3.36719 58.1953 3.22266C58.3242 3.07812 58.4785 2.9668 58.6582 2.88867C58.8379 2.81055 59.0361 2.77148 59.2529 2.77148C59.4775 2.77148 59.6758 2.80957 59.8477 2.88574C60.0195 2.95996 60.1631 3.06543 60.2783 3.20215C60.3936 3.33887 60.4805 3.50293 60.5391 3.69434C60.5977 3.88379 60.627 4.09375 60.627 4.32422V4.64941H58.1426V4.11621H59.8652V4.05762C59.8613 3.93457 59.8379 3.82227 59.7949 3.7207C59.752 3.61719 59.6855 3.53516 59.5957 3.47461C59.5059 3.41211 59.3896 3.38086 59.2471 3.38086C59.1318 3.38086 59.0312 3.40625 58.9453 3.45703C58.8613 3.50586 58.791 3.57617 58.7344 3.66797C58.6797 3.75781 58.6387 3.86523 58.6113 3.99023C58.584 4.11523 58.5703 4.25391 58.5703 4.40625V4.52344C58.5703 4.65625 58.5879 4.7793 58.623 4.89258C58.6602 5.00586 58.7139 5.10449 58.7842 5.18848C58.8564 5.27051 58.9424 5.33496 59.042 5.38184C59.1436 5.42676 59.2588 5.44922 59.3877 5.44922C59.5498 5.44922 59.6963 5.41797 59.8271 5.35547C59.96 5.29102 60.0752 5.19629 60.1729 5.07129L60.5625 5.47559C60.4961 5.57324 60.4062 5.66699 60.293 5.75684C60.1816 5.84668 60.0469 5.91992 59.8887 5.97656C59.7305 6.03125 59.5479 6.05859 59.3408 6.05859ZM61.9043 3.50684V6H61.1309V2.83008H61.8574L61.9043 3.50684ZM61.7812 4.30078H61.5527C61.5547 4.07031 61.5859 3.86133 61.6465 3.67383C61.707 3.48633 61.792 3.3252 61.9014 3.19043C62.0127 3.05566 62.1445 2.95215 62.2969 2.87988C62.4492 2.80762 62.6191 2.77148 62.8066 2.77148C62.959 2.77148 63.0967 2.79297 63.2197 2.83594C63.3428 2.87891 63.4482 2.94727 63.5361 3.04102C63.626 3.13477 63.6943 3.25781 63.7412 3.41016C63.79 3.56055 63.8145 3.74609 63.8145 3.9668V6H63.0352V3.96094C63.0352 3.81641 63.0137 3.70215 62.9707 3.61816C62.9297 3.53418 62.8691 3.47461 62.7891 3.43945C62.7109 3.4043 62.6143 3.38672 62.499 3.38672C62.3799 3.38672 62.2754 3.41113 62.1855 3.45996C62.0977 3.50684 62.0234 3.57227 61.9629 3.65625C61.9043 3.74023 61.8594 3.83691 61.8281 3.94629C61.7969 4.05566 61.7812 4.17383 61.7812 4.30078ZM66.0381 3.86719V4.47949H64.4355V3.86719H66.0381ZM68.124 6.05859C67.8838 6.05859 67.668 6.01953 67.4766 5.94141C67.2852 5.86328 67.1221 5.75488 66.9873 5.61621C66.8545 5.47559 66.752 5.3125 66.6797 5.12695C66.6094 4.93945 66.5742 4.73828 66.5742 4.52344V4.40625C66.5742 4.16211 66.6094 3.94043 66.6797 3.74121C66.75 3.54004 66.8496 3.36719 66.9785 3.22266C67.1074 3.07812 67.2617 2.9668 67.4414 2.88867C67.6211 2.81055 67.8193 2.77148 68.0361 2.77148C68.2607 2.77148 68.459 2.80957 68.6309 2.88574C68.8027 2.95996 68.9463 3.06543 69.0615 3.20215C69.1768 3.33887 69.2637 3.50293 69.3223 3.69434C69.3809 3.88379 69.4102 4.09375 69.4102 4.32422V4.64941H66.9258V4.11621H68.6484V4.05762C68.6445 3.93457 68.6211 3.82227 68.5781 3.7207C68.5352 3.61719 68.4688 3.53516 68.3789 3.47461C68.2891 3.41211 68.1729 3.38086 68.0303 3.38086C67.915 3.38086 67.8145 3.40625 67.7285 3.45703C67.6445 3.50586 67.5742 3.57617 67.5176 3.66797C67.4629 3.75781 67.4219 3.86523 67.3945 3.99023C67.3672 4.11523 67.3535 4.25391 67.3535 4.40625V4.52344C67.3535 4.65625 67.3711 4.7793 67.4062 4.89258C67.4434 5.00586 67.4971 5.10449 67.5674 5.18848C67.6396 5.27051 67.7256 5.33496 67.8252 5.38184C67.9268 5.42676 68.042 5.44922 68.1709 5.44922C68.333 5.44922 68.4795 5.41797 68.6104 5.35547C68.7432 5.29102 68.8584 5.19629 68.9561 5.07129L69.3457 5.47559C69.2793 5.57324 69.1895 5.66699 69.0762 5.75684C68.9648 5.84668 68.8301 5.91992 68.6719 5.97656C68.5137 6.03125 68.3311 6.05859 68.124 6.05859ZM68.1855 1.49707L69.0352 2.30859V2.34375H68.4141L67.96 1.89844L67.5088 2.34375H66.8965V2.30273L67.7344 1.49707H68.1855ZM71.4287 2.83008V3.38672H69.6123V2.83008H71.4287ZM70.0986 2.05078H70.875V5.08594C70.875 5.17969 70.8877 5.25195 70.9131 5.30273C70.9385 5.35352 70.9766 5.3877 71.0273 5.40527C71.0781 5.42285 71.1387 5.43164 71.209 5.43164C71.2598 5.43164 71.3066 5.42871 71.3496 5.42285C71.3926 5.41699 71.4287 5.41113 71.458 5.40527L71.4609 5.98535C71.3965 6.00684 71.3232 6.02441 71.2412 6.03809C71.1611 6.05176 71.0703 6.05859 70.9688 6.05859C70.7949 6.05859 70.6426 6.0293 70.5117 5.9707C70.3809 5.91016 70.2793 5.81348 70.207 5.68066C70.1348 5.5459 70.0986 5.36816 70.0986 5.14746V2.05078ZM72.7178 3.47754V6H71.9443V2.83008H72.6768L72.7178 3.47754ZM73.6816 2.80957L73.6699 3.53027C73.627 3.52246 73.5781 3.5166 73.5234 3.5127C73.4707 3.50879 73.4209 3.50684 73.374 3.50684C73.2549 3.50684 73.1504 3.52344 73.0605 3.55664C72.9707 3.58789 72.8955 3.63379 72.835 3.69434C72.7764 3.75488 72.7314 3.8291 72.7002 3.91699C72.6689 4.00293 72.6514 4.10059 72.6475 4.20996L72.4805 4.18945C72.4805 3.98828 72.501 3.80176 72.542 3.62988C72.583 3.45801 72.6426 3.30762 72.7207 3.17871C72.7988 3.0498 72.8965 2.9502 73.0137 2.87988C73.1328 2.80762 73.2695 2.77148 73.4238 2.77148C73.4668 2.77148 73.5127 2.77539 73.5615 2.7832C73.6123 2.78906 73.6523 2.79785 73.6816 2.80957ZM75.4717 6.05859C75.2314 6.05859 75.0156 6.01953 74.8242 5.94141C74.6328 5.86328 74.4697 5.75488 74.335 5.61621C74.2021 5.47559 74.0996 5.3125 74.0273 5.12695C73.957 4.93945 73.9219 4.73828 73.9219 4.52344V4.40625C73.9219 4.16211 73.957 3.94043 74.0273 3.74121C74.0977 3.54004 74.1973 3.36719 74.3262 3.22266C74.4551 3.07812 74.6094 2.9668 74.7891 2.88867C74.9688 2.81055 75.167 2.77148 75.3838 2.77148C75.6084 2.77148 75.8066 2.80957 75.9785 2.88574C76.1504 2.95996 76.2939 3.06543 76.4092 3.20215C76.5244 3.33887 76.6113 3.50293 76.6699 3.69434C76.7285 3.88379 76.7578 4.09375 76.7578 4.32422V4.64941H74.2734V4.11621H75.9961V4.05762C75.9922 3.93457 75.9688 3.82227 75.9258 3.7207C75.8828 3.61719 75.8164 3.53516 75.7266 3.47461C75.6367 3.41211 75.5205 3.38086 75.3779 3.38086C75.2627 3.38086 75.1621 3.40625 75.0762 3.45703C74.9922 3.50586 74.9219 3.57617 74.8652 3.66797C74.8105 3.75781 74.7695 3.86523 74.7422 3.99023C74.7148 4.11523 74.7012 4.25391 74.7012 4.40625V4.52344C74.7012 4.65625 74.7188 4.7793 74.7539 4.89258C74.791 5.00586 74.8447 5.10449 74.915 5.18848C74.9873 5.27051 75.0732 5.33496 75.1729 5.38184C75.2744 5.42676 75.3896 5.44922 75.5186 5.44922C75.6807 5.44922 75.8271 5.41797 75.958 5.35547C76.0908 5.29102 76.2061 5.19629 76.3037 5.07129L76.6934 5.47559C76.627 5.57324 76.5371 5.66699 76.4238 5.75684C76.3125 5.84668 76.1777 5.91992 76.0195 5.97656C75.8613 6.03125 75.6787 6.05859 75.4717 6.05859ZM80.0713 5.44922C80.1807 5.44922 80.2783 5.42773 80.3643 5.38477C80.4502 5.3418 80.5186 5.28125 80.5693 5.20312C80.6221 5.125 80.6504 5.03418 80.6543 4.93066H81.3838C81.3799 5.14551 81.3193 5.33789 81.2021 5.50781C81.085 5.67773 80.9287 5.8125 80.7334 5.91211C80.54 6.00977 80.3232 6.05859 80.083 6.05859C79.8389 6.05859 79.626 6.01758 79.4443 5.93555C79.2627 5.85352 79.1113 5.73926 78.9902 5.59277C78.8711 5.44629 78.7812 5.27637 78.7207 5.08301C78.6621 4.88965 78.6328 4.68262 78.6328 4.46191V4.36816C78.6328 4.14746 78.6621 3.94043 78.7207 3.74707C78.7812 3.55371 78.8711 3.38379 78.9902 3.2373C79.1113 3.09082 79.2627 2.97656 79.4443 2.89453C79.626 2.8125 79.8379 2.77148 80.0801 2.77148C80.3359 2.77148 80.5605 2.82129 80.7539 2.9209C80.9492 3.02051 81.1016 3.16113 81.2109 3.34277C81.3223 3.52441 81.3799 3.73828 81.3838 3.98438H80.6543C80.6504 3.87109 80.625 3.76953 80.5781 3.67969C80.5312 3.58984 80.4648 3.51758 80.3789 3.46289C80.293 3.4082 80.1885 3.38086 80.0654 3.38086C79.9346 3.38086 79.8252 3.4082 79.7373 3.46289C79.6514 3.51758 79.584 3.59277 79.5352 3.68848C79.4883 3.78223 79.4551 3.8877 79.4355 4.00488C79.418 4.12012 79.4092 4.24121 79.4092 4.36816V4.46191C79.4092 4.59082 79.418 4.71387 79.4355 4.83105C79.4551 4.94824 79.4883 5.05371 79.5352 5.14746C79.584 5.23926 79.6514 5.3125 79.7373 5.36719C79.8252 5.42188 79.9365 5.44922 80.0713 5.44922ZM82.6582 1.5V6H81.8818V1.5H82.6582ZM82.5352 4.30078H82.3066C82.3066 4.08008 82.3359 3.87695 82.3945 3.69141C82.4531 3.50586 82.5361 3.34473 82.6436 3.20801C82.751 3.06934 82.8789 2.96191 83.0273 2.88574C83.1777 2.80957 83.3438 2.77148 83.5254 2.77148C83.6816 2.77148 83.8232 2.79395 83.9502 2.83887C84.0791 2.88184 84.1895 2.95117 84.2812 3.04688C84.373 3.14258 84.4434 3.26758 84.4922 3.42188C84.543 3.57422 84.5684 3.75977 84.5684 3.97852V6H83.7891V3.97266C83.7891 3.82617 83.7676 3.71094 83.7246 3.62695C83.6816 3.54102 83.6201 3.47949 83.54 3.44238C83.4619 3.40527 83.3652 3.38672 83.25 3.38672C83.125 3.38672 83.0176 3.41113 82.9277 3.45996C82.8379 3.50684 82.7637 3.57227 82.7051 3.65625C82.6484 3.74023 82.6055 3.83691 82.5762 3.94629C82.5488 4.05566 82.5352 4.17383 82.5352 4.30078ZM86.6748 6.05859C86.4346 6.05859 86.2188 6.01953 86.0273 5.94141C85.8359 5.86328 85.6729 5.75488 85.5381 5.61621C85.4053 5.47559 85.3027 5.3125 85.2305 5.12695C85.1602 4.93945 85.125 4.73828 85.125 4.52344V4.40625C85.125 4.16211 85.1602 3.94043 85.2305 3.74121C85.3008 3.54004 85.4004 3.36719 85.5293 3.22266C85.6582 3.07812 85.8125 2.9668 85.9922 2.88867C86.1719 2.81055 86.3701 2.77148 86.5869 2.77148C86.8115 2.77148 87.0098 2.80957 87.1816 2.88574C87.3535 2.95996 87.4971 3.06543 87.6123 3.20215C87.7275 3.33887 87.8145 3.50293 87.873 3.69434C87.9316 3.88379 87.9609 4.09375 87.9609 4.32422V4.64941H85.4766V4.11621H87.1992V4.05762C87.1953 3.93457 87.1719 3.82227 87.1289 3.7207C87.0859 3.61719 87.0195 3.53516 86.9297 3.47461C86.8398 3.41211 86.7236 3.38086 86.5811 3.38086C86.4658 3.38086 86.3652 3.40625 86.2793 3.45703C86.1953 3.50586 86.125 3.57617 86.0684 3.66797C86.0137 3.75781 85.9727 3.86523 85.9453 3.99023C85.918 4.11523 85.9043 4.25391 85.9043 4.40625V4.52344C85.9043 4.65625 85.9219 4.7793 85.957 4.89258C85.9941 5.00586 86.0479 5.10449 86.1182 5.18848C86.1904 5.27051 86.2764 5.33496 86.376 5.38184C86.4775 5.42676 86.5928 5.44922 86.7217 5.44922C86.8838 5.44922 87.0303 5.41797 87.1611 5.35547C87.2939 5.29102 87.4092 5.19629 87.5068 5.07129L87.8965 5.47559C87.8301 5.57324 87.7402 5.66699 87.627 5.75684C87.5156 5.84668 87.3809 5.91992 87.2227 5.97656C87.0645 6.03125 86.8818 6.05859 86.6748 6.05859ZM90.9639 5.39062V6H88.5791V5.39062H90.9639ZM90.9082 3.29297L88.8691 6H88.3594V5.52246L90.3867 2.83008H90.9082V3.29297ZM90.624 2.83008V3.44238H88.4004V2.83008H90.624ZM94.0605 5.41406L94.7988 2.83008H95.6074L94.5205 6H94.0283L94.0605 5.41406ZM93.5215 2.83008L94.2686 5.41992L94.2949 6H93.7998L92.71 2.83008H93.5215ZM95.8301 4.44727V4.38574C95.8301 4.15332 95.8633 3.93945 95.9297 3.74414C95.9961 3.54688 96.0928 3.37598 96.2197 3.23145C96.3467 3.08691 96.502 2.97461 96.6855 2.89453C96.8691 2.8125 97.0781 2.77148 97.3125 2.77148C97.5508 2.77148 97.7617 2.8125 97.9453 2.89453C98.1309 2.97461 98.2871 3.08691 98.4141 3.23145C98.541 3.37598 98.6377 3.54688 98.7041 3.74414C98.7705 3.93945 98.8037 4.15332 98.8037 4.38574V4.44727C98.8037 4.67773 98.7705 4.8916 98.7041 5.08887C98.6377 5.28418 98.541 5.45508 98.4141 5.60156C98.2871 5.74609 98.1318 5.8584 97.9482 5.93848C97.7646 6.01855 97.5547 6.05859 97.3184 6.05859C97.084 6.05859 96.874 6.01855 96.6885 5.93848C96.5029 5.8584 96.3467 5.74609 96.2197 5.60156C96.0928 5.45508 95.9961 5.28418 95.9297 5.08887C95.8633 4.8916 95.8301 4.67773 95.8301 4.44727ZM96.6035 4.38574V4.44727C96.6035 4.58594 96.6172 4.71582 96.6445 4.83691C96.6719 4.95801 96.7139 5.06445 96.7705 5.15625C96.8271 5.24805 96.9004 5.32031 96.9902 5.37305C97.082 5.42383 97.1914 5.44922 97.3184 5.44922C97.4434 5.44922 97.5508 5.42383 97.6406 5.37305C97.7305 5.32031 97.8037 5.24805 97.8604 5.15625C97.9189 5.06445 97.9619 4.95801 97.9893 4.83691C98.0166 4.71582 98.0303 4.58594 98.0303 4.44727V4.38574C98.0303 4.24902 98.0166 4.12109 97.9893 4.00195C97.9619 3.88086 97.9189 3.77441 97.8604 3.68262C97.8037 3.58887 97.7295 3.51562 97.6377 3.46289C97.5479 3.4082 97.4395 3.38086 97.3125 3.38086C97.1875 3.38086 97.0801 3.4082 96.9902 3.46289C96.9004 3.51562 96.8271 3.58887 96.7705 3.68262C96.7139 3.77441 96.6719 3.88086 96.6445 4.00195C96.6172 4.12109 96.6035 4.24902 96.6035 4.38574ZM101.253 5.24707V2.83008H102.032V6H101.3L101.253 5.24707ZM101.353 4.59082L101.593 4.58496C101.593 4.79785 101.569 4.99414 101.522 5.17383C101.476 5.35352 101.402 5.50977 101.303 5.64258C101.205 5.77344 101.081 5.87598 100.931 5.9502C100.78 6.02246 100.603 6.05859 100.397 6.05859C100.241 6.05859 100.099 6.03711 99.9697 5.99414C99.8408 5.94922 99.7295 5.87988 99.6357 5.78613C99.5439 5.69043 99.4727 5.56836 99.4219 5.41992C99.3711 5.26953 99.3457 5.08887 99.3457 4.87793V2.83008H100.119V4.88379C100.119 4.98926 100.131 5.07715 100.154 5.14746C100.18 5.21777 100.214 5.27539 100.257 5.32031C100.302 5.36328 100.354 5.39453 100.412 5.41406C100.473 5.43164 100.537 5.44043 100.605 5.44043C100.793 5.44043 100.94 5.40332 101.048 5.3291C101.157 5.25293 101.235 5.15137 101.282 5.02441C101.329 4.89551 101.353 4.75098 101.353 4.59082ZM104.461 5.13281C104.461 5.06641 104.443 5.00684 104.408 4.9541C104.373 4.90137 104.307 4.85352 104.209 4.81055C104.113 4.76562 103.973 4.72363 103.787 4.68457C103.623 4.64941 103.472 4.60547 103.333 4.55273C103.194 4.5 103.075 4.43652 102.976 4.3623C102.876 4.28613 102.798 4.19727 102.741 4.0957C102.687 3.99219 102.659 3.87305 102.659 3.73828C102.659 3.60742 102.688 3.48438 102.744 3.36914C102.801 3.25195 102.883 3.14941 102.99 3.06152C103.098 2.97168 103.229 2.90137 103.383 2.85059C103.537 2.79785 103.711 2.77148 103.904 2.77148C104.174 2.77148 104.405 2.81543 104.599 2.90332C104.794 2.99121 104.943 3.1123 105.047 3.2666C105.15 3.41895 105.202 3.59082 105.202 3.78223H104.429C104.429 3.69824 104.409 3.62207 104.37 3.55371C104.333 3.48535 104.275 3.43066 104.197 3.38965C104.119 3.34668 104.021 3.3252 103.901 3.3252C103.794 3.3252 103.703 3.34277 103.629 3.37793C103.557 3.41309 103.502 3.45898 103.465 3.51562C103.428 3.57227 103.409 3.63477 103.409 3.70312C103.409 3.75391 103.419 3.7998 103.438 3.84082C103.46 3.87988 103.494 3.91602 103.541 3.94922C103.588 3.98242 103.651 4.0127 103.731 4.04004C103.813 4.06738 103.914 4.09375 104.033 4.11914C104.27 4.16602 104.476 4.22852 104.651 4.30664C104.829 4.38281 104.968 4.48438 105.067 4.61133C105.167 4.73828 105.217 4.90039 105.217 5.09766C105.217 5.23828 105.187 5.36719 105.126 5.48438C105.065 5.59961 104.978 5.7002 104.862 5.78613C104.747 5.87207 104.609 5.93945 104.449 5.98828C104.289 6.03516 104.108 6.05859 103.907 6.05859C103.616 6.05859 103.37 6.00684 103.169 5.90332C102.968 5.79785 102.815 5.66504 102.712 5.50488C102.608 5.34277 102.557 5.1748 102.557 5.00098H103.298C103.304 5.12402 103.337 5.22266 103.397 5.29688C103.458 5.37109 103.534 5.4248 103.626 5.45801C103.72 5.48926 103.818 5.50488 103.922 5.50488C104.039 5.50488 104.138 5.48926 104.218 5.45801C104.298 5.4248 104.358 5.38086 104.399 5.32617C104.44 5.26953 104.461 5.20508 104.461 5.13281Z" fill="#E75D0E"/>
</svg>
