<svg width="87" height="12" viewBox="0 0 87 12" fill="none" xmlns="http://www.w3.org/2000/svg">
<path d="M2.49512 5.10742V11H0.847656V3.60352H2.39941L2.49512 5.10742ZM2.22852 7.02832L1.66797 7.02148C1.66797 6.51107 1.73177 6.03939 1.85938 5.60645C1.98698 5.1735 2.17383 4.79753 2.41992 4.47852C2.66602 4.15495 2.97135 3.90658 3.33594 3.7334C3.70508 3.55566 4.13118 3.4668 4.61426 3.4668C4.9515 3.4668 5.25911 3.51693 5.53711 3.61719C5.81966 3.71289 6.06348 3.86556 6.26855 4.0752C6.47819 4.28483 6.6377 4.55371 6.74707 4.88184C6.861 5.20996 6.91797 5.60645 6.91797 6.07129V11H5.27051V6.21484C5.27051 5.85482 5.21582 5.57227 5.10645 5.36719C5.00163 5.16211 4.84896 5.01628 4.64844 4.92969C4.45247 4.83854 4.21777 4.79297 3.94434 4.79297C3.63444 4.79297 3.37012 4.85221 3.15137 4.9707C2.93717 5.08919 2.76172 5.25098 2.625 5.45605C2.48828 5.66113 2.38802 5.89811 2.32422 6.16699C2.26042 6.43587 2.22852 6.72298 2.22852 7.02832ZM6.81543 6.59082L6.04297 6.76172C6.04297 6.3151 6.10449 5.89355 6.22754 5.49707C6.35514 5.09603 6.53971 4.74512 6.78125 4.44434C7.02734 4.139 7.3304 3.89974 7.69043 3.72656C8.05046 3.55339 8.46289 3.4668 8.92773 3.4668C9.30599 3.4668 9.64323 3.51921 9.93945 3.62402C10.2402 3.72428 10.4954 3.88379 10.7051 4.10254C10.9147 4.32129 11.0742 4.60612 11.1836 4.95703C11.293 5.30339 11.3477 5.72266 11.3477 6.21484V11H9.69336V6.20801C9.69336 5.83431 9.63867 5.54492 9.5293 5.33984C9.42448 5.13477 9.27409 4.99349 9.07812 4.91602C8.88216 4.83398 8.64746 4.79297 8.37402 4.79297C8.11882 4.79297 7.89323 4.84082 7.69727 4.93652C7.50586 5.02767 7.34408 5.15755 7.21191 5.32617C7.07975 5.49023 6.97949 5.67936 6.91113 5.89355C6.84733 6.10775 6.81543 6.34017 6.81543 6.59082ZM14.8066 3.60352V11H13.1523V3.60352H14.8066ZM13.043 1.66211C13.043 1.41146 13.125 1.2041 13.2891 1.04004C13.4577 0.871419 13.6901 0.787109 13.9863 0.787109C14.278 0.787109 14.5081 0.871419 14.6768 1.04004C14.8454 1.2041 14.9297 1.41146 14.9297 1.66211C14.9297 1.9082 14.8454 2.11328 14.6768 2.27734C14.5081 2.44141 14.278 2.52344 13.9863 2.52344C13.6901 2.52344 13.4577 2.44141 13.2891 2.27734C13.125 2.11328 13.043 1.9082 13.043 1.66211ZM18.7031 1.04688V11H16.6523V1.04688H18.7031ZM24.6641 1.04688L20.7197 5.96191L18.4434 8.40918L18.0742 6.46777L19.6123 4.3623L22.1484 1.04688H24.6641ZM22.333 11L19.4004 6.39941L20.918 5.12793L24.7598 11H22.333ZM29.4219 9.33203V6.03711C29.4219 5.80013 29.3831 5.59733 29.3057 5.42871C29.2282 5.25553 29.1074 5.12109 28.9434 5.02539C28.7839 4.92969 28.5765 4.88184 28.3213 4.88184C28.1025 4.88184 27.9134 4.92057 27.7539 4.99805C27.5944 5.07096 27.4714 5.17806 27.3848 5.31934C27.2982 5.45605 27.2549 5.61784 27.2549 5.80469H25.2861C25.2861 5.49023 25.359 5.19173 25.5049 4.90918C25.6507 4.62663 25.8626 4.37826 26.1406 4.16406C26.4186 3.94531 26.749 3.77441 27.1318 3.65137C27.5192 3.52832 27.9521 3.4668 28.4307 3.4668C29.0049 3.4668 29.5153 3.5625 29.9619 3.75391C30.4085 3.94531 30.7594 4.23242 31.0146 4.61523C31.2744 4.99805 31.4043 5.47656 31.4043 6.05078V9.21582C31.4043 9.62142 31.4294 9.9541 31.4795 10.2139C31.5296 10.4691 31.6025 10.6924 31.6982 10.8838V11H29.709C29.6133 10.7995 29.5404 10.5488 29.4902 10.248C29.4447 9.94271 29.4219 9.63737 29.4219 9.33203ZM29.6816 6.49512L29.6953 7.60938H28.5947C28.335 7.60938 28.1094 7.639 27.918 7.69824C27.7266 7.75749 27.5693 7.8418 27.4463 7.95117C27.3232 8.05599 27.2321 8.17904 27.1729 8.32031C27.1182 8.46159 27.0908 8.61654 27.0908 8.78516C27.0908 8.95378 27.1296 9.10645 27.207 9.24316C27.2845 9.37533 27.3962 9.48014 27.542 9.55762C27.6878 9.63053 27.8587 9.66699 28.0547 9.66699C28.3509 9.66699 28.6084 9.60775 28.8271 9.48926C29.0459 9.37077 29.2145 9.22493 29.333 9.05176C29.4561 8.87858 29.5199 8.71452 29.5244 8.55957L30.0439 9.39355C29.971 9.5804 29.8708 9.77409 29.7432 9.97461C29.6201 10.1751 29.4629 10.3643 29.2715 10.542C29.0801 10.7152 28.8499 10.8587 28.5811 10.9727C28.3122 11.082 27.9932 11.1367 27.624 11.1367C27.1546 11.1367 26.7285 11.0433 26.3457 10.8564C25.9674 10.665 25.6667 10.403 25.4434 10.0703C25.2246 9.73307 25.1152 9.35026 25.1152 8.92188C25.1152 8.53451 25.1882 8.19043 25.334 7.88965C25.4798 7.58887 25.694 7.33594 25.9766 7.13086C26.2637 6.92122 26.6214 6.764 27.0498 6.65918C27.4782 6.5498 27.9749 6.49512 28.54 6.49512H29.6816ZM38.8076 9.46191V11H33.1885V9.46191H38.8076ZM38.6982 4.73828L33.9814 11H32.6621V9.83105L37.3584 3.60352H38.6982V4.73828ZM38.001 3.60352V5.14844H32.7715V3.60352H38.001ZM44.0371 9.33203V6.03711C44.0371 5.80013 43.9984 5.59733 43.9209 5.42871C43.8434 5.25553 43.7227 5.12109 43.5586 5.02539C43.3991 4.92969 43.1917 4.88184 42.9365 4.88184C42.7178 4.88184 42.5286 4.92057 42.3691 4.99805C42.2096 5.07096 42.0866 5.17806 42 5.31934C41.9134 5.45605 41.8701 5.61784 41.8701 5.80469H39.9014C39.9014 5.49023 39.9743 5.19173 40.1201 4.90918C40.266 4.62663 40.4779 4.37826 40.7559 4.16406C41.0339 3.94531 41.3643 3.77441 41.7471 3.65137C42.1344 3.52832 42.5674 3.4668 43.0459 3.4668C43.6201 3.4668 44.1305 3.5625 44.5771 3.75391C45.0238 3.94531 45.3747 4.23242 45.6299 4.61523C45.8896 4.99805 46.0195 5.47656 46.0195 6.05078V9.21582C46.0195 9.62142 46.0446 9.9541 46.0947 10.2139C46.1449 10.4691 46.2178 10.6924 46.3135 10.8838V11H44.3242C44.2285 10.7995 44.1556 10.5488 44.1055 10.248C44.0599 9.94271 44.0371 9.63737 44.0371 9.33203ZM44.2969 6.49512L44.3105 7.60938H43.21C42.9502 7.60938 42.7246 7.639 42.5332 7.69824C42.3418 7.75749 42.1846 7.8418 42.0615 7.95117C41.9385 8.05599 41.8473 8.17904 41.7881 8.32031C41.7334 8.46159 41.7061 8.61654 41.7061 8.78516C41.7061 8.95378 41.7448 9.10645 41.8223 9.24316C41.8997 9.37533 42.0114 9.48014 42.1572 9.55762C42.3031 9.63053 42.474 9.66699 42.6699 9.66699C42.9661 9.66699 43.2236 9.60775 43.4424 9.48926C43.6611 9.37077 43.8298 9.22493 43.9482 9.05176C44.0713 8.87858 44.1351 8.71452 44.1396 8.55957L44.6592 9.39355C44.5863 9.5804 44.486 9.77409 44.3584 9.97461C44.2354 10.1751 44.0781 10.3643 43.8867 10.542C43.6953 10.7152 43.4652 10.8587 43.1963 10.9727C42.9274 11.082 42.6084 11.1367 42.2393 11.1367C41.7699 11.1367 41.3438 11.0433 40.9609 10.8564C40.5827 10.665 40.2819 10.403 40.0586 10.0703C39.8398 9.73307 39.7305 9.35026 39.7305 8.92188C39.7305 8.53451 39.8034 8.19043 39.9492 7.88965C40.0951 7.58887 40.3092 7.33594 40.5918 7.13086C40.8789 6.92122 41.2367 6.764 41.665 6.65918C42.0934 6.5498 42.5902 6.49512 43.1553 6.49512H44.2969ZM51.1807 6.02344V7.45215H47.4414V6.02344H51.1807ZM54.4141 5.01172V11H52.7666V3.60352H54.3389L54.4141 5.01172ZM56.6768 3.55566L56.6631 5.08691C56.5628 5.06868 56.4535 5.05501 56.335 5.0459C56.221 5.03678 56.1071 5.03223 55.9932 5.03223C55.7106 5.03223 55.4622 5.07324 55.248 5.15527C55.0339 5.23275 54.8538 5.34668 54.708 5.49707C54.5667 5.6429 54.4574 5.82064 54.3799 6.03027C54.3024 6.23991 54.2568 6.47461 54.2432 6.73438L53.8672 6.76172C53.8672 6.29688 53.9128 5.86621 54.0039 5.46973C54.0951 5.07324 54.2318 4.72461 54.4141 4.42383C54.6009 4.12305 54.8333 3.88835 55.1113 3.71973C55.3939 3.55111 55.7197 3.4668 56.0889 3.4668C56.1891 3.4668 56.2962 3.47591 56.4102 3.49414C56.5286 3.51237 56.6175 3.53288 56.6768 3.55566ZM60.833 11.1367C60.2861 11.1367 59.7917 11.0479 59.3496 10.8701C58.9121 10.6878 58.5384 10.4349 58.2285 10.1113C57.9232 9.78776 57.6885 9.40723 57.5244 8.96973C57.3604 8.53223 57.2783 8.06055 57.2783 7.55469V7.28125C57.2783 6.70247 57.3626 6.17839 57.5312 5.70898C57.6999 5.23958 57.9346 4.83854 58.2354 4.50586C58.5361 4.16862 58.8916 3.91113 59.3018 3.7334C59.7119 3.55566 60.1562 3.4668 60.6348 3.4668C61.1634 3.4668 61.626 3.55566 62.0225 3.7334C62.4189 3.91113 62.7471 4.16178 63.0068 4.48535C63.2712 4.80436 63.4671 5.1849 63.5947 5.62695C63.7269 6.06901 63.793 6.55664 63.793 7.08984V7.79395H58.0781V6.61133H62.166V6.48145C62.1569 6.18522 62.0977 5.90723 61.9883 5.64746C61.8835 5.3877 61.7217 5.17806 61.5029 5.01855C61.2842 4.85905 60.9925 4.7793 60.6279 4.7793C60.3545 4.7793 60.1107 4.83854 59.8965 4.95703C59.6868 5.07096 59.5114 5.2373 59.3701 5.45605C59.2288 5.6748 59.1195 5.93913 59.042 6.24902C58.9691 6.55436 58.9326 6.89844 58.9326 7.28125V7.55469C58.9326 7.87826 58.9759 8.17904 59.0625 8.45703C59.1536 8.73047 59.2858 8.96973 59.459 9.1748C59.6322 9.37988 59.8418 9.54167 60.0879 9.66016C60.334 9.77409 60.6143 9.83105 60.9287 9.83105C61.3252 9.83105 61.6784 9.7513 61.9883 9.5918C62.2982 9.43229 62.5671 9.20671 62.7949 8.91504L63.6631 9.75586C63.5036 9.98828 63.2962 10.2116 63.041 10.4258C62.7858 10.6354 62.4736 10.8063 62.1045 10.9385C61.7399 11.0706 61.3161 11.1367 60.833 11.1367ZM66.7119 5.18262V11H65.0645V3.60352H66.6162L66.7119 5.18262ZM66.418 7.02832L65.8848 7.02148C65.8893 6.4974 65.9622 6.0166 66.1035 5.5791C66.2493 5.1416 66.4499 4.76562 66.7051 4.45117C66.9648 4.13672 67.2747 3.89518 67.6348 3.72656C67.9948 3.55339 68.3958 3.4668 68.8379 3.4668C69.1934 3.4668 69.5146 3.51693 69.8018 3.61719C70.0934 3.71289 70.3418 3.87012 70.5469 4.08887C70.7565 4.30762 70.916 4.59245 71.0254 4.94336C71.1348 5.28971 71.1895 5.71582 71.1895 6.22168V11H69.5352V6.21484C69.5352 5.85938 69.4827 5.5791 69.3779 5.37402C69.2777 5.16439 69.1296 5.01628 68.9336 4.92969C68.7422 4.83854 68.5029 4.79297 68.2158 4.79297C67.9333 4.79297 67.6803 4.85221 67.457 4.9707C67.2337 5.08919 67.0446 5.25098 66.8896 5.45605C66.7393 5.66113 66.623 5.89811 66.541 6.16699C66.459 6.43587 66.418 6.72298 66.418 7.02832ZM72.5566 7.38379V7.22656C72.5566 6.69336 72.6341 6.19889 72.7891 5.74316C72.944 5.28288 73.1673 4.88411 73.459 4.54688C73.7552 4.20508 74.1152 3.94076 74.5391 3.75391C74.9674 3.5625 75.4505 3.4668 75.9883 3.4668C76.5306 3.4668 77.0137 3.5625 77.4375 3.75391C77.8659 3.94076 78.2282 4.20508 78.5244 4.54688C78.8206 4.88411 79.0462 5.28288 79.2012 5.74316C79.3561 6.19889 79.4336 6.69336 79.4336 7.22656V7.38379C79.4336 7.91699 79.3561 8.41146 79.2012 8.86719C79.0462 9.32292 78.8206 9.72168 78.5244 10.0635C78.2282 10.4007 77.8682 10.665 77.4443 10.8564C77.0205 11.0433 76.5397 11.1367 76.002 11.1367C75.4596 11.1367 74.9743 11.0433 74.5459 10.8564C74.1221 10.665 73.762 10.4007 73.4658 10.0635C73.1696 9.72168 72.944 9.32292 72.7891 8.86719C72.6341 8.41146 72.5566 7.91699 72.5566 7.38379ZM74.2041 7.22656V7.38379C74.2041 7.71647 74.2383 8.03092 74.3066 8.32715C74.375 8.62337 74.4821 8.88314 74.6279 9.10645C74.7738 9.32975 74.9606 9.50521 75.1885 9.63281C75.4163 9.76042 75.6875 9.82422 76.002 9.82422C76.3073 9.82422 76.5716 9.76042 76.7949 9.63281C77.0228 9.50521 77.2096 9.32975 77.3555 9.10645C77.5013 8.88314 77.6084 8.62337 77.6768 8.32715C77.7497 8.03092 77.7861 7.71647 77.7861 7.38379V7.22656C77.7861 6.89844 77.7497 6.58854 77.6768 6.29688C77.6084 6.00065 77.499 5.73861 77.3486 5.51074C77.2028 5.28288 77.016 5.10514 76.7881 4.97754C76.5648 4.84538 76.2982 4.7793 75.9883 4.7793C75.6784 4.7793 75.4095 4.84538 75.1816 4.97754C74.9583 5.10514 74.7738 5.28288 74.6279 5.51074C74.4821 5.73861 74.375 6.00065 74.3066 6.29688C74.2383 6.58854 74.2041 6.89844 74.2041 7.22656ZM83.1113 9.69434L84.9229 3.60352H86.6318L84.0615 11H82.9951L83.1113 9.69434ZM81.7236 3.60352L83.5693 9.72168L83.6582 11H82.5918L80.0078 3.60352H81.7236Z" fill="#E75D0E"/>
</svg>
