<svg width="21" height="21" viewBox="0 0 21 21" fill="none" xmlns="http://www.w3.org/2000/svg">
<path d="M3.72896 16.8986C4.72063 16.1852 5.77286 15.621 6.88567 15.206C7.99847 14.7909 9.20325 14.5833 10.5 14.5833C11.7968 14.5833 13.0015 14.7909 14.1143 15.206C15.2271 15.621 16.2794 16.1852 17.271 16.8986C18.0414 16.1014 18.661 15.1599 19.1298 14.0741C19.5988 12.9881 19.8333 11.7968 19.8333 10.5C19.8333 7.91389 18.9243 5.71181 17.1063 3.89375C15.2882 2.07569 13.0861 1.16667 10.5 1.16667C7.91389 1.16667 5.71181 2.07569 3.89375 3.89375C2.07569 5.71181 1.16667 7.91389 1.16667 10.5C1.16667 11.7968 1.40117 12.9881 1.87017 14.0741C2.33897 15.1599 2.95857 16.1014 3.72896 16.8986ZM10.5006 11.0833C9.51747 11.0833 8.68826 10.7459 8.01296 10.071C7.33765 9.39604 7 8.56703 7 7.58392C7 6.60081 7.33746 5.7716 8.01237 5.09629C8.68729 4.42099 9.51631 4.08333 10.4994 4.08333C11.4825 4.08333 12.3117 4.42079 12.987 5.09571C13.6623 5.77063 14 6.59964 14 7.58275C14 8.56586 13.6625 9.39507 12.9876 10.0704C12.3127 10.7457 11.4837 11.0833 10.5006 11.0833ZM10.5 21C9.03564 21 7.66481 20.7274 6.3875 20.1822C5.11019 19.6369 3.99885 18.8917 3.05346 17.9465C2.10826 17.0012 1.36306 15.8898 0.817833 14.6125C0.272611 13.3352 0 11.9644 0 10.5C0 9.03564 0.272611 7.66481 0.817833 6.3875C1.36306 5.11019 2.10826 3.99885 3.05346 3.05346C3.99885 2.10826 5.11019 1.36305 6.3875 0.817833C7.66481 0.27261 9.03564 0 10.5 0C11.9644 0 13.3352 0.27261 14.6125 0.817833C15.8898 1.36305 17.0012 2.10826 17.9465 3.05346C18.8917 3.99885 19.6369 5.11019 20.1822 6.3875C20.7274 7.66481 21 9.03564 21 10.5C21 11.9644 20.7274 13.3352 20.1822 14.6125C19.6369 15.8898 18.8917 17.0012 17.9465 17.9465C17.0012 18.8917 15.8898 19.6369 14.6125 20.1822C13.3352 20.7274 11.9644 21 10.5 21ZM10.5 19.8333C11.5755 19.8333 12.6337 19.6452 13.6748 19.269C14.7157 18.8929 15.6153 18.378 16.3736 17.7243C15.6153 17.1155 14.738 16.6342 13.7419 16.2805C12.7457 15.9268 11.6651 15.75 10.5 15.75C9.33489 15.75 8.25047 15.9232 7.24675 16.2695C6.24322 16.6158 5.36978 17.1007 4.62642 17.7243C5.38475 18.378 6.28435 18.8929 7.32521 19.269C8.36626 19.6452 9.42453 19.8333 10.5 19.8333ZM10.5 9.91667C11.1551 9.91667 11.7078 9.6916 12.1581 9.24146C12.6083 8.79112 12.8333 8.23842 12.8333 7.58333C12.8333 6.92825 12.6083 6.37554 12.1581 5.92521C11.7078 5.47507 11.1551 5.25 10.5 5.25C9.84492 5.25 9.29221 5.47507 8.84188 5.92521C8.39174 6.37554 8.16667 6.92825 8.16667 7.58333C8.16667 8.23842 8.39174 8.79112 8.84188 9.24146C9.29221 9.6916 9.84492 9.91667 10.5 9.91667Z" fill="#E75D0E"/>
</svg>
